<svg width="40" height="40" viewBox="0 0 40 40" fill="none" xmlns="http://www.w3.org/2000/svg">
<path d="M39.3894 22.6359C38.9038 21.4236 37.897 18.909 35.9161 13.7902C35.8786 13.6607 35.8214 13.5357 35.7473 13.4176C34.6059 11.3632 29.3339 9.25104 19.9998 9.25104C10.4597 9.25104 5.16315 11.4575 4.18297 13.5537C4.16439 13.591 4.14682 13.6286 4.13164 13.6667C4.13024 13.6705 4.12824 13.6741 4.12684 13.6777C2.11735 18.8732 1.09963 21.4146 0.610637 22.6359C0.0345568 24.0749 0 24.161 0 24.6254C0 26.7018 2.14372 28.2471 6.55401 29.3495C10.1639 30.252 14.9391 30.749 20 30.749C25.0609 30.749 29.8361 30.252 33.446 29.3495C37.8561 28.2471 40 26.7018 40 24.6254C40 24.161 39.9654 24.0749 39.3894 22.6359ZM31.7785 14.0442C29.779 14.9623 25.9875 16.1896 20 16.1896C14.0119 16.1896 10.221 14.9621 8.22172 14.0442C10.0103 13.242 13.6447 12.2473 20 12.2473C26.3553 12.2473 29.9899 13.242 31.7785 14.0442ZM32.0427 26.6033C28.7475 27.3446 24.4706 27.7529 20 27.7529C15.5294 27.7529 11.2525 27.3446 7.95725 26.6033C4.30082 25.7808 3.28469 24.8963 3.04599 24.6206C3.1207 24.4281 3.24015 24.1296 3.39216 23.7499C3.82762 22.6625 4.68075 20.5311 6.27356 16.4307C8.46462 17.5612 12.8545 19.186 20 19.186C27.1457 19.186 31.5354 17.561 33.7262 16.4307C35.319 20.5311 36.1724 22.6625 36.6078 23.7499C36.7601 24.1298 36.8793 24.4283 36.954 24.6206C36.7155 24.8963 35.6992 25.7808 32.0427 26.6033Z" fill="white"/>
</svg>
