<svg width="42" height="40" viewBox="0 0 42 40" fill="none" xmlns="http://www.w3.org/2000/svg">
<path d="M19.1921 4.02934H17.566C17.566 2.13575 19.1065 0.595215 21.0001 0.595215C22.8937 0.595215 24.4343 2.13575 24.4343 4.02934C24.4343 5.64287 23.3157 7.0001 21.8132 7.36626V11.4386H24.0475V13.0648H17.9526V11.4386H20.1869V5.83729H21C21.9969 5.83729 22.808 5.02619 22.808 4.02934C22.808 3.03249 21.9969 2.22139 21 2.22139C20.0032 2.22139 19.1921 3.0324 19.1921 4.02934ZM24.8477 19.9911H23.0269V21.6173H24.8477V19.9911ZM18.9732 19.9911H17.1523V21.6173H18.9732V19.9911ZM25.1382 27.6816V28.4217C25.1382 29.9503 23.8946 31.1938 22.3661 31.1938H21.8132V33.9337H20.187V31.1938H19.6339C18.1054 31.1938 16.8618 29.9503 16.8618 28.4217V27.6816C16.8618 26.153 18.1054 24.9095 19.6339 24.9095H22.3661C23.8946 24.9096 25.1382 26.153 25.1382 27.6816ZM23.512 27.6816C23.512 27.0497 22.998 26.5357 22.3661 26.5357H19.6339C19.0021 26.5357 18.488 27.0496 18.488 27.6816V28.4217C18.488 29.0536 19.002 29.5677 19.6339 29.5677H22.3661C22.9979 29.5677 23.512 29.0537 23.512 28.4217V27.6816ZM41 18.9471L34.0345 25.9126L31.6528 23.5308V39.405H10.3472V23.5308L7.96546 25.9125L1 18.9471L10.3905 8.31143H18.671V9.93761H15.2132L16.02 14.019C16.0751 14.298 16.1754 14.4509 16.221 14.4884H25.7791C25.8247 14.4509 25.925 14.298 25.9802 14.019L26.787 9.93761H23.3293V8.31143H31.6096L41 18.9471ZM34.0345 23.6128L38.7694 18.8777L30.876 9.93761H28.4446L27.5754 14.3343C27.3584 15.4324 26.6735 16.1146 25.788 16.1146H16.2122C15.3267 16.1146 14.6418 15.4324 14.4247 14.3343L13.5555 9.93761H11.124L3.23057 18.8777L7.96546 23.6128L10.1887 21.3896H11.9734V37.7787H30.0266V21.3896H31.8114L34.0345 23.6128Z" fill="white" stroke="white" stroke-width="0.5"/>
</svg>
