<svg width="46" height="43" viewBox="0 0 46 43" fill="none" xmlns="http://www.w3.org/2000/svg">
<path d="M43.9925 2.00813C42.6497 0.664258 40.4746 0.663571 39.131 2.00838L31.3713 9.78242C29.0402 8.03147 25.6788 8.18341 23.5153 10.3479L16.7724 17.0901C16.2821 16.9636 15.7774 16.899 15.2655 16.899C12.2315 16.899 9.71506 19.1564 9.30764 22.08C9.14643 22.0635 8.98384 22.0551 8.8203 22.0551C6.21412 22.0551 4.09382 24.1754 4.09382 26.7816C4.09382 26.9257 4.10078 27.069 4.11359 27.2113H1.8594C1.57985 27.2113 1.31784 27.3472 1.15679 27.5758C0.995834 27.8043 0.956045 28.0968 1.05023 28.36L5.69077 41.3364C5.81306 41.6782 6.13686 41.9064 6.49994 41.9064H12.6873C13.1619 41.9064 13.5467 41.5216 13.5467 41.047C13.5467 40.0993 14.3177 39.3283 15.2654 39.3283H19.1326C19.6071 39.3283 19.992 38.9436 19.992 38.4689C19.992 37.9943 19.6071 37.6096 19.1326 37.6096H15.2654C13.6667 37.6096 12.3193 38.7067 11.9368 40.1876H7.10528L3.07935 28.93H42.9198L38.8939 40.1876H34.0624C33.6799 38.7067 32.3325 37.6096 30.7338 37.6096H26.8668C26.3922 37.6096 26.0074 37.9943 26.0074 38.4689C26.0074 38.9436 26.3922 39.3283 26.8668 39.3283H30.7339C31.6816 39.3283 32.4526 40.0993 32.4526 41.047C32.4526 41.5216 32.8374 41.9064 33.312 41.9064H39.4993C39.8624 41.9064 40.1862 41.6782 40.3085 41.3364L44.949 28.36C45.0432 28.0968 45.0034 27.8043 44.8425 27.5758C44.6814 27.3472 44.4194 27.2113 44.1399 27.2113H41.8432C41.4331 24.3576 39.0131 22.146 36.0683 22.0597C37.8478 19.8959 37.8648 16.8158 36.2327 14.6432L43.9919 6.86893C45.3352 5.52669 45.3367 3.35122 43.9925 2.00813ZM40.1004 27.2113H5.84339C5.82328 27.0698 5.81246 26.9264 5.81246 26.7816C5.81246 25.1231 7.16174 23.7739 8.82021 23.7739C9.16593 23.7739 9.50435 23.8318 9.82584 23.946C10.3953 24.1483 10.9937 23.7135 10.9724 23.106C10.8822 20.5665 12.8951 18.6177 15.2654 18.6177C17.6614 18.6177 19.5622 20.5659 19.5622 22.9145C19.5622 23.3891 19.947 23.7739 20.4216 23.7739C20.8961 23.7739 21.2809 23.3891 21.2809 22.9145C21.2809 22.3507 21.2037 21.8003 21.0525 21.2692C21.3433 21.2045 21.645 21.1818 21.9533 21.2051C22.7541 21.269 23.4827 21.6429 24.0047 22.258C24.3208 22.6304 24.8835 22.6647 25.2426 22.3336C26.038 21.5998 27.0726 21.1957 28.1557 21.1957C30.0302 21.1957 31.627 22.4031 32.2113 24.0693C32.397 24.5987 33.0334 24.8114 33.5 24.4992C34.223 24.0158 35.0541 23.7737 35.8899 23.7737C37.9651 23.7739 39.7011 25.2524 40.1004 27.2113ZM42.7762 5.65388L34.4525 13.994C34.1175 14.3296 34.1177 14.8733 34.4531 15.2087C36.1322 16.8877 36.1326 19.6056 34.4529 21.2851L33.3225 22.4161C32.7217 21.4121 31.8375 20.6007 30.7898 20.0874L32.0222 18.855C32.3578 18.5194 32.3578 17.9752 32.0222 17.6396C31.6866 17.304 31.1426 17.304 30.8068 17.6396L28.9192 19.5272C28.6662 19.4952 28.411 19.477 28.1558 19.477C26.9158 19.477 25.7212 19.8555 24.7179 20.5552C24.4006 20.2923 24.0523 20.0744 23.681 19.9044L28.3767 15.2086C28.7123 14.873 28.7123 14.3289 28.3767 13.9933C28.0411 13.6577 27.4971 13.6577 27.1613 13.9933L21.6767 19.478C21.222 19.4813 20.769 19.5498 20.3359 19.681C19.8571 18.9336 19.2161 18.2984 18.4677 17.8251L24.7305 11.563C26.4096 9.88331 29.1272 9.88305 30.8066 11.563C31.1423 11.899 31.687 11.8987 32.0225 11.5626L40.3468 3.22283C41.0093 2.55984 42.097 2.54291 42.7768 3.22335C43.4439 3.8897 43.4538 4.97688 42.7762 5.65388Z" fill="white" stroke="white" stroke-width="0.5"/>
<path d="M23 39.3283C23.4746 39.3283 23.8594 38.9436 23.8594 38.4689C23.8594 37.9943 23.4746 37.6096 23 37.6096C22.5254 37.6096 22.1406 37.9943 22.1406 38.4689C22.1406 38.9436 22.5254 39.3283 23 39.3283Z" fill="white" stroke="white" stroke-width="0.5"/>
</svg>
