<svg width="40" height="40" viewBox="0 0 40 40" fill="none" xmlns="http://www.w3.org/2000/svg">
<path d="M25.8228 11.9112V0.00663757H23.479V11.9178C23.8616 11.8352 24.2581 11.7907 24.665 11.7907C25.0618 11.7907 25.449 11.8326 25.8228 11.9112Z" fill="white"/>
<path d="M19.0458 17.4099C19.0458 14.888 20.7159 12.7491 23.0081 12.0403H0.065918L0.351387 17.5206H19.0458V17.4099Z" fill="white"/>
<path d="M14.5462 28.8758C14.5462 25.3758 16.335 22.286 19.046 20.4716V19.8644H0.473633L1.5223 39.9933H20.5301C16.9271 37.6045 14.5462 33.5133 14.5462 28.8758Z" fill="white"/>
<path d="M24.6522 18.7697C25.8321 18.7697 26.965 18.9736 28.0186 19.3469V17.4099C28.0186 15.5608 26.5143 14.0563 24.6651 14.0563C22.816 14.0563 21.3115 15.5608 21.3115 17.4099V19.3379C22.3578 18.9704 23.4819 18.7697 24.6522 18.7697Z" fill="white"/>
<path d="M32.4929 30.0898V28.8758C32.4929 24.5526 28.9756 21.0354 24.6524 21.0354C20.3292 21.0354 16.812 24.5526 16.812 28.8758C16.812 34.977 21.7757 39.9407 27.8769 39.9407H40.0001V37.597C35.8606 37.597 32.4929 34.2292 32.4929 30.0898Z" fill="white"/>
</svg>
