<svg width="40" height="40" viewBox="0 0 40 40" fill="none" xmlns="http://www.w3.org/2000/svg">
<path d="M34.3558 29.7634C37.4422 29.8519 37.6191 25.178 37.6191 21.6494C37.6191 20.3582 37.6678 18.28 37.4865 15.9364C37.0752 15.8479 36.6905 15.6357 36.4031 15.3217L23.9866 1.89698C23.5709 1.45037 23.3852 0.848998 23.456 0.260892C21.4573 0.0707529 18.6848 0.0751747 16.7392 0.252049C16.8143 0.840154 16.6286 1.44595 16.213 1.89698L3.79201 15.3217C3.47806 15.6578 3.06241 15.8789 2.6158 15.954C2.43893 18.2932 2.48757 20.3626 2.48757 21.6494C2.48757 25.178 2.66444 29.8519 5.75089 29.7634C6.33015 29.7458 7.20126 30.0951 8.22712 30.6744C8.20501 30.1703 8.19617 29.6485 8.19617 29.1135C8.19617 26.4427 8.68257 24.1256 9.64211 22.233C10.469 20.6014 11.6408 19.2749 13.1309 18.2976C15.7089 16.5908 18.5477 16.4051 19.6487 16.4051C19.83 16.4051 20.2943 16.4051 20.4712 16.4051C21.5722 16.4051 24.411 16.5908 26.9978 18.2932C28.4836 19.2704 29.6598 20.597 30.4866 22.2286C31.4462 24.1212 31.9326 26.4382 31.9326 29.109C31.9326 29.6396 31.9237 30.157 31.9016 30.6567C32.9187 30.0907 33.7765 29.7458 34.3558 29.7634ZM12.4456 16.6483C11.3976 16.6483 10.553 15.7993 10.553 14.7557C10.553 13.7077 11.402 12.8632 12.4456 12.8632C13.4935 12.8632 14.3381 13.7121 14.3381 14.7557C14.3426 15.7993 13.4935 16.6483 12.4456 16.6483ZM17.7606 13.2523C17.345 14.0173 15.616 13.6016 14.8908 12.0672C14.1657 10.5328 11.7867 11.1652 11.7779 9.24608C11.7734 7.92395 12.7462 7.74708 12.7462 7.74708L15.3861 8.06103C16.6286 8.20695 17.6147 9.19744 17.7562 10.4488C17.8889 11.6029 17.9685 12.8676 17.7606 13.2523ZM25.2158 12.0716C24.4907 13.606 22.7617 14.0217 22.3461 13.2567C22.1383 12.8676 22.2179 11.6073 22.3505 10.4532C22.4965 9.19744 23.4781 8.21137 24.7206 8.06545L27.3605 7.7515C27.3605 7.7515 28.3333 7.92395 28.3289 9.2505C28.32 11.1696 25.941 10.5373 25.2158 12.0716ZM27.6744 16.6483C26.6264 16.6483 25.7818 15.7993 25.7818 14.7557C25.7818 13.7077 26.6308 12.8632 27.6744 12.8632C28.7223 12.8632 29.5669 13.7121 29.5669 14.7557C29.5669 15.7993 28.7223 16.6483 27.6744 16.6483Z" fill="white"/>
<path d="M21.939 22.3878C21.6471 21.8793 20.8689 21.5255 20.0509 21.5255C19.2328 21.5255 18.4546 21.8793 18.1628 22.3878C17.7736 23.0643 18.2468 24.0769 18.5652 24.6208C19.224 25.7528 19.7237 27.0396 20.0509 28.4501C20.3781 27.0396 20.8778 25.7528 21.5366 24.6208C21.8595 24.068 22.0496 23.5463 22.0806 23.1218C22.1026 22.8344 22.0584 22.5912 21.939 22.3878Z" fill="white"/>
<path d="M2.19094 14.4329C2.32359 14.4329 2.45625 14.3843 2.55795 14.2737C2.55795 14.2737 14.9347 0.893212 14.9789 0.848994C15.085 0.734026 15.116 0.583683 15.0939 0.437763C15.0541 0.207827 14.8728 0 14.6163 0H6.96211C3.02667 0 -0.0774678 3.35618 0.218796 7.27836C0.386826 9.50254 0.811323 11.939 1.73549 14.1278C1.81508 14.3224 2.0008 14.4329 2.19094 14.4329Z" fill="white"/>
<path d="M33.0379 0C33.0379 0 25.4014 0 25.3881 0C24.9724 0 24.7248 0.526199 25.0211 0.848994L37.442 14.2737C37.5437 14.3843 37.6764 14.4329 37.8091 14.4329C37.9992 14.4329 38.1849 14.3268 38.2645 14.1322C39.1887 11.9478 39.6132 9.50254 39.7812 7.28278C40.0775 3.35618 36.9733 0 33.0379 0Z" fill="white"/>
<path d="M23.1723 39.067C23.6455 39.6021 24.4459 40 25.3479 40C27.3244 40 29.7786 38.1031 30.2827 31.6604C30.3446 30.8822 30.3756 30.0288 30.3756 29.1135C30.3756 18.5939 22.3853 17.9571 20.4618 17.9571C20.2009 17.9571 19.9002 17.9571 19.6394 17.9571C17.7203 17.9571 9.72559 18.5938 9.72559 29.1135C9.72559 30.0376 9.76096 30.891 9.82287 31.6737C10.3314 38.103 12.7855 40 14.7576 40C15.6597 40 16.4601 39.6065 16.9332 39.0714C17.6274 38.2843 18.158 37.1567 18.4985 35.839C19.3121 32.6951 19.0336 28.4899 17.2295 25.4035C15.1512 21.8395 17.7512 19.9823 20.0505 19.9823C22.3543 19.9823 24.9544 21.8395 22.8717 25.4035C21.072 28.4899 20.789 32.6907 21.6026 35.839C21.9475 37.1479 22.4781 38.2799 23.1723 39.067ZM12.6705 29.4451C12.2549 29.4451 11.9232 29.109 11.9232 28.6978C11.9232 28.2866 12.2593 27.9505 12.6705 27.9505C13.0861 27.9505 13.4178 28.2866 13.4178 28.6978C13.4178 29.109 13.0818 29.4451 12.6705 29.4451ZM12.7589 26.4382C12.3433 26.4382 12.0117 26.1021 12.0117 25.6909C12.0117 25.2798 12.3477 24.9437 12.7589 24.9437C13.1746 24.9437 13.5062 25.2798 13.5062 25.6909C13.5062 26.1021 13.1702 26.4382 12.7589 26.4382ZM15.1467 28.0301C14.7311 28.0301 14.3995 27.694 14.3995 27.2828C14.3995 26.8716 14.7355 26.5355 15.1467 26.5355C15.5624 26.5355 15.894 26.8716 15.894 27.2828C15.894 27.694 15.558 28.0301 15.1467 28.0301ZM27.4394 29.4451C27.0238 29.4451 26.6922 29.109 26.6922 28.6978C26.6922 28.2866 27.0282 27.9505 27.4394 27.9505C27.8551 27.9505 28.1867 28.2866 28.1867 28.6978C28.1867 29.109 27.8507 29.4451 27.4394 29.4451ZM27.351 24.9437C27.7666 24.9437 28.0983 25.2798 28.0983 25.6909C28.0983 26.1021 27.7622 26.4382 27.351 26.4382C26.9354 26.4382 26.6037 26.1021 26.6037 25.6909C26.6037 25.2798 26.9354 24.9437 27.351 24.9437ZM24.9632 26.5355C25.3788 26.5355 25.7105 26.8716 25.7105 27.2828C25.7105 27.694 25.3744 28.0301 24.9632 28.0301C24.5476 28.0301 24.2159 27.694 24.2159 27.2828C24.2159 26.8716 24.5476 26.5355 24.9632 26.5355Z" fill="white"/>
</svg>
