<svg width="40" height="26" viewBox="0 0 40 26" fill="none" xmlns="http://www.w3.org/2000/svg">
<path d="M16.8354 25.6582C17.7442 25.6582 18.4809 24.9215 18.4809 24.0127V1.98735C18.4809 1.07853 17.7442 0.341827 16.8354 0.341827C15.9266 0.341827 15.1899 1.07853 15.1899 1.98735V3.44082L12.6583 4.6893V4.13927C12.6583 3.23045 11.9216 2.49375 11.0128 2.49375C10.104 2.49375 9.36727 3.23045 9.36727 4.13927V6.31233L6.70613 7.62465C6.67488 6.74331 5.95246 6.03799 5.06357 6.03799C4.15475 6.03799 3.41805 6.77469 3.41805 7.68351V11.3544H1.64552C0.7367 11.3545 0 12.0912 0 13C0 13.9088 0.7367 14.6455 1.64552 14.6455H3.41764V22.367H1.64552C0.7367 22.3671 0 23.1038 0 24.0127C0 24.9215 0.7367 25.6582 1.64552 25.6582H16.8354ZM6.70882 11.2928L9.367 9.98196V22.3671H6.70882V11.2928ZM12.6582 22.3671V8.35893L15.1898 7.11045V22.3671H12.6582Z" fill="white"/>
<path d="M38.3541 25.6582C39.2629 25.6582 39.9996 24.9215 39.9996 24.0127C39.9996 23.1038 39.2629 22.3671 38.3541 22.3671H36.582V14.6457H38.3541C39.2629 14.6457 39.9996 13.909 39.9996 13.0001C39.9996 12.0913 39.2629 11.3546 38.3541 11.3546H36.582V7.68378C36.582 6.77496 35.8453 6.03826 34.9364 6.03826C34.0475 6.03826 33.3251 6.74358 33.2939 7.62492L30.6327 6.3126V4.13927C30.6327 3.23045 29.896 2.49375 28.9872 2.49375C28.0784 2.49375 27.3417 3.23045 27.3417 4.13927V4.6893L24.8101 3.44082V1.98735C24.8101 1.07853 24.0734 0.341827 23.1646 0.341827C22.2557 0.341827 21.519 1.07853 21.519 1.98735V24.0127C21.519 24.9215 22.2557 25.6582 23.1646 25.6582H38.3541ZM24.8097 7.11045L27.3413 8.35893V22.3671H24.8097V7.11045ZM30.6325 22.3671V9.98196L33.2906 11.2928V22.3671H30.6325Z" fill="white"/>
</svg>
