<svg width="40" height="40" viewBox="0 0 40 40" fill="none" xmlns="http://www.w3.org/2000/svg">
<path d="M18.0471 11.875H6.32832C4.87223 11.875 3.64871 12.8709 3.30176 14.2188H21.0736C20.7267 12.8709 19.5032 11.875 18.0471 11.875Z" fill="white"/>
<path d="M15.7057 6.91406C14.9793 6.30352 14.5311 5.42672 14.5311 4.47781V2.34375C14.5311 1.0493 13.4818 0 12.1873 0C10.8929 0 9.84355 1.0493 9.84355 2.34375V4.47781C9.84355 5.42672 9.39535 6.30352 8.66894 6.91406C7.86277 7.59156 7.25527 8.49687 6.94629 9.53125H17.4284C17.1193 8.4968 16.5118 7.59156 15.7057 6.91406Z" fill="white"/>
<path d="M12.1875 25.8235L10.6444 28.9095C10.3711 29.4563 10.3986 30.0681 10.72 30.588C11.0413 31.108 11.5762 31.4062 12.1875 31.4062C12.7987 31.4062 13.3336 31.108 13.655 30.588C13.9763 30.068 14.0039 29.4563 13.7305 28.9095L12.1875 25.8235Z" fill="white"/>
<path d="M30.5469 31.7969C29.7201 31.7969 28.9844 32.6707 28.9844 33.3594C28.9844 34.1188 30.387 34.1406 30.5469 34.1406C30.7068 34.1406 32.1094 34.1188 32.1094 33.3594C32.1094 32.6707 31.3737 31.7969 30.5469 31.7969Z" fill="white"/>
<path d="M23.5156 23.0355V19.2969C23.5156 17.7867 22.2914 16.5625 20.7812 16.5625H3.59375C2.08359 16.5625 0.859375 17.7867 0.859375 19.2969V37.2656C0.859375 38.7758 2.08359 40 3.59375 40H20.7812C21.5783 40 22.2954 39.6588 22.7952 39.1148C20.8273 37.136 19.6094 34.4108 19.6094 31.4062C19.6094 28.0505 21.129 25.0434 23.5156 23.0355ZM15.6488 31.8202C14.9019 33.0286 13.608 33.75 12.1875 33.75C10.767 33.75 9.47312 33.0286 8.72625 31.8202C7.97945 30.6119 7.91289 29.132 8.5482 27.8614L11.1394 22.6791C11.3378 22.282 11.7436 22.0312 12.1875 22.0312C12.6314 22.0312 13.0372 22.282 13.2356 22.6791L15.8268 27.8614C16.4621 29.132 16.3955 30.6119 15.6488 31.8202Z" fill="white"/>
<path d="M30.5469 22.8125C25.8007 22.8125 21.9531 26.6601 21.9531 31.4062C21.9531 36.1524 25.8007 40 30.5469 40C35.293 40 39.1406 36.1524 39.1406 31.4062C39.1406 26.6601 35.293 22.8125 30.5469 22.8125ZM30.5469 25.5469C31.1941 25.5469 31.7188 26.0716 31.7188 26.7188C31.7188 27.3659 31.1941 27.8906 30.5469 27.8906C29.8997 27.8906 29.375 27.3659 29.375 26.7188C29.375 26.0716 29.8997 25.5469 30.5469 25.5469ZM26.0021 28.5212C25.6309 27.9911 25.7597 27.2604 26.2899 26.8891C26.8201 26.5179 27.5508 26.6467 27.922 27.177C28.2933 27.7071 28.1645 28.4378 27.6342 28.8091C27.104 29.1803 26.3733 29.0513 26.0021 28.5212ZM30.5469 36.4844C28.2105 36.4844 26.6406 35.2285 26.6406 33.3594C26.6406 31.5154 28.3112 29.4531 30.5469 29.4531C32.7826 29.4531 34.4531 31.5154 34.4531 33.3594C34.4531 35.2285 32.8833 36.4844 30.5469 36.4844ZM35.0916 28.5212C34.7204 29.0514 33.9897 29.1802 33.4595 28.8091C32.9294 28.4379 32.8005 27.7071 33.1717 27.177C33.543 26.6468 34.2737 26.5179 34.8038 26.8891C35.3341 27.2603 35.4629 27.991 35.0916 28.5212Z" fill="white"/>
</svg>
