<svg width="40" height="40" viewBox="0 0 40 40" fill="none" xmlns="http://www.w3.org/2000/svg">
<g clip-path="url(#clip0)">
<path d="M19.8312 2.79281C19.5638 2.50688 19.1707 2.37367 18.7843 2.43758C18.3979 2.50141 18.0689 2.75398 17.9075 3.11078L7.33336 26.0704C6.85961 25.9463 6.37148 25.8594 5.85938 25.8594C2.62867 25.8594 0 28.488 0 31.7188C0 34.9495 2.62867 37.5781 5.85938 37.5781C9.09008 37.5781 11.7188 34.9495 11.7188 31.7188C11.7188 30.7548 11.4624 29.858 11.0481 29.055L20.5965 8.0907C21.4995 6.28469 21.1311 4.18313 19.8312 2.79281ZM5.85938 35.2344C3.92078 35.2344 2.34375 33.6573 2.34375 31.7188C2.34375 29.7802 3.92078 28.2031 5.85938 28.2031C7.79797 28.2031 9.375 29.7802 9.375 31.7188C9.375 33.6573 7.79797 35.2344 5.85938 35.2344Z" fill="white"/>
<path d="M19.9219 25.8594C19.4098 25.8594 18.9216 25.9463 18.4479 26.0704L16.7054 22.2868L14.1783 27.8363L14.7332 29.0549C14.3188 29.8578 14.0625 30.7548 14.0625 31.7188C14.0625 34.9495 16.6912 37.5781 19.9219 37.5781C23.1526 37.5781 25.7812 34.9495 25.7812 31.7188C25.7812 28.4881 23.1526 25.8594 19.9219 25.8594ZM19.9219 35.2344C17.9833 35.2344 16.4062 33.6574 16.4062 31.7188C16.4062 29.7802 17.9833 28.2031 19.9219 28.2031C21.8605 28.2031 23.4375 29.7802 23.4375 31.7188C23.4375 33.6574 21.8605 35.2344 19.9219 35.2344Z" fill="white"/>
<path d="M36.4843 2.42188C35.4536 2.42188 35.0799 2.42188 34.9601 2.42188C34.9233 2.42188 34.9102 2.42188 34.9096 2.42188C34.6911 2.42188 33.6308 2.42188 29.2969 2.42188C28.6491 2.42188 28.125 2.94602 28.125 3.59375C28.125 4.24148 28.6491 4.76562 29.2969 4.76562H32.9687V7.10938H29.2969C28.6491 7.10938 28.125 7.63352 28.125 8.28125C28.125 8.92898 28.6491 9.45312 29.2969 9.45312H32.9687V11.7969H29.2969C28.6491 11.7969 28.125 12.321 28.125 12.9688C28.125 13.6165 28.6491 14.1406 29.2969 14.1406H32.9687V16.4844H29.2969C28.6491 16.4844 28.125 17.0085 28.125 17.6562C28.125 18.304 28.6491 18.8281 29.2969 18.8281H32.9687V21.1719H29.2969C28.6491 21.1719 28.125 21.696 28.125 22.3438C28.125 22.9915 28.6491 23.5156 29.2969 23.5156H32.9687V25.8594H29.2969C28.6491 25.8594 28.125 26.3835 28.125 27.0312C28.125 27.679 28.6491 28.2031 29.2969 28.2031H32.9687V30.5469H29.2969C28.6491 30.5469 28.125 31.071 28.125 31.7188C28.125 32.3665 28.6491 32.8906 29.2969 32.8906H32.9687V35.2344H29.2969C28.6491 35.2344 28.125 35.7585 28.125 36.4062C28.125 37.054 28.6491 37.5781 29.2969 37.5781C33.624 37.5781 34.6887 37.5781 34.9095 37.5781C34.9483 37.5781 34.961 37.5781 34.9608 37.5781C35.0817 37.5781 35.4564 37.5781 36.4843 37.5781C38.4229 37.5781 39.9999 36.0011 39.9999 34.0625V5.9375C39.9999 3.99891 38.4229 2.42188 36.4843 2.42188Z" fill="white"/>
<path d="M7.87391 3.11079C7.7125 2.75407 7.38352 2.50141 6.99711 2.43766C6.6107 2.37375 6.21766 2.50688 5.95023 2.79289C4.65031 4.18321 4.28195 6.28477 5.18492 8.09078L9.0875 16.6593L11.6006 11.2027L7.87391 3.11079Z" fill="white"/>
</g>
<defs>
<clipPath id="clip0">
<rect width="40" height="40" fill="white"/>
</clipPath>
</defs>
</svg>
