<svg width="40" height="40" viewBox="0 0 40 40" fill="none" xmlns="http://www.w3.org/2000/svg">
<g clip-path="url(#clip0)">
<path d="M39.1362 18.6846V18.6799L22.0866 1.63023C20.9332 0.482673 19.0692 0.482673 17.9158 1.63023L0.866172 18.6799C-0.286857 19.8303 -0.288999 21.6976 0.861411 22.8506C2.01182 24.0037 3.87914 24.0058 5.03217 22.8554L20.0012 7.8816L34.9655 22.8554C36.1172 24.0071 37.9845 24.0071 39.1362 22.8554C40.2879 21.7037 40.2879 19.8363 39.1362 18.6846Z" fill="white"/>
<path d="M19.9916 9.78604L6.19385 23.5933V37.3197C6.24527 38.4169 7.17214 39.2672 8.2697 39.2242H13.9259C14.1889 39.2242 14.402 39.011 14.402 38.748V29.4781C14.4024 26.3859 16.9095 23.8794 20.0019 23.8797C23.0936 23.8801 25.5999 26.3863 25.6002 29.4781V38.7528C25.6002 39.0157 25.8134 39.2289 26.0764 39.2289H31.7231C32.8206 39.272 33.7475 38.4217 33.7989 37.3245V23.5933L19.9916 9.78604Z" fill="white"/>
</g>
<defs>
<clipPath id="clip0">
<rect width="40" height="40" fill="white"/>
</clipPath>
</defs>
</svg>
