<svg width="33" height="39" viewBox="0 0 33 39" fill="none" xmlns="http://www.w3.org/2000/svg">
<path d="M27.3327 5.47201V1.66667C27.3327 1.2985 27.0345 1 26.666 1H5.33268C4.96452 1 4.66602 1.2985 4.66602 1.66667V5.49675L0.747396 12.6807C0.69401 12.7786 0.666016 12.8883 0.666016 13L0.747396 36.5H1.99935V13.1699L5.72884 6.33333H25.543L22.0807 12.6807C22.0273 12.7786 21.9994 12.8883 21.9994 13V37H0.666016V38.3333H28.666C30.5062 38.3311 31.9974 36.8402 31.9994 35V13C31.999 12.8734 31.9632 12.7493 31.8955 12.6419L27.3327 5.47201ZM5.99935 5V2.33333H25.9994V5H5.99935ZM30.666 35C30.666 36.1045 29.7708 37 28.666 37H23.3327V13.1699L26.7103 6.97786L30.666 13.194V35Z" fill="white" stroke="white" stroke-width="0.5"/>
<path d="M28.666 30.3334H25.3327C24.9645 30.3334 24.666 30.6319 24.666 31V33.6667C24.666 34.0349 24.9645 34.3334 25.3327 34.3334H28.666C29.0345 34.3334 29.3327 34.0349 29.3327 33.6667V31C29.3327 30.6319 29.0345 30.3334 28.666 30.3334ZM27.9993 33H25.9993V31.6667H27.9993V33Z" fill="white" stroke="white" stroke-width="0.5"/>
<path d="M24.666 27.6667H27.9993V29H24.666V27.6667Z" fill="white" stroke="white" stroke-width="0.5"/>
<path d="M24.666 25H29.3327V26.3333H24.666V25Z" fill="white" stroke="white" stroke-width="0.5"/>
<path d="M24.666 22.3334H29.3327V23.6667H24.666V22.3334Z" fill="white" stroke="white" stroke-width="0.5"/>
<path d="M24.666 19.6667H26.666V21H24.666V19.6667Z" fill="white" stroke="white" stroke-width="0.5"/>
<path d="M27.9995 19.6667H29.3328V21H27.9995V19.6667Z" fill="white" stroke="white" stroke-width="0.5"/>
<path d="M24.666 13H29.3327V14.3333H24.666V13Z" fill="white" stroke="white" stroke-width="0.5"/>
<path d="M24.666 15.6667H29.3327V17H24.666V15.6667Z" fill="white" stroke="white" stroke-width="0.5"/>
</svg>
