<svg width="40" height="40" viewBox="0 0 40 40" fill="none" xmlns="http://www.w3.org/2000/svg">
<path d="M39.437 28.4518L34.4001 25.4397C34.9437 24.5379 35.2344 23.5034 35.2344 22.4219C35.2344 19.2137 32.6404 16.6052 29.4406 16.5691C27.4873 16.541 25.8594 18.0855 25.8594 20.0781C25.8594 21.2557 26.4453 22.3487 27.4249 23.0032C27.9639 23.3626 28.1093 24.0904 27.7499 24.6283C27.3869 25.1712 26.659 25.3094 26.1248 24.9533C24.4906 23.8627 23.5156 22.0408 23.5156 20.0781C23.5156 19.6777 23.5555 19.2841 23.6328 18.9014L21.1719 17.4066V10.517C22.1542 11.2605 23.3634 11.7188 24.6875 11.7188C27.9182 11.7188 30.5469 9.09008 30.5469 5.85938C30.5469 2.62867 27.9182 0 24.6875 0C22.7641 0 21.0689 0.944141 20 2.37992C18.9311 0.944141 17.2359 0 15.3125 0C12.0818 0 9.45312 2.62867 9.45312 5.85938C9.45312 9.09008 12.0818 11.7188 15.3125 11.7188C16.6366 11.7188 17.8458 11.2605 18.8281 10.517V15.9831L18.4367 15.7454C11.3068 11.415 1.54414 16.9295 2.39297 25.7979C2.66961 28.6966 4.2343 31.2374 6.48164 32.9688H3.50875C1.57469 32.9734 0 34.5458 0 36.4809C0 38.4219 1.57812 40 3.51906 40H20C20.6477 40 21.1719 39.4759 21.1719 38.8281C21.1719 38.1804 20.6477 37.6562 20 37.6562H3.51906C2.87133 37.6562 2.34375 37.1287 2.34375 36.4809C2.34375 35.8355 2.86906 35.3079 3.51562 35.3068L34.0625 35.3125C37.2932 35.3125 40 32.6838 40 29.4531C40 29.0434 39.786 28.6635 39.437 28.4518ZM24.6875 2.34375C26.6261 2.34375 28.2031 3.92078 28.2031 5.85938C28.2031 7.79797 26.6261 9.375 24.6875 9.375C22.7489 9.375 21.1719 7.79797 21.1719 5.85938C21.1719 3.92078 22.7489 2.34375 24.6875 2.34375ZM15.3125 9.375C13.3739 9.375 11.7969 7.79797 11.7969 5.85938C11.7969 3.92078 13.3739 2.34375 15.3125 2.34375C17.2511 2.34375 18.8281 3.92078 18.8281 5.85938C18.8281 7.79797 17.2511 9.375 15.3125 9.375ZM31.7188 30.625C31.0716 30.625 30.5469 30.1003 30.5469 29.4531C30.5469 28.8059 31.0716 28.2812 31.7188 28.2812C32.3659 28.2812 32.8906 28.8059 32.8906 29.4531C32.8906 30.1003 32.3659 30.625 31.7188 30.625Z" fill="white"/>
</svg>
