<svg width="42" height="36" viewBox="0 0 42 36" fill="none" xmlns="http://www.w3.org/2000/svg">
<path d="M31.5807 15.7878C31.5807 14.7499 32.4252 13.9052 33.4634 13.9052C34.5013 13.9052 35.3457 14.7496 35.3457 15.7878C35.3457 16.8257 34.5013 17.6701 33.4634 17.6701C32.4255 17.6701 31.5807 16.8257 31.5807 15.7878ZM34.1738 15.7878C34.1738 15.3959 33.8549 15.077 33.4634 15.077C33.0715 15.077 32.7526 15.3959 32.7526 15.7878C32.7526 16.1796 33.0715 16.4982 33.4634 16.4982C33.8552 16.4982 34.1738 16.1796 34.1738 15.7878Z" fill="white"/>
<path d="M27.7956 17.6701C26.7577 17.6701 25.913 16.8257 25.913 15.7878C25.913 14.7499 26.7577 13.9052 27.7956 13.9052C28.8338 13.9052 29.6782 14.7499 29.6782 15.7878C29.6782 16.8257 28.8338 17.6701 27.7956 17.6701ZM27.7956 15.077C27.4037 15.077 27.0851 15.3959 27.0851 15.7878C27.0851 16.1796 27.4037 16.4982 27.7956 16.4982C28.1874 16.4982 28.506 16.1796 28.506 15.7878C28.506 15.3959 28.1874 15.077 27.7956 15.077Z" fill="white"/>
<path d="M31.5312 21.6542C31.5312 22.6924 30.6868 23.5368 29.6486 23.5368C28.6107 23.5368 27.7663 22.6924 27.7663 21.6542C27.7663 20.6163 28.6107 19.7718 29.6486 19.7718C30.6868 19.7718 31.5312 20.6163 31.5312 21.6542ZM29.6486 20.9437C29.2568 20.9437 28.9382 21.2623 28.9382 21.6542C28.9382 22.0457 29.2571 22.3646 29.6486 22.3646C30.0405 22.3646 30.3594 22.046 30.3594 21.6542C30.3594 21.2623 30.0405 20.9437 29.6486 20.9437Z" fill="white"/>
<path d="M22.0983 21.6542C22.0983 20.6163 22.9431 19.7718 23.981 19.7718C25.0189 19.7718 25.8633 20.6163 25.8633 21.6542C25.8633 22.6921 25.0189 23.5368 23.981 23.5368C22.9427 23.5368 22.0983 22.6921 22.0983 21.6542ZM24.6914 21.6542C24.6914 21.2623 24.3728 20.9437 23.981 20.9437C23.5891 20.9437 23.2705 21.2623 23.2705 21.6542C23.2705 22.046 23.5891 22.3649 23.981 22.3649C24.3725 22.3649 24.6914 22.046 24.6914 21.6542Z" fill="white"/>
<path d="M40.2533 21.6993C40.1316 22.6615 39.4922 23.4727 38.5853 23.816L35.7566 24.8863C35.4539 25.0007 35.1157 24.8481 35.001 24.5457C34.8865 24.243 35.0391 23.9048 35.3419 23.7901L38.1702 22.7198C38.6707 22.5306 39.0235 22.0832 39.0906 21.5522L39.8169 15.8125C39.9103 15.0752 39.4016 14.3837 38.6591 14.2384C36.0776 13.7333 34.4959 12.1101 33.6234 10.8372C33.1333 10.1222 32.3246 9.69527 31.4607 9.69527H24.6232C24.4422 9.69527 24.2964 9.86953 24.3403 10.0484C24.4422 10.4671 24.5054 10.8922 24.5414 11.3215C24.68 13.2136 24.1941 15.9965 21.287 18.9036C18.7706 21.4201 18.0449 25.0614 18.4758 28.4986C18.5277 28.9127 18.5338 29.4611 18.9448 29.697C19.1432 29.8109 19.3797 29.8298 19.5936 29.7489L33.1425 24.6223C33.4452 24.5078 33.7833 24.6604 33.8978 24.9629C34.0122 25.2656 33.8599 25.6037 33.5572 25.7182C33.5572 25.7182 20.0087 30.8448 20.0084 30.8448C19.3376 31.0987 18.5505 30.951 18.0156 30.4609C16.0887 31.3071 14.1939 31.8 12.7635 32.0823C12.7635 32.0823 12.8572 32.447 12.8572 32.4473C13.1435 33.5605 12.4489 34.7321 11.338 35.0175C10.2232 35.3043 9.05411 34.6134 8.76786 33.4983L4.61504 17.3399C3.97234 17.1629 3.45446 16.6548 3.28234 15.984C3.28234 15.984 1.93927 10.7588 1.93896 10.7564C1.77142 10.1048 1.97284 9.3962 2.45287 8.92684C2.45287 8.92684 1.06555 3.528 1.06494 3.52586C0.778076 2.41014 1.47082 1.24163 2.5841 0.955677C3.62566 0.688039 4.72978 1.27153 5.09447 2.28288C6.7949 1.78362 8.38456 1.69267 9.93607 2.00578C10.2531 2.06987 10.4585 2.37901 10.3944 2.69639C10.3304 3.01347 10.0215 3.21885 9.70413 3.15477C8.33573 2.87828 6.92155 2.96312 5.39598 3.41447L5.86351 5.23392C7.49375 4.73832 8.93326 4.75754 10.3505 5.28641C11.7686 5.81559 12.9967 6.77963 14.4188 7.89596C16.7448 9.72213 19.3684 11.7811 23.3885 11.9584C23.3912 11.7052 23.3796 11.4665 23.358 11.2437C23.3198 10.8501 23.1889 10.4686 23.163 10.074C23.1626 10.0709 23.162 10.0679 23.162 10.0651C19.9177 9.82467 17.7144 8.09494 15.5787 6.4183C14.3907 5.486 13.1624 4.52164 11.765 3.85514C11.4729 3.71568 11.349 3.36595 11.4882 3.0739C11.6276 2.78184 11.9774 2.65794 12.2694 2.79741C13.784 3.51976 15.0642 4.5247 16.3023 5.49637C18.4742 7.20138 20.5296 8.81393 23.6253 8.91586C23.8945 8.66409 24.2475 8.52279 24.6232 8.52279H31.4607C32.7113 8.52279 33.8813 9.14016 34.5899 10.1744C35.3388 11.2666 36.6917 12.6591 38.884 13.0879C40.2298 13.3516 41.1503 14.6129 40.9797 15.9596L40.2533 21.6993ZM11.7097 27.9816C13.0745 27.7253 15.2022 27.1989 17.1876 26.1814C17.2224 24.8441 17.4376 23.3607 17.9942 21.8928C16.4583 21.3935 14.8424 21.06 13.2222 21.06C12.0552 21.06 10.9975 21.2409 10.0691 21.5977L11.7097 27.9816ZM9.77554 20.4554C10.8067 20.0785 11.9627 19.8881 13.2222 19.8881C14.1948 19.8881 15.237 20.0038 16.3197 20.2317C17.0317 20.3816 17.7525 20.5772 18.4694 20.8149C18.7513 20.2583 19.0901 19.7096 19.4941 19.1786C17.9997 18.65 15.6709 18.0061 13.2008 18.0061C11.7946 18.0061 10.4863 18.2136 9.30466 18.6235L9.77554 20.4554ZM17.4327 29.437C17.4272 29.4114 17.4226 29.3858 17.418 29.3598C17.3933 29.2136 17.2352 27.9835 17.2072 27.4775C15.2894 28.3772 13.3241 28.866 12.0021 29.119L12.4715 30.9455C13.8176 30.6834 15.6087 30.225 17.4327 29.437ZM9.9028 33.2065C10.0298 33.7006 10.5531 34.0095 11.0466 33.8825C11.5422 33.7549 11.8501 33.2349 11.7223 32.739L7.6323 16.8242L5.81285 17.2917C5.81285 17.2917 9.90067 33.1977 9.9028 33.2065ZM3.07391 10.4649C3.07391 10.4649 4.41637 15.6877 4.41759 15.6926C4.51555 16.0743 4.91808 16.3118 5.29924 16.2138C5.29924 16.2138 7.56028 15.6328 7.56211 15.6321C7.93961 15.5354 8.18192 15.1332 8.08366 14.7502C8.08366 14.7502 6.7418 9.52895 6.74028 9.52285C6.64262 9.14352 6.24223 8.90609 5.8629 9.00039C5.86137 9.00069 5.85984 9.001 5.85832 9.0013C5.85832 9.0013 3.59758 9.58236 3.59514 9.58297C3.21337 9.68123 2.97594 10.0835 3.07391 10.4649ZM3.11114 2.06316C2.50964 2.05339 2.05157 2.65672 2.20019 3.23442L3.52526 8.39095L5.34471 7.92343C5.34471 7.92343 4.02056 2.77086 4.01964 2.76689C3.91405 2.35643 3.52282 2.07018 3.11114 2.06316ZM13.6952 8.8182C11.0893 6.77261 9.32358 5.38926 6.15617 6.37192L6.54252 7.87521C7.18522 8.05221 7.7028 8.56033 7.87522 9.2311L9.2186 14.4584C9.34464 14.9492 9.27231 15.4594 9.01444 15.8955C8.92807 16.0417 8.82279 16.1723 8.70438 16.288L9.0123 17.4855C10.2934 17.0533 11.6988 16.8342 13.2008 16.8342C15.9761 16.8342 18.5399 17.5605 20.3087 18.228C20.3581 18.1767 20.4075 18.1254 20.4585 18.0748C22.256 16.2773 23.0177 14.557 23.2768 13.1248C18.9125 12.9109 16.031 10.652 13.6952 8.8182Z" fill="white" stroke="white"/>
</svg>
