<svg width="46" height="43" viewBox="0 0 46 43" fill="none" xmlns="http://www.w3.org/2000/svg">
<path d="M3.95206 27.0613C3.94667 26.9686 3.94382 26.8753 3.94382 26.7816C3.94382 24.0926 6.13128 21.9051 8.8203 21.9051C8.94087 21.9051 9.06096 21.9095 9.1804 21.9183C9.658 18.9904 12.2045 16.749 15.2655 16.749C15.7611 16.749 16.2502 16.8081 16.7264 16.9239L23.4093 10.2418C23.4093 10.2418 23.4093 10.2418 23.4093 10.2418C25.5945 8.05561 28.9719 7.87275 31.3562 9.58522L39.0249 1.90242L39.0249 1.90237C40.4271 0.498926 42.6972 0.499613 44.0985 1.90202C45.5014 3.30372 45.4998 5.57412 44.0981 6.97489L3.95206 27.0613ZM3.95206 27.0613H1.8594C1.53105 27.0613 1.22331 27.221 1.03418 27.4893L1.03416 27.4894C0.845113 27.7578 0.798371 28.1013 0.908991 28.4105C0.908994 28.4105 0.908997 28.4105 0.909 28.4105L5.54953 41.3869L5.69077 41.3364L5.54953 41.3869C5.69316 41.7884 6.07347 42.0564 6.49994 42.0564H12.6873C13.2447 42.0564 13.6967 41.6045 13.6967 41.047C13.6967 40.1822 14.4005 39.4783 15.2654 39.4783H19.1326C19.69 39.4783 20.142 39.0264 20.142 38.4689C20.142 37.9114 19.69 37.4596 19.1326 37.4596H15.2654C13.6372 37.4596 12.2595 38.5495 11.8226 40.0376H7.21094L3.2923 29.08H42.7069L38.7883 40.0376H34.1766C33.7397 38.5495 32.362 37.4596 30.7338 37.4596H26.8668C26.3094 37.4596 25.8574 37.9114 25.8574 38.4689C25.8574 39.0264 26.3094 39.4783 26.8668 39.4783H30.7339C31.5987 39.4783 32.3026 40.1822 32.3026 41.047C32.3026 41.6045 32.7546 42.0564 33.312 42.0564H39.4993C39.9258 42.0564 40.3061 41.7884 40.4497 41.3869L45.0903 28.4105C45.2009 28.1014 45.1542 27.7578 44.9651 27.4894L44.9651 27.4893C44.776 27.221 44.4682 27.0613 44.1399 27.0613H41.9717C41.5138 24.2928 39.2059 22.1424 36.3642 21.9251C37.981 19.7585 37.9695 16.8016 36.4298 14.6581L44.0979 6.97504L3.95206 27.0613ZM11.1223 23.1007L11.1223 23.1006C11.0352 20.6482 12.9779 18.7677 15.2654 18.7677C17.5775 18.7677 19.4122 20.6476 19.4122 22.9145C19.4122 23.472 19.8642 23.9239 20.4216 23.9239C20.9789 23.9239 21.4309 23.472 21.4309 22.9145C21.4309 22.3924 21.3662 21.8812 21.2393 21.3856C21.4677 21.3476 21.7025 21.3366 21.9417 21.3546C22.7025 21.4154 23.3941 21.7703 23.8904 22.3551L24.0047 22.258L23.8904 22.3551C24.2617 22.7925 24.9226 22.8327 25.3443 22.4438L25.3443 22.4438C26.112 21.7356 27.1102 21.3457 28.1557 21.3457C29.9644 21.3457 31.5058 22.5108 32.0697 24.1189L32.0697 24.119C32.2878 24.7407 33.0352 24.9907 33.5834 24.6238C34.2812 24.1573 35.0832 23.9237 35.8899 23.9237C37.8283 23.9238 39.4605 25.2609 39.9125 27.0613H5.97637C5.96724 26.9686 5.96246 26.8753 5.96246 26.7816C5.96246 25.206 7.24458 23.9239 8.82021 23.9239C9.14906 23.9239 9.47048 23.9789 9.77562 24.0873L9.82584 23.946L9.77563 24.0873C10.4444 24.3249 11.1473 23.8145 11.1223 23.1007ZM42.6702 5.54777L42.6701 5.54792L34.3463 13.888C33.9529 14.2823 33.9531 14.9208 34.347 15.3148C35.9676 16.9352 35.968 19.5581 34.3469 21.1791L34.3468 21.1791L33.3503 22.1762C32.776 21.281 31.9778 20.5463 31.0417 20.0477L32.1283 18.961C32.5225 18.5669 32.5224 17.9277 32.1283 17.5335L32.1283 17.5335C31.734 17.1393 31.0951 17.1394 30.7008 17.5335L30.7008 17.5335L28.8647 19.3695C28.6302 19.3423 28.3933 19.327 28.1558 19.327C26.9233 19.327 25.7342 19.692 24.7254 20.3684C24.4784 20.1733 24.2141 20.0039 23.9361 19.8614L28.4828 15.3147C28.877 14.9205 28.877 14.2814 28.4828 13.8872L28.4828 13.8872C28.0885 13.4931 27.4496 13.4931 27.0553 13.8872L27.0553 13.8872L21.6138 19.3288C21.2033 19.337 20.7948 19.3966 20.4007 19.506C19.9519 18.8327 19.3732 18.2524 18.7044 17.8006L24.8365 11.6691L24.8366 11.6691C26.4571 10.048 29.0797 10.0477 30.7005 11.669C31.0949 12.0637 31.7346 12.0633 32.1286 11.6686L32.0225 11.5626L32.1286 11.6686L40.4529 3.32886C40.453 3.32884 40.453 3.32882 40.453 3.3288C41.0578 2.72356 42.0504 2.70852 42.6707 3.32937L42.6708 3.32947C43.2797 3.93775 43.2886 4.92988 42.6702 5.54777Z" fill="white" stroke="white" stroke-width="0.3"/>
<path d="M23 39.4783C23.5575 39.4783 24.0094 39.0264 24.0094 38.4689C24.0094 37.9115 23.5575 37.4596 23 37.4596C22.4425 37.4596 21.9906 37.9115 21.9906 38.4689C21.9906 39.0264 22.4425 39.4783 23 39.4783Z" fill="white" stroke="white" stroke-width="0.3"/>
</svg>
