<svg width="33" height="37" viewBox="0 0 33 37" fill="none" xmlns="http://www.w3.org/2000/svg">
<path d="M1.25065 5.8667V5.1167H2.00065H21.334H22.084V5.8667V9.73337V10.4834H21.334H2.00065H1.25065V9.73337V5.8667Z" fill="white" stroke="#FCC000" stroke-width="1.5"/>
<path d="M1.25065 11.6666V10.9166H2.00065H21.334H22.084V11.6666V29.1955V29.9455H21.334H2.00065H1.25065V29.1955V11.6666Z" fill="white" stroke="#FCC000" stroke-width="1.5"/>
<path d="M31.75 7.3554V9.0466L30.4965 7.91128C29.6058 7.10456 28.4114 6.61667 27.1333 6.61667C25.8553 6.61667 24.6608 7.10456 23.7701 7.91128L22.5167 9.0466V7.3554V5.86667C22.5167 3.32585 24.5925 1.25 27.1333 1.25C29.6741 1.25 31.75 3.32585 31.75 5.86667V7.3554Z" fill="white" stroke="#FCC000" stroke-width="1.5"/>
<path d="M31.75 22.9703V24.6614L30.4965 23.5262C29.5996 22.7139 28.4227 22.2122 27.1333 22.2122C25.8439 22.2122 24.6671 22.7139 23.7701 23.5262L22.5167 24.6614V22.9703V11.6667C22.5167 9.14097 24.5765 7.04999 27.1333 7.04999C29.6741 7.04999 31.75 9.12584 31.75 11.6667V22.9703Z" fill="white" stroke="#FCC000" stroke-width="1.5"/>
<path d="M31.5035 24.3477L31.75 24.571V24.9036V26.837V28.5281L30.4965 27.3929C29.5996 26.5805 28.4227 26.0789 27.1333 26.0789C25.8439 26.0789 24.6671 26.5805 23.7701 27.3929L22.5167 28.5281V26.837V24.9036V24.571L22.7632 24.3477C23.9157 23.3039 25.4453 22.6456 27.1333 22.6456C28.8214 22.6456 30.3509 23.3039 31.5035 24.3477Z" fill="white" stroke="#FCC000" stroke-width="1.5"/>
<path d="M25.9779 26.673L26.916 26.43V27.399V29.1956V29.9456H26.166H23.8023H22.498L23.1541 28.8183C23.7647 27.7692 24.7697 26.986 25.9779 26.673Z" fill="white" stroke="#FCC000" stroke-width="1.5"/>
<path d="M27.3438 30.3789H27.35V27.399V26.43L28.288 26.673C30.2709 27.1865 31.75 28.9744 31.75 31.1289C31.75 33.6786 29.683 35.7456 27.1333 35.7456H2H1.25V34.9956V31.1289V30.3789H2H2.00419H2.00892H2.0142H2.02001H2.02637H2.03327H2.0407H2.04867H2.05717H2.0662H2.07575H2.08583H2.09644H2.10756H2.11921H2.13136H2.14404H2.15723H2.17092H2.18513H2.19984H2.21505H2.23077H2.24699H2.2637H2.28091H2.29861H2.3168H2.33549H2.35465H2.37431H2.39444H2.41506H2.43615H2.45772H2.47976H2.50228H2.52526H2.54872H2.57263H2.59702H2.62186H2.64716H2.67291H2.69913H2.72579H2.75291H2.78047H2.80848H2.83693H2.86583H2.89516H2.92493H2.95514H2.98578H3.01686H3.04836H3.08029H3.11264H3.14541H3.17861H3.21222H3.24625H3.2807H3.31555H3.35082H3.38649H3.42257H3.45905H3.49594H3.53322H3.5709H3.60897H3.64744H3.68629H3.72554H3.76517H3.80519H3.84559H3.88636H3.92752H3.96905H4.01095H4.05323H4.09587H4.13889H4.18226H4.226H4.2701H4.31456H4.35937H4.40454H4.45006H4.49593H4.54215H4.58871H4.63562H4.68287H4.73046H4.77838H4.82664H4.87524H4.92416H4.97341H5.02299H5.07289H5.12312H5.17366H5.22452H5.2757H5.32719H5.37899H5.43111H5.48353H5.53625H5.58928H5.6426H5.69623H5.75015H5.80437H5.85888H5.91368H5.96877H6.02414H6.0798H6.13573H6.19195H6.24845H6.30522H6.36226H6.41957H6.47715H6.535H6.59311H6.65149H6.71012H6.76902H6.82817H6.88757H6.94722H7.00713H7.06728H7.12767H7.18831H7.24919H7.31031H7.37166H7.43325H7.49508H7.55713H7.61941H7.68191H7.74464H7.80759H7.87077H7.93415H7.99776H8.06157H8.1256H8.18984H8.25428H8.31893H8.38378H8.44883H8.51407H8.57952H8.64515H8.71098H8.777H8.84321H8.9096H8.97618H9.04293H9.10987H9.17698H9.24426H9.31172H9.37935H9.44715H9.51511H9.58324H9.65153H9.71997H9.78858H9.85734H9.92625H9.99532H10.0645H10.1339H10.2034H10.273H10.3428H10.4128H10.4828H10.553H10.6234H10.6938H10.7644H10.8351H10.9059H10.9769H11.048H11.1192H11.1905H11.2619H11.3334H11.4051H11.4768H11.5486H11.6206H11.6926H11.7648H11.837H11.9094H11.9818H12.0543H12.1269H12.1996H12.2724H12.3452H12.4182H12.4912H12.5642H12.6374H12.7106H12.7839H12.8573H12.9307H13.0042H13.0777H13.1513H13.2249H13.2986H13.3724H13.4462H13.52H13.5939H13.6679H13.7419H13.8159H13.8899H13.964H14.0381H14.1122H14.1864H14.2606H14.3348H14.4091H14.4833H14.5576H14.6319H14.7062H14.7805H14.8548H14.9291H15.0035H15.0778H15.1521H15.2264H15.3008H15.3751H15.4494H15.5237H15.5979H15.6722H15.7464H15.8207H15.8949H15.969H16.0432H16.1173H16.1914H16.2655H16.3395H16.4135H16.4874H16.5613H16.6352H16.709H16.7828H16.8565H16.9302H17.0038H17.0773H17.1508H17.2243H17.2977H17.371H17.4442H17.5174H17.5905H17.6635H17.7365H17.8094H17.8822H17.9549H18.0275H18.1H18.1725H18.2449H18.3171H18.3893H18.4614H18.5334H18.6053H18.677H18.7487H18.8203H18.8917H18.9631H19.0343H19.1054H19.1764H19.2473H19.318H19.3887H19.4592H19.5295H19.5998H19.6699H19.7399H19.8097H19.8794H19.9489H20.0184H20.0876H20.1567H20.2257H20.2945H20.3632H20.4317H20.5H20.5682H20.6362H20.7041H20.7717H20.8393H20.9066H20.9738H21.0408H21.1076H21.1742H21.2407H21.3069H21.373H21.4389H21.5046H21.5701H21.6354H21.7005H21.7655H21.8302H21.8947H21.959H22.0231H22.087H22.1506H22.2141H22.2773H22.3404H22.4032H22.4657H22.5281H22.5902H22.6521H22.7138H22.7752H22.8364H22.8974H22.9581H23.0186H23.0788H23.1388H23.1985H23.258H23.3172H23.3762H23.4349H23.4934H23.5516H23.6095H23.6672H23.7246H23.7817H23.8386H23.8952H23.9515H24.0075H24.0633H24.1187H24.1739H24.2288H24.2834H24.3377H24.3917H24.4455H24.4989H24.552H24.6048H24.6574H24.7096H24.7615H24.8131H24.8644H24.9153H24.966H25.0163H25.0663H25.116H25.1654H25.2144H25.2631H25.3115H25.3595H25.4072H25.4546H25.5016H25.5483H25.5946H25.6406H25.6862H25.7315H25.7764H25.821H25.8652H25.9091H25.9526H25.9957H26.0385H26.0809H26.1229H26.1645H26.2058H26.2467H26.2872H26.3274H26.3671H26.4065H26.4455H26.4841H26.5223H26.5601H26.5975H26.6345H26.6712H26.7074H26.7432H26.7786H26.8136H26.8481H26.8823H26.9161H26.9494H26.9823H27.0148H27.0469H27.0785H27.1097H27.1405H27.1709H27.2008H27.2303H27.2593H27.2879H27.316H27.3438Z" fill="white" stroke="#FCC000" stroke-width="1.5"/>
</svg>
