<svg width="50" height="50" viewBox="0 0 50 50" fill="none" xmlns="http://www.w3.org/2000/svg">
<g clip-path="url(#clip0)">
<path d="M25.0073 8.13241C25.0057 8.13241 25.0045 8.13241 25.0029 8.13241C4.56973 8.13241 -7.72361 27.6717 5.4749 41.3596C5.78789 41.6842 6.21943 41.8675 6.67041 41.8675H43.3365C43.7872 41.8675 44.2189 41.6842 44.5319 41.3597C57.6844 27.7222 45.5126 8.13524 25.0073 8.13241ZM37.8127 14.8112C30.8929 18.3038 19.4971 18.4921 12.1941 14.8112C19.797 10.3321 30.2109 10.3321 37.8127 14.8112ZM13.8353 38.5462C15.7075 25.9661 34.2501 25.644 36.1715 38.5462H13.8353Z" fill="white"/>
</g>
<defs>
<clipPath id="clip0">
<rect width="50" height="50" fill="white"/>
</clipPath>
</defs>
</svg>
