<svg width="40" height="40" viewBox="0 0 40 40" fill="none" xmlns="http://www.w3.org/2000/svg">
<g clip-path="url(#clip0)">
<path d="M7.11758 8.36972C4.85965 11.9393 4.26047 16.1684 5.1867 20.0354C5.43899 20.0128 5.69051 20.0011 5.94124 20.0011C8.78132 20.0011 10.5232 21.1899 11.6558 22.3694C13.2437 20.8283 14.1428 18.7193 14.1428 16.4861C14.1428 12.2638 11.0014 8.91954 7.11758 8.36972ZM31.3215 6.30684C28.5322 3.20666 24.49 1.25469 20.001 1.25469C15.516 1.25469 11.4769 3.20353 8.68758 6.29903C13.1481 7.49849 16.4861 11.5654 16.4861 16.4861C16.4861 19.4332 15.2683 22.2124 13.125 24.2057C13.3554 24.5025 13.5351 24.6877 13.6952 24.6877H26.3068C26.467 24.6877 26.6482 24.5002 26.8794 24.201C24.811 22.2749 23.516 19.5285 23.516 16.4861C23.516 11.6886 26.7428 7.53238 31.3215 6.30684ZM32.8868 8.37363C28.8039 8.96203 25.8593 12.4563 25.8593 16.4861C25.8593 18.7911 26.8146 20.8767 28.351 22.367C29.4843 21.1876 31.2262 20.0011 34.0608 20.0011C34.3115 20.0011 34.5631 20.0128 34.8153 20.0354C35.737 16.1872 35.1532 11.959 32.8868 8.37363Z" fill="white"/>
<path d="M5.92131 38.7454C1.77094 38.7456 -1.24692 34.4563 0.510634 30.5459C-1.07648 27.0146 1.23542 23.0406 4.94962 22.4265C7.48515 22.0071 9.83227 23.2307 11.0123 25.2682C11.6617 26.3883 12.6398 27.031 13.6954 27.031H26.3071C27.3626 27.031 28.3406 26.3883 28.9904 25.2677C30.1697 23.2313 32.5166 22.007 35.0528 22.4265C38.7774 23.0424 41.0767 27.0195 39.4918 30.5459C41.0753 34.069 38.7775 38.0478 35.0541 38.6653C32.5718 39.0761 30.093 37.8799 28.8989 35.6612C28.3762 34.6888 27.2204 34.0608 25.954 34.0608H14.0493C12.783 34.0608 11.6267 34.689 11.1037 35.6611C10.0699 37.5819 8.06503 38.7452 5.92131 38.7454Z" fill="white"/>
</g>
<defs>
<clipPath id="clip0">
<rect width="40" height="40" fill="white"/>
</clipPath>
</defs>
</svg>
