<svg width="32" height="40" viewBox="0 0 32 40" fill="none" xmlns="http://www.w3.org/2000/svg">
<path d="M14.908 13.1C15.98 11.6706 16.547 9.96862 16.547 8.17732C16.547 3.7589 13.0484 0.0133601 8.33721 6.81183e-05C3.9818 -0.0126766 0.794453 3.21627 0.228213 6.87509C-0.11652 9.10737 0.429782 11.3178 1.76641 13.0989L7.16438 20.2962V29.4446C7.16438 32.6215 9.7342 35.3076 13.0399 35.3076C16.4521 35.3076 18.8926 32.393 18.8926 29.1938V17.5599C18.8926 15.4532 20.8412 13.7259 23.0883 14.0907C24.8887 14.3839 26.0078 16.1969 26.0078 18.8221V23.5022H23.6621V30.6174H26.1039C26.3182 31.7471 27.0257 32.7046 28.0763 33.1394C28.957 33.5036 29.5263 34.3558 29.5263 35.3087C29.5263 36.6018 28.4737 37.6543 27.1806 37.6543C25.8875 37.6543 24.835 36.6018 24.835 35.3087H22.4893C22.4893 37.896 24.5933 40 27.1806 40C29.7679 40 31.8719 37.896 31.8719 35.3087C31.8719 33.4028 30.7334 31.7008 28.9719 30.9724C28.807 30.904 28.6778 30.7702 28.5724 30.6174H30.699V23.5022H28.3534V18.8221C28.3534 15.0253 26.4349 12.2593 23.465 11.7748C19.8041 11.2013 16.5469 13.9801 16.5469 17.5599V29.1937C16.5469 31.1588 15.1045 33.0149 12.9319 32.962C11.0172 32.9155 9.50995 31.3344 9.50995 29.4446V20.2961L14.908 13.1ZM8.33721 17.9505L3.64246 11.6924C2.68841 10.4199 2.29895 8.8359 2.54634 7.23359C2.95839 4.57252 5.28825 2.31781 8.33721 2.31296C8.34065 2.31296 8.34409 2.3121 8.34753 2.3121C11.5854 2.3121 14.2013 4.9515 14.2013 8.1774C14.2013 9.45672 13.797 10.6719 13.0319 11.6924L8.33721 17.9505Z" fill="white"/>
</svg>
