<svg width="40" height="40" viewBox="0 0 40 40" fill="none" xmlns="http://www.w3.org/2000/svg">
<path d="M33.9127 5.0372L35.591 6.71551L37.2692 5.03728L32.2343 0.00244141L30.5561 1.68075L32.2344 3.35898L28.0391 7.55435L29.7171 9.23265L33.9127 5.0372Z" fill="white"/>
<path d="M21.3218 7.55481L24.6781 4.19849L28.0344 7.55481L24.6781 10.9111L21.3218 7.55481Z" fill="white"/>
<path d="M26.3564 12.5907L29.7125 9.23469L33.0684 12.5906L29.7123 15.9466L26.3564 12.5907Z" fill="white"/>
<path d="M6.86267 25.3737L3.70447 28.5318L5.38286 30.2102L0 35.5931L1.67815 37.2714L7.06109 31.8884L8.73955 33.5668L11.8977 30.4086L15.9703 29.0512L8.22001 21.3009L6.86267 25.3737Z" fill="white"/>
<path d="M26.9029 16.4888L19.6467 9.23251L17.1294 11.7499L20.4861 15.1067L18.8079 16.785L15.4511 13.4281L13.7728 15.1064L17.1296 18.4632L15.4514 20.1414L12.0945 16.7847L9.57715 19.302L16.6099 26.3347C17.7817 21.3406 21.8292 17.4424 26.9029 16.4888Z" fill="white"/>
<path d="M29.32 33.4707C29.9754 33.4707 30.5067 32.9394 30.5067 32.284C30.5067 31.6286 29.9754 31.0973 29.32 31.0973C28.6646 31.0973 28.1333 31.6286 28.1333 32.284C28.1333 32.9394 28.6646 33.4707 29.32 33.4707Z" fill="white"/>
<path d="M29.3199 18.637C23.4213 18.637 18.6396 23.4187 18.6396 29.3173C18.6396 35.2159 23.4213 39.9975 29.3199 39.9975C35.2185 39.9975 40.0002 35.2159 40.0002 29.3173C40.0002 23.4187 35.2185 18.637 29.3199 18.637ZM28.1332 22.1971H30.5066V24.5705H28.1332V22.1971ZM22.5474 26.1047L24.2256 24.4265L25.9039 26.1047L24.2256 27.7829L22.5474 26.1047ZM29.3199 35.8441C27.3569 35.8441 25.7598 34.247 25.7598 32.284C25.7598 30.3209 27.3569 28.7239 29.3199 28.7239C31.283 28.7239 32.88 30.3209 32.88 32.284C32.88 34.247 31.2831 35.8441 29.3199 35.8441ZM34.4144 27.7829L32.7362 26.1047L34.4144 24.4265L36.0926 26.1047L34.4144 27.7829Z" fill="white"/>
</svg>
