<svg width="40" height="40" viewBox="0 0 40 40" fill="none" xmlns="http://www.w3.org/2000/svg">
<path d="M37.4023 12.2439C33.9281 14.5876 27.4586 16.2587 20 16.2587C12.5414 16.2587 6.07188 14.5876 2.59766 12.2439C1.64297 11.5994 0 9.98686 0 9.56967V16.1501C0 17.5705 0.944531 18.904 2.59766 20.0564C5.85383 22.3276 11.8638 23.8982 18.8281 24.0576V27.4772C16.157 28.0209 14.1406 30.3889 14.1406 33.2186C14.1406 36.449 16.7695 39.078 20 39.078C23.2313 39.078 25.8594 36.449 25.8594 33.2186C25.8594 30.3889 23.843 28.0209 21.1719 27.4772V24.0576C28.1362 23.8982 34.1462 22.3276 37.4023 20.0564C39.0555 18.904 40 17.5705 40 16.1501V9.56967C40 9.98686 38.357 11.5994 37.4023 12.2439ZM20 34.3905C19.3531 34.3905 18.8281 33.8655 18.8281 33.2186C18.8281 32.5717 19.3531 32.0467 20 32.0467C20.6469 32.0467 21.1719 32.5717 21.1719 33.2186C21.1719 33.8655 20.6469 34.3905 20 34.3905Z" fill="white"/>
<path d="M5.42119 11.1624C9.74369 9.33642 15.3033 8.66392 20.0001 8.66392C24.854 8.66392 30.0868 9.32017 34.5774 11.1624C35.8009 10.5584 36.9493 9.77642 37.8181 8.71235C37.8181 8.71235 38.6501 7.76157 39.3063 6.64204C38.5142 5.47017 37.1415 4.5561 35.8915 3.90688C27.4313 -0.421245 5.60088 -0.478276 0.693848 6.64204C2.04697 8.95142 3.53682 10.2303 5.42119 11.1624Z" fill="white"/>
</svg>
