<svg width="39" height="39" viewBox="0 0 39 39" fill="none" xmlns="http://www.w3.org/2000/svg">
<path d="M1.6245 23.8504H1.62943C3.5103 21.9607 6.47345 21.6869 8.66883 23.1997L23.1617 8.71171C21.4417 6.18742 22.0936 2.74659 24.618 1.02655C27.1423 -0.693615 30.583 -0.0415595 32.3032 2.48274C32.9494 3.43118 33.2847 4.55722 33.2623 5.70457C34.7682 5.66082 36.2254 6.24053 37.2898 7.30667C39.4985 9.41676 39.5783 12.9179 37.4682 15.1265C35.5647 17.1191 32.4847 17.4063 30.2455 15.8003L15.7575 30.2882C17.4776 32.8125 16.8256 36.2533 14.3012 37.9734C11.7769 39.6934 8.33608 39.0415 6.61604 36.5171C5.96978 35.5686 5.63456 34.4426 5.65687 33.2952C2.60302 33.3647 0.0709534 30.9456 0.00144958 27.8916C-0.0330582 26.3793 0.553555 24.9188 1.6245 23.8504Z" fill="white"/>
</svg>
