<svg width="40" height="40" viewBox="0 0 40 40" fill="none" xmlns="http://www.w3.org/2000/svg">
<path d="M10.4226 3.19096C11.6756 3.47275 12.5982 3.9116 13.2959 4.41917C16.3625 3.56811 19.9156 3.22548 23.2724 3.55483C19.8657 -0.29319 15.135 -0.760936 10.2865 0.930336C9.12003 1.33724 9.27373 2.95932 10.4226 3.19096Z" fill="white"/>
<path d="M5.44728 24.353C7.77499 22.3215 10.4275 21.8568 13.3313 22.9719C16.0284 24.041 20.4393 25.3036 24.4617 25.9517C24.1716 25.4954 24.1691 25.4925 24.1494 25.4584C23.0644 23.5726 20.685 18.6787 22.0181 13.9765C22.8039 11.2055 24.7234 8.97612 27.7235 7.35014C27.748 7.3364 27.7436 7.33889 28.2304 7.07249C24.5696 5.68738 20.41 5.48697 16.5644 6.10568C13.0844 6.66239 11.2692 7.54032 9.56467 8.66684C1.27709 14.1376 -1.09155 21.556 0.435942 27.7829C0.436098 27.7836 0.436332 27.7841 0.436488 27.7847C2.22695 35.0764 9.71267 39.642 10.0305 39.8328C10.2089 39.9399 10.4138 39.9999 10.6433 39.9999C10.9716 39.9999 13.0327 39.9305 14.4633 38.2454C15.7278 36.7561 16.0876 34.539 15.5327 31.656C15.3921 30.9249 14.6029 30.502 13.9094 30.8056C13.89 30.814 11.946 31.6519 9.57537 31.5629C6.72727 31.4557 4.48812 30.0843 2.91158 27.4844C3.31817 26.7775 4.17072 25.467 5.44728 24.353Z" fill="white"/>
<path d="M39.985 23.5723C38.9545 16.8581 36.0148 11.352 30.8387 8.31633C28.1087 9.81016 29.0505 9.29524 28.8466 9.40646C26.4189 10.7206 24.8799 12.4732 24.2724 14.6157C23.1874 18.4423 25.2252 22.6239 26.1678 24.2679L27.4824 26.3357C31.3991 26.6929 35.4632 26.4772 38.8965 25.0071C39.3049 24.8321 39.5955 24.7301 39.8154 24.3855C39.9696 24.1436 40.0296 23.8552 39.985 23.5723ZM31.262 17.4289C30.5861 17.4289 30.0805 16.8892 30.0805 16.2574C30.0805 15.6245 30.587 15.0859 31.262 15.0859C31.9089 15.0859 32.4335 15.6104 32.4335 16.2574C32.4335 16.9044 31.9089 17.4289 31.262 17.4289Z" fill="white"/>
</svg>
