<svg width="40" height="40" viewBox="0 0 40 40" fill="none" xmlns="http://www.w3.org/2000/svg">
<g clip-path="url(#clip0)">
<path d="M2.6001 0.615706C2.79751 0.351966 3.15077 0.259283 3.45224 0.392135C5.4501 1.27999 10.3572 2.85713 20.0001 2.85713C29.643 2.85713 34.5572 1.27785 36.553 0.397849C36.8535 0.26867 37.2034 0.360193 37.4022 0.619992C37.5948 0.872369 37.7741 1.13463 37.9394 1.40571C36.053 2.36142 30.9044 4.2857 20.0001 4.2857C9.09581 4.2857 3.94367 2.35713 2.0601 1.40499C2.22636 1.13276 2.4066 0.869308 2.6001 0.615706ZM0.489381 3.01428C0.573442 2.84547 0.72151 2.71727 0.900615 2.65824C1.07972 2.59921 1.27499 2.61424 1.44295 2.69999C3.58795 3.78928 8.94438 5.71428 20.0001 5.71428C31.0558 5.71428 36.418 3.78571 38.5608 2.69856C38.7288 2.61274 38.9241 2.59758 39.1033 2.65647C39.2825 2.71535 39.4308 2.8434 39.5151 3.01213C39.6787 3.33763 39.8036 3.68116 39.8872 4.0357C39.9661 4.3652 39.805 4.70516 39.5001 4.85285C37.5558 5.77856 31.8737 7.85713 20.0001 7.85713C8.12652 7.85713 2.44438 5.77856 0.504381 4.85713C0.195942 4.71017 0.0330751 4.36684 0.114381 4.03499C0.199737 3.68147 0.325568 3.33897 0.489381 3.01428ZM3.85295 27.0857C7.066 25.8036 10.4881 25.1256 13.9472 25.0857C13.8458 25.6372 13.7135 26.1826 13.5508 26.7193C9.80367 27.01 5.11152 27.6136 1.60867 28.8571C2.19382 28.0851 2.96628 27.4752 3.85295 27.085V27.0857ZM0.50581 30.8607C3.67724 29.2971 8.83581 28.55 13.018 28.195C11.531 31.7438 8.12984 34.1161 4.28581 34.2857C2.79519 34.2625 1.33205 33.8808 0.0200954 33.1728C0.0649169 32.3821 0.228661 31.6026 0.50581 30.8607ZM39.4944 30.8607C39.7723 31.6037 39.936 32.3844 39.9801 33.1764C38.6686 33.8851 37.205 34.2658 35.7144 34.2857C31.8704 34.1159 28.4694 31.7437 26.9822 28.195C31.1644 28.5507 36.323 29.2964 39.4944 30.8571V30.8607ZM36.1487 27.0857C37.0346 27.4758 37.8065 28.0852 38.3915 28.8564C34.8915 27.6128 30.1965 27.0093 26.4494 26.7186C26.287 26.1819 26.1548 25.6365 26.0537 25.085C29.5131 25.125 32.9355 25.8033 36.1487 27.0857ZM24.2858 21.4286C24.281 22.432 24.3476 23.4345 24.4851 24.4286C24.6252 25.5139 24.8724 26.5826 25.223 27.6193C27.4037 34.01 32.8437 35.7143 35.7144 35.7143C37.1942 35.6999 38.6544 35.3742 40.0001 34.7585V36.7586C40.004 36.9957 39.8869 37.2186 39.6894 37.35C38.2658 38.2643 32.3887 40 20.0001 40C7.61152 40 1.73438 38.2643 0.31081 37.35C0.113267 37.2186 -0.00382387 36.9957 9.53742e-05 36.7586V34.7585C1.34581 35.3742 2.80601 35.6999 4.28581 35.7143C7.15652 35.7143 12.5965 34.01 14.7758 27.625V27.6207C15.1255 26.5865 15.3724 25.5204 15.513 24.4378C15.6513 23.4408 15.7187 22.4352 15.7144 21.4286C15.7144 13.3571 8.08795 9.91927 0.705095 9.35713C0.318694 9.33113 0.0234033 9.00193 0.0393811 8.61499C0.0827472 7.85193 0.169074 7.09191 0.297953 6.33856C2.7401 7.42427 8.58938 9.2857 20.0001 9.2857C31.4108 9.2857 37.2601 7.42427 39.7022 6.33856C39.831 7.09075 39.9175 7.84956 39.9615 8.61142C39.9779 8.99837 39.6829 9.3279 39.2965 9.35427C31.9122 9.91927 24.2858 13.3571 24.2858 21.4286Z" fill="white"/>
</g>
<defs>
<clipPath id="clip0">
<rect width="40" height="40" fill="white"/>
</clipPath>
</defs>
</svg>
