<svg width="319" height="347" viewBox="0 0 319 347" fill="none" xmlns="http://www.w3.org/2000/svg">
<path opacity="0.6" d="M5.69643 347C4.18564 347 2.73673 346.429 1.66845 345.412C0.600159 344.395 0 343.016 0 341.578C0 340.14 0.600159 338.761 1.66845 337.744C2.73673 336.727 4.18564 336.156 5.69643 336.156H41.7719L45.5714 314.469C46.0556 311.384 48.1234 309.047 51.2679 309.047H79.75L79.7443 113.859H62.6607C61.1499 113.859 59.701 113.288 58.6327 112.271C57.5644 111.255 56.9643 109.875 56.9643 108.438C56.9643 107 57.5644 105.62 58.6327 104.604C59.701 103.587 61.1499 103.016 62.6607 103.016H79.7443L79.75 5.42188C79.75 3.9839 80.3502 2.60483 81.4184 1.58803C82.4867 0.571232 83.9356 0 85.4464 0C86.9572 0 88.4061 0.571232 89.4744 1.58803C90.5427 2.60483 91.1429 3.9839 91.1429 5.42188V24.8972C129.169 43.7036 162.272 70.4002 188.005 103.016H210.768C212.279 103.016 213.728 103.587 214.796 104.604C215.864 105.62 216.464 107 216.464 108.438C216.464 109.875 215.864 111.255 214.796 112.271C213.728 113.288 212.279 113.859 210.768 113.859H196.128C228.027 158.659 245.037 211.553 244.946 265.672C244.946 280.436 243.705 294.923 241.318 309.047H267.732C270.637 309.047 272.346 310.879 273.229 313.731L273.446 314.577L277.228 336.156H313.304C314.814 336.156 316.263 336.727 317.332 337.744C318.4 338.761 319 340.14 319 341.578C319 343.016 318.4 344.395 317.332 345.412C316.263 346.429 314.814 347 313.304 347H5.69643ZM262.036 319.891H56.9643L53.5464 336.156H265.454L262.036 319.891ZM91.1429 37.1941V103.016H142.337C133.544 93.8499 124.048 85.3177 113.929 77.4894V92.1719C113.929 93.6098 113.328 94.9889 112.26 96.0057C111.192 97.0225 109.743 97.5938 108.232 97.5938C106.721 97.5938 105.272 97.0225 104.204 96.0057C103.136 94.9889 102.536 93.6098 102.536 92.1719V65.0625C102.53 63.7555 103.021 62.4906 103.917 61.5006C104.814 60.5106 106.056 59.8623 107.415 59.6748C108.774 59.4874 110.159 59.7735 111.314 60.4806C112.469 61.1876 113.316 62.2679 113.701 63.5227C179.586 111.04 222.161 186.334 222.161 271.094C222.161 279.687 221.722 288.184 220.868 296.566L220.623 298.458C220.429 299.737 219.761 300.907 218.741 301.759C217.721 302.611 216.414 303.088 215.057 303.104L214.134 303.05C212.822 302.924 211.604 302.344 210.711 301.419C209.819 300.495 209.314 299.29 209.292 298.035L209.327 297.363L209.441 296.333C211.164 280.02 211.214 263.586 209.589 247.265L132.231 309.047L229.771 309.052C232.26 294.95 233.554 280.452 233.554 265.672C233.554 167.124 176.003 81.3661 91.1429 37.1941ZM102.536 113.859H91.1372L91.1429 309.047H102.536V113.859ZM195.963 243.984H113.923L113.929 309.047H114.538L114.868 308.76L195.957 243.984H195.963ZM189.913 173.43L115.136 233.141H207.754C204.463 212.603 198.468 192.542 189.913 173.43ZM172.089 173.5H113.923V219.955L172.089 173.5ZM160.656 124.378L113.923 161.691V162.656H184.769C177.95 149.236 169.88 136.425 160.656 124.378ZM152.146 113.859H113.929L113.923 147.535L153.741 115.746L152.146 113.859Z" fill="url(#paint0_linear)"/>
<defs>
<linearGradient id="paint0_linear" x1="159.5" y1="0" x2="159.5" y2="347" gradientUnits="userSpaceOnUse">
<stop stop-color="#E7E7E7" stop-opacity="0.7"/>
<stop offset="1" stop-color="#E7E7E7" stop-opacity="0"/>
</linearGradient>
</defs>
</svg>
