<?xml version="1.0" encoding="utf-8"?>
<!-- Generator: Adobe Illustrator 25.0.0, SVG Export Plug-In . SVG Version: 6.00 Build 0)  -->
<svg version="1.1" id="Layer_1" xmlns="http://www.w3.org/2000/svg" xmlns:xlink="http://www.w3.org/1999/xlink" x="0px" y="0px"
	 viewBox="0 0 1975.83 566.93" style="enable-background:new 0 0 1975.83 566.93;" xml:space="preserve">
<style type="text/css">
	.st0{fill:#010101;stroke:#010101;stroke-width:13;stroke-linecap:square;stroke-miterlimit:10;}
	.st1{fill:#010101;}
</style>
<path class="st0" d="M1192.85,172.08c19.26-1.95,39.65,1.37,56,12.19c12.75,8.38,22.25,22.39,23.47,37.79
	c-1.58,0.19-3.12,0.41-4.64,0.62c-1.76-6.81-3.55-13.78-7.51-19.7c-6.82-10.8-18.12-18.03-30.06-22
	c-19.71-6.44-41.72-5.58-60.81,2.5c-12.4,5.25-23.45,14.48-29.31,26.76c-5.51,11.85-5.43,25.81-1.36,38.09
	c3.05,9.29,10.12,16.95,18.83,21.28c12.62,6.32,26.9,7.9,40.75,9.44c16.87,1.89,34.17,2.71,50.26,8.6
	c10.44,3.77,19.98,11.03,24.78,21.25c6.96,14.99,7.2,33.3-0.6,48.03c-6.41,12.11-17.42,21.28-29.63,27.18
	c-13.51,6.43-28.59,9.53-43.53,9.09c-20.14-1.04-40.75-7.9-55.39-22.2c-9.09-8.65-14.59-20.68-15.54-33.16
	c1.67-0.25,3.37-0.48,5.09-0.69c1.48,6.54,2.52,13.36,6.02,19.22c7.28,13.1,20.54,21.75,34.39,26.66
	c21.19,7.53,45.32,6.42,65.72-3.08c11.23-5.31,21.55-13.41,27.56-24.47c6.47-11.52,7.33-25.69,3.52-38.22
	c-2.83-9.96-10.35-18.13-19.64-22.49c-13.93-6.68-29.61-7.91-44.75-9.52c-15.54-1.71-31.43-2.83-46.18-8.43
	c-8.33-3.18-16.11-8.36-21.23-15.76c-6.21-8.81-8.32-19.8-8.59-30.39c-0.34-14.7,5.94-29.35,16.81-39.24
	C1159.68,179.97,1176.26,173.96,1192.85,172.08 M1483.87,172.11c25.46-2.69,51.83,3.65,72.97,18.16
	c27.55,18.62,46.22,49.93,48.84,83.15c3.16,34.13-11.21,69.03-36.63,91.85c-14.71,13.32-33.07,22.62-52.58,26.33
	c-20.18,4.02-41.42,2-60.58-5.42c-23.43-8.98-43.18-26.58-55.71-48.23c-14.13-24.06-18.4-53.56-11.99-80.68
	c7.62-32.43,30.43-61.05,60.61-75.27C1459.81,176.74,1471.74,173.45,1483.87,172.11 M1487.93,177.27
	c-24.83,1.71-48.67,13.06-66.13,30.71c-22.52,22.33-34.37,55.12-30.4,86.68c3.23,28.98,19.37,56.03,42.86,73.2
	c17.54,13,39.31,20.41,61.2,20.14c19.75,0.26,39.43-5.68,56.02-16.34c26.2-16.58,44.46-45.22,47.98-76.08
	c4.65-33.98-9.04-69.62-34.81-92.17C1543.94,184.91,1515.66,175.04,1487.93,177.27 M1063.64,173.81c1.52-0.03,3.07-0.03,4.64-0.01
	c0.61,21.6,0.29,43.22,0.37,64.84c-0.01,44.33,0.01,88.66-0.01,133c-0.05,6.64-0.12,13.29-0.33,19.95c-1.6-0.02-3.17-0.02-4.71-0.01
	c-0.33-48.31-0.05-96.63-0.14-144.94C1063.58,222.36,1063.2,198.08,1063.64,173.81 M1332.64,173.8c1.52-0.02,3.06-0.02,4.64,0
	c0.75,35.94,0.2,71.89,0.37,107.84c-0.17,36.64,0.38,73.3-0.34,109.94c-1.6-0.01-3.17-0.01-4.71,0c-0.36-68.97,0-137.96-0.18-206.94
	C1332.39,181.02,1332.49,177.41,1332.64,173.8 M1627.92,173.52c2.49,0.2,5.24,0.64,6.54,3.1c43.81,63.85,87.74,127.61,131.58,191.43
	c2.6,3.99,5.26,7.98,8.61,11.41c0.83-9.92,0.19-19.88,0.39-29.82c-0.03-58.55,0.05-117.1-0.05-175.65c1.71-0.04,3.43-0.07,5.19-0.09
	c0.37,51.58,0.05,103.16,0.16,154.74c-0.15,20.97,0.28,41.96-0.21,62.92c-2.47-0.38-5.48-0.18-6.79-2.74
	c-44.17-64.5-88.56-128.85-132.77-193.32c-2.28-3.38-4.61-6.71-7.03-9.98c-0.26,52.37-0.02,104.75-0.1,157.12
	c-0.16,16.21,0.31,32.43-0.22,48.64c-1.79-0.04-3.56-0.04-5.3-0.04C1627.84,318.67,1627.84,246.09,1627.92,173.52 M470.63,174.73
	c25.61-0.21,51.22-0.02,76.83-0.09c22.16,0.37,44.52,7.16,62.14,20.84c27.39,20.9,41.24,56.19,40.2,90.12
	c-0.41,32.51-14.73,65.59-41.15,85.27c-16.12,12.17-36.09,18.7-56.17,19.89c-9.33,0.69-18.68,0.42-28.02,0.46
	c-17.92,0-35.83,0-53.75,0.02C470.46,319.08,470.63,246.9,470.63,174.73 M475.66,179.74c0.05,68.79-0.16,137.58,0.1,206.37
	c16.23-0.23,32.47-0.06,48.7-0.11c13.21-0.1,26.55,0.61,39.62-1.82c23.34-3.78,45.27-16.47,59.44-35.52
	c22.95-30.48,27.19-73.13,13.18-108.3c-6.93-17.43-18.79-32.97-34.27-43.64c-13.59-9.33-29.66-14.77-46.03-16.35
	c-9.6-1.18-19.29-0.63-28.94-0.73C510.19,179.71,492.92,179.48,475.66,179.74 M672.17,174.7c39.75-0.07,79.52-0.16,119.28,0.04
	c-0.02,1.58-0.03,3.19-0.02,4.8c-37.97,0.27-75.95-0.06-113.93,0.15c-0.09,33.36-0.13,66.72,0.01,100.07
	c37.2,0.37,74.41-0.13,111.61,0.23c-0.01,1.78-0.01,3.56,0.02,5.36c-37.21,0.47-74.42-0.09-111.62,0.26
	c-0.14,33.33-0.13,66.66-0.01,99.98c38.1,0.21,76.21-0.06,114.32,0.13c0.01,1.64,0.03,3.3,0.06,4.99
	c-23.81,0.3-47.63,0.03-71.43,0.12c-16.11-0.09-32.21,0.18-48.3-0.12c-0.42-54.02-0.05-108.05-0.18-162.07
	C672.11,210.66,671.73,192.68,672.17,174.7 M865.19,186.45c29.98-16.02,67.92-15.76,97.65,0.75c21.32,11.7,38.49,30.92,47.61,53.48
	c-1.93-0.06-3.83-0.1-5.72-0.14c-6.42-14-15.58-26.8-27.36-36.77c-13.27-11.44-29.67-19.17-46.92-22.21
	c-20.37-3.37-41.87-0.73-60.41,8.55c-30.29,14.69-51.71,45.4-56.23,78.61c-1.81,15.24-0.89,30.95,3.86,45.61
	c9.57,30.9,34.53,56.78,65.35,66.85c21.82,7.17,46.22,6.32,67.43-2.54c24-9.83,43.48-29.41,54.25-52.89
	c1.9-0.07,3.81-0.13,5.75-0.16c-12.8,31.41-41.23,56.33-74.57,63.46c-32.11,7.41-67.46-1.83-91.76-24.1
	c-26.21-23.24-39.92-59.62-35.71-94.37C812.17,235.56,833.88,202.82,865.19,186.45L865.19,186.45z"/>
<g>
	<path class="st1" d="M101.54,123.74c106.28-0.07,212.56-0.01,318.84-0.02c0.12,106.28,0.11,212.57,0.02,318.86
		c-106.29,0.1-212.59,0.09-318.88,0C101.46,336.3,101.41,230.02,101.54,123.74 M169.55,173.62c-0.03,1.29-0.04,2.61-0.04,3.93
		c10.19,0.35,20.4-0.2,30.59,0.26c-0.1,70.46,0.03,140.93-0.07,211.4c-10.15,0.19-20.31-0.32-30.46,0.22
		c-0.04,1.36-0.06,2.74-0.08,4.13c38.66,0.11,77.32,0.22,115.98-0.06c-0.1-1.49-0.18-2.96-0.25-4.42
		c-13.59-0.11-27.18,0.29-40.75-0.14c-0.19-36.2-0.18-72.41-0.01-108.6c13.42-0.28,27.68-0.91,40.02,5.3
		c8.78,4.2,15.47,12.19,18.61,21.35c2.84,7.53,3.42,15.64,3.59,23.63c1.55,0,3.12,0.01,4.7,0.03c0.15-34.67,0.15-69.35-0.01-104.02
		c-1.57-0.01-3.12,0-4.66,0.03c-0.14,9.78-1.57,19.93-6.86,28.36c-5.93,9.75-16.4,15.86-27.18,18.79
		c-9.18,2.58-18.8,1.99-28.21,1.81c-0.17-32.63-0.16-65.28,0-97.91c10.33-0.19,20.66,0.01,30.99-0.09
		c11.93-0.19,24.04,2.52,34.36,8.64c10.23,6.1,18.92,14.83,25.06,25.03c5.88,9.77,8.18,21.19,8.75,32.46c1.24,0,2.5,0.01,3.77,0.04
		c0.13-23.41,0.13-46.83,0.01-70.23C288.12,173.42,228.83,173.34,169.55,173.62"/>
</g>
</svg>
