<svg width="520" height="444" viewBox="0 0 520 444" fill="none" xmlns="http://www.w3.org/2000/svg">
<path d="M0 227.167L2.64407 222.76L8.81356 227.167L9.69491 237.157L11.7514 238.92V232.75L16.7458 233.631L18.5085 245.384L20.8588 246.853L21.7401 236.276L29.0847 240.683L26.1469 270.945L43.1864 285.342V272.708L55.5254 281.229H73.7401L93.7175 270.945V262.131H105.763L111.932 250.085L128.678 262.131L158.056 263.306L166.282 256.842L173.627 267.126V254.492L183.028 267.126L202.124 262.131L220.339 272.708L249.718 270.945L277.627 256.842L271.751 243.915L277.627 236.276L285.559 254.492L295.842 250.085H304.655L312.588 236.276L309.062 225.698L322.282 227.167L331.684 201.9V192.792L337.559 184.271H346.96V177.22L387.503 144.019L411.299 114.638V93.4834L420.407 77.3238L438.621 44.4169L459.774 -7L474.169 3.87101L472.407 15.6235V44.4169L468.881 62.6332L481.808 69.0971H494.441L515.006 77.3238L520 98.4782L515.006 137.555V161.941L485.333 193.967L474.169 177.22L487.39 166.936L481.808 157.534H472.407L453.311 170.462V192.792L459.774 201.9L450.667 213.064L453.311 225.698L459.774 234.219L450.667 254.492L468.881 250.085L474.169 256.842L472.407 263.306L481.808 270.945H468.881L456.542 277.997L450.667 270.945L446.554 275.059L438.621 272.708L426.576 281.229L414.237 285.342L428.927 291.806V311.785H424.814L420.407 315.311L422.463 331.764L411.299 337.053V349.687L391.322 392.583L393.672 435.773L382.508 444L105.763 404.336L5.28814 262.131V243.915L0 227.167Z" fill="url(#paint0_linear)"/>
<defs>
<linearGradient id="paint0_linear" x1="260" y1="-7" x2="260" y2="444" gradientUnits="userSpaceOnUse">
<stop stop-color="#F7F7F7"/>
<stop offset="1" stop-color="#FCFCFC" stop-opacity="0.7"/>
</linearGradient>
</defs>
</svg>
