<svg xmlns="http://www.w3.org/2000/svg" width="182" height="182" viewBox="0 0 182 182">
  <g id="Сгруппировать_414" data-name="Сгруппировать 414" transform="translate(-116 -3065)">
    <circle id="Эллипс_16" data-name="Эллипс 16" cx="91" cy="91" r="91" transform="translate(116 3065)" fill="#e8f8f3"/>
    <g id="Сгруппировать_401" data-name="Сгруппировать 401" transform="translate(177.104 3116.249)">
      <path id="Контур_4163" data-name="Контур 4163" d="M506.078,414.733a1.457,1.457,0,0,0-1.457,1.457v2.185H460.914V368.841h43.707v2.185a1.457,1.457,0,0,0,2.914,0v-6.017A10.021,10.021,0,0,0,497.526,355H468.009A10.021,10.021,0,0,0,458,365.009v60.112a10.021,10.021,0,0,0,10.009,10.009h29.517a10.021,10.021,0,0,0,10.009-10.009V416.19A1.457,1.457,0,0,0,506.078,414.733Zm-45.164-49.724a7.1,7.1,0,0,1,7.1-7.1h29.517a7.1,7.1,0,0,1,7.1,7.1v.918H460.914Zm43.707,60.112a7.1,7.1,0,0,1-7.1,7.1H468.009a7.1,7.1,0,0,1-7.1-7.1V421.29h43.707Z" transform="translate(-458 -355)" fill="#61bec7"/>
      <path id="Контур_4164" data-name="Контур 4164" d="M472.457,405.914H481.2a1.457,1.457,0,0,0,0-2.914h-8.741a1.457,1.457,0,1,0,0,2.914Z" transform="translate(-452.06 -333.068)" fill="#61bec7"/>
      <path id="Контур_4165" data-name="Контур 4165" d="M497.483,369a17.483,17.483,0,1,0,17.483,17.483A17.5,17.5,0,0,0,497.483,369Zm0,32.052a14.569,14.569,0,1,1,14.569-14.569A14.586,14.586,0,0,1,497.483,401.052Z" transform="translate(-447.948 -348.603)" fill="#61bec7"/>
      <path id="Контур_4166" data-name="Контур 4166" d="M478.371,372h-2.914a1.457,1.457,0,1,0,0,2.914h2.914a1.457,1.457,0,0,0,0-2.914Z" transform="translate(-450.689 -347.232)" fill="#61bec7"/>
      <path id="Контур_4167" data-name="Контур 4167" d="M480.2,388h-8.742a1.457,1.457,0,0,0,0,2.914H480.2a1.457,1.457,0,0,0,0-2.914Z" transform="translate(-452.517 -339.922)" fill="#61bec7"/>
      <path id="Контур_4168" data-name="Контур 4168" d="M481.569,380H468.457a1.457,1.457,0,1,0,0,2.914h13.112a1.457,1.457,0,0,0,0-2.914Z" transform="translate(-453.888 -343.577)" fill="#61bec7"/>
      <path id="Контур_4169" data-name="Контур 4169" d="M487.82,382.876h1.788a3.48,3.48,0,0,0-.654,1.039,3.14,3.14,0,0,0-.229,1.173,3.638,3.638,0,0,0,.353,1.636,3.238,3.238,0,0,0,1.005,1.189,4.659,4.659,0,0,0,1.579.727,8.782,8.782,0,0,0,4.094.006,4.943,4.943,0,0,0,1.654-.743,3.653,3.653,0,0,0,1.122-1.279,3.855,3.855,0,0,0,.414-1.837h-2.156a2.379,2.379,0,0,1-.229,1.1,1.919,1.919,0,0,1-.637.723,2.724,2.724,0,0,1-.966.4,5.641,5.641,0,0,1-1.206.122,3.571,3.571,0,0,1-2.166-.535,1.768,1.768,0,0,1-.7-1.493,4.411,4.411,0,0,1,.039-.606,2.427,2.427,0,0,1,.144-.552,2.53,2.53,0,0,1,.3-.529,4.116,4.116,0,0,1,.481-.541h7.9v-1.7H487.82Z" transform="translate(-444.375 -343.038)" fill="#61bec7"/>
      <path id="Контур_4170" data-name="Контур 4170" d="M498.358,379.764a3.331,3.331,0,0,0,.162-.989,4.028,4.028,0,0,0-.312-1.636,3.053,3.053,0,0,0-.916-1.184,4.129,4.129,0,0,0-1.474-.714,7.437,7.437,0,0,0-1.977-.24,6.955,6.955,0,0,0-2.306.335,4.259,4.259,0,0,0-1.541.9,3.4,3.4,0,0,0-.865,1.313,4.573,4.573,0,0,0-.268,1.557h2.156a3.019,3.019,0,0,1,.15-.988,1.722,1.722,0,0,1,.492-.74,2.3,2.3,0,0,1,.876-.466,4.583,4.583,0,0,1,1.307-.162,2.928,2.928,0,0,1,1.927.514,1.835,1.835,0,0,1,.6,1.467,3.381,3.381,0,0,1-.162,1,3.025,3.025,0,0,1-.564,1.02H487.82v1.7h11.918v-1.7h-1.876A3.5,3.5,0,0,0,498.358,379.764Z" transform="translate(-444.375 -345.862)" fill="#61bec7"/>
    </g>
  </g>
</svg>
