<svg xmlns="http://www.w3.org/2000/svg" width="182" height="182" viewBox="0 0 182 182">
  <g id="Сгруппировать_415" data-name="Сгруппировать 415" transform="translate(-116 -2574)">
    <circle id="Эллипс_15" data-name="Эллипс 15" cx="91" cy="91" r="91" transform="translate(116 2574)" fill="#fff6e1"/>
    <g id="Сгруппировать_400" data-name="Сгруппировать 400" transform="translate(174.477 2624.592)">
      <g id="Сгруппировать_364" data-name="Сгруппировать 364" transform="translate(0 0)">
        <path id="Контур_4171" data-name="Контур 4171" d="M334.542,341.34H286.82a8.83,8.83,0,0,1-8.82-8.82v-62.7a8.83,8.83,0,0,1,8.82-8.82h36.116a1.364,1.364,0,0,1,.945.381l19.064,18.377a1.357,1.357,0,0,1,.417.98V332.52A8.83,8.83,0,0,1,334.542,341.34ZM286.82,263.723a6.1,6.1,0,0,0-6.1,6.1v62.7a6.1,6.1,0,0,0,6.1,6.1h47.722a6.1,6.1,0,0,0,6.1-6.1v-51.2l-18.251-17.593Z" transform="translate(-278 -261)" fill="#ffcf54"/>
      </g>
      <g id="Сгруппировать_365" data-name="Сгруппировать 365" transform="translate(43.574 0)">
        <path id="Контур_4172" data-name="Контур 4172" d="M330.425,282.787h-11.6A8.834,8.834,0,0,1,310,273.963v-11.6a1.362,1.362,0,1,1,2.723,0v11.6a6.108,6.108,0,0,0,6.1,6.1h11.6a1.362,1.362,0,0,1,0,2.723Z" transform="translate(-310 -261)" fill="#ffcf54"/>
      </g>
      <g id="Сгруппировать_366" data-name="Сгруппировать 366" transform="translate(17.273 34.466)">
        <path id="Контур_4173" data-name="Контур 4173" d="M302.682,294.567a1.492,1.492,0,0,1-.174-.011,1.362,1.362,0,0,1-1.182-1.5,3.959,3.959,0,1,0-7.917-.065,1.382,1.382,0,0,1-1.179,1.544,1.344,1.344,0,0,1-1.525-1.159,3.218,3.218,0,0,1-.019-.385,6.683,6.683,0,0,1,13.365,0,2.958,2.958,0,0,1-.02.385A1.362,1.362,0,0,1,302.682,294.567Z" transform="translate(-290.685 -286.311)" fill="#ffcf54"/>
      </g>
      <g id="Сгруппировать_367" data-name="Сгруппировать 367" transform="translate(34.298 34.466)">
        <path id="Контур_4174" data-name="Контур 4174" d="M315.185,294.567a1.492,1.492,0,0,1-.174-.011,1.362,1.362,0,0,1-1.182-1.5,3.959,3.959,0,1,0-7.917-.065,1.382,1.382,0,0,1-1.179,1.544,1.343,1.343,0,0,1-1.525-1.159,3.231,3.231,0,0,1-.019-.385,6.682,6.682,0,0,1,13.364,0,2.967,2.967,0,0,1-.019.385A1.362,1.362,0,0,1,315.185,294.567Z" transform="translate(-303.188 -286.311)" fill="#ffcf54"/>
      </g>
      <g id="Сгруппировать_368" data-name="Сгруппировать 368" transform="translate(12.255 49.362)">
        <path id="Контур_4175" data-name="Контур 4175" d="M307.426,311.465c-9.74,0-18.115-5.12-20.366-12.453a1.362,1.362,0,1,1,2.6-.8c1.872,6.1,9.343,10.529,17.762,10.529s15.89-4.427,17.762-10.529a1.362,1.362,0,1,1,2.6.8C325.54,306.345,317.166,311.465,307.426,311.465Z" transform="translate(-287 -297.25)" fill="#ffcf54"/>
      </g>
    </g>
  </g>
</svg>
