<svg width="72" height="72" viewBox="0 0 72 72" fill="none" xmlns="http://www.w3.org/2000/svg">
<path fill-rule="evenodd" clip-rule="evenodd" d="M36 72C55.8823 72 72 55.8823 72 36C72 16.1177 55.8823 0 36 0C16.1177 0 0 16.1177 0 36C0 55.8823 16.1177 72 36 72ZM41.8228 16.0066V27.9112C41.449 27.8326 41.0619 27.7907 40.6651 27.7907C40.2581 27.7907 39.8616 27.8352 39.479 27.9178V16.0066H41.8228ZM35.0458 33.4099C35.0458 30.888 36.7159 28.7491 39.0081 28.0403H16.0659L16.3514 33.5206H35.0458V33.4099ZM35.046 36.4716C32.335 38.286 30.5463 41.3758 30.5463 44.8758C30.5463 49.5133 32.9271 53.6045 36.5302 55.9934H17.5224L16.4737 35.8644H35.046V36.4716ZM40.6523 34.7697C41.8321 34.7697 42.9651 34.9736 44.0187 35.347V33.4099C44.0187 31.5608 42.5143 30.0563 40.6652 30.0563C38.816 30.0563 37.3116 31.5608 37.3116 33.4099V35.3379C38.3578 34.9704 39.482 34.7697 40.6523 34.7697ZM48.4929 44.8758V46.0898C48.4929 50.2292 51.8607 53.597 56.0001 53.597V55.9407H43.8769C37.7758 55.9407 32.8121 50.977 32.8121 44.8758C32.8121 40.5526 36.3293 37.0354 40.6525 37.0354C44.9757 37.0354 48.4929 40.5526 48.4929 44.8758Z" fill="#FCC000"/>
</svg>
