<svg width="248" height="1022" viewBox="0 0 248 1022" fill="none" xmlns="http://www.w3.org/2000/svg">
<path d="M243.227 1007.34C243.719 1009.44 243.712 1011.95 242.045 1013.65C238.022 1017.75 231.988 1015.14 226.824 1016.29C222.411 1017.28 217.48 1022.39 212.877 1020.93C210.152 1020.06 208.629 1017.6 208.062 1015.19C207.284 1011.88 209.019 1008.54 212.024 1005.56C213.239 1004.35 214.068 1000.8 215.474 997.966C216.879 995.13 218.992 992.973 221.229 992.475C224.33 991.782 226.901 992.794 228.985 994.535C231.421 996.572 233.228 999.501 235.058 1000.24C238.949 1001.81 242.321 1003.48 243.227 1007.34Z" fill="#262424" fill-opacity="0.1"/>
<path d="M207.15 993.4C204.231 989.707 199.701 988.338 197.032 990.341C194.364 992.345 194.567 996.963 197.486 1000.66C200.406 1004.35 204.935 1005.72 207.604 1003.72C210.272 1001.71 210.069 997.094 207.15 993.4Z" fill="#262424" fill-opacity="0.1"/>
<path d="M216.924 981.105C215.242 976.25 211.231 973.185 207.965 974.26C204.7 975.335 203.416 980.142 205.099 984.997C206.781 989.852 210.792 992.917 214.058 991.842C217.323 990.767 218.607 985.96 216.924 981.105Z" fill="#262424" fill-opacity="0.1"/>
<path d="M241.991 980.311C238.694 979.638 235.227 982.792 234.247 987.355C233.267 991.919 235.146 996.163 238.443 996.835C241.74 997.508 245.207 994.354 246.187 989.791C247.167 985.228 245.288 980.983 241.991 980.311Z" fill="#262424" fill-opacity="0.1"/>
<path d="M232.342 978.902C231.69 973.817 228.388 970.033 224.968 970.45C221.548 970.867 219.304 975.327 219.957 980.412C220.609 985.497 223.911 989.281 227.331 988.864C230.751 988.447 232.995 983.987 232.342 978.902Z" fill="#262424" fill-opacity="0.1"/>
<path d="M136.66 951.452C138.244 952.958 140.441 954.259 142.801 953.757C148.487 952.548 149.348 946.169 153.046 942.475C156.207 939.319 163.266 937.879 164.373 933.287C165.033 930.57 163.677 928.021 161.856 926.29C159.364 923.92 155.54 923.625 151.355 924.567C149.664 924.95 146.131 923.793 142.912 923.48C139.693 923.168 136.706 923.806 135.103 925.407C132.881 927.625 132.428 930.292 132.867 932.931C133.38 936.019 135.004 939.043 134.697 940.956C134.044 945.012 133.754 948.688 136.66 951.452Z" fill="#262424" fill-opacity="0.1"/>
<path d="M154.649 909.926C152.937 905.574 148.999 902.998 145.853 904.173C142.708 905.349 141.547 909.83 143.26 914.183C144.972 918.536 148.91 921.112 152.056 919.936C155.201 918.761 156.362 914.279 154.649 909.926Z" fill="#262424" fill-opacity="0.1"/>
<path d="M136.961 908.089C133.586 904.159 128.708 902.721 126.065 904.878C123.422 907.034 124.015 911.967 127.39 915.897C130.765 919.826 135.643 921.264 138.286 919.108C140.929 916.952 140.336 912.018 136.961 908.089Z" fill="#262424" fill-opacity="0.1"/>
<path d="M123.844 933.566C119.337 932.003 114.769 933.243 113.639 936.336C112.51 939.429 115.247 943.203 119.754 944.766C124.261 946.329 128.829 945.089 129.959 941.996C131.088 938.903 128.351 935.129 123.844 933.566Z" fill="#262424" fill-opacity="0.1"/>
<path d="M125.224 918.071C121.111 914.878 116.036 914.42 113.889 917.047C111.741 919.675 113.334 924.393 117.447 927.586C121.56 930.779 126.634 931.237 128.782 928.61C130.93 925.982 129.337 921.264 125.224 918.071Z" fill="#262424" fill-opacity="0.1"/>
<path d="M145.929 838.755C145.941 840.912 145.372 843.357 143.374 844.66C138.532 847.807 133.224 843.981 127.931 844.004C123.406 844.027 117.444 847.968 113.28 845.559C110.818 844.133 109.879 841.412 109.865 838.933C109.847 835.538 112.288 832.654 115.89 830.377C117.347 829.456 118.949 826.176 120.956 823.701C122.963 821.227 125.506 819.579 127.803 819.568C130.983 819.552 133.266 821.087 134.908 823.228C136.829 825.734 137.928 828.976 139.553 830.087C142.993 832.446 145.908 834.8 145.929 838.755Z" fill="#262424" fill-opacity="0.1"/>
<path d="M113.828 817.48C111.806 813.255 107.691 810.955 104.639 812.343C101.586 813.731 100.751 818.281 102.773 822.506C104.795 826.731 108.91 829.03 111.962 827.643C115.015 826.255 115.85 821.705 113.828 817.48Z" fill="#262424" fill-opacity="0.1"/>
<path d="M126.125 807.549C125.57 802.453 122.341 798.61 118.914 798.964C115.486 799.319 113.158 803.737 113.713 808.833C114.268 813.929 117.496 817.773 120.924 817.418C124.351 817.063 126.68 812.645 126.125 807.549Z" fill="#262424" fill-opacity="0.1"/>
<path d="M150.761 812.122C147.694 810.765 143.605 813.106 141.627 817.35C139.649 821.595 140.533 826.137 143.6 827.494C146.667 828.851 150.757 826.51 152.734 822.265C154.712 818.021 153.829 813.479 150.761 812.122Z" fill="#262424" fill-opacity="0.1"/>
<path d="M136.383 798.865C132.952 798.545 129.763 802.42 129.261 807.521C128.759 812.622 131.133 817.017 134.564 817.338C137.995 817.659 141.184 813.784 141.686 808.683C142.188 803.582 139.814 799.186 136.383 798.865Z" fill="#262424" fill-opacity="0.1"/>
<path d="M54.4402 761.549C55.6503 763.36 57.5038 765.094 59.9194 765.105C65.7376 765.135 68.0068 759.093 72.4431 756.277C76.2337 753.871 83.4385 753.964 85.5545 749.712C86.8064 747.2 86.0515 744.425 84.6649 742.349C82.7627 739.506 79.0905 738.406 74.8029 738.435C73.0679 738.449 69.8766 736.568 66.806 735.578C63.7355 734.589 60.6765 734.576 58.7534 735.805C56.0893 737.498 55.0488 740.004 54.8862 742.673C54.698 745.794 55.6016 749.097 54.8862 750.892C53.3323 754.711 52.2267 758.237 54.4402 761.549Z" fill="#262424" fill-opacity="0.1"/>
<path d="M81.2831 724.847C80.586 720.234 77.3193 716.884 73.9867 717.362C70.6541 717.84 68.5177 721.967 69.2148 726.579C69.9119 731.191 73.1786 734.542 76.5112 734.064C79.8438 733.585 81.9803 729.459 81.2831 724.847Z" fill="#262424" fill-opacity="0.1"/>
<path d="M64.4286 719.298C62.0145 714.746 57.5753 712.306 54.5132 713.848C51.4512 715.39 50.9259 720.331 53.3399 724.883C55.754 729.436 60.1932 731.876 63.2553 730.334C66.3173 728.792 66.8426 723.851 64.4286 719.298Z" fill="#262424" fill-opacity="0.1"/>
<path d="M45.9319 741.372C41.8837 738.889 37.1473 739.128 35.3528 741.906C33.5583 744.684 35.3852 748.95 39.4333 751.433C43.4815 753.917 48.2179 753.678 50.0124 750.899C51.807 748.121 49.98 743.856 45.9319 741.372Z" fill="#262424" fill-opacity="0.1"/>
<path d="M50.7487 726.534C47.4497 722.544 42.5996 721.018 39.9156 723.125C37.2317 725.233 37.7303 730.176 41.0293 734.167C44.3283 738.157 49.1785 739.683 51.8624 737.576C54.5464 735.468 54.0477 730.525 50.7487 726.534Z" fill="#262424" fill-opacity="0.1"/>
<path d="M89.1986 657.553C88.5575 659.617 87.2731 661.79 84.9574 662.458C79.3831 664.067 75.4671 658.881 70.4014 657.383C66.0743 656.102 59.183 658.15 55.9336 654.648C54.0127 652.577 53.943 649.707 54.6816 647.337C55.692 644.091 58.8973 642.035 63.0316 640.897C64.7016 640.444 67.2263 637.764 69.8927 635.98C72.5591 634.196 75.4903 633.35 77.6875 634.002C80.7302 634.907 82.4466 637.026 83.3664 639.543C84.4441 642.486 84.5277 645.908 85.7309 647.434C88.3067 650.682 90.3785 653.77 89.1986 657.553Z" fill="#262424" fill-opacity="0.1"/>
<path d="M65.0007 627.989C64.3498 623.37 61.1169 619.988 57.7797 620.435C54.4424 620.881 52.2647 624.988 52.9155 629.606C53.5664 634.225 56.7993 637.607 60.1366 637.16C63.4738 636.713 65.6515 632.607 65.0007 627.989Z" fill="#262424" fill-opacity="0.1"/>
<path d="M75.4663 611.75C72.0844 611.101 68.5199 614.652 67.505 619.68C66.49 624.708 68.4088 629.31 71.7907 629.958C75.1727 630.607 78.7371 627.056 79.7521 622.028C80.7671 617 78.8483 612.398 75.4663 611.75Z" fill="#262424" fill-opacity="0.1"/>
<path d="M101.907 633.498C99.3887 631.318 94.7719 632.376 91.5955 635.862C88.419 639.348 87.8857 643.941 90.4043 646.121C92.9229 648.301 97.5396 647.242 100.716 643.757C103.893 640.271 104.426 635.678 101.907 633.498Z" fill="#262424" fill-opacity="0.1"/>
<path d="M92.1503 616.717C88.9696 615.422 84.7489 618.207 82.7232 622.936C80.6975 627.665 81.6338 632.547 84.8145 633.842C87.9952 635.136 92.2159 632.351 94.2416 627.622C96.2674 622.893 95.3311 618.011 92.1503 616.717Z" fill="#262424" fill-opacity="0.1"/>
<path d="M25.1955 557.45C25.804 559.525 27.0536 561.719 29.3507 562.43C34.9018 564.134 38.9014 559.014 43.995 557.599C48.3454 556.39 55.1995 558.554 58.507 555.109C60.465 553.072 60.5973 550.201 59.9005 547.818C58.9483 544.556 55.7802 542.448 51.6667 541.24C50.0037 540.753 47.5278 538.039 44.8916 536.208C42.2554 534.376 39.3428 533.491 37.1339 534.1C34.075 534.949 32.3214 537.043 31.3575 539.546C30.231 542.476 30.094 545.885 28.856 547.397C26.2174 550.595 24.0922 553.647 25.1955 557.45Z" fill="#262424" fill-opacity="0.1"/>
<path d="M57.2861 520.838C53.9573 520.335 50.6649 523.662 49.9323 528.269C49.1997 532.876 51.3043 537.018 54.6331 537.521C57.9619 538.024 61.2543 534.696 61.9869 530.09C62.7196 525.483 60.6149 521.34 57.2861 520.838Z" fill="#262424" fill-opacity="0.1"/>
<path d="M47.5815 519.962C46.6558 514.917 43.1549 511.308 39.7619 511.899C36.369 512.49 34.3689 517.059 35.2946 522.104C36.2203 527.148 39.7212 530.758 43.1142 530.166C46.5071 529.575 48.5072 525.006 47.5815 519.962Z" fill="#262424" fill-opacity="0.1"/>
<path d="M23.215 535.706C20.1008 532.168 15.5034 531.032 12.9466 533.169C10.3897 535.307 10.8415 539.908 13.9557 543.446C17.0699 546.985 21.6672 548.121 24.2241 545.984C26.781 543.846 26.3292 539.245 23.215 535.706Z" fill="#262424" fill-opacity="0.1"/>
<path d="M32.2459 522.95C30.3035 518.188 26.1323 515.333 22.9293 516.574C19.7264 517.815 18.7045 522.682 20.647 527.444C22.5894 532.206 26.7606 535.06 29.9636 533.819C33.1665 532.578 34.1884 527.712 32.2459 522.95Z" fill="#262424" fill-opacity="0.1"/>
<path d="M209.846 77.3219C209.203 79.3863 207.919 81.5572 205.603 82.225C200.029 83.8367 196.115 78.6507 191.047 77.1499C186.72 75.8687 179.828 77.9196 176.579 74.4177C174.658 72.3465 174.589 69.4762 175.327 67.1039C176.34 63.8578 179.543 61.8047 183.689 60.6661C185.359 60.2133 187.883 57.5331 190.55 55.7471C193.216 53.961 196.147 53.119 198.345 53.7687C201.387 54.6742 203.106 56.7929 204.024 59.3123C205.101 62.255 205.185 65.6755 206.388 67.2034C208.957 70.4586 211.029 73.5371 209.846 77.3219Z" fill="#262424" fill-opacity="0.1"/>
<path d="M185.657 47.7581C185.007 43.1396 181.774 39.7577 178.436 40.2044C175.099 40.651 172.921 44.7572 173.572 49.3756C174.223 53.9941 177.456 57.3761 180.793 56.9294C184.131 56.4827 186.308 52.3766 185.657 47.7581Z" fill="#262424" fill-opacity="0.1"/>
<path d="M196.126 31.4956C192.744 30.8471 189.18 34.3976 188.165 39.4257C187.15 44.4539 189.069 49.0557 192.451 49.7042C195.833 50.3526 199.397 46.8022 200.412 41.774C201.427 36.7458 199.508 32.144 196.126 31.4956Z" fill="#262424" fill-opacity="0.1"/>
<path d="M222.564 53.2655C220.045 51.0855 215.429 52.1439 212.252 55.6294C209.076 59.115 208.542 63.7078 211.061 65.8879C213.58 68.0679 218.196 67.0096 221.373 63.524C224.549 60.0385 225.083 55.4456 222.564 53.2655Z" fill="#262424" fill-opacity="0.1"/>
<path d="M212.789 36.4991C209.608 35.205 205.388 37.9893 203.362 42.7183C201.336 47.4472 202.273 52.3299 205.453 53.624C208.634 54.9182 212.855 52.1338 214.88 47.4049C216.906 42.676 215.97 37.7933 212.789 36.4991Z" fill="#262424" fill-opacity="0.1"/>
<path d="M90.3272 466.707C89.0777 468.488 87.1847 470.184 84.7715 470.145C78.9532 470.052 76.8164 463.966 72.4451 461.055C68.708 458.565 61.5031 458.512 59.4824 454.223C58.2863 451.685 59.0992 448.926 60.5346 446.88C62.4972 444.08 66.1856 443.054 70.4802 443.174C72.2152 443.224 75.446 441.411 78.5375 440.487C81.6289 439.564 84.6855 439.613 86.5831 440.874C89.21 442.622 90.1948 445.148 90.2994 447.821C90.4201 450.947 89.4423 454.23 90.1298 456.041C91.5861 459.891 92.6151 463.44 90.3272 466.707Z" fill="#262424" fill-opacity="0.1"/>
<path d="M71.7524 422.125C68.4311 421.577 65.0913 424.859 64.2928 429.455C63.4942 434.052 65.5393 438.222 68.8606 438.77C72.1818 439.319 75.5216 436.037 76.3202 431.44C77.1187 426.844 75.0736 422.673 71.7524 422.125Z" fill="#262424" fill-opacity="0.1"/>
<path d="M91.2972 419.003C88.2698 417.397 83.7778 419.744 81.264 424.245C78.7503 428.746 79.1666 433.696 82.194 435.302C85.2214 436.908 89.7133 434.562 92.2271 430.061C94.7409 425.56 94.3245 420.609 91.2972 419.003Z" fill="#262424" fill-opacity="0.1"/>
<path d="M109.832 447.47C108.099 444.655 103.369 444.317 99.2667 446.715C95.1648 449.113 93.2444 453.34 94.9773 456.155C96.7102 458.97 101.44 459.308 105.542 456.91C109.644 454.512 111.565 450.285 109.832 447.47Z" fill="#262424" fill-opacity="0.1"/>
<path d="M105.676 428.62C103.039 426.456 98.1566 427.881 94.7705 431.801C91.3843 435.722 90.777 440.653 93.4139 442.817C96.0508 444.98 100.933 443.556 104.32 439.635C107.706 435.715 108.313 430.783 105.676 428.62Z" fill="#262424" fill-opacity="0.1"/>
<path d="M60.0355 352.508C59.9774 354.663 60.5 357.119 62.472 358.466C67.2427 361.712 72.6336 357.996 77.9269 358.134C82.4491 358.251 88.3231 362.317 92.5387 359.994C95.0332 358.62 96.0227 355.92 96.0993 353.43C96.1922 350.034 93.8162 347.103 90.2625 344.751C88.8271 343.8 87.2988 340.486 85.3478 337.96C83.3967 335.434 80.8883 333.743 78.5935 333.684C75.4138 333.6 73.0981 335.087 71.4072 337.192C69.4329 339.66 68.253 342.876 66.6086 343.952C63.113 346.272 60.147 348.563 60.0355 352.508Z" fill="#262424" fill-opacity="0.1"/>
<path d="M101.898 326.957C98.8768 325.506 94.713 327.719 92.5981 331.9C90.4832 336.082 91.218 340.648 94.2395 342.1C97.2609 343.551 101.425 341.338 103.54 337.157C105.654 332.975 104.92 328.409 101.898 326.957Z" fill="#262424" fill-opacity="0.1"/>
<path d="M87.9177 313.305C84.4988 312.879 81.1864 316.654 80.5192 321.737C79.852 326.82 82.0827 331.286 85.5016 331.712C88.9205 332.138 92.233 328.363 92.9002 323.28C93.5674 318.197 91.3367 313.731 87.9177 313.305Z" fill="#262424" fill-opacity="0.1"/>
<path d="M64.8217 331.189C62.938 326.904 58.9009 324.478 55.8045 325.771C52.7082 327.064 51.725 331.586 53.6087 335.871C55.4923 340.156 59.5294 342.582 62.6258 341.289C65.7222 339.997 66.7053 335.475 64.8217 331.189Z" fill="#262424" fill-opacity="0.1"/>
<path d="M77.4499 321.657C77.0612 316.546 73.9595 312.605 70.5221 312.853C67.0848 313.101 64.6134 317.446 65.0022 322.556C65.3909 327.666 68.4926 331.608 71.9299 331.359C75.3673 331.111 77.8387 326.767 77.4499 321.657Z" fill="#262424" fill-opacity="0.1"/>
<path d="M158.72 275.884C157.591 277.74 155.812 279.551 153.401 279.662C147.595 279.931 145.058 273.987 140.503 271.354C136.613 269.106 129.42 269.496 127.12 265.342C125.762 262.884 126.393 260.081 127.692 257.949C129.466 255.031 133.083 253.779 137.375 253.632C139.108 253.573 142.213 251.563 145.242 250.45C148.27 249.336 151.32 249.195 153.294 250.336C156.03 251.921 157.178 254.379 157.457 257.039C157.779 260.152 157.02 263.486 157.823 265.252C159.531 269.005 160.79 272.482 158.72 275.884Z" fill="#262424" fill-opacity="0.1"/>
<path d="M137.281 232.501C133.931 232.16 130.812 235.643 130.316 240.28C129.819 244.916 132.132 248.951 135.483 249.292C138.833 249.633 141.952 246.151 142.448 241.514C142.945 236.877 140.632 232.842 137.281 232.501Z" fill="#262424" fill-opacity="0.1"/>
<path d="M156.603 228.172C153.477 226.757 149.148 229.378 146.933 234.026C144.718 238.673 145.457 243.588 148.583 245.003C151.709 246.418 156.039 243.797 158.254 239.149C160.468 234.502 159.729 229.587 156.603 228.172Z" fill="#262424" fill-opacity="0.1"/>
<path d="M174.865 257.426C172.945 254.734 168.209 254.706 164.286 257.363C160.364 260.02 158.741 264.357 160.661 267.049C162.581 269.741 167.317 269.769 171.239 267.111C175.162 264.454 176.785 260.118 174.865 257.426Z" fill="#262424" fill-opacity="0.1"/>
<path d="M171.58 236.894C168.807 234.898 164.027 236.623 160.904 240.745C157.781 244.868 157.497 249.827 160.27 251.823C163.042 253.818 167.822 252.094 170.945 247.971C174.069 243.849 174.353 238.889 171.58 236.894Z" fill="#262424" fill-opacity="0.1"/>
<path d="M121.026 163.806C121.11 165.964 121.783 168.381 123.846 169.604C128.821 172.546 133.956 168.504 139.247 168.311C143.769 168.148 149.897 171.84 153.952 169.262C156.351 167.736 157.171 164.977 157.076 162.5C156.948 159.105 154.386 156.327 150.686 154.2C149.191 153.342 147.449 150.125 145.344 147.742C143.24 145.358 140.618 143.807 138.323 143.893C135.145 144.009 132.93 145.636 131.383 147.843C129.571 150.426 128.596 153.711 127.035 154.888C123.676 157.382 120.875 159.856 121.026 163.806Z" fill="#262424" fill-opacity="0.1"/>
<path d="M161.079 135.78C157.969 134.52 153.958 136.987 152.121 141.292C150.285 145.596 151.317 150.108 154.428 151.368C157.538 152.629 161.548 150.161 163.385 145.857C165.222 141.552 164.189 137.041 161.079 135.78Z" fill="#262424" fill-opacity="0.1"/>
<path d="M146.298 122.886C142.858 122.672 139.799 126.645 139.465 131.759C139.131 136.873 141.649 141.192 145.089 141.405C148.529 141.618 151.588 137.645 151.922 132.531C152.255 127.417 149.738 123.099 146.298 122.886Z" fill="#262424" fill-opacity="0.1"/>
<path d="M124.322 142.258C122.161 138.098 117.973 135.928 114.968 137.411C111.963 138.894 111.278 143.468 113.438 147.627C115.599 151.787 119.786 153.956 122.792 152.474C125.797 150.991 126.482 146.417 124.322 142.258Z" fill="#262424" fill-opacity="0.1"/>
<path d="M136.3 131.93C135.577 126.854 132.224 123.114 128.81 123.576C125.396 124.037 123.214 128.526 123.937 133.602C124.659 138.678 128.013 142.418 131.427 141.957C134.841 141.495 137.023 137.006 136.3 131.93Z" fill="#262424" fill-opacity="0.1"/>
</svg>
