<svg width="1440" height="211" viewBox="0 0 1440 211" fill="none" xmlns="http://www.w3.org/2000/svg">
<path d="M8.99611 206.278C7.17452 206.694 5.00194 206.688 3.52938 205.279C-0.0216475 201.879 2.2372 196.78 1.23915 192.417C0.388162 188.688 -4.04326 184.522 -2.77266 180.632C-2.01971 178.329 0.105806 177.042 2.19995 176.563C5.06273 175.905 7.95296 177.372 10.5412 179.911C11.5883 180.938 14.6589 181.638 17.1158 182.826C19.5727 184.013 21.4414 185.799 21.8727 187.689C22.4727 190.31 21.5963 192.482 20.0884 194.243C18.3237 196.302 15.7864 197.829 15.1472 199.375C13.7864 202.663 12.3354 205.512 8.99611 206.278Z" fill="#262424" fill-opacity="0.1"/>
<path d="M21.0705 175.792C24.2696 173.325 25.456 169.497 23.7205 167.242C21.985 164.987 17.9848 165.159 14.7857 167.626C11.5867 170.093 10.4003 173.92 12.1358 176.175C13.8713 178.43 17.8715 178.258 21.0705 175.792Z" fill="#262424" fill-opacity="0.1"/>
<path d="M31.7212 184.051C35.9268 182.63 38.5813 179.24 37.6503 176.481C36.7193 173.721 32.5553 172.637 28.3497 174.058C24.1442 175.48 21.4896 178.869 22.4206 181.629C23.3516 184.388 27.5156 185.473 31.7212 184.051Z" fill="#262424" fill-opacity="0.1"/>
<path d="M32.4091 205.233C32.9917 202.447 30.2597 199.517 26.307 198.689C22.3544 197.861 18.678 199.448 18.0955 202.234C17.513 205.021 20.245 207.95 24.1976 208.778C28.1502 209.606 31.8266 208.019 32.4091 205.233Z" fill="#262424" fill-opacity="0.1"/>
<path d="M33.6291 197.08C38.0336 196.528 41.3115 193.738 40.9503 190.848C40.5891 187.958 36.7257 186.062 32.3211 186.614C27.9166 187.165 24.6387 189.955 24.9999 192.845C25.3611 195.735 29.2245 197.631 33.6291 197.08Z" fill="#262424" fill-opacity="0.1"/>
<path d="M57.4066 116.227C56.1027 117.565 54.9752 119.422 55.4105 121.416C56.4576 126.22 61.9831 126.949 65.1832 130.073C67.9165 132.744 69.1636 138.709 73.1421 139.645C75.4951 140.202 77.7029 139.056 79.203 137.518C81.2559 135.412 81.5108 132.181 80.6951 128.644C80.3638 127.216 81.3657 124.23 81.6363 121.51C81.9069 118.79 81.354 116.266 79.9677 114.912C78.0461 113.033 75.7363 112.651 73.45 113.021C70.7754 113.455 68.1558 114.827 66.4989 114.568C62.9851 114.017 59.8008 113.771 57.4066 116.227Z" fill="#262424" fill-opacity="0.1"/>
<path d="M93.3771 131.428C97.1476 129.981 99.3788 126.653 98.3606 123.995C97.3424 121.338 93.4604 120.356 89.6899 121.803C85.9194 123.251 83.6882 126.578 84.7064 129.236C85.7246 131.894 89.6066 132.875 93.3771 131.428Z" fill="#262424" fill-opacity="0.1"/>
<path d="M94.9692 116.481C98.3731 113.63 99.6184 109.507 97.7508 107.274C95.8831 105.04 91.6096 105.542 88.2058 108.393C84.8019 111.245 83.5565 115.368 85.4242 117.601C87.2919 119.834 91.5653 119.333 94.9692 116.481Z" fill="#262424" fill-opacity="0.1"/>
<path d="M72.9002 105.397C74.2542 101.589 73.1799 97.7283 70.5008 96.7739C67.8216 95.8195 64.5521 98.1329 63.1982 101.941C61.8442 105.749 62.9185 109.61 65.5976 110.564C68.2768 111.519 71.5463 109.205 72.9002 105.397Z" fill="#262424" fill-opacity="0.1"/>
<path d="M86.3223 106.563C89.088 103.088 89.4851 98.7996 87.2091 96.9849C84.9331 95.1701 80.846 96.5163 78.0803 99.9916C75.3146 103.467 74.9176 107.755 77.1935 109.57C79.4695 111.385 83.5566 110.039 86.3223 106.563Z" fill="#262424" fill-opacity="0.1"/>
<path d="M155.027 124.06C153.159 124.069 151.041 123.589 149.912 121.901C147.186 117.808 150.5 113.324 150.48 108.851C150.461 105.028 147.047 99.9894 149.133 96.4703C150.368 94.3899 152.725 93.5969 154.872 93.5852C157.814 93.5695 160.312 95.6322 162.284 98.6763C163.082 99.9069 165.923 101.261 168.067 102.957C170.21 104.653 171.637 106.802 171.647 108.743C171.661 111.43 170.331 113.359 168.476 114.747C166.306 116.37 163.498 117.298 162.535 118.672C160.492 121.579 158.453 124.042 155.027 124.06Z" fill="#262424" fill-opacity="0.1"/>
<path d="M173.456 96.9333C177.116 95.2244 179.108 91.748 177.905 89.1684C176.703 86.5888 172.762 85.883 169.102 87.5919C165.443 89.3008 163.451 92.7773 164.653 95.3568C165.855 97.9364 169.797 98.6422 173.456 96.9333Z" fill="#262424" fill-opacity="0.1"/>
<path d="M182.058 107.325C186.472 106.856 189.802 104.127 189.495 101.231C189.187 98.3348 185.36 96.3671 180.946 96.8361C176.532 97.3052 173.202 100.033 173.51 102.93C173.817 105.826 177.644 107.794 182.058 107.325Z" fill="#262424" fill-opacity="0.1"/>
<path d="M178.097 128.143C179.273 125.551 177.245 122.095 173.568 120.424C169.891 118.753 165.957 119.499 164.782 122.091C163.606 124.683 165.634 128.139 169.311 129.81C172.988 131.481 176.922 130.734 178.097 128.143Z" fill="#262424" fill-opacity="0.1"/>
<path d="M189.581 115.992C189.858 113.093 186.502 110.399 182.083 109.974C177.664 109.55 173.857 111.557 173.579 114.456C173.301 117.355 176.658 120.049 181.077 120.474C185.495 120.898 189.303 118.892 189.581 115.992Z" fill="#262424" fill-opacity="0.1"/>
<path d="M221.905 46.7499C220.336 47.7725 218.834 49.3387 218.824 51.3799C218.799 56.2964 224.032 58.2139 226.471 61.9626C228.556 65.1657 228.475 71.2539 232.158 73.0419C234.334 74.0998 236.738 73.4619 238.536 72.2902C240.999 70.6828 241.952 67.5798 241.927 63.9567C241.915 62.4906 243.544 59.7939 244.401 57.1992C245.258 54.6045 245.27 52.0197 244.205 50.3946C242.738 48.1434 240.568 47.2642 238.256 47.1268C235.552 46.9678 232.691 47.7313 231.136 47.1268C227.828 45.8137 224.773 44.8795 221.905 46.7499Z" fill="#262424" fill-opacity="0.1"/>
<path d="M253.697 69.4325C257.692 68.8434 260.595 66.083 260.18 63.2669C259.766 60.4509 256.191 58.6455 252.196 59.2346C248.201 59.8237 245.298 62.5841 245.713 65.4002C246.127 68.2163 249.702 70.0216 253.697 69.4325Z" fill="#262424" fill-opacity="0.1"/>
<path d="M258.502 55.1903C262.446 53.1504 264.56 49.3992 263.224 46.8117C261.888 44.2243 257.608 43.7804 253.665 45.8203C249.721 47.8602 247.607 51.6114 248.943 54.1989C250.279 56.7864 254.559 57.2302 258.502 55.1903Z" fill="#262424" fill-opacity="0.1"/>
<path d="M239.382 39.5603C241.533 36.1395 241.326 32.1372 238.92 30.6208C236.513 29.1044 232.818 30.6482 230.667 34.0689C228.516 37.4897 228.723 41.492 231.129 43.0084C233.536 44.5248 237.231 42.981 239.382 39.5603Z" fill="#262424" fill-opacity="0.1"/>
<path d="M252.234 43.6307C255.691 40.843 257.013 36.7446 255.187 34.4766C253.362 32.2087 249.08 32.63 245.623 35.4177C242.167 38.2054 240.845 42.3038 242.67 44.5718C244.496 46.8398 248.778 46.4184 252.234 43.6307Z" fill="#262424" fill-opacity="0.1"/>
<path d="M311.988 76.1213C310.2 75.5796 308.317 74.4942 307.739 72.5375C306.345 67.8271 310.837 64.518 312.135 60.2374C313.245 56.5809 311.47 50.7577 314.504 48.0119C316.298 46.3888 318.784 46.3299 320.837 46.954C323.649 47.8078 325.429 50.5163 326.416 54.0098C326.808 55.421 329.129 57.5544 330.674 59.8076C332.22 62.0607 332.953 64.5376 332.388 66.3943C331.604 68.9654 329.769 70.4158 327.588 71.193C325.039 72.1037 322.074 72.1744 320.753 73.191C317.939 75.3676 315.264 77.1183 311.988 76.1213Z" fill="#262424" fill-opacity="0.1"/>
<path d="M337.597 55.6735C341.598 55.1235 344.528 52.3916 344.141 49.5716C343.754 46.7517 340.197 44.9114 336.196 45.4614C332.196 46.0114 329.266 48.7433 329.653 51.5633C330.04 54.3833 333.597 56.2235 337.597 55.6735Z" fill="#262424" fill-opacity="0.1"/>
<path d="M351.663 64.5174C352.225 61.6596 349.149 58.6476 344.794 57.7899C340.439 56.9322 336.453 58.5536 335.891 61.4114C335.329 64.2692 338.405 67.2812 342.76 68.1389C347.115 68.9966 351.101 67.3752 351.663 64.5174Z" fill="#262424" fill-opacity="0.1"/>
<path d="M332.824 86.8605C334.713 84.7322 333.796 80.831 330.777 78.1469C327.757 75.4627 323.779 75.0121 321.89 77.1403C320.002 79.2685 320.919 83.1698 323.938 85.8539C326.957 88.5381 330.936 88.9887 332.824 86.8605Z" fill="#262424" fill-opacity="0.1"/>
<path d="M347.361 78.6156C348.482 75.9278 346.07 72.3613 341.973 70.6495C337.877 68.9378 333.648 69.729 332.527 72.4167C331.406 75.1045 333.818 78.671 337.914 80.3828C342.01 82.0945 346.24 81.3033 347.361 78.6156Z" fill="#262424" fill-opacity="0.1"/>
<path d="M398.699 22.0379C396.901 22.5521 395.001 23.6081 394.385 25.5491C392.909 30.2399 397.344 33.6197 398.57 37.9238C399.617 41.5999 397.742 47.3917 400.726 50.1866C402.491 51.8411 404.977 51.953 407.042 51.3642C409.868 50.5595 411.693 47.8824 412.74 44.4065C413.162 43.0012 415.513 40.909 417.099 38.6814C418.686 36.4538 419.452 33.9926 418.925 32.1261C418.189 29.5412 416.376 28.0594 414.207 27.2449C411.67 26.293 408.717 26.1772 407.407 25.1311C404.636 22.9015 401.993 21.1057 398.699 22.0379Z" fill="#262424" fill-opacity="0.1"/>
<path d="M430.413 49.1548C430.848 46.3419 427.967 43.5598 423.976 42.9407C419.985 42.3216 416.397 44.1001 415.962 46.9129C415.526 49.7258 418.408 52.508 422.399 53.127C426.389 53.7461 429.977 51.9677 430.413 49.1548Z" fill="#262424" fill-opacity="0.1"/>
<path d="M431.172 40.9543C435.541 40.1721 438.668 37.2137 438.156 34.3466C437.644 31.4795 433.686 29.7894 429.317 30.5717C424.947 31.3539 421.82 34.3122 422.332 37.1793C422.845 40.0464 426.802 41.7365 431.172 40.9543Z" fill="#262424" fill-opacity="0.1"/>
<path d="M417.533 20.3643C420.598 17.7327 421.582 13.848 419.731 11.6874C417.88 9.52677 413.894 9.90856 410.829 12.5401C407.764 15.1716 406.78 19.0564 408.631 21.217C410.482 23.3776 414.468 22.9958 417.533 20.3643Z" fill="#262424" fill-opacity="0.1"/>
<path d="M428.584 27.9954C432.709 26.354 435.181 22.8293 434.106 20.1228C433.031 17.4162 428.816 16.5527 424.691 18.1941C420.566 19.8355 418.094 23.3602 419.169 26.0668C420.244 28.7733 424.459 29.6368 428.584 27.9954Z" fill="#262424" fill-opacity="0.1"/>
<path d="M814.594 178.07C812.806 177.527 810.925 176.441 810.347 174.485C808.951 169.774 813.443 166.467 814.743 162.184C815.853 158.528 814.076 152.705 817.11 149.959C818.904 148.336 821.39 148.277 823.445 148.901C826.257 149.757 828.035 152.463 829.022 155.967C829.414 157.378 831.736 159.511 833.283 161.764C834.83 164.018 835.559 166.494 834.996 168.351C834.212 170.922 832.377 172.375 830.194 173.15C827.645 174.061 824.682 174.131 823.359 175.148C820.539 177.319 817.873 179.069 814.594 178.07Z" fill="#262424" fill-opacity="0.1"/>
<path d="M840.203 157.63C844.204 157.08 847.133 154.348 846.746 151.528C846.36 148.708 842.803 146.868 838.802 147.418C834.801 147.968 831.872 150.7 832.259 153.52C832.646 156.34 836.203 158.18 840.203 157.63Z" fill="#262424" fill-opacity="0.1"/>
<path d="M854.29 166.477C854.852 163.619 851.776 160.607 847.421 159.749C843.065 158.892 839.079 160.513 838.517 163.371C837.956 166.229 841.031 169.241 845.387 170.098C849.742 170.956 853.728 169.335 854.29 166.477Z" fill="#262424" fill-opacity="0.1"/>
<path d="M835.432 188.817C837.321 186.688 836.404 182.787 833.385 180.103C830.365 177.419 826.387 176.968 824.499 179.097C822.61 181.225 823.527 185.126 826.546 187.81C829.565 190.494 833.544 190.945 835.432 188.817Z" fill="#262424" fill-opacity="0.1"/>
<path d="M849.956 180.557C851.077 177.869 848.665 174.302 844.568 172.591C840.472 170.879 836.243 171.67 835.122 174.358C834.001 177.046 836.412 180.612 840.509 182.324C844.605 184.036 848.834 183.245 849.956 180.557Z" fill="#262424" fill-opacity="0.1"/>
<path d="M901.305 123.997C899.509 124.509 897.609 125.567 896.991 127.506C895.517 132.197 899.95 135.577 901.176 139.871C902.223 143.547 900.348 149.339 903.333 152.136C905.097 153.788 907.584 153.902 909.648 153.313C912.476 152.507 914.301 149.829 915.346 146.354C915.77 144.95 918.121 142.856 919.705 140.628C921.29 138.401 922.058 135.94 921.533 134.073C920.798 131.488 918.984 130.006 916.815 129.192C914.278 128.24 911.325 128.124 910.015 127.078C907.242 124.852 904.599 123.057 901.305 123.997Z" fill="#262424" fill-opacity="0.1"/>
<path d="M930.389 148.956C930.816 146.139 927.921 143.363 923.923 142.756C919.925 142.15 916.339 143.943 915.912 146.761C915.485 149.579 918.38 152.355 922.378 152.961C926.376 153.567 929.963 151.774 930.389 148.956Z" fill="#262424" fill-opacity="0.1"/>
<path d="M933.779 142.916C938.148 142.133 941.275 139.175 940.763 136.308C940.251 133.441 936.293 131.751 931.923 132.533C927.554 133.315 924.427 136.274 924.939 139.141C925.452 142.008 929.409 143.698 933.779 142.916Z" fill="#262424" fill-opacity="0.1"/>
<path d="M920.159 122.344C923.224 119.712 924.208 115.828 922.356 113.667C920.505 111.506 916.519 111.888 913.454 114.52C910.389 117.151 909.405 121.036 911.256 123.197C913.108 125.357 917.093 124.975 920.159 122.344Z" fill="#262424" fill-opacity="0.1"/>
<path d="M931.183 129.907C935.308 128.266 937.78 124.741 936.705 122.034C935.63 119.328 931.415 118.464 927.29 120.106C923.165 121.747 920.693 125.272 921.768 127.978C922.843 130.685 927.058 131.548 931.183 129.907Z" fill="#262424" fill-opacity="0.1"/>
<path d="M992.657 177.089C990.808 176.814 988.789 176.019 987.93 174.169C985.857 169.709 989.816 165.782 990.479 161.356C991.04 157.574 988.43 152.075 991.028 148.915C992.563 147.046 995.014 146.62 997.138 146.936C1000.04 147.368 1002.2 149.784 1003.69 153.095C1004.29 154.432 1006.89 156.202 1008.76 158.198C1010.62 160.194 1011.7 162.542 1011.42 164.461C1011.03 167.119 1009.42 168.824 1007.37 169.913C1004.98 171.189 1002.06 171.68 1000.9 172.895C998.434 175.458 996.046 177.584 992.657 177.089Z" fill="#262424" fill-opacity="0.1"/>
<path d="M1015.01 153.273C1018.89 152.141 1021.39 149.008 1020.59 146.276C1019.79 143.543 1016.01 142.245 1012.13 143.377C1008.25 144.509 1005.76 147.641 1006.55 150.374C1007.35 153.107 1011.14 154.404 1015.01 153.273Z" fill="#262424" fill-opacity="0.1"/>
<path d="M1030.22 159.771C1030.36 156.861 1026.87 154.334 1022.44 154.127C1018.01 153.919 1014.3 156.109 1014.17 159.018C1014.03 161.928 1017.51 164.455 1021.95 164.662C1026.38 164.87 1030.09 162.68 1030.22 159.771Z" fill="#262424" fill-opacity="0.1"/>
<path d="M1014.84 184.638C1016.4 182.255 1014.92 178.531 1011.54 176.32C1008.16 174.109 1004.16 174.249 1002.6 176.632C1001.05 179.015 1002.53 182.739 1005.91 184.95C1009.29 187.161 1013.29 187.021 1014.84 184.638Z" fill="#262424" fill-opacity="0.1"/>
<path d="M1027.99 174.335C1028.71 171.512 1025.8 168.339 1021.5 167.248C1017.19 166.157 1013.13 167.562 1012.41 170.385C1011.7 173.209 1014.61 176.382 1018.91 177.473C1023.21 178.563 1027.28 177.159 1027.99 174.335Z" fill="#262424" fill-opacity="0.1"/>
<path d="M1070.49 110.835C1068.79 111.606 1067.06 112.927 1066.74 114.941C1065.97 119.799 1070.86 122.489 1072.7 126.566C1074.26 130.048 1073.27 136.053 1076.63 138.379C1078.62 139.753 1081.09 139.492 1083.05 138.605C1085.72 137.392 1087.14 134.483 1087.66 130.884C1087.88 129.433 1089.89 127.017 1091.13 124.582C1092.38 122.146 1092.78 119.594 1091.98 117.828C1090.87 115.379 1088.86 114.179 1086.6 113.693C1083.95 113.124 1081 113.445 1079.56 112.601C1076.49 110.81 1073.61 109.422 1070.49 110.835Z" fill="#262424" fill-opacity="0.1"/>
<path d="M1105.87 132.993C1105.89 130.146 1102.63 127.818 1098.59 127.793C1094.56 127.767 1091.27 130.054 1091.25 132.901C1091.23 135.747 1094.49 138.075 1098.53 138.1C1102.57 138.126 1105.86 135.839 1105.87 132.993Z" fill="#262424" fill-opacity="0.1"/>
<path d="M1105.39 124.776C1109.6 123.359 1112.25 119.973 1111.33 117.213C1110.4 114.452 1106.24 113.362 1102.03 114.779C1097.82 116.195 1095.16 119.581 1096.09 122.342C1097.02 125.103 1101.18 126.192 1105.39 124.776Z" fill="#262424" fill-opacity="0.1"/>
<path d="M1088.9 106.435C1091.55 103.381 1091.95 99.3937 1089.8 97.5289C1087.65 95.6641 1083.77 96.628 1081.12 99.6818C1078.48 102.736 1078.07 106.723 1080.22 108.588C1082.37 110.453 1086.26 109.489 1088.9 106.435Z" fill="#262424" fill-opacity="0.1"/>
<path d="M1100.9 112.273C1104.74 110.042 1106.67 106.192 1105.21 103.673C1103.75 101.154 1099.45 100.92 1095.61 103.15C1091.77 105.381 1089.84 109.231 1091.3 111.75C1092.76 114.269 1097.06 114.503 1100.9 112.273Z" fill="#262424" fill-opacity="0.1"/>
<path d="M1167.64 151.453C1165.77 151.382 1163.67 150.815 1162.62 149.07C1160.07 144.868 1163.57 140.526 1163.73 136.055C1163.87 132.234 1160.67 127.059 1162.91 123.63C1164.23 121.602 1166.62 120.909 1168.76 120.988C1171.7 121.098 1174.11 123.261 1175.95 126.387C1176.7 127.649 1179.48 129.121 1181.55 130.901C1183.62 132.682 1184.96 134.894 1184.88 136.833C1184.78 139.52 1183.37 141.39 1181.46 142.699C1179.23 144.23 1176.38 145.054 1175.36 146.375C1173.2 149.203 1171.06 151.574 1167.64 151.453Z" fill="#262424" fill-opacity="0.1"/>
<path d="M1187.18 125.108C1190.91 123.554 1193.04 120.165 1191.95 117.537C1190.86 114.909 1186.95 114.038 1183.22 115.591C1179.49 117.144 1177.36 120.534 1178.45 123.162C1179.54 125.79 1183.45 126.661 1187.18 125.108Z" fill="#262424" fill-opacity="0.1"/>
<path d="M1195.34 135.871C1199.77 135.588 1203.21 133.003 1203.03 130.096C1202.84 127.189 1199.1 125.062 1194.67 125.345C1190.24 125.628 1186.8 128.213 1186.99 131.12C1187.17 134.027 1190.91 136.154 1195.34 135.871Z" fill="#262424" fill-opacity="0.1"/>
<path d="M1190.48 156.492C1191.77 153.952 1189.89 150.414 1186.28 148.589C1182.68 146.765 1178.72 147.345 1177.44 149.885C1176.15 152.425 1178.03 155.963 1181.64 157.788C1185.24 159.612 1189.2 159.032 1190.48 156.492Z" fill="#262424" fill-opacity="0.1"/>
<path d="M1202.41 144.814C1202.81 141.928 1199.57 139.096 1195.17 138.487C1190.78 137.878 1186.89 139.723 1186.49 142.608C1186.09 145.493 1189.33 148.325 1193.73 148.934C1198.12 149.544 1202.01 147.699 1202.41 144.814Z" fill="#262424" fill-opacity="0.1"/>
<path d="M1237.7 77.0241C1236.09 77.98 1234.52 79.4814 1234.43 81.5187C1234.2 86.4253 1239.34 88.5686 1241.62 92.4154C1243.57 95.7029 1243.24 101.781 1246.84 103.722C1248.96 104.872 1251.39 104.337 1253.24 103.24C1255.77 101.738 1256.85 98.6842 1256.98 95.0572C1257.03 93.5911 1258.77 90.967 1259.73 88.4096C1260.7 85.8522 1260.82 83.2713 1259.83 81.6031C1258.46 79.293 1256.33 78.3215 1254.02 78.0879C1251.33 77.8151 1248.44 78.4589 1246.91 77.7798C1243.66 76.3372 1240.64 75.2754 1237.7 77.0241Z" fill="#262424" fill-opacity="0.1"/>
<path d="M1268.51 101.05C1272.53 100.629 1275.55 97.9935 1275.25 95.1625C1274.95 92.3315 1271.46 90.3773 1267.44 90.7977C1263.43 91.2181 1260.41 93.8539 1260.71 96.6849C1261 99.516 1264.5 101.47 1268.51 101.05Z" fill="#262424" fill-opacity="0.1"/>
<path d="M1273.91 86.9893C1277.93 85.1172 1280.2 81.4582 1278.98 78.8168C1277.75 76.1754 1273.49 75.5518 1269.47 77.4239C1265.44 79.296 1263.17 82.9549 1264.4 85.5964C1265.62 88.2378 1269.88 88.8614 1273.91 86.9893Z" fill="#262424" fill-opacity="0.1"/>
<path d="M1255.49 70.5937C1257.78 67.2665 1257.74 63.2591 1255.4 61.6427C1253.06 60.0264 1249.3 61.4132 1247.01 64.7404C1244.72 68.0676 1244.76 72.0751 1247.1 73.6914C1249.44 75.3078 1253.2 73.9209 1255.49 70.5937Z" fill="#262424" fill-opacity="0.1"/>
<path d="M1268.17 75.2352C1271.74 72.5955 1273.23 68.5563 1271.5 66.2135C1269.77 63.8707 1265.48 64.1114 1261.91 66.7512C1258.34 69.3909 1256.84 73.4301 1258.57 75.7729C1260.3 78.1157 1264.6 77.875 1268.17 75.2352Z" fill="#262424" fill-opacity="0.1"/>
<path d="M1343.44 110.127C1341.61 110.466 1339.44 110.37 1338.02 108.9C1334.62 105.357 1337.09 100.354 1336.26 95.9462C1335.56 92.1877 1331.31 87.8365 1332.74 84.0014C1333.59 81.7345 1335.77 80.5353 1337.88 80.1428C1340.77 79.607 1343.59 81.1909 1346.07 83.8385C1347.08 84.9062 1350.11 85.7344 1352.52 87.022C1354.93 88.3095 1356.72 90.172 1357.07 92.0798C1357.56 94.7215 1356.59 96.8569 1355.02 98.5566C1353.17 100.541 1350.57 101.96 1349.87 103.479C1348.39 106.713 1346.82 109.5 1343.44 110.127Z" fill="#262424" fill-opacity="0.1"/>
<path d="M1356.74 80.1111C1360.03 77.7794 1361.38 74.0043 1359.74 71.6792C1358.1 69.3541 1354.09 69.3595 1350.8 71.6912C1347.5 74.0229 1346.15 77.798 1347.79 80.1231C1349.43 82.4482 1353.44 82.4428 1356.74 80.1111Z" fill="#262424" fill-opacity="0.1"/>
<path d="M1367.07 88.8404C1371.33 87.5949 1374.12 84.3187 1373.31 81.5229C1372.49 78.7271 1368.38 77.4704 1364.12 78.7159C1359.86 79.9615 1357.06 83.2376 1357.88 86.0334C1358.69 88.8292 1362.81 90.086 1367.07 88.8404Z" fill="#262424" fill-opacity="0.1"/>
<path d="M1366.8 110.032C1367.5 107.273 1364.89 104.232 1360.98 103.24C1357.06 102.249 1353.32 103.682 1352.63 106.442C1351.93 109.201 1354.54 112.242 1358.45 113.233C1362.37 114.225 1366.1 112.792 1366.8 110.032Z" fill="#262424" fill-opacity="0.1"/>
<path d="M1372.86 106.041C1377.3 105.685 1380.71 103.036 1380.48 100.123C1380.24 97.2107 1376.46 95.1377 1372.02 95.4932C1367.58 95.8486 1364.17 98.4979 1364.4 101.41C1364.63 104.323 1368.42 106.396 1372.86 106.041Z" fill="#262424" fill-opacity="0.1"/>
<path d="M1395.55 22.1675C1394.19 23.4491 1392.99 25.2587 1393.34 27.2704C1394.19 32.1143 1399.68 33.0721 1402.75 36.3281C1405.37 39.1093 1406.37 45.115 1410.31 46.222C1412.64 46.8755 1414.89 45.8294 1416.45 44.3476C1418.59 42.33 1418.98 39.1132 1418.31 35.545C1418.04 34.1044 1419.17 31.1624 1419.55 28.4559C1419.93 25.7494 1419.49 23.2057 1418.16 21.7926C1416.32 19.8299 1414.02 19.3589 1411.72 19.6337C1409.03 19.9575 1406.35 21.2175 1404.71 20.8898C1401.22 20.1911 1398.05 19.8142 1395.55 22.1675Z" fill="#262424" fill-opacity="0.1"/>
<path d="M1430.86 38.841C1434.69 37.5518 1437.06 34.3197 1436.15 31.6219C1435.24 28.9241 1431.41 27.7822 1427.58 29.0715C1423.75 30.3607 1421.38 33.5929 1422.29 36.2907C1423.2 38.9884 1427.04 40.1303 1430.86 38.841Z" fill="#262424" fill-opacity="0.1"/>
<path d="M1433.04 23.9435C1436.56 21.2356 1437.98 17.1685 1436.2 14.8593C1434.43 12.5502 1430.14 12.8734 1426.62 15.5813C1423.1 18.2892 1421.69 22.3563 1423.46 24.6654C1425.23 26.9746 1429.52 26.6514 1433.04 23.9435Z" fill="#262424" fill-opacity="0.1"/>
<path d="M1411.48 11.9858C1412.99 8.2373 1412.08 4.33522 1409.44 3.2703C1406.8 2.20538 1403.44 4.38088 1401.93 8.1294C1400.42 11.8779 1401.33 15.78 1403.97 16.8449C1406.61 17.9098 1409.97 15.7343 1411.48 11.9858Z" fill="#262424" fill-opacity="0.1"/>
<path d="M1424.88 13.7349C1427.79 10.3775 1428.36 6.10937 1426.16 4.20161C1423.97 2.29386 1419.83 3.46894 1416.92 6.82627C1414.01 10.1836 1413.44 14.4518 1415.63 16.3596C1417.83 18.2674 1421.97 17.0922 1424.88 13.7349Z" fill="#262424" fill-opacity="0.1"/>
<path d="M477.302 77.0752C475.759 76.0193 474.29 74.4197 474.323 72.3805C474.404 67.464 479.676 65.6583 482.198 61.9646C484.355 58.8066 484.4 52.7184 488.116 51.0109C490.314 50.0001 492.704 50.6871 494.476 51.9C496.902 53.5584 497.79 56.6752 497.686 60.3041C497.643 61.7703 499.214 64.5003 500.014 67.1127C500.814 69.725 500.77 72.3078 499.678 73.9113C498.165 76.1311 495.976 76.9633 493.661 77.0516C490.953 77.1537 488.11 76.3274 486.541 76.9083C483.206 78.1389 480.131 79.0084 477.302 77.0752Z" fill="#262424" fill-opacity="0.1"/>
<path d="M515.92 61.3789C516.394 58.5723 513.552 55.7502 509.57 55.0754C505.588 54.4006 501.976 56.1287 501.501 58.9352C501.026 61.7418 503.869 64.5639 507.851 65.2387C511.832 65.9135 515.445 64.1854 515.92 61.3789Z" fill="#262424" fill-opacity="0.1"/>
<path d="M518.624 77.8945C520.015 75.3363 517.982 71.5405 514.083 69.4164C510.185 67.2922 505.896 67.644 504.505 70.2022C503.114 72.7604 505.147 76.5561 509.046 78.6803C512.944 80.8045 517.233 80.4527 518.624 77.8945Z" fill="#262424" fill-opacity="0.1"/>
<path d="M493.965 93.5564C496.404 92.0921 496.697 88.0952 494.619 84.629C492.542 81.1628 488.881 79.54 486.442 81.0043C484.004 82.4687 483.711 86.4656 485.788 89.9318C487.866 93.398 491.527 95.0208 493.965 93.5564Z" fill="#262424" fill-opacity="0.1"/>
<path d="M510.294 90.0451C512.168 87.8168 510.934 83.6909 507.538 80.8296C504.142 77.9682 499.87 77.455 497.996 79.6833C496.122 81.9115 497.356 86.0374 500.752 88.8987C504.148 91.7601 508.42 92.2733 510.294 90.0451Z" fill="#262424" fill-opacity="0.1"/>
<path d="M576.223 51.478C574.356 51.429 572.229 51.8706 571.062 53.5369C568.25 57.5682 571.47 62.1235 571.35 66.5965C571.248 70.4178 567.727 75.3814 569.738 78.9436C570.929 81.0515 573.268 81.8876 575.425 81.9524C578.366 82.0309 580.905 80.0231 582.943 77.0202C583.766 75.8073 586.637 74.5159 588.825 72.8672C591.013 71.2186 592.478 69.0989 592.529 67.1598C592.602 64.4729 591.313 62.5161 589.49 61.0873C587.352 59.419 584.566 58.4219 583.635 57.0324C581.625 54.0786 579.641 51.5722 576.223 51.478Z" fill="#262424" fill-opacity="0.1"/>
<path d="M598.356 86.8527C599.613 84.2996 597.696 80.7811 594.074 78.994C590.452 77.2068 586.496 77.8278 585.239 80.381C583.981 82.9341 585.898 86.4526 589.521 88.2397C593.143 90.0268 597.098 89.4058 598.356 86.8527Z" fill="#262424" fill-opacity="0.1"/>
<path d="M610.182 75.0389C610.551 72.1499 607.281 69.3509 602.878 68.7871C598.475 68.2233 594.606 70.1082 594.237 72.9973C593.868 75.8863 597.138 78.6854 601.541 79.2492C605.944 79.813 609.812 77.928 610.182 75.0389Z" fill="#262424" fill-opacity="0.1"/>
<path d="M594.689 55.5224C598.401 53.9307 600.503 50.5193 599.383 47.9028C598.263 45.2863 594.346 44.4556 590.634 46.0472C586.922 47.6389 584.821 51.0503 585.941 53.6668C587.061 56.2833 590.977 57.1141 594.689 55.5224Z" fill="#262424" fill-opacity="0.1"/>
<path d="M602.947 66.1935C607.374 65.865 610.788 63.244 610.573 60.3394C610.358 57.4348 606.595 55.3464 602.168 55.6749C597.741 56.0034 594.327 58.6244 594.542 61.529C594.758 64.4336 598.52 66.522 602.947 66.1935Z" fill="#262424" fill-opacity="0.1"/>
<path d="M642.596 134.868C640.988 133.914 639.42 132.411 639.324 130.373C639.09 125.467 644.239 123.324 646.52 119.475C648.467 116.187 648.13 110.109 651.728 108.166C653.857 107.018 656.285 107.552 658.132 108.649C660.659 110.148 661.743 113.204 661.871 116.831C661.922 118.295 663.663 120.919 664.628 123.479C665.593 126.038 665.714 128.615 664.726 130.283C663.353 132.595 661.224 133.565 658.92 133.8C656.224 134.073 653.335 133.431 651.806 134.11C648.555 135.553 645.543 136.617 642.596 134.868Z" fill="#262424" fill-opacity="0.1"/>
<path d="M680.175 116.752C680.47 113.921 677.454 111.285 673.438 110.866C669.421 110.446 665.926 112.401 665.631 115.232C665.335 118.063 668.352 120.698 672.368 121.118C676.385 121.538 679.88 119.583 680.175 116.752Z" fill="#262424" fill-opacity="0.1"/>
<path d="M683.925 133.079C685.15 130.438 682.88 126.779 678.854 124.908C674.828 123.036 670.571 123.661 669.346 126.302C668.12 128.944 670.39 132.602 674.416 134.474C678.442 136.345 682.699 135.721 683.925 133.079Z" fill="#262424" fill-opacity="0.1"/>
<path d="M658.585 148.51C660.917 146.888 660.941 142.886 658.64 139.571C656.338 136.257 652.582 134.885 650.25 136.508C647.918 138.13 647.894 142.132 650.195 145.447C652.497 148.761 656.253 150.133 658.585 148.51Z" fill="#262424" fill-opacity="0.1"/>
<path d="M676.37 145.734C678.099 143.391 676.605 139.352 673.034 136.713C669.463 134.074 665.167 133.834 663.439 136.177C661.71 138.52 663.204 142.559 666.775 145.198C670.346 147.837 674.642 148.077 676.37 145.734Z" fill="#262424" fill-opacity="0.1"/>
<path d="M739.68 103.016C737.811 103.086 735.717 103.656 734.658 105.398C732.109 109.603 735.611 113.942 735.778 118.413C735.919 122.234 732.721 127.412 734.954 130.839C736.276 132.866 738.666 133.559 740.811 133.478C743.752 133.37 746.158 131.206 748.001 128.079C748.745 126.815 751.531 125.343 753.596 123.565C755.66 121.787 757.003 119.571 756.929 117.632C756.829 114.947 755.419 113.074 753.507 111.767C751.27 110.236 748.425 109.412 747.405 108.093C745.245 105.255 743.101 102.888 739.68 103.016Z" fill="#262424" fill-opacity="0.1"/>
<path d="M763.957 136.861C765.048 134.233 762.911 130.844 759.182 129.292C755.454 127.74 751.546 128.612 750.454 131.241C749.362 133.869 751.5 137.258 755.228 138.81C758.957 140.362 762.865 139.489 763.957 136.861Z" fill="#262424" fill-opacity="0.1"/>
<path d="M775.126 124.371C775.311 121.464 771.869 118.879 767.439 118.597C763.01 118.315 759.269 120.443 759.084 123.349C758.899 126.256 762.341 128.841 766.77 129.123C771.2 129.405 774.941 127.278 775.126 124.371Z" fill="#262424" fill-opacity="0.1"/>
<path d="M758.346 105.801C761.949 103.975 763.828 100.436 762.544 97.8968C761.259 95.3572 757.297 94.7784 753.694 96.6041C750.091 98.4297 748.212 101.968 749.496 104.508C750.781 107.048 754.743 107.626 758.346 105.801Z" fill="#262424" fill-opacity="0.1"/>
<path d="M767.292 115.923C771.688 115.312 774.928 112.478 774.528 109.593C774.128 106.708 770.24 104.865 765.843 105.475C761.447 106.086 758.207 108.92 758.606 111.805C759.006 114.69 762.895 116.533 767.292 115.923Z" fill="#262424" fill-opacity="0.1"/>
</svg>
