<svg width="1920" height="915" viewBox="0 0 1920 915" fill="none" xmlns="http://www.w3.org/2000/svg">
<g clip-path="url(#clip0)">
<path d="M-32 647.94H1952V0.0529785C1952 0.0529785 1687.65 51.4923 1512.27 63.097C1282.88 78.2749 1150.61 23.8657 922.271 44.0648C761.004 58.3308 677.948 69.6668 515.064 72.6346C286.776 76.7942 -32 0.0529785 -32 0.0529785V647.94Z" fill="#FAFAFA"/>
<path d="M-49 189.984H1968.5V915C1968.5 915 1894.88 804.443 1719.5 791.457C1490.12 774.472 1370.84 856.382 1142.5 833.778C981.232 817.813 1028.5 734.601 531.564 833.778C309.189 878.158 -49 824.5 -49 824.5V189.984Z" fill="#FAFAFA"/>
</g>
<defs>
<clipPath id="clip0">
<rect width="1920" height="914.947" fill="white" transform="translate(0 0.0529785)"/>
</clipPath>
</defs>
</svg>
