<svg width="60" height="60" viewBox="0 0 60 60" fill="none" xmlns="http://www.w3.org/2000/svg">
<circle cx="30" cy="30" r="29.5" fill="white" stroke="#C4C4C4"/>
<path d="M30 24C30.1989 24 30.3897 24.079 30.5303 24.2197C30.671 24.3603 30.75 24.5511 30.75 24.75V29.25H35.25C35.4489 29.25 35.6397 29.329 35.7803 29.4697C35.921 29.6103 36 29.8011 36 30C36 30.1989 35.921 30.3897 35.7803 30.5303C35.6397 30.671 35.4489 30.75 35.25 30.75H30.75V35.25C30.75 35.4489 30.671 35.6397 30.5303 35.7803C30.3897 35.921 30.1989 36 30 36C29.8011 36 29.6103 35.921 29.4697 35.7803C29.329 35.6397 29.25 35.4489 29.25 35.25V30.75H24.75C24.5511 30.75 24.3603 30.671 24.2197 30.5303C24.079 30.3897 24 30.1989 24 30C24 29.8011 24.079 29.6103 24.2197 29.4697C24.3603 29.329 24.5511 29.25 24.75 29.25H29.25V24.75C29.25 24.5511 29.329 24.3603 29.4697 24.2197C29.6103 24.079 29.8011 24 30 24Z" fill="#C4C4C4"/>
</svg>
