<svg width="14" height="14" viewBox="0 0 14 14" fill="none" xmlns="http://www.w3.org/2000/svg">
<g clip-path="url(#clip0)">
<path d="M10.2741 9.05133C11.1213 7.89518 11.5008 6.46176 11.3366 5.03784C11.1724 3.61391 10.4765 2.3045 9.38835 1.37157C8.30016 0.438638 6.89984 -0.0490148 5.46754 0.0061742C4.03524 0.0613632 2.6766 0.655324 1.66342 1.66923C0.650242 2.68313 0.0572532 4.0422 0.00308915 5.47454C-0.0510749 6.90687 0.43758 8.30685 1.37129 9.39437C2.305 10.4819 3.61491 11.1768 5.03895 11.34C6.46299 11.5032 7.89614 11.1227 9.05168 10.2746H9.05081C9.07706 10.3096 9.10506 10.3428 9.13656 10.3752L12.5053 13.744C12.6694 13.9081 12.892 14.0004 13.1241 14.0005C13.3562 14.0006 13.5788 13.9085 13.743 13.7444C13.9072 13.5803 13.9995 13.3578 13.9995 13.1256C13.9996 12.8935 13.9075 12.6709 13.7434 12.5067L10.3747 9.13796C10.3434 9.10629 10.3098 9.07704 10.2741 9.05046V9.05133ZM10.4998 5.68783C10.4998 6.31982 10.3753 6.94562 10.1335 7.5295C9.89163 8.11338 9.53714 8.6439 9.09026 9.09078C8.64338 9.53767 8.11285 9.89215 7.52897 10.134C6.94509 10.3759 6.3193 10.5003 5.68731 10.5003C5.05532 10.5003 4.42952 10.3759 3.84565 10.134C3.26177 9.89215 2.73124 9.53767 2.28436 9.09078C1.83748 8.6439 1.48299 8.11338 1.24114 7.5295C0.999288 6.94562 0.874809 6.31982 0.874809 5.68783C0.874809 4.41148 1.38184 3.1874 2.28436 2.28488C3.18688 1.38236 4.41095 0.875332 5.68731 0.875332C6.96366 0.875332 8.18774 1.38236 9.09026 2.28488C9.99278 3.1874 10.4998 4.41148 10.4998 5.68783Z" fill="#747474"/>
</g>
<defs>
<clipPath id="clip0">
<rect width="14" height="14" fill="white"/>
</clipPath>
</defs>
</svg>
