<svg width="221" height="21" viewBox="0 0 221 21" fill="none" xmlns="http://www.w3.org/2000/svg">
<path d="M219.704 10.7808C217.865 12.7509 216.258 14.8877 214.41 16.8495C212.872 18.4834 211.277 19.2587 209.711 19.1892C209.711 19.1698 209.711 19.1503 209.711 19.1281C209.236 19.1063 208.765 19.0297 208.313 18.9002C207.273 18.5112 206.255 17.7359 205.288 16.5744C203.95 14.9683 202.796 13.24 201.534 11.5894C199.899 9.44422 197.98 7.51022 195.235 6.44875L195.162 6.42374C193.906 5.86754 192.549 5.51008 191.151 5.36782L190.375 5.17887V5.31502C186.887 5.17609 183.298 6.42652 180.429 9.11355C178.885 10.5585 177.68 12.2757 176.276 13.8374C175.233 14.9989 174.234 16.2188 173.013 17.2219C171.187 18.7224 168.673 18.6474 166.856 17.1385C166.068 16.4539 165.362 15.6996 164.751 14.8877C163.34 13.101 162.088 11.2087 160.601 9.472C155.053 2.99756 146.109 2.82806 140.228 9.06631C138.96 10.4223 137.847 11.9006 136.607 13.2844C135.656 14.3348 134.733 15.4296 133.608 16.3216C131.512 17.9888 128.884 17.8943 126.95 16.0854C126.321 15.4737 125.743 14.8237 125.219 14.1403C123.789 12.2646 122.464 10.3195 120.91 8.52724C120.234 7.74273 119.459 7.02775 118.599 6.39595C116.809 4.97655 114.567 4.07094 112.173 3.80062C111.914 3.7547 111.648 3.76135 111.393 3.82007C107.788 3.64223 104.101 4.93156 101.184 7.7353C99.6589 9.19691 98.4573 10.9169 97.0623 12.4841C96.0987 13.6394 95.039 14.7307 93.8919 15.7492C92.3701 17.0051 90.2649 17.1746 88.629 16.1771C87.6459 15.5531 86.7886 14.7895 86.0926 13.918C84.4884 11.9729 83.1219 9.86103 81.4701 7.94092C75.9028 1.46926 66.9463 1.32755 61.0969 7.60192C59.258 9.57482 57.6506 11.7089 55.8023 13.6707C54.2646 15.3046 52.6699 16.0826 51.1005 16.0104V15.9075C50.4525 15.8785 49.8162 15.7447 49.2236 15.513C48.216 14.9745 47.3512 14.2535 46.6873 13.3983C45.3493 11.7922 44.1953 10.0639 42.9335 8.41331C41.437 6.45152 39.7091 4.67314 37.3282 3.56998C35.79 2.76616 34.0669 2.27257 32.284 2.12504L31.7736 2C31.7736 2.03334 31.7736 2.06391 31.7736 2.09448C28.2861 1.95554 24.6971 3.20597 21.8279 5.893C20.2871 7.33794 19.0791 9.05519 17.6746 10.6168C16.6316 11.7783 15.636 12.9982 14.4123 14.0013C12.5893 15.5018 10.0719 15.424 8.25527 13.9152C7.46888 13.2307 6.76454 12.4775 6.15327 11.6672C4.73925 9.8777 3.48693 7.98816 2 6.25146" stroke="#365B58" stroke-width="3" stroke-miterlimit="10"/>
</svg>
