<svg width="8" height="6" viewBox="0 0 8 6" fill="none" xmlns="http://www.w3.org/2000/svg">
<path d="M6.59883 0.348921C6.72209 0.231574 6.88611 0.1667 7.05629 0.167988C7.22647 0.169275 7.3895 0.236624 7.51097 0.355823C7.63244 0.475022 7.70285 0.636747 7.70735 0.806874C7.71185 0.977 7.65008 1.14222 7.53508 1.26767L4.04383 5.63392C3.98379 5.69858 3.91134 5.75047 3.83079 5.78649C3.75025 5.82251 3.66326 5.84192 3.57505 5.84355C3.48683 5.84519 3.39919 5.82901 3.31736 5.796C3.23554 5.76299 3.16121 5.71382 3.09883 5.65142L0.783577 3.33617C0.719101 3.27609 0.667387 3.20364 0.631519 3.12314C0.595651 3.04264 0.576364 2.95574 0.574809 2.86763C0.573254 2.77951 0.589464 2.69199 0.62247 2.61027C0.655476 2.52856 0.704602 2.45433 0.766918 2.39201C0.829235 2.3297 0.903464 2.28057 0.985179 2.24756C1.06689 2.21456 1.15442 2.19835 1.24253 2.1999C1.33065 2.20146 1.41755 2.22075 1.49805 2.25661C1.57855 2.29248 1.651 2.3442 1.71108 2.40867L3.54333 4.24005L6.5822 0.368172C6.58767 0.361435 6.59351 0.355008 6.5997 0.348921H6.59883Z" fill="white"/>
</svg>
