<svg width="72" height="72" viewBox="0 0 72 72" fill="none" xmlns="http://www.w3.org/2000/svg">
<path fill-rule="evenodd" clip-rule="evenodd" d="M72 36C72 55.8823 55.8823 72 36 72C16.1177 72 0 55.8823 0 36C0 16.1177 16.1177 0 36 0C55.8823 0 72 16.1177 72 36ZM32.8354 48.6582C33.7442 48.6582 34.4809 47.9215 34.4809 47.0127V24.9873C34.4809 24.0785 33.7442 23.3418 32.8354 23.3418C31.9266 23.3418 31.1899 24.0785 31.1899 24.9873V26.4408L28.6583 27.6893V27.1393C28.6583 26.2304 27.9216 25.4937 27.0128 25.4937C26.104 25.4937 25.3673 26.2304 25.3673 27.1393V29.3123L22.7061 30.6246C22.6749 29.7433 21.9525 29.038 21.0636 29.038C20.1547 29.038 19.418 29.7747 19.418 30.6835V34.3543H17.6455C16.7367 34.3545 16 35.0912 16 36C16 36.9088 16.7367 37.6455 17.6455 37.6455H19.4176V45.367H17.6455C16.7367 45.3671 16 46.1038 16 47.0127C16 47.9215 16.7367 48.6582 17.6455 48.6582H32.8354ZM22.7088 34.2928L25.367 32.982V45.3671H22.7088V34.2928ZM28.6582 45.3671V31.3589L31.1898 30.1104V45.3671H28.6582ZM55.9998 47.0127C55.9998 47.9215 55.2631 48.6582 54.3543 48.6582H39.1648C38.256 48.6582 37.5193 47.9215 37.5193 47.0127V24.9873C37.5193 24.0785 38.256 23.3418 39.1648 23.3418C40.0736 23.3418 40.8103 24.0785 40.8103 24.9873V26.4408L43.3419 27.6893V27.1393C43.3419 26.2304 44.0786 25.4937 44.9874 25.4937C45.8962 25.4937 46.6329 26.2304 46.6329 27.1393V29.3126L49.2941 30.6249C49.3253 29.7436 50.0478 29.0382 50.9366 29.0382C51.8455 29.0382 52.5822 29.7749 52.5822 30.6838V34.3546H54.3543C55.2631 34.3546 55.9998 35.0913 55.9998 36.0001C55.9998 36.909 55.2631 37.6457 54.3543 37.6457H52.5822V45.3671H54.3543C55.2631 45.3671 55.9998 46.1038 55.9998 47.0127ZM43.3415 31.3589L40.8099 30.1104V45.3671H43.3415V31.3589ZM46.6327 32.982V45.3671H49.2909V34.2928L46.6327 32.982Z" fill="#FCC000"/>
</svg>
