<svg width="1148" height="642" viewBox="0 0 1148 642" fill="none" xmlns="http://www.w3.org/2000/svg">
<path d="M40.4315 414.654C45.9163 445.759 66.0024 472.816 97.7186 495.101C129.437 517.389 172.758 534.881 224.629 546.851C328.369 570.79 466.212 572.617 613.557 546.636C760.903 520.655 889.807 471.793 979.103 413.817C1023.75 384.828 1058.48 353.574 1080.66 321.782C1102.84 289.993 1112.46 257.698 1106.98 226.593C1101.49 195.487 1081.41 168.43 1049.69 146.145C1017.97 123.858 974.652 106.365 922.781 94.3955C819.04 70.4563 681.198 68.6287 533.853 94.6097C386.507 120.591 257.603 169.453 168.307 227.43C123.658 256.419 88.932 287.673 66.749 319.464C44.5676 351.253 34.9468 383.548 40.4315 414.654Z" stroke="black" stroke-opacity="0.4"/>
</svg>
