<svg width="14" height="10" viewBox="0 0 14 10" fill="none" xmlns="http://www.w3.org/2000/svg">
<path d="M9.1875 5C9.1875 5.58016 8.95703 6.13656 8.5468 6.5468C8.13656 6.95703 7.58016 7.1875 7 7.1875C6.41984 7.1875 5.86344 6.95703 5.4532 6.5468C5.04297 6.13656 4.8125 5.58016 4.8125 5C4.8125 4.41984 5.04297 3.86344 5.4532 3.4532C5.86344 3.04297 6.41984 2.8125 7 2.8125C7.58016 2.8125 8.13656 3.04297 8.5468 3.4532C8.95703 3.86344 9.1875 4.41984 9.1875 5Z" fill="black"/>
<path d="M0 5C0 5 2.625 0.1875 7 0.1875C11.375 0.1875 14 5 14 5C14 5 11.375 9.8125 7 9.8125C2.625 9.8125 0 5 0 5ZM7 8.0625C7.81223 8.0625 8.59118 7.73984 9.16551 7.16551C9.73984 6.59118 10.0625 5.81223 10.0625 5C10.0625 4.18777 9.73984 3.40882 9.16551 2.83449C8.59118 2.26016 7.81223 1.9375 7 1.9375C6.18777 1.9375 5.40882 2.26016 4.83449 2.83449C4.26016 3.40882 3.9375 4.18777 3.9375 5C3.9375 5.81223 4.26016 6.59118 4.83449 7.16551C5.40882 7.73984 6.18777 8.0625 7 8.0625Z" fill="black"/>
</svg>
