<svg width="333" height="30" viewBox="0 0 333 30" fill="none" xmlns="http://www.w3.org/2000/svg">
<path d="M331 15.2783C328.221 18.2575 325.792 21.4888 322.999 24.4554C320.675 26.9262 318.265 28.0986 315.898 27.9935C315.898 27.9641 315.898 27.9347 315.898 27.9011C315.18 27.8681 314.469 27.7522 313.785 27.5565C312.214 26.9682 310.676 25.7959 309.214 24.0394C307.192 21.6107 305.448 18.9971 303.541 16.5011C301.069 13.2571 298.17 10.3325 294.021 8.72739L293.911 8.68957C292.014 7.8485 289.962 7.30794 287.85 7.09281L286.676 6.80708V7.01297C281.406 6.80288 275.982 8.69377 271.646 12.7571C269.313 14.9421 267.492 17.539 265.37 19.9005C263.793 21.6569 262.284 23.5016 260.439 25.0185C257.68 27.2876 253.88 27.1741 251.135 24.8925C249.943 23.8571 248.877 22.7165 247.953 21.4888C245.821 18.787 243.929 15.9254 241.682 13.2992C233.297 3.50851 219.781 3.25219 210.893 12.6857C208.977 14.7362 207.295 16.9717 205.422 19.0643C203.984 20.6526 202.59 22.3082 200.889 23.6571C197.722 26.1783 193.75 26.0354 190.828 23.2999C189.877 22.3749 189.003 21.392 188.211 20.3585C186.051 17.5222 184.048 14.5808 181.7 11.8705C180.678 10.6841 179.506 9.60296 178.207 8.64755C175.502 6.50114 172.114 5.13167 168.496 4.72289C168.105 4.65346 167.702 4.66352 167.317 4.7523C161.869 4.48338 156.297 6.4331 151.889 10.6729C149.585 12.8832 147.769 15.4842 145.661 17.8541C144.204 19.6011 142.603 21.2514 140.869 22.7915C138.569 24.6908 135.388 24.9471 132.916 23.4386C131.43 22.4949 130.135 21.3403 129.083 20.0223C126.658 17.0809 124.593 13.8874 122.097 10.9839C113.684 1.19742 100.149 0.983118 91.3087 10.4712C88.5298 13.4546 86.1006 16.6818 83.3073 19.6484C80.9836 22.1191 78.5736 23.2957 76.2019 23.1864V23.031C75.2226 22.987 74.261 22.7847 73.3655 22.4343C71.8427 21.62 70.5359 20.5298 69.5325 19.2366C67.5106 16.8078 65.7666 14.1942 63.8597 11.6982C61.5982 8.73159 58.987 6.04232 55.3888 4.37412C53.0642 3.15858 50.4603 2.41218 47.7659 2.18909L46.9945 2C46.9945 2.05042 46.9945 2.09665 46.9945 2.14287C41.7242 1.93277 36.3005 3.82366 31.9644 7.88699C29.6359 10.072 27.8104 12.6689 25.6879 15.0304C24.1116 16.7868 22.6071 18.6315 20.7577 20.1484C18.0027 22.4175 14.1985 22.2998 11.4531 20.0181C10.2647 18.9831 9.20029 17.844 8.27652 16.6187C6.13963 13.9126 4.24709 11.0553 2 8.42905" stroke="#FFF9EF" stroke-width="3" stroke-miterlimit="10"/>
</svg>
