<svg width="260" height="36" viewBox="0 0 260 36" fill="none" xmlns="http://www.w3.org/2000/svg">
<path fill-rule="evenodd" clip-rule="evenodd" d="M161.757 14.8424C160.305 11.9779 157.174 8.56641 150.494 8.56641C142.598 8.56641 137.432 14.9054 132.87 20.5039C129.076 25.1609 125.49 29.5613 121.236 29.5613C116.857 29.5613 114.168 25.0739 114.168 21.8556C114.168 18.8767 117.129 14.5508 121.766 14.5508C126.26 14.5508 128.657 18.1756 128.753 18.3208C129.618 19.72 131.473 20.1612 132.884 19.3059C134.302 18.4437 134.753 16.5994 133.888 15.1851C133.463 14.5071 129.523 8.56641 121.766 8.56641C113.738 8.56641 108.143 15.5714 108.143 21.8556C108.143 28.3321 113.519 35.55 121.235 35.55C128.366 35.55 133.037 29.8175 137.56 24.2623C141.63 19.2707 145.476 14.5508 150.494 14.5508C153.432 14.5508 155.357 15.5277 156.374 17.5331C157.28 19.326 157.276 21.3785 157.274 22.0561C157.274 22.454 157.06 24.4632 156.069 26.2792C154.968 28.2965 153.403 29.2384 151.148 29.2384C146.476 29.2384 143.939 26.2047 142.965 25.0422C142.713 24.7428 142.517 24.5107 142.253 24.2863C141.641 23.7659 140.871 23.5256 140.059 23.5731C139.664 23.6029 139.279 23.7098 138.926 23.8877C138.573 24.0656 138.259 24.3108 138.003 24.6092C136.966 25.8111 137.051 27.6151 138.233 28.754L138.346 28.8876C139.657 30.4552 143.645 35.2228 151.146 35.2228C160.329 35.2228 163.299 26.3267 163.299 22.0205C163.302 19.2785 162.782 16.8636 161.757 14.842" fill="#F67555"/>
<path fill-rule="evenodd" clip-rule="evenodd" d="M80.1442 0.771354C79.5019 1.47121 79.4255 3.28726 79.4255 17.8374C79.4255 33.0677 79.4767 34.1659 80.2198 34.8289C81.2595 35.7566 83.4537 35.7352 84.3188 34.7882C84.6953 34.3757 85.1388 33.5058 85.3034 32.8544L85.603 31.6701L87.2347 33.1238C89.3311 34.9917 91.494 35.6782 94.5867 35.4577C101.285 34.9797 104.923 29.7787 104.537 21.2347C104.314 16.295 102.898 13.3517 99.7445 11.2735C95.6451 8.57131 89.6265 9.09214 86.5915 12.4111L85.7229 13.3611L85.5058 7.57463C85.322 2.6752 85.1618 1.65068 84.4613 0.888283C83.4211 -0.243741 81.1327 -0.305846 80.1442 0.771354ZM61.2163 1.97319C60.4806 2.89535 60.316 3.71128 60.316 6.43618V9.77101L58.9983 10.0563C58.2735 10.2135 57.3718 10.8071 56.994 11.3755C56.3664 12.3203 56.3682 12.5006 57.0188 13.4798C57.5056 14.2126 58.1258 14.5505 58.984 14.5505H60.2374L60.3916 23.0097C60.5653 32.5597 60.9041 33.8228 63.5881 34.9291C65.4951 35.7146 70.345 35.7117 72.2581 34.9236C73.9558 34.2237 74.5743 32.7195 73.7721 31.2405C73.3026 30.3758 73.0399 30.3154 70.8501 30.5694C66.9057 31.0264 66.8306 30.8662 66.8306 21.9796V14.5505H68.471C70.4957 14.5505 72.0423 13.5423 72.0423 12.2231C72.0423 10.8632 71.0968 10.2019 68.7845 9.94491L66.8306 9.72775V6.41477C66.8306 3.71171 66.6647 2.89406 65.9303 1.97319C64.6856 0.412431 62.461 0.412431 61.2163 1.97319ZM197.557 1.70122C196.826 2.42206 196.688 3.12878 196.688 6.15607V9.75388L195.065 10.1325C191.948 10.8593 192.272 14.5505 195.453 14.5505H196.688V22.7021C196.688 31.3652 196.951 32.8008 198.838 34.4606C199.568 35.1022 200.586 35.3497 202.988 35.4692C206.704 35.6543 209.035 35.0238 210 33.5722C210.629 32.6252 210.624 32.4466 209.941 31.4191C209.254 30.3852 209.033 30.3205 207.068 30.5775C203.195 31.0842 203.203 31.1013 203.203 22.2451V14.5505H204.892C205.882 14.5505 206.987 14.2259 207.563 13.7663C209.539 12.188 207.574 9.83911 204.278 9.83911C203.37 9.83911 203.3 9.61896 203.118 6.21046C202.973 3.48299 202.728 2.36638 202.128 1.71321C201.078 0.569191 198.711 0.563195 197.557 1.70122ZM1.18993 10.2289C0.168441 11.044 0.164098 11.0889 0.0420581 21.6862C-0.0678213 31.196 0.0012336 32.4848 0.693517 33.8245C1.33846 35.0739 1.73455 35.3454 3.07134 35.4551C4.20575 35.548 4.92017 35.345 5.51256 34.7608C6.25783 34.0258 6.37118 33.1191 6.54491 26.4914C6.75641 18.4353 7.06738 17.2039 9.33489 15.4448C11.0691 14.0995 14.2334 14.2053 15.6154 15.6551C16.639 16.7293 16.6742 16.9949 16.8853 25.2484C17.079 32.8158 17.1924 33.8344 17.9298 34.6374C19.138 35.9524 21.3574 35.8419 22.4996 34.4092C23.3434 33.3512 23.3995 32.7405 23.3903 24.6651C23.3821 17.2339 23.2713 15.8115 22.5834 14.3188C20.1513 9.03774 13.013 7.80249 8.23523 11.8355C6.20528 13.5487 6.02765 13.5778 6.02765 12.1948C6.02765 10.8388 4.60443 9.4108 3.25288 9.4108C2.68221 9.4108 1.75366 9.77915 1.18993 10.2289ZM37.0076 10.2036C32.5307 11.7292 29.9158 14.9497 29.1206 19.9173C27.9671 27.1232 31.276 33.2497 37.2464 34.9612C40.932 36.0179 46.0199 35.6097 48.9828 34.0194C51.9508 32.4265 53.7024 30.0143 53.1083 28.3383C52.4173 26.3895 50.6987 26.5646 47.8545 28.8741C45.0797 31.127 44.1663 31.4384 41.1687 31.1544C37.99 30.8529 35.5605 28.2124 35.5605 25.0578V23.9734L43.2694 23.9669C48.5941 23.9627 51.3141 23.7939 52.0642 23.4208C53.6811 22.6173 54.0833 20.4377 53.1799 17.3735C51.3246 11.0791 43.9857 7.82562 37.0076 10.2036ZM173.586 10.061C168.255 11.7519 166.098 17.3547 169.425 20.8711C170.786 22.3098 172.848 23.2799 176.927 24.4008C181.262 25.5919 182.702 26.3119 183.288 27.5806C183.927 28.9632 183.117 30.3072 181.159 31.1142C178.086 32.3802 174.39 30.9578 172.483 27.7755C170.975 25.2566 167.59 25.9967 167.59 28.8454C167.59 32.4389 171.508 35.1279 177.22 35.4538C185.209 35.91 189.739 33.0082 189.739 27.4358C189.739 25.6378 189.517 25.0381 188.372 23.7524C186.609 21.7718 185.727 21.3474 179.971 19.7091C177.345 18.9621 174.853 18.0438 174.433 17.6691C172.468 15.9147 174.389 13.6939 177.873 13.6939C180.026 13.6939 180.33 13.8323 182.573 15.8355C185.133 18.1214 185.943 18.3655 187.471 17.3101C189.775 15.7185 187.882 12.1006 183.884 10.4559C181.46 9.45877 176.129 9.25447 173.586 10.061ZM219.851 10.2036C216.75 11.2607 214.91 12.7636 213.416 15.4628C212.334 17.4181 212.116 18.3505 211.966 21.6802C211.732 26.8572 212.554 29.3816 215.379 32.1682C218.062 34.8135 220.965 35.7151 225.969 35.4559C228.819 35.3082 229.933 35.0353 231.826 34.0194C234.794 32.4265 236.545 30.0143 235.951 28.3383C235.267 26.4079 233.599 26.5796 230.744 28.8737C227.947 31.1202 227.008 31.4384 224.012 31.1544C220.833 30.8529 218.403 28.2124 218.403 25.0578V23.9734L226.112 23.9669C231.437 23.9627 234.157 23.7939 234.907 23.4208C236.524 22.6173 236.926 20.4377 236.023 17.3735C234.167 11.0791 226.829 7.82562 219.851 10.2036ZM243.176 10.3484C242.331 11.2423 242.29 11.8059 242.29 22.5552C242.29 33.2536 242.334 33.8678 243.159 34.6811C244.573 36.0761 247.41 35.659 248.173 33.9436C248.359 33.5247 248.635 29.9055 248.786 25.9008C249.002 20.1601 249.221 18.3209 249.822 17.2091C250.939 15.1403 252.221 14.7073 255.343 15.3429C258.327 15.9507 259.495 15.5729 259.931 13.8584C260.545 11.4483 256.965 9.1067 253.366 9.56499C252.065 9.73075 251.231 10.2083 250.034 11.4735L248.438 13.1611L248.153 12.0355C247.492 9.42365 244.884 8.53919 243.176 10.3484ZM44.5038 14.751C45.9135 15.662 46.8425 17.1568 47.1465 19.0024L47.4006 20.5469H41.4805C34.7379 20.5469 34.767 20.567 36.5377 17.1041C38.1702 13.9115 41.6247 12.8908 44.5038 14.751ZM227.347 14.751C228.756 15.662 229.685 17.1568 229.989 19.0024L230.243 20.5469H224.323C217.581 20.5469 217.61 20.567 219.381 17.1041C221.013 13.9115 224.468 12.8908 227.347 14.751ZM95.3306 15.1879C98.088 16.9696 99.0691 23.6427 97.1235 27.3844C94.8112 31.8312 89.2625 31.8449 86.6297 27.4106C85.3763 25.2998 85.4406 20.5327 86.7587 17.8575C88.4599 14.4036 92.2775 13.2151 95.3306 15.1879Z" fill="white"/>
</svg>
