<svg width="1252" height="171" viewBox="0 0 1252 171" fill="none" xmlns="http://www.w3.org/2000/svg">
<path d="M48.5278 61.2603C51.1384 68.3781 46.3778 76.5808 32.1179 81.6805C22.3553 85.1742 13.0973 85.1742 6.5597 83.2212L9.65301 74.2155C14.6769 75.6694 21.5655 75.5609 29.2878 72.805C34.4433 70.9604 37.5805 68.9423 36.7908 66.7939C36.0229 64.7107 32.6444 65.0362 25.6899 67.076C14.8743 70.1358 3.66384 70.8953 0.658281 62.6708C-2.04014 55.2927 3.70771 47.5456 17.3095 42.6847C25.2292 39.8419 33.2587 39.3428 39.1382 40.4929L36.2642 49.8024C31.7449 48.9127 26.3042 49.3033 20.1615 51.5168C16.1248 52.949 11.6713 55.2276 12.4831 57.441C13.2728 59.5894 17.3095 58.5911 23.6277 56.7032C35.4745 53.166 45.61 53.2962 48.5278 61.2603Z" fill="#365B58"/>
<path d="M58.7512 71.156L44.0305 21.8741L57.369 17.9897L72.0677 67.2716L58.7512 71.156Z" fill="#365B58"/>
<path d="M68.0969 17.7291C67.1316 13.9532 69.6984 10.6764 74.2615 9.52632C78.7589 8.39789 82.5762 10.0905 83.5415 13.8664C84.5068 17.6423 81.94 20.9191 77.4426 22.0475C72.9014 23.1976 69.0621 21.505 68.0969 17.7291ZM94.73 61.4122L81.2599 64.7758L71.7386 27.4943L85.2088 24.1308L94.73 61.4122Z" fill="#365B58"/>
<path d="M131.235 20.6589L127.922 2.40876L141.546 0L150.716 50.5839L137.115 52.9926L136.105 47.459C133.495 52.2982 128.603 55.9873 121.626 57.2242C109.604 59.3509 99.8852 52.9709 97.6256 40.4497C95.3659 27.9503 102.233 18.6841 114.255 16.5575C121.209 15.3206 127.089 17.0349 131.235 20.6589ZM134.438 38.6486L132.771 29.491C129.085 26.1274 124.544 25.3679 119.915 26.1925C112.719 27.4728 109.385 31.878 110.525 38.1495C111.666 44.5077 116.339 47.4156 123.535 46.1353C128.142 45.3324 132.157 43.0755 134.438 38.6486Z" fill="#365B58"/>
<path d="M183.163 39.5819C189.328 39.1262 192.926 37.3902 196.546 34.2002L204.093 40.949C198.937 46.2006 191.939 48.6744 183.12 49.3471C166.666 50.5841 156.486 43.4012 155.499 30.5328C154.512 17.6644 163.353 9.0493 178.907 7.89917C192.926 6.83585 203.391 13.0205 204.422 26.5833C204.531 28.1023 204.531 29.0138 204.312 29.795L168.904 32.4424C170.461 38.1714 175.331 40.1678 183.163 39.5819ZM168.684 25.086L191.347 23.2631C189.526 18.8796 185.664 17.0134 179.785 17.4474C173.84 17.8597 169.869 20.3119 168.684 25.086Z" fill="#365B58"/>
<path d="M256.087 35.9577C255.758 43.5095 248.211 49.3252 233.073 48.6959C222.696 48.2619 214.141 44.7898 208.831 40.5365L215.172 33.3537C219.252 36.587 225.68 39.0609 233.885 39.4081C239.348 39.6251 243.033 38.9524 243.143 36.6738C243.231 34.4604 239.984 33.4839 232.766 32.7677C221.578 31.5308 210.916 28.037 211.289 19.2917C211.618 11.4579 219.91 6.44503 234.368 7.05265C242.792 7.39986 250.405 9.93881 255.385 13.2156L249.154 20.7457C245.337 18.2284 240.137 16.5575 233.6 16.2754C229.322 16.1018 224.32 16.5141 224.21 18.8794C224.122 21.158 228.225 21.7656 234.806 22.3732C247.136 23.5667 256.438 27.4945 256.087 35.9577Z" fill="#365B58"/>
<path d="M301.345 15.9066L316.373 18.4239L314.749 27.9504L300.138 25.52L295.29 53.9476L281.644 51.6691L286.493 23.2414L279.714 22.113L281.337 12.5865L288.116 13.7149C289.893 4.07986 297.659 0.73798 306.939 2.27872C310.822 2.92973 315.803 4.53557 318.808 6.57542L315.583 13.8451C313.345 12.3478 311.217 11.5014 309.067 11.1325C304.702 10.3947 302.069 11.7184 301.543 14.7999L301.345 15.9066Z" fill="#365B58"/>
<path d="M316.044 37.7805C319.137 25.2377 330.567 19.921 345.792 23.5884C360.93 27.2558 368.586 37.1729 365.493 49.7158C362.4 62.1936 350.948 67.6404 335.811 63.9731C320.585 60.3274 312.951 50.2583 316.044 37.7805ZM352.659 46.6343C354.305 40.0157 350.158 35.4586 343.27 33.7877C336.381 32.1167 330.567 34.2868 328.944 40.9054C327.32 47.459 331.445 52.1029 338.333 53.7521C345.222 55.4231 351.036 53.1879 352.659 46.6343Z" fill="#365B58"/>
<path d="M367.467 70.6136L378.612 33.7661L391.863 37.6939L389.801 44.5513C394.473 40.2763 401.077 39.4733 407.746 41.4481L404.455 52.3634C396.514 50.0198 389.888 51.3218 386.115 56.7904L380.74 74.5631L367.467 70.6136Z" fill="#365B58"/>
<path d="M472.662 63.6044L430.036 104.727L416.785 100.343L430.321 87.9089L423.718 47.4375L437.232 51.9078L440.83 78.2956L459.346 59.2209L472.662 63.6044Z" fill="#365B58"/>
<path d="M466.541 82.071C470.49 69.7668 482.249 65.2097 497.167 69.897C512.019 74.5409 518.996 84.9572 515.047 97.2831C511.12 109.522 499.317 114.209 484.465 109.544C469.546 104.857 462.614 94.3101 466.541 82.071ZM502.476 93.3119C504.56 86.8234 500.721 81.9842 493.964 79.8576C487.207 77.7309 481.262 79.5104 479.177 85.9988C477.115 92.4222 480.932 97.3265 487.689 99.4314C494.447 101.58 500.414 99.7352 502.476 93.3119Z" fill="#365B58"/>
<path d="M571.495 93.0521L561.008 130.095L547.691 126.406L549.359 120.525C544.883 124.257 538.587 125.321 531.896 123.476C521.014 120.46 517.087 111.953 519.83 102.253L526.016 80.4658L539.333 84.1549L533.41 105.074C532.049 109.892 534.024 113.472 539.092 114.861C543.545 116.098 547.867 115.056 551.991 111.302L558.2 89.3847L571.495 93.0521Z" fill="#365B58"/>
<path d="M570.222 132.33L579.546 94.9834L592.972 98.2602L591.239 105.204C595.693 100.712 602.252 99.6056 609.009 101.255L606.245 112.322C598.194 110.347 591.656 111.975 588.146 117.617L583.648 135.607L570.222 132.33Z" fill="#365B58"/>
<path d="M666.553 141.053C665.062 148.475 656.681 153.054 641.829 150.102C631.65 148.084 623.73 143.332 619.167 138.319L626.56 132.199C630.092 136.019 636.037 139.447 644.089 141.053C649.463 142.117 653.193 142.008 653.654 139.751C654.092 137.581 651.021 136.127 644.023 134.304C633.163 131.375 623.159 126.297 624.893 117.703C626.45 110.022 635.423 106.332 649.595 109.132C657.844 110.759 664.996 114.448 669.405 118.42L662.078 124.908C658.7 121.827 653.829 119.374 647.423 118.116C643.233 117.291 638.209 116.922 637.748 119.244C637.288 121.501 641.28 122.695 647.665 124.322C659.643 127.425 668.243 132.742 666.553 141.053Z" fill="#365B58"/>
<path d="M718.964 139.469L716.792 153.618C716.375 156.374 716.507 158.696 717.362 161.083L703.475 158.999C702.883 157.719 702.554 156.2 702.751 154.898V154.833C699.373 157.415 693.669 158.956 686.868 157.936C678.751 156.721 668.901 152.012 670.392 142.268C671.884 132.525 682.7 130.919 690.817 132.134C697.618 133.154 702.598 136.279 705.055 139.816L705.428 137.342C706.305 131.57 702.422 128.185 694.042 126.926C689.457 126.232 684.85 126.188 679.782 127.816L677.983 118.767C683.555 117.074 691.694 116.814 698.364 117.812C712.997 119.96 720.741 127.729 718.964 139.469ZM704.265 146.891C702.181 142.854 697.464 141.162 693.515 140.576C689.632 139.99 684.279 140.185 683.665 144.221C683.051 148.279 688.097 150.015 691.98 150.601C695.929 151.187 700.931 150.97 704.134 147.65L704.265 146.891Z" fill="#365B58"/>
<path d="M748.822 165.9C733.377 164.381 724.536 155.419 725.809 142.702C727.081 129.921 737.524 122.911 752.968 124.431C764.64 125.581 771.331 131.331 773.876 137.581L761.59 141.118C759.945 137.038 756.391 135.302 752.047 134.868C744.983 134.174 739.674 137.212 738.994 143.983C738.314 150.688 742.921 154.768 749.985 155.462C754.241 155.875 758.299 154.811 760.866 151.014L772.186 156.938C768.391 162.732 760.559 167.05 748.822 165.9Z" fill="#365B58"/>
<path d="M778.658 166.834L780.786 128.424L794.586 129.183L794.191 136.323C797.723 131.093 803.953 128.793 810.908 129.162L810.271 140.533C802.001 140.077 795.858 142.876 793.489 149.083L792.458 167.593L778.658 166.834Z" fill="#365B58"/>
<path d="M839.888 160.909C846.075 160.974 849.804 159.542 853.687 156.678L860.642 164.034C855.048 168.83 847.874 170.718 839.033 170.631C822.535 170.458 812.992 162.45 813.123 149.538C813.255 136.626 822.82 128.793 838.396 128.966C852.437 129.096 862.331 136.149 862.2 149.755C862.178 151.274 862.112 152.186 861.827 152.945L826.308 152.598C827.361 158.414 832.034 160.823 839.888 160.909ZM826.703 145.22L849.453 145.307C848.027 140.771 844.32 138.58 838.418 138.536C832.473 138.471 828.305 140.598 826.703 145.22Z" fill="#365B58"/>
<path d="M903.751 134.652L902.851 116.119L916.673 115.468L919.152 166.812L905.33 167.463L905.067 161.842C901.842 166.313 896.511 169.329 889.425 169.676C877.227 170.262 868.43 162.667 867.816 149.972C867.201 137.277 875.231 128.966 887.451 128.402C894.493 128.076 900.087 130.507 903.751 134.652ZM904.541 152.902L904.102 143.614C900.899 139.795 896.467 138.471 891.772 138.709C884.489 139.057 880.584 142.985 880.891 149.364C881.198 155.81 885.454 159.303 892.738 158.956C897.454 158.739 901.732 157.003 904.541 152.902Z" fill="#365B58"/>
<path d="M991.46 146.63C992.426 154.139 985.954 161.104 970.904 162.992C960.593 164.273 951.554 162.255 945.609 158.934L950.655 150.818C955.218 153.336 961.975 154.724 970.136 153.705C975.577 153.032 979.087 151.751 978.802 149.473C978.517 147.259 975.138 146.847 967.92 147.325C956.688 147.954 945.565 146.261 944.446 137.581C943.459 129.791 950.787 123.497 965.134 121.696C973.493 120.655 981.434 121.892 986.919 124.3L982.049 132.742C977.837 130.897 972.44 130.094 965.968 130.897C961.712 131.418 956.842 132.677 957.149 135.02C957.434 137.299 961.602 137.19 968.184 136.713C980.513 135.888 990.385 138.232 991.46 146.63Z" fill="#365B58"/>
<path d="M1014.03 149.213L1017.7 168.461L1004.1 170.978L994.334 119.526L1007.94 117.009L1008.99 122.543C1011.56 117.682 1016.43 113.949 1023.4 112.669C1035.4 110.434 1045.17 116.683 1047.53 129.248C1049.9 141.748 1043.1 151.057 1031.1 153.292C1024.1 154.551 1018.23 152.902 1014.03 149.213ZM1010.7 131.266L1012.46 140.489C1016.21 143.744 1020.73 144.525 1025.36 143.679C1032.53 142.355 1035.84 137.907 1034.63 131.635C1033.43 125.299 1028.73 122.347 1021.56 123.671C1016.91 124.517 1013 126.883 1010.7 131.266Z" fill="#365B58"/>
<path d="M1098.28 114.166L1101.83 128.033C1102.53 130.724 1103.57 132.829 1105.28 134.695L1091.67 138.124C1090.64 137.169 1089.72 135.889 1089.39 134.608L1089.37 134.543C1087.27 138.232 1082.64 141.835 1075.97 143.506C1068 145.502 1057.08 144.959 1054.62 135.411C1052.16 125.863 1061.51 120.221 1069.45 118.203C1076.12 116.532 1081.93 117.487 1085.58 119.809L1084.96 117.378C1083.51 111.736 1078.6 110.087 1070.37 112.17C1065.88 113.298 1061.62 115.013 1057.58 118.463L1052.36 110.825C1056.84 107.114 1064.23 103.75 1070.77 102.101C1085.12 98.4987 1095.32 102.665 1098.28 114.166ZM1087.66 126.644C1084.15 123.736 1079.15 123.975 1075.29 124.952C1071.47 125.906 1066.62 128.142 1067.63 132.113C1068.66 136.084 1073.99 135.737 1077.81 134.782C1081.69 133.805 1086.21 131.657 1087.86 127.382L1087.66 126.644Z" fill="#365B58"/>
<path d="M1136.41 126.666C1121.64 131.353 1109.93 126.6 1105.98 114.427C1102.01 102.187 1108.79 91.6627 1123.55 86.9754C1134.72 83.4382 1143.16 86.0857 1148.01 90.8164L1138.16 98.889C1135.02 95.8075 1131.05 95.5905 1126.91 96.9142C1120.15 99.0626 1116.51 103.923 1118.59 110.412C1120.68 116.835 1126.53 118.767 1133.29 116.618C1137.37 115.316 1140.66 112.756 1141.5 108.264L1154.26 109.24C1153.1 116.054 1147.64 123.107 1136.41 126.666Z" fill="#365B58"/>
<path d="M1184.43 99.3231C1190.18 97.088 1193.12 94.3971 1195.64 90.2957L1204.85 94.549C1201.48 101.081 1195.53 105.464 1187.28 108.654C1171.93 114.6 1160.06 110.694 1155.3 98.6721C1150.54 86.65 1156.46 75.8649 1170.96 70.2445C1184.04 65.1882 1195.88 68.0527 1200.88 80.7258C1201.45 82.158 1201.72 83.0044 1201.74 83.829L1168.66 96.6323C1171.86 101.667 1177.1 102.166 1184.43 99.3231ZM1166.26 89.6447L1187.39 81.3117C1184.36 77.6443 1180.11 76.9716 1174.6 79.0983C1169.07 81.2683 1166 84.7621 1166.26 89.6447Z" fill="#365B58"/>
<path d="M1250.95 65.948C1254.17 72.8053 1250.18 81.3987 1236.45 87.7353C1227.03 92.0754 1217.8 92.9 1211.13 91.5329L1213.41 82.2668C1218.52 83.265 1225.39 82.5489 1232.85 79.1202C1237.81 76.8199 1240.77 74.5414 1239.78 72.4798C1238.84 70.4617 1235.48 71.091 1228.75 73.7385C1218.24 77.7531 1207.14 79.5108 1203.41 71.5684C1200.05 64.4506 1205.07 56.2479 1218.17 50.1934C1225.81 46.6779 1233.75 45.441 1239.69 46.0703L1237.67 55.5751C1233.11 55.076 1227.71 55.9657 1221.79 58.7C1217.91 60.5012 1213.65 63.1486 1214.68 65.2753C1215.67 67.3585 1219.6 65.9914 1225.72 63.5609C1237.21 59.0255 1247.33 58.266 1250.95 65.948Z" fill="#365B58"/>
</svg>
