<svg width="296" height="79" viewBox="0 0 296 79" fill="none" xmlns="http://www.w3.org/2000/svg">
<path d="M16.7948 20.3454C17.6536 22.7092 16.0876 25.4335 11.3967 27.1271C8.18529 28.2875 5.13984 28.2875 2.98926 27.6388L4.00682 24.6479C5.65944 25.1308 7.92549 25.0948 10.4658 24.1795C12.1617 23.5669 13.1937 22.8966 12.9339 22.1831C12.6813 21.4913 11.5699 21.5994 9.28223 22.2768C5.72439 23.293 2.03665 23.5453 1.04797 20.8138C0.16031 18.3634 2.05109 15.7905 6.52545 14.1762C9.13068 13.2321 11.772 13.0663 13.7061 13.4483L12.7607 16.5401C11.274 16.2446 9.4843 16.3743 7.46362 17.1094C6.13575 17.5851 4.67075 18.3418 4.93777 19.0769C5.19757 19.7904 6.52545 19.4589 8.60386 18.8319C12.5009 17.6571 15.835 17.7004 16.7948 20.3454Z" fill="#365B58"/>
<path d="M20.1578 23.6317L15.3154 7.26466L19.7032 5.97461L24.5384 22.3417L20.1578 23.6317Z" fill="#365B58"/>
<path d="M23.2322 5.88803C22.9147 4.63401 23.759 3.54576 25.2601 3.16379C26.7395 2.78902 27.9952 3.35117 28.3128 4.60518C28.6303 5.8592 27.786 6.94745 26.3065 7.32222C24.8127 7.70419 23.5497 7.14204 23.2322 5.88803ZM31.9933 20.3957L27.5622 21.5128L24.4302 9.13117L28.8612 8.01409L31.9933 20.3957Z" fill="#365B58"/>
<path d="M44.0018 6.86105L42.9121 0.799975L47.3937 0L50.4102 16.7995L45.9359 17.5995L45.6039 15.7617C44.7451 17.3688 43.1358 18.594 40.8409 19.0048C36.8861 19.7111 33.6891 17.5923 32.9458 13.4338C32.2025 9.2826 34.4613 6.20521 38.4161 5.49893C40.7038 5.08813 42.6378 5.65748 44.0018 6.86105ZM45.0554 12.8356L44.507 9.79429C43.2946 8.67721 41.8007 8.42497 40.278 8.69883C37.9109 9.12404 36.814 10.5871 37.1892 12.6699C37.5645 14.7815 39.1017 15.7473 41.4687 15.3221C42.9842 15.0554 44.3049 14.3059 45.0554 12.8356Z" fill="#365B58"/>
<path d="M61.0838 13.1455C63.1117 12.9942 64.2952 12.4176 65.486 11.3582L67.9685 13.5996C66.2726 15.3436 63.9705 16.1652 61.0694 16.3887C55.6568 16.7995 52.3083 14.4139 51.9835 10.1402C51.6588 5.86646 54.5671 3.00528 59.6838 2.62331C64.2952 2.27017 67.7376 4.32416 68.0768 8.82853C68.1129 9.33302 68.1129 9.63571 68.0407 9.89516L56.3929 10.7744C56.9053 12.6771 58.5074 13.3401 61.0838 13.1455ZM56.3208 8.33125L63.7756 7.72586C63.1766 6.27005 61.9065 5.65025 59.9724 5.79439C58.0167 5.93132 56.7105 6.74571 56.3208 8.33125Z" fill="#365B58"/>
<path d="M85.0722 11.9419C84.9639 14.4499 82.4814 16.3814 77.5019 16.1724C74.0884 16.0283 71.2738 14.8751 69.5274 13.4626L71.613 11.0771C72.9553 12.1509 75.0698 12.9725 77.7689 13.0878C79.5658 13.1599 80.7783 12.9365 80.8143 12.1797C80.8432 11.4446 79.7751 11.1203 77.4008 10.8825C73.7203 10.4717 70.213 9.31135 70.3357 6.40694C70.4439 3.80521 73.1718 2.1404 77.9277 2.3422C80.6989 2.45751 83.2031 3.30072 84.8413 4.38898L82.7917 6.8898C81.536 6.05379 79.8256 5.49886 77.6751 5.40516C76.2678 5.34751 74.6224 5.48444 74.5863 6.27C74.5574 7.02674 75.907 7.22853 78.072 7.43033C82.1278 7.82671 85.1877 9.13118 85.0722 11.9419Z" fill="#365B58"/>
<path d="M99.9602 5.28276L104.904 6.11877L104.37 9.28264L99.5632 8.47546L97.9684 17.9166L93.4796 17.1599L95.0744 7.71872L92.8445 7.34396L93.3785 4.18009L95.6085 4.55486C96.193 1.35495 98.7478 0.245077 101.8 0.756773C103.078 0.972982 104.716 1.5063 105.705 2.18376L104.644 4.5981C103.908 4.10081 103.208 3.81974 102.5 3.69722C101.064 3.45219 100.198 3.89181 100.025 4.9152L99.9602 5.28276Z" fill="#365B58"/>
<path d="M104.795 12.5474C105.813 8.3818 109.573 6.61609 114.581 7.83407C119.561 9.05205 122.08 12.3456 121.062 16.5113C120.044 20.6553 116.277 22.4643 111.298 21.2463C106.289 20.0355 103.778 16.6915 104.795 12.5474ZM116.84 15.4879C117.381 13.2898 116.017 11.7763 113.751 11.2214C111.485 10.6664 109.573 11.3871 109.039 13.5852C108.505 15.7618 109.862 17.304 112.128 17.8518C114.394 18.4067 116.306 17.6644 116.84 15.4879Z" fill="#365B58"/>
<path d="M121.711 23.4516L125.377 11.2141L129.736 12.5186L129.058 14.796C130.595 13.3762 132.767 13.1095 134.961 13.7654L133.879 17.3905C131.266 16.6121 129.087 17.0446 127.846 18.8607L126.077 24.7632L121.711 23.4516Z" fill="#365B58"/>
<path d="M156.316 21.1236L142.294 34.7808L137.935 33.325L142.387 29.1954L140.215 15.7544L144.661 17.239L145.844 26.0027L151.935 19.6678L156.316 21.1236Z" fill="#365B58"/>
<path d="M154.302 27.2568C155.601 23.1704 159.469 21.6569 164.377 23.2136C169.262 24.7559 171.557 28.2153 170.258 32.3089C168.966 36.3736 165.084 37.9303 160.198 36.3808C155.291 34.8241 153.01 31.3215 154.302 27.2568ZM166.123 30.99C166.809 28.8351 165.546 27.2279 163.323 26.5216C161.1 25.8154 159.144 26.4063 158.459 28.5612C157.78 30.6945 159.036 32.3233 161.259 33.0223C163.482 33.7358 165.445 33.1232 166.123 30.99Z" fill="#365B58"/>
<path d="M188.827 30.9034L185.377 43.2058L180.997 41.9806L181.545 40.0275C180.073 41.2671 178.002 41.6202 175.801 41.0076C172.221 40.0059 170.929 37.1807 171.832 33.9592L173.867 26.7234L178.247 27.9486L176.299 34.8961C175.851 36.4961 176.501 37.6852 178.168 38.1465C179.633 38.5573 181.054 38.2113 182.411 36.9645L184.454 29.6855L188.827 30.9034Z" fill="#365B58"/>
<path d="M188.408 43.9484L191.475 31.5452L195.892 32.6334L195.322 34.9397C196.787 33.4478 198.945 33.0803 201.167 33.628L200.258 37.3035C197.61 36.6477 195.459 37.1882 194.304 39.0621L192.825 45.0366L188.408 43.9484Z" fill="#365B58"/>
<path d="M100.801 42.1778C99.7909 44.479 96.7713 45.3701 92.2114 43.3605C89.0859 41.9846 86.8818 39.8821 85.7746 37.9331L88.5874 36.4723C89.4487 37.9612 91.1133 39.4945 93.5847 40.5859C95.2352 41.3116 96.441 41.5407 96.7505 40.8414C97.0467 40.1687 96.1641 39.4795 94.0464 38.3924C90.7676 36.6728 87.9173 34.3171 89.0889 31.6529C90.1388 29.2719 93.2851 28.7113 97.6374 30.6235C100.171 31.7359 102.204 33.4391 103.337 35.0395L100.519 36.6245C99.6537 35.3858 98.2647 34.2454 96.2969 33.3832C95.0099 32.8189 93.4225 32.3432 93.1084 33.0636C92.7989 33.7629 93.9961 34.4329 95.9304 35.4131C99.5562 37.2684 101.938 39.602 100.801 42.1778Z" fill="#365B58"/>
<path d="M117.75 45.3777L116.04 49.8124C115.709 50.6767 115.585 51.4391 115.69 52.2738L111.378 50.6141C111.279 50.1569 111.282 49.641 111.439 49.2327L111.443 49.2116C110.173 49.8097 108.231 49.9051 106.119 49.0924C103.598 48.1231 100.771 45.8979 101.947 42.8436C103.124 39.7894 106.713 40.035 109.233 41.0044C111.345 41.8171 112.721 43.1834 113.258 44.5047L113.554 43.7288C114.249 41.9189 113.244 40.5459 110.642 39.5438C109.219 38.9937 107.742 38.6531 105.998 38.8219L106.067 35.7596C107.978 35.6056 110.611 36.0979 112.682 36.8942C117.229 38.6279 119.161 41.6962 117.75 45.3777ZM112.498 46.743C112.117 45.2863 110.723 44.4031 109.496 43.9333C108.291 43.4681 106.557 43.1521 106.071 44.4176C105.584 45.6901 107.08 46.6107 108.286 47.0759C109.512 47.5458 111.135 47.8298 112.401 46.98L112.498 46.743Z" fill="#365B58"/>
<path d="M125.451 56.0657C120.598 54.4786 118.399 50.9455 119.718 46.9115C121.041 42.8564 124.897 41.3232 129.75 42.9103C133.416 44.1104 135.154 46.4495 135.525 48.6567L131.325 48.9333C131.089 47.4936 130.071 46.6787 128.707 46.2302C126.487 45.5044 124.564 46.1134 123.862 48.261C123.163 50.3875 124.351 52.0371 126.571 52.7629C127.909 53.1982 129.289 53.141 130.385 52.0912L133.597 54.8147C131.964 56.4249 129.139 57.2704 125.451 56.0657Z" fill="#365B58"/>
<path d="M134.968 58.4825L138.4 46.1764L142.778 47.4006L142.141 49.6881C143.649 48.2422 145.815 47.9378 148.023 48.5502L147.005 52.1929C144.381 51.459 142.207 51.9316 141.002 53.7765L139.347 59.7067L134.968 58.4825Z" fill="#365B58"/>
<path d="M155.061 60.9003C157.044 61.3598 158.344 61.1596 159.797 60.5058L161.504 63.3844C159.364 64.5433 156.925 64.6473 154.091 63.9926C148.804 62.7672 146.311 59.494 147.277 55.3159C148.243 51.1377 151.876 49.2749 156.867 50.435C161.368 51.4722 164.042 54.4606 163.026 58.864C162.91 59.355 162.824 59.646 162.678 59.8721L151.293 57.2425C151.216 59.2033 152.544 60.3156 155.061 60.9003ZM151.948 54.8777L159.25 56.518C159.116 54.946 158.082 53.9725 156.19 53.5402C154.284 53.0978 152.793 53.4921 151.948 54.8777Z" fill="#365B58"/>
<path d="M177.454 56.9098L178.491 50.8358L182.977 51.6041L180.101 68.4312L175.614 67.6629L175.932 65.8215C174.576 67.0427 172.648 67.6432 170.347 67.2537C166.386 66.5793 164.104 63.4927 164.815 59.332C165.526 55.1714 168.699 53.0449 172.665 53.7279C174.951 54.1213 176.574 55.306 177.454 56.9098ZM176.402 62.8846L176.926 59.8413C176.17 58.3757 174.841 57.6324 173.316 57.3771C170.952 56.9736 169.416 57.9707 169.058 60.0615C168.696 62.1735 169.813 63.6082 172.178 64.0117C173.708 64.2756 175.207 64.0157 176.402 62.8846Z" fill="#365B58"/>
<path d="M204.772 67.0103C204.545 69.5138 201.968 71.3143 196.998 70.8601C193.595 70.5447 190.835 69.2496 189.163 67.7516L191.365 65.477C192.65 66.6167 194.722 67.546 197.416 67.7935C199.212 67.9609 200.431 67.7944 200.503 67.0352C200.569 66.2972 199.514 65.924 197.161 65.5674C193.508 64.9755 190.056 63.6384 190.317 60.744C190.558 58.1475 193.362 56.6258 198.099 57.0583C200.859 57.3128 203.321 58.2768 204.911 59.4466L202.743 61.8392C201.521 60.9425 199.845 60.2996 197.709 60.1014C196.304 59.9687 194.65 60.0318 194.581 60.8137C194.509 61.5728 195.856 61.833 198.005 62.1446C202.024 62.7508 205.028 64.2105 204.772 67.0103Z" fill="#365B58"/>
<path d="M211.839 69.4475L211.639 75.9496L207.089 75.8021L207.634 58.4237L212.184 58.5712L212.126 60.4405C213.299 59.0459 215.13 58.1805 217.463 58.2597C221.477 58.3852 224.166 61.1038 224.029 65.3466C223.895 69.5683 221.045 72.1055 217.03 71.9801C214.692 71.8923 212.921 70.9408 211.839 69.4475ZM212.052 63.3909L211.956 66.5063C212.928 67.8279 214.324 68.4015 215.871 68.455C218.27 68.5341 219.653 67.3261 219.714 65.2067C219.78 63.0661 218.483 61.7763 216.084 61.6972C214.529 61.6421 213.105 62.1325 212.052 63.3909Z" fill="#365B58"/>
<path d="M241.408 64.0512L241.558 68.8002C241.591 69.7226 241.771 70.4784 242.187 71.2049L237.573 71.353C237.31 70.9702 237.105 70.4897 237.091 70.0512L237.089 70.0285C236.149 71.0757 234.404 71.9159 232.142 71.9852C229.441 72.0684 225.97 71.1182 225.864 67.8475C225.758 64.5768 229.164 63.4092 231.859 63.3175C234.121 63.2482 235.92 63.9698 236.924 64.9809L236.901 64.1491C236.839 62.2167 235.378 61.3336 232.587 61.4262C231.061 61.4735 229.571 61.7279 228.028 62.5609L226.897 59.7136C228.6 58.8272 231.216 58.2603 233.434 58.1887C238.301 58.0371 241.279 60.1113 241.408 64.0512ZM237.104 67.3455C236.185 66.1537 234.561 65.8767 233.251 65.9197C231.956 65.9589 230.239 66.3402 230.279 67.6996C230.326 69.0606 232.063 69.3258 233.358 69.2866C234.675 69.2451 236.281 68.8686 237.115 67.5988L237.104 67.3455Z" fill="#365B58"/>
<path d="M252.762 70.8069C247.684 71.2808 244.261 68.9094 243.863 64.6814C243.463 60.4307 246.394 57.4977 251.472 57.0238C255.312 56.668 257.836 58.1251 259.055 60.0029L255.313 61.9229C254.526 60.7013 253.266 60.3495 251.839 60.485C249.515 60.7029 247.997 62.0213 248.202 64.2733C248.412 66.5042 250.156 67.5456 252.48 67.3277C253.884 67.1946 255.124 66.5973 255.713 65.1996L259.745 66.4211C258.884 68.5485 256.625 70.4487 252.762 70.8069Z" fill="#365B58"/>
<path d="M270.145 65.3424C272.151 65.0248 273.288 64.3604 274.392 63.2091L277.047 65.2414C275.495 67.1204 273.271 68.1207 270.393 68.5707C265.035 69.4109 261.501 67.303 260.832 63.0667C260.163 58.8304 262.838 55.7524 267.898 54.9572C272.46 54.244 276.06 56.0125 276.761 60.477C276.841 60.9819 276.865 61.275 276.813 61.544L265.27 63.3519C265.939 65.2117 267.587 65.7451 270.145 65.3424ZM265.002 60.9163L272.385 59.7109C271.674 58.307 270.355 57.7872 268.434 58.0867C266.503 58.3987 265.267 59.3142 265.002 60.9163Z" fill="#365B58"/>
<path d="M293.9 59.2318C294.445 61.6843 292.548 64.1883 287.683 65.2701C284.349 66.0107 281.323 65.6237 279.278 64.7077L280.674 61.8642C282.245 62.5502 284.502 62.8046 287.143 62.2212C288.901 61.8265 290.015 61.2974 289.845 60.5589C289.687 59.8375 288.563 59.8037 286.211 60.1851C282.548 60.7424 278.856 60.5258 278.226 57.6857C277.657 55.1395 279.858 52.8352 284.498 51.7998C287.202 51.2007 289.842 51.3623 291.707 51.9877L290.378 54.9272C288.948 54.442 287.151 54.3481 285.052 54.8151C283.676 55.124 282.12 55.6811 282.299 56.4438C282.467 57.1894 283.826 57.0243 285.966 56.6698C289.983 56.0136 293.287 56.4839 293.9 59.2318Z" fill="#365B58"/>
</svg>
