<svg width="441" height="257" viewBox="0 0 441 257" fill="none" xmlns="http://www.w3.org/2000/svg">
<rect x="215.346" y="17.0266" width="225.154" height="187.751" fill="white" fill-opacity="0.5" stroke="black"/>
<rect x="381.852" y="30.4437" width="14.787" height="0.869823" fill="black"/>
<rect x="360.107" y="30.4437" width="14.787" height="0.869823" fill="black"/>
<rect x="338.361" y="30.4437" width="14.787" height="0.869823" fill="black"/>
<rect x="419.754" y="27.4645" width="7.69823" height="7.69823" fill="white" stroke="black"/>
<rect x="411.926" y="27.4645" width="7.69823" height="7.69823" fill="white" stroke="black"/>
<rect x="404.098" y="27.4645" width="7.69823" height="7.69823" fill="white" stroke="black"/>
<rect x="246.16" y="139.172" width="154.828" height="0.869823" fill="black"/>
<rect x="246.16" y="145.26" width="154.828" height="0.869823" fill="black"/>
<rect x="246.16" y="151.349" width="154.828" height="0.869823" fill="black"/>
<rect x="246.16" y="157.438" width="33.9231" height="0.869823" fill="black"/>
<rect x="348" y="100.799" width="0.869823" height="20.8757" fill="black"/>
<path d="M259.548 79.2534H256.927V89.1681H256.799L249.952 79.2534H247.594V93.7988H250.229V83.8912H250.35L257.204 93.7988H259.548V79.2534ZM267.135 94.0119C269.677 94.0119 271.424 92.769 271.879 90.8727L269.478 90.6028C269.13 91.5261 268.278 92.0091 267.17 92.0091C265.508 92.0091 264.407 90.9153 264.386 89.0474H271.985V88.2591C271.985 84.4309 269.684 82.7477 267 82.7477C263.875 82.7477 261.836 85.0417 261.836 88.4082C261.836 91.8315 263.846 94.0119 267.135 94.0119ZM264.393 87.3145C264.471 85.9224 265.501 84.7505 267.035 84.7505C268.512 84.7505 269.507 85.8301 269.521 87.3145H264.393ZM276.353 93.7988H279.038L281.083 86.4267H281.233L283.278 93.7988H285.956L289.045 82.8897H286.417L284.528 90.5176H284.421L282.461 82.8897H279.869L277.909 90.5602H277.809L275.892 82.8897H273.271L276.353 93.7988ZM292.374 91.8102H290.102L290.052 92.6056C289.931 94.5304 289.427 96.4906 289.221 97.35H290.954C291.295 96.4551 292.083 94.3812 292.282 92.5914L292.374 91.8102ZM308.388 85.7733C308.033 83.9267 306.556 82.7477 303.999 82.7477C301.371 82.7477 299.581 84.0403 299.588 86.0574C299.581 87.6483 300.561 88.6994 302.657 89.1326L304.517 89.5233C305.519 89.7434 305.988 90.1483 305.988 90.7662C305.988 91.5119 305.178 92.073 303.956 92.073C302.777 92.073 302.01 91.5616 301.79 90.5815L299.283 90.823C299.603 92.8258 301.286 94.0119 303.963 94.0119C306.691 94.0119 308.615 92.5985 308.622 90.5318C308.615 88.9764 307.614 88.0247 305.554 87.5772L303.693 87.1795C302.586 86.9309 302.145 86.5474 302.152 85.9153C302.145 85.1767 302.962 84.6653 304.034 84.6653C305.22 84.6653 305.845 85.3116 306.044 86.0289L308.388 85.7733ZM317.696 89.2108C317.696 90.8727 316.51 91.6966 315.373 91.6966C314.137 91.6966 313.314 90.823 313.314 89.438V82.8897H310.743V89.8358C310.743 92.4565 312.234 93.9409 314.379 93.9409C316.012 93.9409 317.163 93.0815 317.66 91.8599H317.774V93.7988H320.267V82.8897H317.696V89.2108ZM322.91 93.7988H325.481V87.1653C325.481 85.823 326.376 84.9139 327.484 84.9139C328.571 84.9139 329.317 85.6454 329.317 86.7676V93.7988H331.838V86.9949C331.838 85.7662 332.57 84.9139 333.812 84.9139C334.849 84.9139 335.673 85.5247 335.673 86.8741V93.7988H338.251V86.4764C338.251 84.0403 336.845 82.7477 334.842 82.7477C333.258 82.7477 332.051 83.5289 331.568 84.7434H331.455C331.035 83.5076 329.977 82.7477 328.507 82.7477C327.044 82.7477 325.95 83.5005 325.496 84.7434H325.368V82.8897H322.91V93.7988ZM340.86 93.7988H343.431V87.1653C343.431 85.823 344.326 84.9139 345.434 84.9139C346.52 84.9139 347.266 85.6454 347.266 86.7676V93.7988H349.787V86.9949C349.787 85.7662 350.519 84.9139 351.762 84.9139C352.799 84.9139 353.622 85.5247 353.622 86.8741V93.7988H356.201V86.4764C356.201 84.0403 354.794 82.7477 352.792 82.7477C351.208 82.7477 350 83.5289 349.517 84.7434H349.404C348.985 83.5076 347.926 82.7477 346.456 82.7477C344.993 82.7477 343.899 83.5005 343.445 84.7434H343.317V82.8897H340.86V93.7988ZM363.638 94.0119C366.181 94.0119 367.928 92.769 368.383 90.8727L365.982 90.6028C365.634 91.5261 364.782 92.0091 363.674 92.0091C362.012 92.0091 360.911 90.9153 360.89 89.0474H368.489V88.2591C368.489 84.4309 366.188 82.7477 363.504 82.7477C360.379 82.7477 358.34 85.0417 358.34 88.4082C358.34 91.8315 360.35 94.0119 363.638 94.0119ZM360.897 87.3145C360.975 85.9224 362.005 84.7505 363.539 84.7505C365.016 84.7505 366.011 85.8301 366.025 87.3145H360.897ZM370.664 93.7988H373.235V87.3855C373.235 86.0005 374.279 85.0204 375.693 85.0204C376.126 85.0204 376.666 85.0985 376.886 85.1696V82.8045C376.652 82.7619 376.247 82.7335 375.963 82.7335C374.713 82.7335 373.669 83.4437 373.271 84.7079H373.157V82.8897H370.664V93.7988ZM252.239 118.012C254.981 118.012 256.728 116.385 256.913 114.07H254.455C254.235 115.242 253.39 115.917 252.261 115.917C250.655 115.917 249.619 114.574 249.619 112.344C249.619 110.143 250.677 108.822 252.261 108.822C253.496 108.822 254.256 109.617 254.455 110.668H256.913C256.735 108.303 254.888 106.748 252.225 106.748C249.029 106.748 247.012 109.056 247.012 112.387C247.012 115.689 248.979 118.012 252.239 118.012ZM263.782 118.012C266.978 118.012 269.01 115.76 269.01 112.387C269.01 109.006 266.978 106.748 263.782 106.748C260.586 106.748 258.555 109.006 258.555 112.387C258.555 115.76 260.586 118.012 263.782 118.012ZM263.796 115.952C262.028 115.952 261.162 114.376 261.162 112.38C261.162 110.384 262.028 108.786 263.796 108.786C265.537 108.786 266.403 110.384 266.403 112.38C266.403 114.376 265.537 115.952 263.796 115.952ZM273.763 103.253H271.192V117.799H273.763V103.253ZM278.978 103.253H276.407V117.799H278.978V103.253ZM286.451 118.012C288.994 118.012 290.741 116.769 291.195 114.873L288.795 114.603C288.447 115.526 287.594 116.009 286.486 116.009C284.825 116.009 283.724 114.915 283.702 113.047H291.302V112.259C291.302 108.431 289.001 106.748 286.316 106.748C283.191 106.748 281.153 109.042 281.153 112.408C281.153 115.831 283.163 118.012 286.451 118.012ZM283.709 111.314C283.788 109.922 284.817 108.751 286.352 108.751C287.829 108.751 288.823 109.83 288.837 111.314H283.709ZM298.235 118.012C300.977 118.012 302.724 116.385 302.909 114.07H300.451C300.231 115.242 299.386 115.917 298.257 115.917C296.652 115.917 295.615 114.574 295.615 112.344C295.615 110.143 296.673 108.822 298.257 108.822C299.493 108.822 300.252 109.617 300.451 110.668H302.909C302.731 108.303 300.885 106.748 298.221 106.748C295.025 106.748 293.008 109.056 293.008 112.387C293.008 115.689 294.975 118.012 298.235 118.012ZM310.467 106.89H308.315V104.276H305.744V106.89H304.196V108.878H305.744V114.944C305.73 116.996 307.222 118.005 309.153 117.948C309.885 117.927 310.389 117.785 310.666 117.692L310.233 115.682C310.091 115.718 309.8 115.782 309.48 115.782C308.834 115.782 308.315 115.555 308.315 114.518V108.878H310.467V106.89ZM312.618 117.799H315.189V106.89H312.618V117.799ZM313.91 105.341C314.727 105.341 315.394 104.716 315.394 103.949C315.394 103.175 314.727 102.55 313.91 102.55C313.086 102.55 312.419 103.175 312.419 103.949C312.419 104.716 313.086 105.341 313.91 105.341ZM322.591 118.012C325.787 118.012 327.818 115.76 327.818 112.387C327.818 109.006 325.787 106.748 322.591 106.748C319.395 106.748 317.364 109.006 317.364 112.387C317.364 115.76 319.395 118.012 322.591 118.012ZM322.605 115.952C320.837 115.952 319.97 114.376 319.97 112.38C319.97 110.384 320.837 108.786 322.605 108.786C324.345 108.786 325.212 110.384 325.212 112.38C325.212 114.376 324.345 115.952 322.605 115.952ZM332.571 111.407C332.571 109.83 333.523 108.921 334.88 108.921C336.208 108.921 337.003 109.795 337.003 111.251V117.799H339.574V110.853C339.581 108.239 338.09 106.748 335.838 106.748C334.205 106.748 333.083 107.529 332.586 108.743H332.458V106.89H330V117.799H332.571V111.407Z" fill="black"/>
<path d="M215.346 204.908H440.5V236.598C440.5 247.367 431.77 256.098 421 256.098H215.346V204.908Z" fill="white" fill-opacity="0.5" stroke="black"/>
<rect x="240.941" y="220.065" width="53.0592" height="0.869823" fill="black"/>
<rect x="240.941" y="227.893" width="53.0592" height="0.869823" fill="black"/>
<rect x="240.941" y="235.722" width="53.0592" height="0.869823" fill="black"/>
<rect x="334.882" y="220.065" width="53.0592" height="0.869823" fill="black"/>
<rect x="334.882" y="227.893" width="53.0592" height="0.869823" fill="black"/>
<rect x="334.882" y="235.722" width="53.0592" height="0.869823" fill="black"/>
<path d="M0.507256 16.8965C0.771726 7.79607 8.23204 0.5 17.3965 0.5H423.604C432.768 0.5 440.228 7.79607 440.493 16.8965H0.507256Z" fill="white" stroke="black"/>
<circle cx="21.7456" cy="8.69828" r="2.97929" fill="white" stroke="black"/>
<circle cx="35.6627" cy="8.69828" r="2.97929" fill="white" stroke="black"/>
<circle cx="49.5799" cy="8.69828" r="2.97929" fill="white" stroke="black"/>
<path d="M0.5 17.0266H215.216V256.098H20C9.23046 256.098 0.5 247.367 0.5 236.598V17.0266Z" fill="white" fill-opacity="0.5" stroke="black"/>
<path d="M153.959 140.215C147.058 159.294 138.128 199.885 157.612 209.627" stroke="black"/>
<path d="M86.9822 205.974C73.9929 183.649 48.9884 132.178 52.8852 104.901" stroke="black"/>
<circle cx="107.684" cy="108.554" r="56.7343" fill="white" stroke="black"/>
<path d="M52.4503 121.775C58.4148 129.019 79.2905 140.184 115.078 126.889" stroke="black"/>
<path d="M86.5473 205.713C90.2006 205.307 107.684 194.875 141.781 153.959" stroke="black"/>
<path d="M73.9349 110.033C72.1953 124.095 72.3692 162.831 86.9823 205.278" stroke="black"/>
<path d="M163.027 114.382C163.027 123.059 160.569 130.893 156.62 136.545C152.671 142.198 147.263 145.63 141.346 145.63C135.43 145.63 130.022 142.198 126.072 136.545C122.124 130.893 119.666 123.059 119.666 114.382C119.666 105.704 122.124 97.8701 126.072 92.2185C130.022 86.5652 135.43 83.1332 141.346 83.1332C147.263 83.1332 152.671 86.5652 156.62 92.2185C160.569 97.8701 163.027 105.704 163.027 114.382Z" fill="white" stroke="black"/>
<rect x="71.3254" y="233.112" width="5.21894" height="0.869823" fill="black"/>
<rect x="93.9408" y="233.112" width="5.21894" height="0.869823" fill="black"/>
<rect x="116.556" y="233.112" width="5.21894" height="0.869823" fill="black"/>
<rect x="139.172" y="233.112" width="5.21894" height="0.869823" fill="black"/>
</svg>
