<svg width="303" height="222" viewBox="0 0 303 222" fill="none" xmlns="http://www.w3.org/2000/svg">
<ellipse cx="151.375" cy="111.417" rx="136.533" ry="67.1287" transform="rotate(20.4219 151.375 111.417)" fill="white"/>
<path d="M278.858 158.883C272.493 175.978 252.575 186.333 225.237 189.09C197.935 191.844 163.403 186.993 128.126 173.858C92.8491 160.723 63.5529 141.809 44.7 121.871C25.8223 101.905 17.5269 81.046 23.8918 63.9512C30.2567 46.8565 50.1742 36.5016 77.5122 33.744C104.814 30.99 139.347 35.8414 174.624 48.9761C209.901 62.1109 239.197 81.0247 258.05 100.964C276.927 120.929 285.223 141.788 278.858 158.883Z" stroke="black" stroke-opacity="0.2"/>
<rect x="49.958" y="14.0527" width="159" height="199" fill="white" stroke="black"/>
<rect x="56.958" y="29.0527" width="15" height="3" fill="white" stroke="black"/>
<rect x="149.708" y="30.8027" width="5.5" height="0.5" fill="#C4C4C4" stroke="black" stroke-width="0.5"/>
<rect x="161.708" y="30.8027" width="9.5" height="0.5" fill="#C4C4C4" stroke="black" stroke-width="0.5"/>
<rect x="177.708" y="30.8027" width="7.5" height="0.5" fill="#C4C4C4" stroke="black" stroke-width="0.5"/>
<rect x="191.708" y="30.8027" width="9.5" height="0.5" fill="#C4C4C4" stroke="black" stroke-width="0.5"/>
<path d="M58.458 84.2397H166.958" stroke="black"/>
<rect x="49.708" y="102.803" width="159.5" height="0.5" fill="#C4C4C4" stroke="black" stroke-width="0.5"/>
<path d="M68.458 64.7397C71.7913 62.9064 79.658 59.3397 84.458 59.7397C90.458 60.2397 98.958 58.7397 105.958 60.2397C111.558 61.4397 118.291 64.7397 120.958 66.2397C124.97 66.106 130.48 66.5464 135.458 68.1294M147.458 84.7397C148.304 80.0241 147.131 76.4384 144.806 73.7397M63.458 66.7397C65.8809 66.0667 70.391 65.5676 72.458 67.7184M74.458 71.2397C74.3041 70.3933 72.9504 68.2307 72.458 67.7184M72.458 67.7184C77.7179 66.6524 86.478 65.7029 94.958 66.5195M99.458 67.7184L107.958 73.2397L113.958 73.7397C109.493 69.2748 102.331 67.2295 94.958 66.5195M94.958 66.5195C100.958 66.0929 114.058 65.5397 118.458 66.7397M144.806 73.7397L142.458 74.7397C141.125 72.4995 137.858 68.0411 135.458 68.1294M144.806 73.7397C142.526 71.0928 139.137 69.2992 135.458 68.1294M144.806 82.7397C144.357 81.0731 143.058 77.8397 141.458 78.2397C139.858 78.6397 127.125 78.4064 120.958 78.2397C119.458 79.2397 116.058 81.5397 114.458 82.7397" stroke="black"/>
<path d="M87.958 77.2397C87.958 79.4869 88.6551 81.5029 89.759 82.9464C90.8625 84.3895 92.3516 85.2397 93.958 85.2397C95.5644 85.2397 97.0535 84.3895 98.157 82.9464C99.2609 81.5029 99.958 79.4869 99.958 77.2397C99.958 74.9926 99.2609 72.9766 98.157 71.5331C97.0535 70.09 95.5644 69.2397 93.958 69.2397C92.3516 69.2397 90.8625 70.09 89.759 71.5331C88.6551 72.9766 87.958 74.9926 87.958 77.2397Z" fill="white" stroke="black"/>
<path d="M61.958 77.2397C61.958 79.2635 62.287 81.0726 62.8009 82.3574C63.0584 83.0011 63.3525 83.4885 63.6536 83.8068C63.9536 84.124 64.2256 84.2397 64.458 84.2397C64.6904 84.2397 64.9625 84.124 65.2625 83.8068C65.5635 83.4885 65.8576 83.0011 66.1151 82.3574C66.629 81.0726 66.958 79.2635 66.958 77.2397C66.958 75.216 66.629 73.4069 66.1151 72.1221C65.8576 71.4784 65.5635 70.991 65.2625 70.6727C64.9625 70.3555 64.6904 70.2397 64.458 70.2397C64.2256 70.2397 63.9536 70.3555 63.6536 70.6727C63.3525 70.991 63.0584 71.4784 62.8009 72.1221C62.287 73.4069 61.958 75.216 61.958 77.2397Z" fill="white" stroke="black"/>
<circle cx="196.458" cy="62.5527" r="4.5" fill="white" stroke="black"/>
<rect x="77.708" y="92.8027" width="11.5" height="0.5" fill="#C4C4C4" stroke="black" stroke-width="0.5"/>
<rect x="189.708" y="92.8027" width="11.5" height="0.5" fill="#C4C4C4" stroke="black" stroke-width="0.5"/>
<rect x="77.708" y="113.803" width="23.5" height="0.5" fill="white" stroke="black" stroke-width="0.5"/>
<rect x="137.708" y="121.803" width="41.5" height="0.5" fill="white" stroke="black" stroke-width="0.5"/>
<rect x="137.708" y="124.803" width="36.5" height="0.5" fill="white" stroke="black" stroke-width="0.5"/>
<rect x="137.708" y="127.803" width="41.5" height="0.5" fill="white" stroke="black" stroke-width="0.5"/>
<rect x="137.708" y="140.803" width="9.5" height="0.5" fill="white" stroke="black" stroke-width="0.5"/>
<rect x="137.708" y="155.803" width="9.5" height="0.5" fill="white" stroke="black" stroke-width="0.5"/>
<rect x="137.708" y="145.803" width="37.5" height="0.5" fill="white" stroke="black" stroke-width="0.5"/>
<rect x="137.708" y="160.803" width="37.5" height="0.5" fill="white" stroke="black" stroke-width="0.5"/>
<rect x="137.708" y="148.803" width="8.5" height="0.5" fill="white" stroke="black" stroke-width="0.5"/>
<rect x="137.708" y="163.803" width="8.5" height="0.5" fill="white" stroke="black" stroke-width="0.5"/>
<rect x="137.708" y="174.803" width="11.5" height="0.5" fill="white" stroke="black" stroke-width="0.5"/>
<rect x="49.958" y="174.053" width="43" height="28" fill="white" stroke="black"/>
<rect x="77.958" y="131.053" width="43" height="53" fill="white" stroke="black"/>
<circle cx="100.458" cy="156.553" r="7.5" fill="white" stroke="black"/>
<path d="M99.458 154.821L102.458 156.553L99.458 158.285L99.458 154.821Z" fill="white" stroke="black"/>
<circle cx="171.458" cy="196.553" r="7.5" fill="white" stroke="black"/>
<line x1="168.458" y1="196.053" x2="174.458" y2="196.053" stroke="black"/>
<rect x="49.958" y="14.0527" width="159" height="7" fill="white" stroke="black"/>
<circle cx="59.458" cy="17.5527" r="1.5" fill="white" stroke="black"/>
<circle cx="67.458" cy="17.5527" r="1.5" fill="white" stroke="black"/>
<circle cx="75.458" cy="17.5527" r="1.5" fill="white" stroke="black"/>
</svg>
