<svg width="510" height="324" viewBox="0 0 510 324" fill="none" xmlns="http://www.w3.org/2000/svg">
<ellipse cx="255.036" cy="161.928" rx="239.48" ry="85.3667" transform="rotate(-19.9421 255.036 161.928)" fill="white"/>
<path d="M479.687 80.4185C483.637 91.306 481.235 103.987 473.365 117.653C465.498 131.316 452.199 145.899 434.49 160.53C399.075 189.788 346.108 219.164 283.982 241.705C221.856 264.246 162.375 275.669 116.438 275.928C93.4669 276.057 73.9114 273.395 59.113 267.955C44.3116 262.515 34.3364 254.324 30.3862 243.437C26.4359 232.549 28.8381 219.868 36.7072 206.202C44.5747 192.539 57.8732 177.956 75.5826 163.325C110.998 134.068 163.965 104.691 226.091 82.1497C288.217 59.6088 347.698 48.1862 393.635 47.9275C416.606 47.7982 436.161 50.4606 450.96 55.8999C465.761 61.3404 475.736 69.5309 479.687 80.4185Z" stroke="black" stroke-opacity="0.2"/>
<path d="M134.958 64.0527H453.958V237.553C453.958 240.59 451.496 243.053 448.458 243.053H140.458C137.42 243.053 134.958 240.59 134.958 237.553V64.0527Z" fill="white" stroke="black"/>
<rect x="152.958" y="87.0527" width="35" height="5" fill="white" stroke="black"/>
<rect x="388.708" y="88.8027" width="21.5" height="0.5" fill="#C4C4C4" stroke="black" stroke-width="0.5"/>
<rect x="370.708" y="88.8027" width="11.5" height="0.5" fill="#C4C4C4" stroke="black" stroke-width="0.5"/>
<rect x="416.708" y="88.8027" width="15.5" height="0.5" fill="#C4C4C4" stroke="black" stroke-width="0.5"/>
<rect x="348.708" y="88.8027" width="15.5" height="0.5" fill="#C4C4C4" stroke="black" stroke-width="0.5"/>
<rect x="152.958" y="102.053" width="279" height="126" fill="white" stroke="black"/>
<rect x="384.958" y="147.053" width="36" height="9" fill="white" stroke="black"/>
<rect x="400.958" y="160.053" width="20" height="9" fill="white" stroke="black"/>
<rect x="166.708" y="163.803" width="45.5" height="0.5" fill="white" stroke="black" stroke-width="0.5"/>
<rect x="166.708" y="168.803" width="53.5" height="0.5" fill="white" stroke="black" stroke-width="0.5"/>
<rect x="166.708" y="173.803" width="36.5" height="0.5" fill="white" stroke="black" stroke-width="0.5"/>
<path d="M377.958 130.553V189.553L298.958 210.553M377.958 130.553L298.958 146.553M377.958 130.553L298.958 116.553L234.458 128.053M298.958 210.553L234.458 186.553V128.053M298.958 210.553V146.553M234.458 128.053L298.958 146.553" stroke="black"/>
<rect x="166.958" y="147.053" width="86" height="9" fill="white" stroke="black"/>
<rect x="134.958" y="64.0527" width="319" height="13" fill="white" stroke="black"/>
<circle cx="155.458" cy="70.5527" r="2.5" fill="white" stroke="black"/>
<circle cx="167.458" cy="70.5527" r="2.5" fill="white" stroke="black"/>
<circle cx="179.458" cy="70.5527" r="2.5" fill="white" stroke="black"/>
</svg>
