<svg width="324" height="222" viewBox="0 0 324 222" fill="none" xmlns="http://www.w3.org/2000/svg">
<ellipse cx="162.264" cy="110.787" rx="147.315" ry="69.6308" transform="rotate(-17.5186 162.264 110.787)" fill="white"/>
<path d="M302.27 66.5937C307.966 84.6379 297.677 106.008 276.082 126.017C254.518 145.998 221.813 164.484 183.074 176.712C144.335 188.94 106.944 192.581 77.8166 188.601C48.6473 184.616 27.9541 173.025 22.2583 154.981C16.5626 136.937 26.8516 115.567 48.4468 95.5576C70.0108 75.5771 102.716 57.0912 141.455 44.863C180.194 32.6348 217.585 28.9945 246.712 32.974C275.881 36.9592 296.574 48.5496 302.27 66.5937Z" stroke="black" stroke-opacity="0.2"/>
<rect x="48.958" y="23.0527" width="221" height="169" fill="white" stroke="black"/>
<rect x="191.958" y="54.0527" width="56" height="42" fill="white" stroke="black"/>
<rect x="191.708" y="98.8027" width="37.5" height="0.5" fill="white" stroke="black" stroke-width="0.5"/>
<rect x="191.708" y="101.803" width="47.5" height="0.5" fill="white" stroke="black" stroke-width="0.5"/>
<rect x="191.958" y="117.053" width="13" height="13" fill="white" stroke="black"/>
<rect x="209.708" y="116.803" width="27.5" height="0.5" fill="white" stroke="black" stroke-width="0.5"/>
<rect x="209.708" y="119.803" width="18.5" height="0.5" fill="white" stroke="black" stroke-width="0.5"/>
<rect x="209.708" y="129.803" width="5.5" height="0.5" fill="white" stroke="black" stroke-width="0.5"/>
<rect x="191.958" y="137.053" width="13" height="13" fill="white" stroke="black"/>
<rect x="209.708" y="136.803" width="27.5" height="0.5" fill="white" stroke="black" stroke-width="0.5"/>
<rect x="209.708" y="139.803" width="18.5" height="0.5" fill="white" stroke="black" stroke-width="0.5"/>
<rect x="209.708" y="149.803" width="5.5" height="0.5" fill="white" stroke="black" stroke-width="0.5"/>
<rect x="191.958" y="157.053" width="13" height="13" fill="white" stroke="black"/>
<rect x="209.708" y="156.803" width="27.5" height="0.5" fill="white" stroke="black" stroke-width="0.5"/>
<rect x="209.708" y="159.803" width="18.5" height="0.5" fill="white" stroke="black" stroke-width="0.5"/>
<rect x="209.708" y="169.803" width="5.5" height="0.5" fill="white" stroke="black" stroke-width="0.5"/>
<rect x="114.708" y="72.8027" width="45.5" height="0.5" fill="#C4C4C4" stroke="black" stroke-width="0.5"/>
<rect x="114.708" y="75.8027" width="31.5" height="0.5" fill="#C4C4C4" stroke="black" stroke-width="0.5"/>
<rect x="114.958" y="57.0527" width="39" height="3" fill="white" stroke="black"/>
<rect x="114.958" y="63.0527" width="39" height="3" fill="white" stroke="black"/>
<rect x="71.958" y="57.0527" width="37" height="33" fill="white" stroke="black"/>
<rect x="114.708" y="112.803" width="45.5" height="0.5" fill="#C4C4C4" stroke="black" stroke-width="0.5"/>
<rect x="114.708" y="115.803" width="31.5" height="0.5" fill="#C4C4C4" stroke="black" stroke-width="0.5"/>
<rect x="114.958" y="97.0527" width="39" height="3" fill="white" stroke="black"/>
<rect x="114.958" y="103.053" width="39" height="3" fill="white" stroke="black"/>
<rect x="71.958" y="97.0527" width="37" height="33" fill="white" stroke="black"/>
<rect x="114.708" y="152.803" width="45.5" height="0.5" fill="#C4C4C4" stroke="black" stroke-width="0.5"/>
<rect x="114.708" y="155.803" width="31.5" height="0.5" fill="#C4C4C4" stroke="black" stroke-width="0.5"/>
<rect x="114.958" y="137.053" width="39" height="3" fill="white" stroke="black"/>
<rect x="114.958" y="143.053" width="39" height="3" fill="white" stroke="black"/>
<rect x="71.958" y="137.053" width="37" height="33" fill="white" stroke="black"/>
<rect x="149.958" y="38.0527" width="19" height="3" fill="white" stroke="black"/>
<rect x="181.708" y="38.8027" width="11.5" height="0.5" fill="#C4C4C4" stroke="black" stroke-width="0.5"/>
<rect x="199.708" y="38.8027" width="11.5" height="0.5" fill="#C4C4C4" stroke="black" stroke-width="0.5"/>
<rect x="125.708" y="38.8027" width="11.5" height="0.5" fill="#C4C4C4" stroke="black" stroke-width="0.5"/>
<rect x="107.708" y="38.8027" width="11.5" height="0.5" fill="#C4C4C4" stroke="black" stroke-width="0.5"/>
<rect x="48.958" y="23.0527" width="221" height="7" fill="white" stroke="black"/>
<circle cx="58.458" cy="26.5527" r="1.5" fill="white" stroke="black"/>
<circle cx="66.458" cy="26.5527" r="1.5" fill="white" stroke="black"/>
<circle cx="74.458" cy="26.5527" r="1.5" fill="white" stroke="black"/>
</svg>
