<svg width="398" height="302" viewBox="0 0 398 302" fill="none" xmlns="http://www.w3.org/2000/svg">
<rect x="228.5" y="0.5" width="169" height="229" rx="5.5" fill="white" stroke="black"/>
<path d="M233.5 229.5H392.5V243C392.5 246.038 390.038 248.5 387 248.5H239C235.962 248.5 233.5 246.038 233.5 243V229.5Z" fill="white" stroke="black"/>
<rect x="240.5" y="12.5" width="145" height="205" rx="5.5" fill="white" stroke="black"/>
<rect x="260.5" y="38.5" width="23" height="3" fill="white" stroke="black"/>
<rect x="290.5" y="38.5" width="35" height="3" fill="white" stroke="black"/>
<rect x="332.5" y="38.5" width="33" height="3" fill="white" stroke="black"/>
<rect x="260" y="98" width="24" height="4" fill="black"/>
<rect x="290.5" y="98.5" width="35" height="3" fill="white" stroke="black"/>
<rect x="332.5" y="98.5" width="33" height="3" fill="white" stroke="black"/>
<rect x="260" y="158" width="24" height="4" fill="black"/>
<rect x="290.5" y="158.5" width="35" height="3" fill="white" stroke="black"/>
<rect x="332.5" y="158.5" width="33" height="3" fill="white" stroke="black"/>
<rect x="300.5" y="48.5" width="23" height="3" fill="white" stroke="black"/>
<rect x="330.5" y="48.5" width="35" height="3" fill="white" stroke="black"/>
<rect x="260.5" y="48.5" width="33" height="3" fill="white" stroke="black"/>
<rect x="300.5" y="108.5" width="23" height="3" fill="white" stroke="black"/>
<rect x="330.5" y="108.5" width="35" height="3" fill="white" stroke="black"/>
<rect x="260" y="108" width="34" height="4" fill="black"/>
<rect x="300.5" y="168.5" width="35" height="3" fill="white" stroke="black"/>
<rect x="342.5" y="168.5" width="23" height="3" fill="white" stroke="black"/>
<rect x="260" y="168" width="34" height="4" fill="black"/>
<rect x="336.5" y="88.5" width="29" height="3" fill="white" stroke="black"/>
<rect x="296.5" y="88.5" width="33" height="3" fill="white" stroke="black"/>
<rect x="296.5" y="148.5" width="47" height="3" fill="white" stroke="black"/>
<rect x="350.5" y="148.5" width="15" height="3" fill="white" stroke="black"/>
<rect x="342.5" y="58.5" width="23" height="3" fill="white" stroke="black"/>
<rect x="260.5" y="58.5" width="29" height="3" fill="white" stroke="black"/>
<rect x="296.5" y="58.5" width="17" height="3" fill="white" stroke="black"/>
<rect x="320.5" y="58.5" width="15" height="3" fill="white" stroke="black"/>
<rect x="342.5" y="118.5" width="23" height="3" fill="white" stroke="black"/>
<rect x="260" y="118" width="30" height="4" fill="black"/>
<rect x="296" y="118" width="18" height="4" fill="black"/>
<rect x="320.5" y="118.5" width="15" height="3" fill="white" stroke="black"/>
<rect x="342.5" y="178.5" width="23" height="3" fill="white" stroke="black"/>
<rect x="260" y="178" width="30" height="4" fill="black"/>
<rect x="296" y="178" width="18" height="4" fill="black"/>
<rect x="320.5" y="178.5" width="15" height="3" fill="white" stroke="black"/>
<rect x="260.5" y="68.5" width="23" height="3" fill="white" stroke="black"/>
<rect x="326.5" y="68.5" width="24" height="3" fill="white" stroke="black"/>
<rect x="290.5" y="68.5" width="29" height="3" fill="white" stroke="black"/>
<rect x="357.5" y="68.5" width="8" height="3" fill="white" stroke="black"/>
<rect x="260" y="128" width="24" height="4" fill="black"/>
<rect x="326.5" y="128.5" width="24" height="3" fill="white" stroke="black"/>
<rect x="290.5" y="128.5" width="29" height="3" fill="white" stroke="black"/>
<rect x="357.5" y="128.5" width="8" height="3" fill="white" stroke="black"/>
<rect x="260" y="188" width="24" height="4" fill="black"/>
<rect x="326.5" y="188.5" width="24" height="3" fill="white" stroke="black"/>
<rect x="290.5" y="188.5" width="29" height="3" fill="white" stroke="black"/>
<rect x="357.5" y="188.5" width="8" height="3" fill="white" stroke="black"/>
<rect x="282.5" y="78.5" width="29" height="3" fill="white" stroke="black"/>
<rect x="332.5" y="78.5" width="33" height="3" fill="white" stroke="black"/>
<rect x="260.5" y="78.5" width="15" height="3" fill="white" stroke="black"/>
<rect x="318.5" y="78.5" width="7" height="3" fill="white" stroke="black"/>
<rect x="282" y="138" width="30" height="4" fill="black"/>
<rect x="332.5" y="138.5" width="33" height="3" fill="white" stroke="black"/>
<rect x="260" y="138" width="16" height="4" fill="black"/>
<rect x="318.5" y="138.5" width="7" height="3" fill="white" stroke="black"/>
<rect x="48.5" y="91.5" width="269" height="148" fill="white" stroke="black"/>
<rect x="88.5" y="116.5" width="189" height="99" rx="3.5" fill="white" stroke="black"/>
<path d="M48.5 239.5H317.5V253C317.5 258.247 313.247 262.5 308 262.5H58C52.7533 262.5 48.5 258.247 48.5 253V239.5Z" fill="white" stroke="black"/>
<rect x="156.5" y="262.5" width="53" height="32" fill="white" stroke="black"/>
<rect x="142.5" y="294.5" width="81" height="7" fill="white" stroke="black"/>
<path d="M48.5 88C48.5 82.7533 52.7533 78.5 58 78.5H308C313.247 78.5 317.5 82.7533 317.5 88V91.5H48.5V88Z" fill="white" stroke="black"/>
<circle cx="62" cy="85" r="2.5" fill="white" stroke="black"/>
<circle cx="74" cy="85" r="2.5" fill="white" stroke="black"/>
<circle cx="86" cy="85" r="2.5" fill="white" stroke="black"/>
<circle cx="183" cy="168" r="29.5" fill="white" stroke="black"/>
<path d="M171.5 162.793L190.353 181.646" stroke="black"/>
<line x1="189.646" y1="181.646" x2="231.646" y2="139.646" stroke="black"/>
<path d="M48 163.5L0 163.5" stroke="black"/>
<path d="M0.5 164L0.5 30" stroke="black"/>
<path d="M213.354 30.3536C213.549 30.1583 213.549 29.8417 213.354 29.6464L210.172 26.4645C209.976 26.2692 209.66 26.2692 209.464 26.4645C209.269 26.6597 209.269 26.9763 209.464 27.1716L212.293 30L209.464 32.8284C209.269 33.0237 209.269 33.3403 209.464 33.5355C209.66 33.7308 209.976 33.7308 210.172 33.5355L213.354 30.3536ZM0 30.5H213V29.5H0V30.5Z" fill="black"/>
</svg>
