<svg width="53" height="49" viewBox="0 0 53 49" fill="none" xmlns="http://www.w3.org/2000/svg">
<path d="M44.9292 40.7546C44.9408 42.9118 44.3717 45.3566 42.3743 46.6604C37.5315 49.8069 32.2243 45.9813 26.9309 46.004C22.4064 46.0266 16.4442 49.9676 12.2796 47.5591C9.81762 46.133 8.87928 43.4121 8.86534 40.9334C8.84676 37.5379 11.2879 34.6541 14.8903 32.3768C16.3466 31.4555 17.9492 28.1755 19.956 25.7013C21.9628 23.2272 24.5061 21.5792 26.8032 21.5679C29.9829 21.5521 32.2661 23.0868 33.9082 25.2282C35.829 27.7341 36.9276 30.9756 38.5535 32.0871C41.9933 34.4458 44.9083 36.8 44.9292 40.7546Z" fill="#262424" fill-opacity="0.1"/>
<path d="M12.8278 19.4798C10.8055 15.255 6.69141 12.9553 3.63872 14.3433C0.586026 15.7312 -0.249248 20.2812 1.77308 24.506C3.7954 28.7308 7.9095 31.0305 10.9622 29.6425C14.0149 28.2546 14.8502 23.7045 12.8278 19.4798Z" fill="#262424" fill-opacity="0.1"/>
<path d="M25.1249 9.54894C24.5698 4.45309 21.3412 0.609579 17.9137 0.964213C14.4862 1.31885 12.1576 5.73733 12.7127 10.8332C13.2678 15.929 16.4963 19.7725 19.9239 19.4179C23.3514 19.0633 25.68 14.6448 25.1249 9.54894Z" fill="#262424" fill-opacity="0.1"/>
<path d="M49.7614 14.1219C46.6942 12.7647 42.6046 15.1055 40.627 19.3504C38.6494 23.5952 39.5327 28.1366 42.5999 29.4939C45.6671 30.8511 49.7567 28.5102 51.7343 24.2654C53.7119 20.0206 52.8286 15.4792 49.7614 14.1219Z" fill="#262424" fill-opacity="0.1"/>
<path d="M35.3828 0.865497C31.9517 0.544698 28.7633 4.41985 28.2611 9.52089C27.759 14.6219 30.1334 19.0172 33.5644 19.338C36.9954 19.6588 40.1839 15.7836 40.6861 10.6826C41.1882 5.58157 38.8138 1.1863 35.3828 0.865497Z" fill="#262424" fill-opacity="0.1"/>
</svg>
