<svg width="144" height="20" viewBox="0 0 144 20" fill="none" xmlns="http://www.w3.org/2000/svg">
<path fill-rule="evenodd" clip-rule="evenodd" d="M89.5251 8.26191C88.7318 6.66667 87.0009 4.76191 83.2987 4.76191C78.9234 4.76191 76.0626 8.28572 73.5384 11.4048C71.4469 14 69.4516 16.4286 67.0957 16.4286C64.6676 16.4286 63.1771 13.9286 63.1771 12.1429C63.1771 10.4762 64.8119 8.07143 67.3842 8.07143C69.8603 8.07143 71.2065 10.0952 71.2546 10.1667C71.7354 10.9524 72.7691 11.1905 73.5384 10.7143C74.3317 10.2381 74.5721 9.21429 74.0913 8.42857C73.8509 8.04762 71.6633 4.7381 67.3842 4.7381C62.9608 4.76191 59.8596 8.66667 59.8596 12.1429C59.8596 15.7381 62.8406 19.7619 67.0957 19.7619C71.0383 19.7619 73.6346 16.5714 76.1348 13.4762C78.3945 10.7143 80.5341 8.09524 83.2987 8.09524C84.9334 8.09524 85.9912 8.64286 86.5441 9.76191C87.0489 10.7619 87.0489 11.9048 87.0489 12.2857C87.0489 12.5 86.9287 13.6191 86.3758 14.6429C85.7748 15.7619 84.9094 16.2857 83.6593 16.2857C81.063 16.2857 79.6686 14.5952 79.1398 13.9524C78.9955 13.7857 78.8994 13.6667 78.7551 13.5238C78.4186 13.2381 77.9858 13.0952 77.5291 13.119C77.3127 13.1429 77.0964 13.1905 76.904 13.2857C76.7117 13.381 76.5434 13.5238 76.3992 13.6905C75.8222 14.3571 75.8703 15.3571 76.5194 16L76.5915 16.0714C77.3127 16.9524 79.5244 19.5952 83.6833 19.5952C88.7558 19.5952 90.4146 14.6429 90.4146 12.2619C90.3905 10.7143 90.102 9.38096 89.5251 8.26191Z" fill="#F67555"/>
<path fill-rule="evenodd" clip-rule="evenodd" d="M44.3539 0.428573C43.9933 0.809525 43.9452 1.83333 43.9452 9.90476C43.9452 18.381 43.9693 18.9762 44.378 19.3571C44.9549 19.881 46.1569 19.8571 46.6377 19.3333C46.8541 19.0952 47.0945 18.619 47.1906 18.2619L47.3589 17.5952L48.2724 18.4048C49.4264 19.4524 50.6284 19.8333 52.3352 19.6905C56.0374 19.4286 58.0567 16.5238 57.8404 11.7857C57.7202 9.04762 56.9269 7.40476 55.196 6.2381C52.9362 4.7381 49.5946 5.02381 47.9118 6.88095L47.431 7.40476L47.3108 4.19048C47.2147 1.47619 47.1185 0.904764 46.7339 0.476192C46.181 -0.142855 44.9068 -0.166665 44.3539 0.428573ZM33.8965 1.09524C33.4878 1.61905 33.3916 2.07143 33.3916 3.57143V5.42857L32.6704 5.59524C32.2618 5.69048 31.781 6.02381 31.5646 6.33334C31.228 6.85714 31.228 6.95238 31.5886 7.5C31.8531 7.90476 32.1896 8.09524 32.6704 8.09524H33.3676L33.4638 12.8095C33.5599 18.119 33.7522 18.8095 35.2427 19.4286C36.3005 19.8571 38.993 19.8571 40.0507 19.4286C40.9883 19.0476 41.3249 18.2143 40.8921 17.381C40.6277 16.9048 40.4835 16.8571 39.2815 17C37.0938 17.2619 37.0457 17.1667 37.0457 12.2143V8.09524H37.9593C39.0891 8.09524 39.9305 7.52381 39.9305 6.80953C39.9305 6.04762 39.4017 5.69048 38.1275 5.54762L37.0457 5.42857V3.57143C37.0457 2.07143 36.9496 1.61905 36.5409 1.09524C35.7956 0.238097 34.5696 0.238097 33.8965 1.09524ZM109.358 0.952383C108.95 1.35714 108.877 1.7381 108.877 3.42857V5.42857L107.988 5.64286C106.257 6.04762 106.425 8.09524 108.18 8.09524H108.853V12.619C108.853 17.4286 108.998 18.2381 110.055 19.1667C110.464 19.5238 111.017 19.6667 112.363 19.7381C114.431 19.8333 115.705 19.5 116.234 18.6905C116.57 18.1667 116.57 18.0714 116.21 17.5C115.825 16.9286 115.705 16.881 114.623 17.0238C112.483 17.3095 112.483 17.3095 112.483 12.381V8.09524H113.421C113.974 8.09524 114.575 7.90476 114.911 7.66667C115.993 6.78572 114.911 5.47619 113.084 5.47619C112.58 5.47619 112.532 5.35714 112.435 3.45238C112.363 1.92857 112.219 1.30953 111.882 0.952383C111.305 0.309525 109.983 0.309525 109.358 0.952383ZM0.649073 5.69048C0.0721114 6.14286 0.0721114 6.16667 0.0240313 12.0714C-0.0480889 17.3333 -8.76654e-06 18.0476 0.384632 18.8095C0.745233 19.5 0.961594 19.6667 1.70684 19.7143C2.33188 19.7619 2.74056 19.6429 3.05308 19.3333C3.46176 18.9286 3.53388 18.4286 3.63004 14.7381C3.75024 10.2619 3.91852 9.57143 5.1686 8.59524C6.13021 7.85714 7.88513 7.90476 8.65441 8.71429C9.23138 9.30952 9.23138 9.45238 9.35158 14.0476C9.44774 18.2619 9.51986 18.8095 9.92854 19.2619C10.6017 20 11.8277 19.9286 12.4527 19.1429C12.9095 18.5476 12.9576 18.2143 12.9576 13.7143C12.9576 9.59524 12.8855 8.78572 12.5008 7.95238C11.1546 5.02381 7.21201 4.33334 4.5676 6.57143C3.43772 7.52381 3.34156 7.54762 3.34156 6.76191C3.34156 6 2.54824 5.21429 1.803 5.21429C1.49048 5.2381 0.961594 5.42857 0.649073 5.69048ZM20.4821 5.66667C18.006 6.52381 16.5636 8.30953 16.1068 11.0714C15.4578 15.0714 17.3088 18.4762 20.6023 19.4286C22.6457 20.0238 25.4584 19.7857 27.0931 18.9048C28.7279 18.0238 29.7135 16.6667 29.3769 15.7381C28.9923 14.6429 28.0547 14.7619 26.4681 16.0476C24.9295 17.3095 24.4247 17.4762 22.7659 17.3095C21.011 17.1429 19.6648 15.6667 19.6648 13.9286V13.3333H23.9439C26.9008 13.3333 28.3913 13.2381 28.824 13.0238C29.7135 12.5714 29.9299 11.3571 29.4491 9.66667C28.4153 6.16667 24.3526 4.35714 20.4821 5.66667ZM96.0881 5.59524C93.1312 6.52381 91.9532 9.64286 93.7803 11.5952C94.5255 12.4048 95.6795 12.9286 97.9392 13.5476C100.343 14.2143 101.137 14.6191 101.449 15.3095C101.81 16.0714 101.353 16.8333 100.271 17.2619C98.5643 17.9762 96.5209 17.1667 95.4631 15.4048C94.6217 14 92.7466 14.4048 92.7466 16C92.7466 18 94.9102 19.5 98.0835 19.6667C102.507 19.9286 105.007 18.3095 105.007 15.2143C105.007 14.2143 104.887 13.881 104.262 13.1667C103.276 12.0714 102.795 11.8333 99.622 10.9286C98.1796 10.5238 96.7853 10 96.5449 9.78572C95.4631 8.80952 96.5209 7.57143 98.4441 7.57143C99.6461 7.57143 99.8143 7.64286 101.04 8.76191C102.459 10.0238 102.916 10.1667 103.757 9.57143C105.031 8.69048 103.973 6.66667 101.762 5.76191C100.439 5.26191 97.4825 5.14286 96.0881 5.59524ZM121.691 5.66667C119.984 6.26191 118.95 7.09524 118.133 8.59524C117.532 9.69048 117.412 10.1905 117.34 12.0476C117.219 14.9286 117.676 16.3333 119.239 17.881C120.729 19.3571 122.34 19.8571 125.104 19.7143C126.691 19.6429 127.292 19.4762 128.35 18.9048C129.985 18.0238 130.97 16.6667 130.634 15.7381C130.249 14.6667 129.336 14.7619 127.749 16.0238C126.21 17.2619 125.681 17.4524 124.023 17.2857C122.268 17.119 120.922 15.6429 120.922 13.9048V13.3333H125.201C128.158 13.3333 129.648 13.2381 130.057 13.0238C130.946 12.5714 131.163 11.3571 130.682 9.66667C129.624 6.16667 125.561 4.35714 121.691 5.66667ZM134.6 5.76191C134.144 6.26191 134.12 6.57143 134.12 12.5476C134.12 18.5 134.144 18.8333 134.6 19.2857C135.394 20.0714 136.956 19.8333 137.365 18.881C137.461 18.6429 137.629 16.6429 137.701 14.4048C137.822 11.2143 137.942 10.1905 138.278 9.57143C138.903 8.42857 139.601 8.19048 141.332 8.52381C142.99 8.85714 143.639 8.64286 143.88 7.69048C144.216 6.35714 142.245 5.04762 140.25 5.30953C139.529 5.40476 139.072 5.66667 138.399 6.38095L137.509 7.30953L137.341 6.69048C137.004 5.2381 135.562 4.7381 134.6 5.76191ZM24.6411 8.19048C25.4103 8.69048 25.9392 9.52381 26.1075 10.5476L26.2517 11.4048H22.9583C19.232 11.4048 19.232 11.4048 20.2177 9.5C21.1312 7.7381 23.0304 7.16667 24.6411 8.19048ZM125.85 8.19048C126.619 8.69048 127.148 9.52381 127.316 10.5476L127.46 11.4048H124.191C120.465 11.4048 120.465 11.4048 121.45 9.5C122.34 7.7381 124.239 7.16667 125.85 8.19048ZM52.7679 8.45238C54.2825 9.45238 54.8354 13.1429 53.7536 15.2381C52.4795 17.7143 49.4023 17.7143 47.9359 15.2619C47.2387 14.0952 47.2868 11.4286 48.008 9.95238C48.9696 8 51.0851 7.35714 52.7679 8.45238Z" fill="white"/>
</svg>
