<?xml version="1.0" encoding="UTF-8"?> <svg xmlns="http://www.w3.org/2000/svg" width="599" height="84" viewBox="0 0 599 84" fill="none"> <g clip-path="url(#clip0)"> <path fill-rule="evenodd" clip-rule="evenodd" d="M372.448 34.653C369.105 27.965 361.895 20 346.515 20C328.335 20 316.439 34.8 305.936 47.871C297.2 58.744 288.944 69.018 279.149 69.018C269.065 69.018 262.874 58.541 262.874 51.027C262.874 44.072 269.691 33.972 280.368 33.972C290.716 33.972 296.236 42.435 296.456 42.774C298.448 46.041 302.718 47.071 305.968 45.074C309.233 43.061 310.27 38.755 308.28 35.453C307.302 33.87 298.228 20 280.368 20C261.883 20 249 36.355 249 51.027C249 66.148 261.38 83 279.145 83C295.565 83 306.32 69.616 316.735 56.646C326.106 44.992 334.961 33.972 346.515 33.972C353.281 33.972 357.712 36.253 360.054 40.935C362.141 45.121 362.132 49.913 362.127 51.495C362.127 52.424 361.634 57.115 359.351 61.355C356.817 66.065 353.214 68.264 348.021 68.264C337.263 68.264 331.422 61.181 329.18 58.467C328.6 57.768 328.148 57.226 327.54 56.702C326.13 55.487 324.358 54.926 322.489 55.037C321.579 55.1066 320.692 55.3562 319.879 55.7715C319.066 56.1867 318.344 56.7593 317.754 57.456C315.366 60.262 315.563 64.474 318.284 67.133L318.544 67.445C321.562 71.105 330.746 82.236 348.017 82.236C369.16 82.236 376 61.466 376 51.412C376.005 45.01 374.809 39.372 372.448 34.652" fill="#F67555"></path> <path fill-rule="evenodd" clip-rule="evenodd" d="M184.534 1.80092C183.055 3.43492 182.879 7.67493 182.879 41.6459C182.879 77.2049 182.997 79.7689 184.708 81.3169C187.102 83.4829 192.154 83.4329 194.146 81.2219C195.013 80.2589 196.034 78.2279 196.413 76.7069L197.103 73.9419L200.86 77.3359C205.687 81.6969 210.667 83.2999 217.788 82.7849C233.21 81.6689 241.588 69.5259 240.699 49.5779C240.185 38.0449 236.924 31.1729 229.664 26.3209C220.225 20.0119 206.367 21.2279 199.379 28.9769L197.379 31.1949L196.879 17.6849C196.456 6.24592 196.087 3.85392 194.474 2.07392C192.079 -0.569076 186.81 -0.714075 184.534 1.80092ZM140.952 4.60692C139.258 6.75992 138.879 8.66492 138.879 15.0269V22.8129L135.845 23.4789C134.176 23.8459 132.1 25.2319 131.23 26.5589C129.785 28.7649 129.789 29.1859 131.287 31.4719C132.408 33.1829 133.836 33.9719 135.812 33.9719H138.698L139.053 53.7219C139.453 76.0189 140.233 78.9679 146.413 81.5509C150.804 83.3849 161.971 83.3779 166.376 81.5379C170.285 79.9039 171.709 76.3919 169.862 72.9389C168.781 70.9199 168.176 70.7789 163.134 71.3719C154.052 72.4389 153.879 72.0649 153.879 51.3169V33.9719H157.656C162.318 33.9719 165.879 31.6179 165.879 28.5379C165.879 25.3629 163.702 23.8189 158.378 23.2189L153.879 22.7119V14.9769C153.879 8.66593 153.497 6.75692 151.806 4.60692C148.94 0.962924 143.818 0.962924 140.952 4.60692ZM454.879 3.97192C453.196 5.65492 452.879 7.30493 452.879 14.3729V22.7729L449.141 23.6569C441.965 25.3539 442.711 33.9719 450.034 33.9719H452.879V53.0039C452.879 73.2299 453.484 76.5819 457.829 80.4569C459.51 81.9549 461.853 82.5329 467.384 82.8119C475.941 83.2439 481.309 81.7719 483.529 78.3829C484.978 76.1719 484.967 75.7549 483.395 73.3559C481.813 70.9419 481.303 70.7909 476.779 71.3909C467.861 72.5739 467.879 72.6139 467.879 51.9369V33.9719H471.768C474.048 33.9719 476.593 33.2139 477.919 32.1409C482.469 28.4559 477.944 22.9719 470.355 22.9719C468.265 22.9719 468.103 22.4579 467.685 14.4999C467.351 8.13192 466.785 5.52492 465.405 3.99992C462.987 1.32892 457.536 1.31492 454.879 3.97192ZM2.73984 23.8819C0.38784 25.7849 0.37784 25.8899 0.0968399 50.6319C-0.15616 72.8349 0.0028404 75.8439 1.59684 78.9719C3.08184 81.8889 3.99384 82.5229 7.07184 82.7789C9.68384 82.9959 11.3288 82.5219 12.6928 81.1579C14.4088 79.4419 14.6698 77.3249 15.0698 61.8509C15.5568 43.0419 16.2728 40.1669 21.4938 36.0599C25.4868 32.9189 32.7728 33.1659 35.9548 36.5509C38.3118 39.0589 38.3928 39.6789 38.8788 58.9489C39.3248 76.6169 39.5858 78.9949 41.2838 80.8699C44.0658 83.9399 49.1758 83.6819 51.8058 80.3369C53.7488 77.8669 53.8778 76.4409 53.8568 57.5869C53.8378 40.2369 53.5828 36.9159 51.9988 33.4309C46.3988 21.1009 29.9628 18.2169 18.9618 27.6329C14.2878 31.6329 13.8788 31.7009 13.8788 28.4719C13.8788 25.3059 10.6018 21.9719 7.48984 21.9719C6.17584 21.9719 4.03784 22.8319 2.73984 23.8819ZM85.2108 23.8229C74.9028 27.3849 68.8818 34.9039 67.0508 46.5019C64.3948 63.3259 72.0138 77.6299 85.7608 81.6259C94.2468 84.0929 105.962 83.1399 112.784 79.4269C119.618 75.7079 123.651 70.0759 122.283 66.1629C120.692 61.6129 116.735 62.0219 110.186 67.4139C103.797 72.6739 101.694 73.4009 94.7918 72.7379C87.4728 72.0339 81.8788 65.8689 81.8788 58.5039V55.9719L99.6288 55.9569C111.889 55.9469 118.152 55.5529 119.879 54.6819C123.602 52.8059 124.528 47.7169 122.448 40.5629C118.176 25.8669 101.278 18.2709 85.2108 23.8229ZM399.686 23.4899C387.41 27.4379 382.445 40.5189 390.105 48.7289C393.239 52.0879 397.986 54.3529 407.379 56.9699C417.359 59.7509 420.676 61.4319 422.025 64.3939C423.496 67.6219 421.631 70.7599 417.122 72.6439C410.047 75.5999 401.536 72.2789 397.147 64.8489C393.673 58.9679 385.879 60.6959 385.879 67.3469C385.879 75.7369 394.901 82.0149 408.054 82.7759C426.447 83.8409 436.879 77.0659 436.879 64.0559C436.879 59.8579 436.367 58.4579 433.731 55.4559C429.671 50.8319 427.641 49.8409 414.387 46.0159C408.342 44.2719 402.604 42.1279 401.637 41.2529C397.111 37.1569 401.535 31.9719 409.557 31.9719C414.515 31.9719 415.215 32.2949 420.379 36.9719C426.272 42.3089 428.139 42.8789 431.656 40.4149C436.962 36.6989 432.602 28.2519 423.397 24.4119C417.816 22.0839 405.542 21.6069 399.686 23.4899ZM506.211 23.8229C499.071 26.2909 494.836 29.7999 491.396 36.1019C488.903 40.6669 488.403 42.8439 488.057 50.6179C487.519 62.7049 489.411 68.5989 495.916 75.1049C502.093 81.2809 508.777 83.3859 520.3 82.7809C526.862 82.4359 529.427 81.7989 533.784 79.4269C540.618 75.7079 544.651 70.0759 543.283 66.1629C541.707 61.6559 537.868 62.0569 531.293 67.4129C524.853 72.6579 522.692 73.4009 515.792 72.7379C508.473 72.0339 502.879 65.8689 502.879 58.5039V55.9719L520.629 55.9569C532.889 55.9469 539.152 55.5529 540.879 54.6819C544.602 52.8059 545.528 47.7169 543.448 40.5629C539.176 25.8669 522.278 18.2709 506.211 23.8229ZM559.918 24.1609C557.973 26.2479 557.879 27.5639 557.879 52.6609C557.879 77.6389 557.98 79.0729 559.879 80.9719C563.136 84.2289 569.667 83.2549 571.423 79.2499C571.852 78.2719 572.487 69.8219 572.835 60.4719C573.333 47.0689 573.837 42.7749 575.221 40.1789C577.794 35.3489 580.744 34.3379 587.933 35.8219C594.803 37.2409 597.493 36.3589 598.497 32.3559C599.91 26.7289 591.667 21.2619 583.382 22.3319C580.386 22.7189 578.465 23.8339 575.71 26.7879L572.035 30.7279L571.379 28.0999C569.857 22.0019 563.852 19.9369 559.918 24.1609ZM102.471 34.4399C105.717 36.5669 107.856 40.0569 108.556 44.3659L109.141 47.9719H95.5098C79.9848 47.9719 80.0518 48.0189 84.1288 39.9339C87.8878 32.4799 95.8418 30.0969 102.471 34.4399ZM523.471 34.4399C526.717 36.5669 528.856 40.0569 529.556 44.3659L530.141 47.9719H516.51C500.985 47.9719 501.052 48.0189 505.129 39.9339C508.888 32.4799 516.842 30.0969 523.471 34.4399ZM219.501 35.4599C225.85 39.6199 228.109 55.1999 223.629 63.9359C218.305 74.3179 205.529 74.3499 199.467 63.9969C196.581 59.0689 196.729 47.9389 199.764 41.6929C203.681 33.6289 212.471 30.8539 219.501 35.4599Z" fill="#35414D"></path> </g> <defs> <clipPath id="clip0"> <rect width="598.656" height="83.0182" fill="white"></rect> </clipPath> </defs> </svg> 