<svg xmlns="http://www.w3.org/2000/svg" width="207.273" height="42.444" viewBox="0 0 207.273 42.444">
  <g id="logo_recredit" data-name="logo recredit" transform="translate(-214.992 -254.345)">
    <g id="Сгруппировать_4" data-name="Сгруппировать 4" transform="translate(214.992 254.345)">
      <rect id="Прямоугольник_354" data-name="Прямоугольник 354" width="39.582" height="40.393" transform="translate(0 0.853)" fill="#1a1718"/>
      <g id="Сгруппировать_1" data-name="Сгруппировать 1" transform="translate(7.894 9.152)">
        <rect id="Прямоугольник_355" data-name="Прямоугольник 355" width="7.932" height="7.932" transform="translate(23.795 23.795) rotate(-180)" fill="#ffc200"/>
        <path id="Контур_486" data-name="Контур 486" d="M247.208,273.305l-7.932,7.932-7.932,7.932V297.1h7.932l7.932-7.932,7.932-7.932v-7.932Z" transform="translate(-231.344 -273.305)" fill="#ffc200"/>
        <rect id="Прямоугольник_356" data-name="Прямоугольник 356" width="7.932" height="7.932" transform="translate(7.932 7.932) rotate(-180)" fill="#ffc200"/>
      </g>
      <g id="Сгруппировать_2" data-name="Сгруппировать 2" transform="translate(52.892)">
        <path id="Контур_487" data-name="Контур 487" d="M338.672,275.968l4.995,7.511c.953,1.411.8,1.83-.992,1.83h-1.449a3.42,3.42,0,0,1-3.432-1.868l-4.652-7.092h-3.469V283.1c0,1.716-.419,2.211-2.211,2.211h-.686c-1.792,0-2.211-.5-2.211-2.211v-18c0-3.2,1.373-4.575,4.576-4.575h6.253c5.6,0,8.426,2.631,8.426,7.931C343.818,272.574,342.1,275.091,338.672,275.968Zm-7.855-10.676a1.011,1.011,0,0,0-1.144,1.144v5.148h5.719c2.211,0,3.317-1.03,3.317-3.127,0-2.135-.915-3.165-3.317-3.165Z" transform="translate(-324.564 -257.542)" fill="#262626"/>
        <path id="Контур_488" data-name="Контур 488" d="M389.506,281.149c-.191,1.716-.686,2.1-2.479,2.1h-9.684v.572c0,1.982,1.487,2.9,4.995,2.9a23.2,23.2,0,0,0,4.613-.533c1.64-.343,2.021.038,2.021,1.83v.419c0,1.678-.343,2.059-2.021,2.478a17.9,17.9,0,0,1-4.652.5c-6.825,0-9.951-2.516-9.951-8.35v-3.05c0-5.72,2.974-8.579,8.884-8.579q8.35,0,8.35,8.236C389.582,280.2,389.544,280.691,389.506,281.149ZM377.343,279.2h7.511v-.572c0-1.944-1.258-2.9-3.774-2.9-2.479,0-3.737.953-3.737,2.9Z" transform="translate(-349.282 -263.181)" fill="#262626"/>
        <path id="Контур_489" data-name="Контур 489" d="M421.842,275.788c0,3.012,1.372,4.8,5.757,4.8a15.319,15.319,0,0,0,4.117-.572c1.678-.458,2.135-.076,2.135,1.716v.305c0,1.716-.419,2.135-2.1,2.745a13.726,13.726,0,0,1-4.384.572c-7.169,0-10.79-2.86-10.79-9.57v-6.1c0-6.253,3.621-9.952,10.828-9.952a12.2,12.2,0,0,1,4.308.648c1.716.648,2.135,1.067,2.135,2.745v.305c0,1.792-.534,2.212-2.211,1.716a14.839,14.839,0,0,0-4.232-.648c-3.928,0-5.567,1.639-5.567,5.185Z" transform="translate(-372.163 -257.134)" fill="#262626"/>
        <path id="Контур_490" data-name="Контур 490" d="M465.408,288.812c0,1.716-.419,2.136-2.135,2.136h-.725c-1.716,0-2.135-.419-2.135-2.136V278.365c0-4.537,2.745-6.939,7.93-6.939h.419c1.487,0,1.944.648,1.944,2.441v.419c0,1.678-.381,1.945-1.944,1.83h-.419c-2.326,0-2.936.763-2.936,2.631Z" transform="translate(-394.838 -263.181)" fill="#262626"/>
        <path id="Контур_491" data-name="Контур 491" d="M503.32,281.149c-.191,1.716-.686,2.1-2.479,2.1h-9.684v.572c0,1.982,1.487,2.9,4.995,2.9a23.2,23.2,0,0,0,4.613-.533c1.64-.343,2.021.038,2.021,1.83v.419c0,1.678-.343,2.059-2.021,2.478a17.892,17.892,0,0,1-4.651.5c-6.825,0-9.952-2.516-9.952-8.35v-3.05c0-5.72,2.974-8.579,8.884-8.579q8.351,0,8.35,8.236C503.4,280.2,503.358,280.691,503.32,281.149ZM491.157,279.2h7.511v-.572c0-1.944-1.258-2.9-3.775-2.9-2.479,0-3.737.953-3.737,2.9Z" transform="translate(-408.157 -263.181)" fill="#262626"/>
        <path id="Контур_492" data-name="Контур 492" d="M547.788,275.374c0,5.681-3.622,8.35-9.074,8.35-6.062,0-9.113-2.783-9.113-8.35v-3.05c0-5.491,2.784-8.579,8.007-8.579,2.4,0,4.156.725,5.224,2.173v-7.206c0-1.716.419-2.135,2.135-2.135h.686c1.716,0,2.135.419,2.135,2.135Zm-13.192-.114c0,2.708.762,3.775,4.079,3.775,3.241,0,4.157-1.144,4.157-3.775v-3.05c0-2.631-.915-3.775-4.157-3.775s-4.079,1.144-4.079,3.775Z" transform="translate(-430.628 -255.5)" fill="#262626"/>
        <path id="Контур_493" data-name="Контур 493" d="M577.225,255.232a2.966,2.966,0,1,1,0,4.194A2.923,2.923,0,0,1,577.225,255.232Zm-.381,9.952c0-1.716.419-2.135,2.135-2.135h.686c1.716,0,2.136.419,2.136,2.135v14.793c0,1.716-.42,2.135-2.136,2.135h-.686c-1.715,0-2.135-.419-2.135-2.135Z" transform="translate(-454.805 -254.345)" fill="#262626"/>
        <path id="Контур_494" data-name="Контур 494" d="M595,269.693c0-1.525.381-1.982,1.868-2.288l1.564-.343.458-3.012c.19-1.563.648-1.944,2.288-1.944h.229c1.639,0,1.983.343,1.983,1.983v2.974h4.346c1.716,0,2.135.419,2.135,2.135v.419c0,1.716-.42,2.135-2.135,2.135h-4.346v7.55c0,1.716.8,2.554,2.4,2.554a13.7,13.7,0,0,0,2.669-.228c1.716-.306,2.1-.114,2.1,1.563v.419c0,1.716-.457,2.364-2.1,2.707a12.366,12.366,0,0,1-2.669.229c-4.919,0-7.359-2.441-7.359-7.283v-7.511H596.9c-1.525,0-1.906-.381-1.906-1.907Z" transform="translate(-464.458 -258.36)" fill="#262626"/>
      </g>
      <g id="Сгруппировать_3" data-name="Сгруппировать 3" transform="translate(53.199 36.044)">
        <path id="Контур_495" data-name="Контур 495" d="M325.2,333.43h.111a.645.645,0,0,0,.526-.249,2.071,2.071,0,0,0,.312-.913,12.218,12.218,0,0,0,.111-1.88v-1.209h3.729v4.251h.751v2.07h-1.106v-1.193h-3.326V335.5H325.2Zm3.556.008v-3.39h-1.39v.632a5.253,5.253,0,0,1-.514,2.758Z" transform="translate(-325.2 -329.1)" fill="#47484a"/>
        <path id="Контур_496" data-name="Контур 496" d="M343.684,334.247a4.254,4.254,0,0,1-.747-.19,1.317,1.317,0,0,1-.656-.462,1.271,1.271,0,0,1-.237-.778v-2.244a1.354,1.354,0,0,1,.17-.68,1.335,1.335,0,0,1,.439-.474,2.328,2.328,0,0,1,.585-.253,3.253,3.253,0,0,1,.648-.126c.184-.016.379-.023.585-.023a6.311,6.311,0,0,1,.632.027,4.071,4.071,0,0,1,.6.115,2.4,2.4,0,0,1,.625.268,1.3,1.3,0,0,1,.411.443,1.359,1.359,0,0,1,.173.7v2.244a1.21,1.21,0,0,1-.225.735,1.379,1.379,0,0,1-.62.466,4.263,4.263,0,0,1-1.6.285A5.2,5.2,0,0,1,343.684,334.247Zm1.241-.842a2.181,2.181,0,0,0,.367-.075.537.537,0,0,0,.289-.186.527.527,0,0,0,.1-.328v-2.252a.539.539,0,0,0-.293-.518,2.034,2.034,0,0,0-.908-.154,2.082,2.082,0,0,0-.908.151.535.535,0,0,0-.293.521v2.252a.509.509,0,0,0,.1.328.558.558,0,0,0,.3.186,2.162,2.162,0,0,0,.367.075,4.872,4.872,0,0,0,.877,0Z" transform="translate(-333.913 -329.016)" fill="#47484a"/>
        <path id="Контур_497" data-name="Контур 497" d="M359.812,334.27a4.211,4.211,0,0,1-.6-.119,2.05,2.05,0,0,1-.6-.249,1.225,1.225,0,0,1-.4-.431,1.252,1.252,0,0,1-.166-.656v-2.252q0-1.549,2.378-1.549a10.263,10.263,0,0,1,1.628.173v.925a6.977,6.977,0,0,0-1.612-.222c-.2,0-.347.006-.454.016a1.381,1.381,0,0,0-.336.079.532.532,0,0,0-.371.561v2.181q0,.7,1.272.7a7.308,7.308,0,0,0,1.533-.229v.932a8.2,8.2,0,0,1-1.66.174A5.5,5.5,0,0,1,359.812,334.27Z" transform="translate(-342.195 -329.016)" fill="#47484a"/>
        <path id="Контур_498" data-name="Контур 498" d="M372.909,330.056h-1.58v-.877h4.385v.877h-1.573v4.251h-1.232Z" transform="translate(-349.062 -329.1)" fill="#47484a"/>
        <path id="Контур_499" data-name="Контур 499" d="M385.459,334.307v-.9q.166.039.328.071a1.618,1.618,0,0,0,.312.031.644.644,0,0,0,.375-.106.851.851,0,0,0,.265-.328l.111-.229-1.983-3.666h1.288l1.288,2.576h.031l1.02-2.576h1.241l-1.857,4.117a1.891,1.891,0,0,1-.64.83,1.941,1.941,0,0,1-1.09.261A3.666,3.666,0,0,1,385.459,334.307Z" transform="translate(-356.065 -329.1)" fill="#47484a"/>
        <path id="Контур_500" data-name="Контур 500" d="M400.024,329.179h4.52v5.128h-1.233v-4.259h-2.054v4.259h-1.233Z" transform="translate(-363.906 -329.1)" fill="#47484a"/>
        <path id="Контур_501" data-name="Контур 501" d="M415.771,329.179H417v2.054h2.181v-2.054h1.232v5.128h-1.232v-2.2H417v2.2h-1.233Z" transform="translate(-372.052 -329.1)" fill="#47484a"/>
        <path id="Контур_502" data-name="Контур 502" d="M431.78,329.179h3.912v.877h-2.679v1.177h2.418v.877h-2.418v1.319h2.758v.878H431.78Z" transform="translate(-380.333 -329.1)" fill="#47484a"/>
        <path id="Контур_503" data-name="Контур 503" d="M453.715,329.179h1.233V331.2a1.07,1.07,0,0,0,.561-.13,1.712,1.712,0,0,0,.466-.5l.964-1.391h1.383l-1.106,1.541a3.262,3.262,0,0,1-.462.541,1.681,1.681,0,0,1-.517.3v.015a1.454,1.454,0,0,1,.66.34,2.769,2.769,0,0,1,.517.711l.909,1.676h-1.383L456.1,332.8a2.049,2.049,0,0,0-.32-.454.8.8,0,0,0-.344-.209,1.8,1.8,0,0,0-.49-.055v2.228h-1.233Z" transform="translate(-391.68 -329.1)" fill="#47484a"/>
        <path id="Контур_504" data-name="Контур 504" d="M468.529,329.179h2.055a5.434,5.434,0,0,1,1.189.1,1.1,1.1,0,0,1,.64.36,1.129,1.129,0,0,1,.2.715v.972a1.273,1.273,0,0,1-.217.79,1.2,1.2,0,0,1-.687.4,5.416,5.416,0,0,1-1.268.118h-.68v1.667h-1.233Zm2.015,2.616a1.442,1.442,0,0,0,.679-.115.415.415,0,0,0,.2-.391v-.822a.321.321,0,0,0-.19-.332,2.05,2.05,0,0,0-.7-.079h-.767v1.739Z" transform="translate(-399.343 -329.1)" fill="#47484a"/>
        <path id="Контур_505" data-name="Контур 505" d="M482.885,329.179H486.8v.877h-2.679v1.177h2.418v.877h-2.418v1.319h2.758v.878h-3.99Z" transform="translate(-406.769 -329.1)" fill="#47484a"/>
        <path id="Контур_506" data-name="Контур 506" d="M496.062,333.43h.111a.646.646,0,0,0,.526-.249,2.072,2.072,0,0,0,.312-.913,12.15,12.15,0,0,0,.111-1.88v-1.209h3.729v4.251h.751v2.07H500.5v-1.193h-3.327V335.5h-1.106Zm3.556.008v-3.39h-1.391v.632a5.259,5.259,0,0,1-.514,2.758Z" transform="translate(-413.585 -329.1)" fill="#47484a"/>
        <path id="Контур_507" data-name="Контур 507" d="M513.135,329.179h1.232v3.508l2.213-3.508h1.233v5.128H516.58v-3.564l-2.213,3.564h-1.232Z" transform="translate(-422.417 -329.1)" fill="#47484a"/>
        <path id="Контур_508" data-name="Контур 508" d="M529.972,330.056h-1.58v-.877h4.385v.877h-1.572v4.251h-1.233Z" transform="translate(-430.309 -329.1)" fill="#47484a"/>
        <path id="Контур_509" data-name="Контур 509" d="M542.521,334.307v-.9q.166.039.328.071a1.616,1.616,0,0,0,.312.031.646.646,0,0,0,.376-.106.849.849,0,0,0,.265-.328l.111-.229-1.983-3.666h1.288l1.288,2.576h.031l1.019-2.576H546.8l-1.857,4.117a1.89,1.89,0,0,1-.64.83,1.94,1.94,0,0,1-1.09.261A3.67,3.67,0,0,1,542.521,334.307Z" transform="translate(-437.312 -329.1)" fill="#47484a"/>
        <path id="Контур_510" data-name="Контур 510" d="M557.086,329.179h2.079a4.641,4.641,0,0,1,1.133.107.97.97,0,0,1,.565.34,1.11,1.11,0,0,1,.166.652v.632a.6.6,0,0,1-.17.4.879.879,0,0,1-.4.261v.04a.956.956,0,0,1,.549.257.665.665,0,0,1,.249.5v.79a.918.918,0,0,1-.5.885,3.467,3.467,0,0,1-1.541.261h-2.134Zm2.079,2.086a1.463,1.463,0,0,0,.434-.048.307.307,0,0,0,.193-.154.734.734,0,0,0,.052-.312V330.5a.607.607,0,0,0-.047-.273.288.288,0,0,0-.194-.13,1.932,1.932,0,0,0-.462-.04h-.822v1.209Zm.031,2.164a1.432,1.432,0,0,0,.64-.1.349.349,0,0,0,.19-.332v-.411a.494.494,0,0,0-.146-.4.843.843,0,0,0-.517-.118h-1.043v1.367Z" transform="translate(-445.152 -329.1)" fill="#47484a"/>
        <path id="Контур_511" data-name="Контур 511" d="M572.356,329.179h1.5l1.849,5.128h-1.249L574,332.956h-1.873l-.45,1.351H570.46Zm1.375,2.955-.647-1.928h-.032l-.648,1.928Z" transform="translate(-452.071 -329.1)" fill="#47484a"/>
        <path id="Контур_512" data-name="Контур 512" d="M586.6,329.179h1.232v2.054h2.181v-2.054h1.233v5.128h-1.233v-2.2h-2.181v2.2H586.6Z" transform="translate(-460.42 -329.1)" fill="#47484a"/>
        <path id="Контур_513" data-name="Контур 513" d="M602.609,329.179h1.233v2.054h2.181v-2.054h1.232v5.128h-1.232v-2.2h-2.181v2.2h-1.233Z" transform="translate(-468.701 -329.1)" fill="#47484a"/>
        <path id="Контур_514" data-name="Контур 514" d="M619.143,332.316A1.212,1.212,0,0,1,618.4,332a.989.989,0,0,1-.245-.719v-1.019a.874.874,0,0,1,.458-.834,3.293,3.293,0,0,1,1.485-.249h2.268v5.128h-1.233v-1.9h-.727l-1.2,1.9H617.8Zm1.991-.719v-1.541h-1.019a1.148,1.148,0,0,0-.581.107.424.424,0,0,0-.17.391v.482a.523.523,0,0,0,.158.447,1.083,1.083,0,0,0,.593.114Z" transform="translate(-476.559 -329.1)" fill="#47484a"/>
      </g>
    </g>
    <g id="Сгруппировать_5" data-name="Сгруппировать 5" transform="translate(414.093 256.194)">
      <path id="Контур_515" data-name="Контур 515" d="M630.813,258.863h-1.261v3.431H628.7v-3.431h-1.244v-.687h3.354Z" transform="translate(-627.459 -258.176)" fill="#1a1818"/>
      <path id="Контур_516" data-name="Контур 516" d="M636.519,258.176l1.058,2.987,1.052-2.987h1.115v4.118h-.852v-1.126l.085-1.943-1.112,3.069h-.583l-1.109-3.066.085,1.94v1.126h-.849v-4.118Z" transform="translate(-631.572 -258.176)" fill="#1a1818"/>
    </g>
  </g>
</svg>
