<svg id="Сгруппировать_1" data-name="Сгруппировать 1" xmlns="http://www.w3.org/2000/svg" xmlns:xlink="http://www.w3.org/1999/xlink" width="31.569" height="35.655" viewBox="0 0 31.569 35.655">
  <defs>
    <radialGradient id="radial-gradient" cx="0.776" cy="-0.065" r="1.184" gradientTransform="translate(-0.065) scale(1.129 1)" gradientUnits="objectBoundingBox">
      <stop offset="0" stop-color="#ffe314"/>
      <stop offset="0.299" stop-color="#ed6e3a"/>
      <stop offset="0.62" stop-color="#db0566"/>
      <stop offset="1" stop-color="#1c3b8a"/>
    </radialGradient>
    <radialGradient id="radial-gradient-2" cx="1.277" cy="-3.349" r="6.413" gradientTransform="translate(0.207) scale(0.587 1)" xlink:href="#radial-gradient"/>
  </defs>
  <path id="Контур_1" data-name="Контур 1" d="M87.992,478.849,77.014,467.87a4.81,4.81,0,0,0-6.8,0L59.239,478.849a4.776,4.776,0,0,0-1.408,3.4v15.065a4.812,4.812,0,0,0,4.805,4.807H84.595a4.812,4.812,0,0,0,4.805-4.807V482.247A4.775,4.775,0,0,0,87.992,478.849Zm-4.445,15.617a1.8,1.8,0,0,1-1.8,1.8H65.485a1.8,1.8,0,0,1-1.8-1.8V483.427a1.8,1.8,0,0,1,.528-1.273l8.131-8.132a1.8,1.8,0,0,1,2.546,0l8.132,8.132a1.8,1.8,0,0,1,.527,1.273Z" transform="translate(-57.831 -466.464)" fill="url(#radial-gradient)"/>
  <path id="Контур_2" data-name="Контур 2" d="M81.676,493.447a1.464,1.464,0,0,0-1.634,1.269,2.716,2.716,0,0,1-5.389,0,1.463,1.463,0,1,0-2.9.364,5.642,5.642,0,0,0,11.195,0A1.462,1.462,0,0,0,81.676,493.447Z" transform="translate(-61.563 -473.702)" fill="url(#radial-gradient-2)"/>
</svg>
