<svg id="logo_Credits" data-name="logo Credits" xmlns="http://www.w3.org/2000/svg" width="277" height="35.567" viewBox="0 0 277 35.567">
  <g id="Сгруппировать_1" data-name="Сгруппировать 1" transform="translate(70.647 4.491)">
    <path id="Контур_1" data-name="Контур 1" d="M129.976,281.5a19.2,19.2,0,0,1-3.2.782,19.886,19.886,0,0,1-2.994.239,13.177,13.177,0,0,1-2.7-.254,12.07,12.07,0,0,1-2.177-.663,8.608,8.608,0,0,1-1.7-.935,10.411,10.411,0,0,1-1.275-1.071,9.443,9.443,0,0,1-1.735-2.654,9.8,9.8,0,0,1-.749-4.081,14.915,14.915,0,0,1,.357-3.215,14.279,14.279,0,0,1,1.088-3.13,15.249,15.249,0,0,1,1.8-2.856,14.162,14.162,0,0,1,2.5-2.433,13.77,13.77,0,0,1,4.915-2.449,20.762,20.762,0,0,1,5.016-.611,19.5,19.5,0,0,1,2.807.186,16.328,16.328,0,0,1,2.635.629l-1.021,4.082a11.414,11.414,0,0,0-2.261-.679,12.525,12.525,0,0,0-2.3-.205,11.913,11.913,0,0,0-4.013.663,8.862,8.862,0,0,0-3.436,2.3,10.011,10.011,0,0,0-2.261,3.521,10.772,10.772,0,0,0-.731,3.792,6.122,6.122,0,0,0,.629,2.994,5.8,5.8,0,0,0,1.343,1.7,5.087,5.087,0,0,0,2.262,1.106,11.883,11.883,0,0,0,2.4.256,13.656,13.656,0,0,0,2.823-.273,14.014,14.014,0,0,0,2.517-.782Z" transform="translate(-113.445 -256.735)" fill="#008894"/>
    <path id="Контур_2" data-name="Контур 2" d="M135.047,262.728l-.749,3.809h.1a7.864,7.864,0,0,1,.953-1.7,6.757,6.757,0,0,1,1.31-1.343,5.579,5.579,0,0,1,1.548-.85,3.618,3.618,0,0,1,1.667-.188,4.827,4.827,0,0,1,.782.068q.408.069.782.136l-.85,3.368c-.159-.023-.357-.046-.6-.068s-.425-.035-.561-.035a5.813,5.813,0,0,0-2.109.408,4.826,4.826,0,0,0-1.905,1.395,6.065,6.065,0,0,0-1.172,1.956,16.076,16.076,0,0,0-.63,2.194l-1.735,8.469h-4.626l3.572-17.618Z" transform="translate(-107.291 -254.836)" fill="#008894"/>
    <path id="Контур_3" data-name="Контур 3" d="M141.013,272.923a4.685,4.685,0,0,0-.1.51,3.309,3.309,0,0,0-.033.477,3.147,3.147,0,0,0,.322,1.428,2.911,2.911,0,0,0,.866,1.054,3.8,3.8,0,0,0,1.782.749,11.612,11.612,0,0,0,1.544.136,10.72,10.72,0,0,0,1.512-.1q.729-.1,1.476-.272.713-.169,1.375-.373c.442-.137.9-.295,1.376-.477l-.713,3.469a19.417,19.417,0,0,1-2.973.8,16.737,16.737,0,0,1-3.075.289,13.215,13.215,0,0,1-3.244-.425,6.671,6.671,0,0,1-2.838-1.446,7,7,0,0,1-.763-.834,6.281,6.281,0,0,1-.714-1.156,7.307,7.307,0,0,1-.526-1.529,8.574,8.574,0,0,1-.2-1.956,11.763,11.763,0,0,1,.663-3.861,10.205,10.205,0,0,1,2.3-3.656,12.089,12.089,0,0,1,3.4-2.365,10.2,10.2,0,0,1,4.422-.935,6.74,6.74,0,0,1,3.248.681,6.951,6.951,0,0,1,1.921,1.463,7.389,7.389,0,0,1,1.071,1.785,6.7,6.7,0,0,1,.494,2.738,10.469,10.469,0,0,1-.1,1.446c-.068.489-.147.924-.239,1.31l-.239,1.054Zm7.856-3.163a5.122,5.122,0,0,0,.1-1.122,4.859,4.859,0,0,0-.119-1.073,2.481,2.481,0,0,0-.458-.969,2.7,2.7,0,0,0-.867-.663,3.163,3.163,0,0,0-1.446-.289,3.483,3.483,0,0,0-1.616.374,5.132,5.132,0,0,0-1.31.953,8.155,8.155,0,0,0-.766.969,5.314,5.314,0,0,0-.765,1.82Z" transform="translate(-103.36 -254.828)" fill="#008894"/>
    <path id="Контур_4" data-name="Контур 4" d="M170.272,257.176l-5.2,25.511h-4.047l.611-3.062h-.068a8.367,8.367,0,0,1-1.224,1.395,7.924,7.924,0,0,1-1.292.953,7.327,7.327,0,0,1-3.741.986,6.2,6.2,0,0,1-2.161-.357,5.032,5.032,0,0,1-1.649-.97,5.726,5.726,0,0,1-1.548-2.414,9.153,9.153,0,0,1-.526-3.062,13.129,13.129,0,0,1,.782-4.439,11.539,11.539,0,0,1,2.109-3.724,8.8,8.8,0,0,1,3.283-2.483,8.946,8.946,0,0,1,3.383-.714c.159,0,.425.017.8.051a4.906,4.906,0,0,1,1.242.306,5.279,5.279,0,0,1,1.376.8,4.327,4.327,0,0,1,1.175,1.5h.066l.477-2.891,1.531-7.381Zm-8.028,16.7c.046-.273.085-.551.12-.834a7.437,7.437,0,0,0,.051-.867,4.623,4.623,0,0,0-.2-1.48,5.229,5.229,0,0,0-.476-1.036,2.647,2.647,0,0,0-2.314-1.191,4.433,4.433,0,0,0-1.733.409,4.483,4.483,0,0,0-1.8,1.6,9.692,9.692,0,0,0-1.106,2.074,8.011,8.011,0,0,0-.526,3.027,6.759,6.759,0,0,0,.153,1.428,2.955,2.955,0,0,0,.63,1.292,2.25,2.25,0,0,0,.951.766,3.224,3.224,0,0,0,1.224.221,3.77,3.77,0,0,0,1.207-.188,3.6,3.6,0,0,0,.986-.493,5.351,5.351,0,0,0,.766-.664,8.478,8.478,0,0,0,.578-.663,7.75,7.75,0,0,0,.97-1.665A8.835,8.835,0,0,0,162.244,273.878Z" transform="translate(-97.416 -257.176)" fill="#008894"/>
    <path id="Контур_5" data-name="Контур 5" d="M171.477,264.911l-3.57,17.618h-4.626l3.57-17.618Zm.613-2.619h-4.762l.986-4.762h4.762Z" transform="translate(-91.241 -257.018)" fill="#008894"/>
    <path id="Контур_6" data-name="Контур 6" d="M170.057,267.567l.679-3.4h3.471l.714-3.5,4.932-1.463-1.021,4.967h4.081l-.679,3.4h-4.082l-1.632,7.994c-.046.182-.1.413-.153.7a4.18,4.18,0,0,0-.085.834,2.684,2.684,0,0,0,.085.7.792.792,0,0,0,.357.493,1.348,1.348,0,0,0,.7.306,4.358,4.358,0,0,0,.664.068,5.9,5.9,0,0,0,1.088-.1,8.921,8.921,0,0,0,.885-.2l-.681,3.265q-.783.171-1.7.306a11.818,11.818,0,0,1-1.7.136,7.535,7.535,0,0,1-1.9-.239,3.572,3.572,0,0,1-1.5-.747,2.867,2.867,0,0,1-.867-1.31,5.088,5.088,0,0,1-.221-1.48,5.769,5.769,0,0,1,.068-.9c.046-.283.091-.539.137-.766l1.836-9.048Z" transform="translate(-88.223 -256.274)" fill="#008894"/>
    <path id="Контур_7" data-name="Контур 7" d="M179.677,277.178A16.662,16.662,0,0,0,182.5,278.2a10.921,10.921,0,0,0,2.788.408,6.416,6.416,0,0,0,1.837-.272,4.047,4.047,0,0,0,1.564-.85,3.005,3.005,0,0,0,1.055-2.313,2.241,2.241,0,0,0-.256-1.106,4.241,4.241,0,0,0-.528-.765,4.35,4.35,0,0,0-1.139-.851c-.464-.249-.89-.476-1.275-.679l-1.259-.681a11.854,11.854,0,0,1-1.735-1.207,5.748,5.748,0,0,1-1.292-1.412,3.545,3.545,0,0,1-.476-1.021,5.366,5.366,0,0,1-.2-1.6,8.831,8.831,0,0,1,.1-1.224,6.74,6.74,0,0,1,.408-1.5,7.155,7.155,0,0,1,.885-1.581,6.9,6.9,0,0,1,1.564-1.513,9.126,9.126,0,0,1,3.182-1.48,14.636,14.636,0,0,1,3.383-.39,17.95,17.95,0,0,1,2.96.238,17.263,17.263,0,0,1,2.959.782l-1.292,3.809a13.234,13.234,0,0,0-2.5-.85,10.785,10.785,0,0,0-2.466-.306,6.075,6.075,0,0,0-1.853.239,3.482,3.482,0,0,0-1.174.611,3.206,3.206,0,0,0-.833,1.021,2.8,2.8,0,0,0-.324,1.327,1.894,1.894,0,0,0,.2.918,3.1,3.1,0,0,0,.545.714,8,8,0,0,0,.8.646,14.621,14.621,0,0,0,1.923,1.123l.984.51a10.246,10.246,0,0,1,1.6,1.021,5.712,5.712,0,0,1,1.326,1.36,5.079,5.079,0,0,1,.648,1.479,6.9,6.9,0,0,1,.237,1.82,7.122,7.122,0,0,1-1.973,4.83,8.412,8.412,0,0,1-1.172,1.088,8.2,8.2,0,0,1-1.684.987,11.077,11.077,0,0,1-2.33.714,15.671,15.671,0,0,1-3.079.272,18.539,18.539,0,0,1-6.292-1.19Z" transform="translate(-84.543 -256.735)" fill="#333"/>
    <path id="Контур_8" data-name="Контур 8" d="M196.611,272.923c-.045.182-.078.353-.1.51a3.309,3.309,0,0,0-.035.477,3.147,3.147,0,0,0,.324,1.428,2.911,2.911,0,0,0,.866,1.054,3.8,3.8,0,0,0,1.782.749,11.61,11.61,0,0,0,1.545.136,10.715,10.715,0,0,0,1.511-.1q.729-.1,1.476-.272.713-.169,1.376-.373c.441-.137.9-.295,1.375-.477l-.713,3.469a19.418,19.418,0,0,1-2.973.8,16.737,16.737,0,0,1-3.075.289,13.244,13.244,0,0,1-3.245-.425,6.66,6.66,0,0,1-2.835-1.446,6.885,6.885,0,0,1-.765-.834,6.2,6.2,0,0,1-.714-1.156,7.309,7.309,0,0,1-.526-1.529,8.573,8.573,0,0,1-.2-1.956,11.8,11.8,0,0,1,.662-3.861,10.25,10.25,0,0,1,2.3-3.656,12.089,12.089,0,0,1,3.4-2.365,10.2,10.2,0,0,1,4.422-.935,6.74,6.74,0,0,1,3.248.681,6.929,6.929,0,0,1,1.921,1.463,7.435,7.435,0,0,1,1.073,1.785,6.73,6.73,0,0,1,.491,2.738,10.465,10.465,0,0,1-.1,1.446c-.068.489-.147.924-.239,1.31l-.237,1.054Zm7.858-3.163a5.11,5.11,0,0,0,.1-1.122,4.859,4.859,0,0,0-.12-1.073,2.481,2.481,0,0,0-.458-.969,2.68,2.68,0,0,0-.869-.663,3.152,3.152,0,0,0-1.444-.289,3.487,3.487,0,0,0-1.616.374,5.132,5.132,0,0,0-1.31.953,8.033,8.033,0,0,0-.765.969,5.315,5.315,0,0,0-.766,1.82Z" transform="translate(-78.589 -254.828)" fill="#333"/>
    <path id="Контур_9" data-name="Контур 9" d="M212.5,262.728l-.747,3.809h.1a7.862,7.862,0,0,1,.953-1.7,6.756,6.756,0,0,1,1.31-1.343,5.579,5.579,0,0,1,1.548-.85,3.62,3.62,0,0,1,1.667-.188,4.826,4.826,0,0,1,.782.068c.272.046.533.091.782.136l-.85,3.368c-.159-.023-.357-.046-.6-.068s-.425-.035-.561-.035a5.807,5.807,0,0,0-2.109.408,4.826,4.826,0,0,0-1.905,1.395,6.091,6.091,0,0,0-1.172,1.956,15.865,15.865,0,0,0-.629,2.194l-1.736,8.469h-4.626l3.572-17.618Z" transform="translate(-72.781 -254.836)" fill="#333"/>
    <path id="Контур_10" data-name="Контур 10" d="M219.838,262.636l1.5,10.883.2,2.585h.1l1.156-2.585,5.782-10.883h4.931l-10.067,17.618H218l-3.027-17.618Z" transform="translate(-68.211 -254.743)" fill="#333"/>
    <path id="Контур_11" data-name="Контур 11" d="M235.335,264.911l-3.57,17.618h-4.626l3.57-17.618Zm.613-2.619h-4.762l.986-4.762h4.762Z" transform="translate(-62.791 -257.018)" fill="#333"/>
    <path id="Контур_12" data-name="Контур 12" d="M248.266,266.256a6.416,6.416,0,0,0-2.313-.476,7.318,7.318,0,0,0-3.044.578,6.686,6.686,0,0,0-2.092,1.428,7.548,7.548,0,0,0-1.564,2.45,7.632,7.632,0,0,0-.58,2.891,4.32,4.32,0,0,0,.357,1.886,4.255,4.255,0,0,0,.766,1.141,4.059,4.059,0,0,0,1.174.782,4.49,4.49,0,0,0,1.886.34,9.567,9.567,0,0,0,1.94-.2,10.959,10.959,0,0,0,1.768-.51l-.544,3.367a15.058,15.058,0,0,1-2.024.494,12.77,12.77,0,0,1-2.194.186,14.687,14.687,0,0,1-1.547-.085,7.991,7.991,0,0,1-3.164-1.036,5.865,5.865,0,0,1-1.411-1.156,6.925,6.925,0,0,1-1.224-1.905,7.8,7.8,0,0,1-.613-3.333,9.39,9.39,0,0,1,.97-4.4,11.867,11.867,0,0,1,2.194-3.044,12.43,12.43,0,0,1,3.452-2.245,11.956,11.956,0,0,1,4.983-.953,14.116,14.116,0,0,1,1.973.136q.95.137,1.8.341Z" transform="translate(-59.803 -254.828)" fill="#333"/>
    <path id="Контур_13" data-name="Контур 13" d="M249.011,272.923c-.045.182-.078.353-.1.51a3.309,3.309,0,0,0-.035.477,3.165,3.165,0,0,0,.322,1.428,2.929,2.929,0,0,0,.867,1.054,3.8,3.8,0,0,0,1.781.749,11.648,11.648,0,0,0,1.547.136,10.679,10.679,0,0,0,1.509-.1q.731-.1,1.477-.272.713-.169,1.375-.373c.442-.137.9-.295,1.376-.477l-.713,3.469a19.417,19.417,0,0,1-2.973.8,16.737,16.737,0,0,1-3.075.289,13.244,13.244,0,0,1-3.245-.425,6.652,6.652,0,0,1-2.835-1.446,6.885,6.885,0,0,1-.765-.834,6.2,6.2,0,0,1-.714-1.156,7.309,7.309,0,0,1-.526-1.529,8.573,8.573,0,0,1-.2-1.956,11.8,11.8,0,0,1,.662-3.861,10.25,10.25,0,0,1,2.3-3.656,12.089,12.089,0,0,1,3.4-2.365,10.2,10.2,0,0,1,4.422-.935,6.74,6.74,0,0,1,3.248.681,6.951,6.951,0,0,1,1.921,1.463,7.389,7.389,0,0,1,1.071,1.785,6.7,6.7,0,0,1,.493,2.738,10.465,10.465,0,0,1-.1,1.446c-.068.489-.147.924-.239,1.31l-.237,1.054Zm7.858-3.163a5.123,5.123,0,0,0,.1-1.122,4.857,4.857,0,0,0-.119-1.073,2.481,2.481,0,0,0-.458-.969,2.68,2.68,0,0,0-.869-.663,3.157,3.157,0,0,0-1.444-.289,3.483,3.483,0,0,0-1.616.374,5.132,5.132,0,0,0-1.31.953,8.033,8.033,0,0,0-.765.969,5.315,5.315,0,0,0-.766,1.82Z" transform="translate(-55.243 -254.828)" fill="#333"/>
  </g>
  <path id="Контур_14" data-name="Контур 14" d="M109.7,256.525v3.913H72.767a2.464,2.464,0,0,0-2.456,2.456v20.373h-3.28a2.465,2.465,0,0,1-2.459-2.457V256.525a2.465,2.465,0,0,1,2.459-2.456h40.21A2.464,2.464,0,0,1,109.7,256.525Z" transform="translate(-64.572 -254.069)" fill="#006f71"/>
  <path id="Контур_15" data-name="Контур 15" d="M113.666,260.931v24.283a2.465,2.465,0,0,1-2.457,2.459H71a2.465,2.465,0,0,1-2.456-2.459V281.3h36.93a2.464,2.464,0,0,0,2.456-2.457V258.475h3.28A2.464,2.464,0,0,1,113.666,260.931Z" transform="translate(-62.803 -252.106)" fill="#008894"/>
</svg>
