<svg width="188" height="26" viewBox="0 0 188 26" fill="none" xmlns="http://www.w3.org/2000/svg">
<path fill-rule="evenodd" clip-rule="evenodd" d="M116.895 10.7259C115.846 8.65585 113.583 6.19049 108.756 6.19049C103.05 6.19049 99.3166 10.7714 96.0201 14.8172C93.2783 18.1827 90.6871 21.3627 87.6128 21.3627C84.4479 21.3627 82.5048 18.1198 82.5048 15.7941C82.5048 13.6413 84.6444 10.5152 87.9954 10.5152C91.2432 10.5152 92.9757 13.1347 93.0448 13.2396C93.67 14.2508 95.0101 14.5696 96.0302 13.9515C97.0549 13.3284 97.3804 11.9956 96.7558 10.9736C96.4488 10.4836 93.6009 6.19049 87.9954 6.19049C82.1938 6.19049 78.1504 11.2528 78.1504 15.7941C78.1504 20.4744 82.0359 25.6905 87.6116 25.6905C92.7651 25.6905 96.1406 21.5478 99.4094 17.5333C102.351 13.9261 105.13 10.5152 108.756 10.5152C110.88 10.5152 112.27 11.2212 113.005 12.6704C113.66 13.966 113.658 15.4493 113.656 15.9389C113.656 16.2265 113.501 17.6785 112.785 18.9908C111.989 20.4487 110.859 21.1293 109.229 21.1293C105.852 21.1293 104.019 18.937 103.315 18.0969C103.133 17.8806 102.991 17.7128 102.801 17.5506C102.358 17.1746 101.802 17.0009 101.215 17.0353C100.93 17.0568 100.651 17.1341 100.396 17.2626C100.141 17.3911 99.9144 17.5684 99.7293 17.784C98.9798 18.6525 99.0416 19.9563 99.8956 20.7793L99.9772 20.8758C100.924 22.0087 103.807 25.454 109.228 25.454C115.863 25.454 118.01 19.0252 118.01 15.9133C118.012 13.9317 117.636 12.1866 116.895 10.7256" fill="#F67555"/>
<path fill-rule="evenodd" clip-rule="evenodd" d="M57.9172 0.557428C57.453 1.06319 57.3977 2.37557 57.3977 12.8904C57.3977 23.8968 57.4348 24.6904 57.9718 25.1695C58.7232 25.8399 60.3088 25.8245 60.934 25.1401C61.2061 24.842 61.5265 24.2134 61.6455 23.7426L61.862 22.8868L63.0412 23.9373C64.5562 25.2871 66.1192 25.7833 68.3542 25.6239C73.1945 25.2785 75.8239 21.5199 75.5449 15.3455C75.3836 11.7758 74.3601 9.64876 72.0815 8.14694C69.119 6.19416 64.7696 6.57054 62.5764 8.96904L61.9487 9.65556L61.7917 5.4739C61.659 1.93326 61.5432 1.19288 61.0369 0.641928C60.2852 -0.176142 58.6315 -0.221023 57.9172 0.557428ZM44.2387 1.42595C43.707 2.09236 43.5881 2.682 43.5881 4.65118V7.06114L42.6358 7.26728C42.112 7.38087 41.4604 7.80987 41.1874 8.22061C40.7339 8.90342 40.7351 9.03373 41.2053 9.7413C41.5571 10.2709 42.0053 10.5151 42.6255 10.5151H43.5313L43.6427 16.6282C43.7682 23.5297 44.013 24.4424 45.9527 25.2419C47.3308 25.8096 50.8356 25.8074 52.2182 25.2379C53.445 24.7322 53.892 23.6451 53.3123 22.5763C52.973 21.9514 52.7831 21.9078 51.2007 22.0913C48.3502 22.4216 48.2959 22.3058 48.2959 15.8838V10.5151H49.4813C50.9445 10.5151 52.0622 9.78649 52.0622 8.83316C52.0622 7.85042 51.3789 7.37252 49.708 7.1868L48.2959 7.02987V4.63571C48.2959 2.68231 48.176 2.09143 47.6453 1.42595C46.7458 0.298048 45.1382 0.298048 44.2387 1.42595ZM142.767 1.2294C142.238 1.75033 142.139 2.26105 142.139 4.44875V7.04875L140.966 7.32237C138.714 7.84764 138.948 10.5151 141.246 10.5151H142.139V16.406C142.139 22.6664 142.329 23.7039 143.693 24.9033C144.22 25.367 144.956 25.5459 146.691 25.6323C149.377 25.766 151.062 25.3103 151.759 24.2614C152.213 23.577 152.21 23.4479 151.717 22.7054C151.22 21.9582 151.06 21.9115 149.64 22.0972C146.841 22.4633 146.847 22.4757 146.847 16.0757V10.5151H148.067C148.783 10.5151 149.582 10.2805 149.998 9.94837C151.426 8.80778 150.006 7.11035 147.624 7.11035C146.968 7.11035 146.917 6.95125 146.786 4.48806C146.681 2.51702 146.503 1.71009 146.07 1.23807C145.311 0.411333 143.601 0.406999 142.767 1.2294ZM0.859916 7.39202C0.121726 7.98104 0.118588 8.01354 0.0303938 15.6718C-0.0490118 22.5441 0.000891478 23.4755 0.501179 24.4437C0.967255 25.3466 1.25349 25.5428 2.21954 25.622C3.03934 25.6892 3.55562 25.5425 3.98372 25.1203C4.52229 24.5892 4.60421 23.9339 4.72975 19.1443C4.8826 13.3225 5.10732 12.4326 6.74597 11.1614C7.9992 10.1892 10.286 10.2656 11.2846 11.3134C12.0244 12.0897 12.0498 12.2816 12.2024 18.2461C12.3423 23.7148 12.4243 24.4508 12.9572 25.0312C13.8303 25.9814 15.4341 25.9015 16.2596 24.8662C16.8694 24.1017 16.9099 23.6603 16.9033 17.8245C16.8973 12.4543 16.8173 11.4263 16.3202 10.3477C14.5626 6.53123 9.40402 5.63856 5.95128 8.55304C4.48432 9.79114 4.35595 9.81218 4.35595 8.81273C4.35595 7.83278 3.32744 6.80083 2.35073 6.80083C1.93833 6.80083 1.2673 7.06702 0.859916 7.39202ZM26.744 7.37375C23.5087 8.47628 21.619 10.8036 21.0443 14.3934C20.2107 19.6009 22.602 24.0283 26.9166 25.2652C29.58 26.0288 33.2569 25.7338 35.398 24.5845C37.5429 23.4334 38.8087 21.6902 38.3793 20.479C37.88 19.0707 36.638 19.1973 34.5826 20.8662C32.5774 22.4943 31.9173 22.7193 29.751 22.5141C27.4539 22.2962 25.6982 20.388 25.6982 18.1083V17.3246L31.2691 17.32C35.1171 17.3169 37.0828 17.1949 37.6248 16.9253C38.7933 16.3447 39.0839 14.7695 38.4311 12.5552C37.0903 8.00642 31.7868 5.65528 26.744 7.37375ZM125.444 7.27068C121.591 8.49268 120.033 12.5416 122.437 15.0828C123.421 16.1224 124.91 16.8235 127.859 17.6335C130.991 18.4943 132.032 19.0146 132.455 19.9314C132.917 20.9306 132.332 21.9019 130.916 22.485C128.696 23.4 126.025 22.372 124.647 20.0723C123.557 18.252 121.111 18.7868 121.111 20.8455C121.111 23.4424 123.942 25.3856 128.07 25.6211C133.843 25.9508 137.117 23.8537 137.117 19.8268C137.117 18.5274 136.957 18.0941 136.129 17.1649C134.855 15.7337 134.218 15.4269 130.058 14.243C128.161 13.7032 126.36 13.0396 126.056 12.7688C124.636 11.5009 126.024 9.89606 128.542 9.89606C130.098 9.89606 130.318 9.99604 131.939 11.4437C133.788 13.0956 134.374 13.272 135.478 12.5094C137.143 11.3592 135.775 8.74464 132.886 7.55606C131.134 6.83549 127.282 6.68785 125.444 7.27068ZM158.878 7.37375C156.637 8.13766 155.307 9.22378 154.228 11.1744C153.445 12.5874 153.288 13.2612 153.18 15.6674C153.011 19.4087 153.605 21.233 155.646 23.2468C157.585 25.1584 159.683 25.8099 163.299 25.6227C165.359 25.5159 166.164 25.3187 167.532 24.5845C169.676 23.4334 170.942 21.6902 170.513 20.479C170.018 19.084 168.813 19.2081 166.75 20.8659C164.729 22.4893 164.05 22.7193 161.885 22.5141C159.588 22.2962 157.832 20.388 157.832 18.1083V17.3246L163.403 17.32C167.251 17.3169 169.216 17.1949 169.758 16.9253C170.927 16.3447 171.217 14.7695 170.565 12.5552C169.224 8.00642 163.92 5.65528 158.878 7.37375ZM175.734 7.47837C175.123 8.12435 175.094 8.53168 175.094 16.2998C175.094 24.0311 175.126 24.4749 175.722 25.0627C176.744 26.0708 178.794 25.7694 179.345 24.5297C179.479 24.227 179.679 21.6115 179.788 18.7175C179.944 14.5689 180.102 13.2399 180.537 12.4363C181.344 10.9413 182.27 10.6284 184.527 11.0877C186.683 11.5269 187.527 11.2539 187.842 10.0149C188.286 8.27323 185.699 6.58106 183.098 6.91225C182.158 7.03204 181.555 7.37716 180.69 8.29149L179.537 9.51102L179.331 8.69759C178.853 6.81011 176.969 6.17095 175.734 7.47837ZM32.1612 10.66C33.18 11.3183 33.8513 12.3986 34.071 13.7323L34.2546 14.8484H29.9764C25.1037 14.8484 25.1248 14.863 26.4044 12.3605C27.5842 10.0533 30.0806 9.31571 32.1612 10.66ZM164.295 10.66C165.314 11.3183 165.985 12.3986 166.205 13.7323L166.388 14.8484H162.11C157.237 14.8484 157.258 14.863 158.538 12.3605C159.718 10.0533 162.214 9.31571 164.295 10.66ZM68.8918 10.9757C70.8845 12.2633 71.5935 17.0857 70.1874 19.7897C68.5164 23.0032 64.5066 23.0131 62.604 19.8086C61.6982 18.2832 61.7447 14.8382 62.6972 12.9049C63.9266 10.4089 66.6854 9.55002 68.8918 10.9757Z" fill="#4E4E4E"/>
</svg>
