<svg xmlns="http://www.w3.org/2000/svg" xmlns:xlink="http://www.w3.org/1999/xlink" width="237.069" height="35.157" viewBox="0 0 237.069 35.157">
  <defs>
    <linearGradient id="linear-gradient" y1="0.5" x2="1" y2="0.5" gradientUnits="objectBoundingBox">
      <stop offset="0" stop-color="#284697"/>
      <stop offset="1" stop-color="#3fb372"/>
    </linearGradient>
  </defs>
  <g id="LogoMaxi" transform="translate(-460.4 -383.728)">
    <g id="Сгруппировать_344" data-name="Сгруппировать 344" transform="translate(519.617 399.919)">
      <path id="Контур_1082" data-name="Контур 1082" d="M547.492,421.746l-.052-8.266-3.938,6.634h-2.7l-3.938-6.349v7.981H531.3V403.609h5.026l5.908,9.665,5.752-9.665h5.026l.052,18.137Z" transform="translate(-531.298 -403.195)" fill="#284697"/>
      <path id="Контур_1083" data-name="Контур 1083" d="M572.862,418.585H565.97l-1.218,3.161h-6.218l7.929-18.137h6.01l7.929,18.137H574.08Zm-1.684-4.405-1.762-4.56-1.762,4.56Z" transform="translate(-535.785 -403.195)" fill="#284697"/>
      <path id="Контур_1084" data-name="Контур 1084" d="M598.935,421.746,595.8,416.9l-3.057,4.845h-6.97l6.556-9.147-6.323-8.99h6.867l3.083,4.56,3.006-4.56h6.581l-6.3,8.757,6.685,9.38Z" transform="translate(-540.273 -403.195)" fill="#284697"/>
      <path id="Контур_1085" data-name="Контур 1085" d="M611.434,403.609h6.115v18.137h-6.115Z" transform="translate(-544.501 -403.195)" fill="#284697"/>
      <path id="Контур_1086" data-name="Контур 1086" d="M621.423,412.6c0-5.57,4.275-9.482,10.1-9.482a9.8,9.8,0,0,1,8.137,3.627l-3.861,3.445a4.9,4.9,0,0,0-3.964-2.125c-2.539,0-4.249,1.762-4.249,4.535s1.71,4.535,4.249,4.535a4.9,4.9,0,0,0,3.964-2.125l3.861,3.446a9.8,9.8,0,0,1-8.137,3.627C625.7,422.079,621.423,418.166,621.423,412.6Z" transform="translate(-546.147 -403.113)" fill="#284697"/>
      <path id="Контур_1087" data-name="Контур 1087" d="M653.144,417.186h-1.658v4.56h-6.115V403.609H654.1c5.052,0,8.265,2.643,8.265,6.841a6.074,6.074,0,0,1-3.42,5.7l3.809,5.6h-6.53Zm.57-8.861h-2.228v4.249h2.228c1.684,0,2.487-.8,2.487-2.124S655.4,408.325,653.714,408.325Z" transform="translate(-550.093 -403.195)" fill="#284697"/>
      <path id="Контур_1088" data-name="Контур 1088" d="M683.56,417.134v4.612H668.481V403.609h14.743v4.612h-8.732v2.124h7.669v4.405h-7.669v2.384Z" transform="translate(-553.9 -403.195)" fill="#284697"/>
      <path id="Контур_1089" data-name="Контур 1089" d="M689.358,403.609H698.3c6.063,0,10.234,3.446,10.234,9.068s-4.171,9.069-10.234,9.069h-8.939Zm8.68,13.37a4.3,4.3,0,1,0,0-8.6h-2.565v8.6Z" transform="translate(-557.34 -403.195)" fill="#284697"/>
      <path id="Контур_1090" data-name="Контур 1090" d="M714.981,403.609H721.1v18.137h-6.115Z" transform="translate(-561.562 -403.195)" fill="#284697"/>
      <path id="Контур_1091" data-name="Контур 1091" d="M729.505,408.351H724.2v-4.742h16.737v4.742H735.62v13.4h-6.115Z" transform="translate(-563.08 -403.195)" fill="#284697"/>
    </g>
    <g id="Сгруппировать_345" data-name="Сгруппировать 345" transform="translate(460.4 383.728)">
      <path id="Контур_1092" data-name="Контур 1092" d="M461.955,384.053l7.556,7.556v26.374a.912.912,0,0,1-.911.911h-7.289a.912.912,0,0,1-.911-.911V384.7A.911.911,0,0,1,461.955,384.053Z" transform="translate(-460.4 -383.737)" fill="#284697"/>
      <path id="Контур_1093" data-name="Контур 1093" d="M508.394,384.641v10.248a.913.913,0,0,1-.266.644L486.2,417.447a.91.91,0,0,1-1.288,0l-9.695-9.695V394.868l9.7,9.7a.911.911,0,0,0,1.287,0L506.841,384A.911.911,0,0,1,508.394,384.641Z" transform="translate(-462.842 -383.728)" fill="url(#linear-gradient)"/>
      <path id="Контур_1094" data-name="Контур 1094" d="M513.395,417.366v6a.911.911,0,0,1-.91.911h-6a.911.911,0,0,1-.645-1.555l6-6A.911.911,0,0,1,513.395,417.366Z" transform="translate(-467.842 -389.12)" fill="#284697"/>
    </g>
  </g>
</svg>
