<svg xmlns="http://www.w3.org/2000/svg" xmlns:xlink="http://www.w3.org/1999/xlink" width="157.131" height="48.733" viewBox="0 0 157.131 48.733">
  <defs>
    <radialGradient id="radial-gradient" cx="0.776" cy="-0.065" r="1.184" gradientTransform="translate(-0.065) scale(1.129 1)" gradientUnits="objectBoundingBox">
      <stop offset="0" stop-color="#ffe314"/>
      <stop offset="0.299" stop-color="#ed6e3a"/>
      <stop offset="0.62" stop-color="#db0566"/>
      <stop offset="1" stop-color="#1c3b8a"/>
    </radialGradient>
    <radialGradient id="radial-gradient-2" cx="1.277" cy="-3.349" r="6.413" gradientTransform="translate(0.207) scale(0.587 1)" xlink:href="#radial-gradient"/>
  </defs>
  <g id="Logo" transform="translate(-57.831 -466.465)">
    <g id="Сгруппировать_1" data-name="Сгруппировать 1">
      <path id="Контур_1" data-name="Контур 1" d="M99.055,483.391l-15-15.005a6.574,6.574,0,0,0-9.289,0L59.756,483.391a6.527,6.527,0,0,0-1.925,4.645v20.591A6.577,6.577,0,0,0,64.4,515.2H94.411a6.577,6.577,0,0,0,6.568-6.57V488.036A6.526,6.526,0,0,0,99.055,483.391Zm-6.076,21.345a2.46,2.46,0,0,1-2.46,2.461H68.292a2.461,2.461,0,0,1-2.461-2.461V489.649a2.457,2.457,0,0,1,.721-1.74L77.665,476.8a2.461,2.461,0,0,1,3.48,0l11.114,11.114a2.461,2.461,0,0,1,.72,1.74Z" fill="url(#radial-gradient)"/>
      <path id="Контур_2" data-name="Контур 2" d="M85.321,493.452a2,2,0,0,0-2.233,1.735,3.712,3.712,0,0,1-7.365,0,2,2,0,1,0-3.968.5,7.711,7.711,0,0,0,15.3,0A2,2,0,0,0,85.321,493.452Z" fill="url(#radial-gradient-2)"/>
    </g>
    <g id="Сгруппировать_3" data-name="Сгруппировать 3">
      <g id="Сгруппировать_2" data-name="Сгруппировать 2">
        <path id="Контур_3" data-name="Контур 3" d="M115.369,474.681a1.936,1.936,0,0,1,.329-1.131,1.865,1.865,0,0,1,.855-.684v-.92a5.625,5.625,0,0,1,.355-2.064,4.24,4.24,0,0,1,1.012-1.539,4.39,4.39,0,0,1,1.565-.959,5.867,5.867,0,0,1,2.011-.329,1.906,1.906,0,0,1,1.447.526,1.944,1.944,0,0,1,.5,1.393,1.858,1.858,0,0,1-.565,1.407,1.894,1.894,0,0,1-1.355.54,1.194,1.194,0,0,0-.789.262.971.971,0,0,0-.315.789v.789h.473a1.886,1.886,0,0,1,1.434.539,1.916,1.916,0,0,1-1.434,3.3h-.473v9.125a1.973,1.973,0,0,1-3.3,1.433,1.836,1.836,0,0,1-.565-1.433v-9.23a1.888,1.888,0,0,1-.855-.67A1.919,1.919,0,0,1,115.369,474.681Z" fill="#1c3b8a"/>
        <path id="Контур_4" data-name="Контур 4" d="M129.74,485.725a1.982,1.982,0,0,1-3.313,1.433,1.86,1.86,0,0,1-.552-1.433V468.974a1.826,1.826,0,0,1,.552-1.406,2.166,2.166,0,0,1,2.8,0,1.9,1.9,0,0,1,.513,1.406Z" fill="#1c3b8a"/>
        <path id="Контур_5" data-name="Контур 5" d="M140.179,472.314a7.377,7.377,0,0,1,2.261.329,5.923,5.923,0,0,1,1.788.907,1.736,1.736,0,0,1,1.657-.92,1.861,1.861,0,0,1,1.394.539,1.9,1.9,0,0,1,.526,1.38v11.176a1.794,1.794,0,0,1-1.92,1.946,1.824,1.824,0,0,1-1.735-1.052,7.113,7.113,0,0,1-1.841.973,6.27,6.27,0,0,1-2.13.368,7.214,7.214,0,0,1-2.932-.618,8.466,8.466,0,0,1-2.5-1.67,7.947,7.947,0,0,1-1.735-2.472,7.5,7.5,0,0,1,0-6.087,8.074,8.074,0,0,1,1.735-2.5,8.353,8.353,0,0,1,2.5-1.683A7.214,7.214,0,0,1,140.179,472.314Zm0,3.865a3.788,3.788,0,0,0-1.552.316,4.233,4.233,0,0,0-1.249.842,3.7,3.7,0,0,0-.841,1.262,4.036,4.036,0,0,0-.3,1.551,3.935,3.935,0,0,0,.3,1.538,3.719,3.719,0,0,0,.841,1.249,4.253,4.253,0,0,0,1.249.842,3.787,3.787,0,0,0,1.552.315,3.567,3.567,0,0,0,1.486-.315,3.79,3.79,0,0,0,1.2-.842,3.875,3.875,0,0,0,.789-1.249,4.1,4.1,0,0,0,.289-1.538,4.2,4.2,0,0,0-.289-1.551,3.851,3.851,0,0,0-.789-1.262,3.774,3.774,0,0,0-1.2-.842A3.568,3.568,0,0,0,140.179,476.179Z" fill="#1c3b8a"/>
        <path id="Контур_6" data-name="Контур 6" d="M154.852,472.761h.473a1.886,1.886,0,0,1,1.433.539,1.916,1.916,0,0,1-1.433,3.3h-.473v6.153a.968.968,0,0,0,.315.789,1.19,1.19,0,0,0,.789.263,1.921,1.921,0,0,1,1.354.526,1.814,1.814,0,0,1,.566,1.394,1.969,1.969,0,0,1-.5,1.433,1.927,1.927,0,0,1-1.446.513,5.877,5.877,0,0,1-2.012-.329,4.382,4.382,0,0,1-1.564-.96,4.238,4.238,0,0,1-1.013-1.538,5.645,5.645,0,0,1-.355-2.064v-6.285a1.885,1.885,0,0,1-.854-.67,2.131,2.131,0,0,1,0-2.275,1.862,1.862,0,0,1,.854-.684v-3.892a1.81,1.81,0,0,1,.566-1.393,1.909,1.909,0,0,1,3.3,1.393Z" fill="#1c3b8a"/>
        <path id="Контур_7" data-name="Контур 7" d="M115.369,501.917a1.931,1.931,0,0,1,.329-1.13,1.865,1.865,0,0,1,.855-.684v-.92a5.621,5.621,0,0,1,.355-2.064,4.24,4.24,0,0,1,1.012-1.539,4.406,4.406,0,0,1,1.565-.96,5.867,5.867,0,0,1,2.011-.328,1.9,1.9,0,0,1,1.447.526,1.944,1.944,0,0,1,.5,1.393,1.858,1.858,0,0,1-.565,1.407,1.893,1.893,0,0,1-1.355.539,1.2,1.2,0,0,0-.789.263.971.971,0,0,0-.315.789V500h.473a1.886,1.886,0,0,1,1.434.539,1.916,1.916,0,0,1-1.434,3.3h-.473v9.125a1.974,1.974,0,0,1-3.3,1.433,1.837,1.837,0,0,1-.565-1.433v-9.23a1.89,1.89,0,0,1-.855-.671A1.915,1.915,0,0,1,115.369,501.917Z" fill="#1c3b8a"/>
        <path id="Контур_8" data-name="Контур 8" d="M129.74,497.842a1.9,1.9,0,0,1-.513,1.407,2.169,2.169,0,0,1-2.8,0,1.827,1.827,0,0,1-.552-1.407v-1.631a1.824,1.824,0,0,1,.552-1.406,2.166,2.166,0,0,1,2.8,0,1.9,1.9,0,0,1,.513,1.406Zm0,15.12a1.983,1.983,0,0,1-3.313,1.433,1.86,1.86,0,0,1-.552-1.433V502.706a1.844,1.844,0,0,1,.552-1.38,2.087,2.087,0,0,1,2.8,0,1.919,1.919,0,0,1,.513,1.38Z" fill="#1c3b8a"/>
        <path id="Контур_9" data-name="Контур 9" d="M134.762,499.866a1.739,1.739,0,0,1,.934.211,1.99,1.99,0,0,1,.565.552,5.364,5.364,0,0,1,1.578-.8,6.121,6.121,0,0,1,1.867-.276,6.464,6.464,0,0,1,2.655.526,6.113,6.113,0,0,1,2.025,1.433,6.223,6.223,0,0,1,1.289,2.156,7.942,7.942,0,0,1,.447,2.7v6.6a1.938,1.938,0,0,1-.513,1.433,2.152,2.152,0,0,1-2.787,0,1.882,1.882,0,0,1-.539-1.433v-6.6a3.241,3.241,0,0,0-.7-2.116,2.447,2.447,0,0,0-2.012-.855,2.681,2.681,0,0,0-2.09.855,3.026,3.026,0,0,0-.776,2.116v6.6A1.983,1.983,0,0,1,133.4,514.4a1.861,1.861,0,0,1-.553-1.433V501.786a1.849,1.849,0,0,1,.553-1.381A1.882,1.882,0,0,1,134.762,499.866Z" fill="#1c3b8a"/>
        <path id="Контур_10" data-name="Контур 10" d="M156.561,499.551a7.377,7.377,0,0,1,2.261.329,5.9,5.9,0,0,1,1.788.907,1.736,1.736,0,0,1,1.657-.921,1.858,1.858,0,0,1,1.393.539,1.9,1.9,0,0,1,.526,1.381v11.176a1.792,1.792,0,0,1-1.919,1.945,1.82,1.82,0,0,1-1.735-1.052,7.1,7.1,0,0,1-1.841.974,6.27,6.27,0,0,1-2.13.368,7.23,7.23,0,0,1-2.932-.618,8.485,8.485,0,0,1-2.5-1.67,7.966,7.966,0,0,1-1.736-2.472,7.514,7.514,0,0,1,0-6.087,8.082,8.082,0,0,1,1.736-2.5,8.353,8.353,0,0,1,2.5-1.683A7.214,7.214,0,0,1,156.561,499.551Zm0,3.865a3.772,3.772,0,0,0-1.552.316,4.237,4.237,0,0,0-1.249.841,3.714,3.714,0,0,0-.841,1.262,4.045,4.045,0,0,0-.3,1.552,3.935,3.935,0,0,0,.3,1.538,3.719,3.719,0,0,0,.841,1.249,4.24,4.24,0,0,0,1.249.842,3.787,3.787,0,0,0,1.552.315,3.567,3.567,0,0,0,1.486-.315,3.79,3.79,0,0,0,1.2-.842,3.875,3.875,0,0,0,.789-1.249,4.1,4.1,0,0,0,.289-1.538,4.21,4.21,0,0,0-.289-1.552,3.872,3.872,0,0,0-.789-1.262,3.787,3.787,0,0,0-1.2-.841A3.553,3.553,0,0,0,156.561,503.416Z" fill="#1c3b8a"/>
        <path id="Контур_11" data-name="Контур 11" d="M169.182,499.866a1.739,1.739,0,0,1,.934.211,1.989,1.989,0,0,1,.565.552,5.364,5.364,0,0,1,1.578-.8,6.119,6.119,0,0,1,1.866-.276,6.47,6.47,0,0,1,2.657.526,6.119,6.119,0,0,1,2.024,1.433,6.223,6.223,0,0,1,1.289,2.156,7.967,7.967,0,0,1,.446,2.7v6.6a1.937,1.937,0,0,1-.512,1.433,2.152,2.152,0,0,1-2.787,0,1.882,1.882,0,0,1-.539-1.433v-6.6a3.241,3.241,0,0,0-.7-2.116,2.446,2.446,0,0,0-2.012-.855,2.683,2.683,0,0,0-2.091.855,3.03,3.03,0,0,0-.775,2.116v6.6a1.983,1.983,0,0,1-3.313,1.433,1.861,1.861,0,0,1-.553-1.433V501.786a1.849,1.849,0,0,1,.553-1.381A1.882,1.882,0,0,1,169.182,499.866Z" fill="#1c3b8a"/>
        <path id="Контур_12" data-name="Контур 12" d="M190.98,499.551a8.624,8.624,0,0,1,3.208.605,5.769,5.769,0,0,1,2.5,1.867,1.855,1.855,0,0,1,.342.618,2.033,2.033,0,0,1,.1.617,1.8,1.8,0,0,1-.17.763,2.243,2.243,0,0,1-.447.644,2.086,2.086,0,0,1-.631.434,1.771,1.771,0,0,1-.724.158,1.813,1.813,0,0,1-1.314-.578,4.137,4.137,0,0,0-1.315-.934,3.893,3.893,0,0,0-3.1-.013,4.237,4.237,0,0,0-1.249.841,3.714,3.714,0,0,0-.841,1.262,4.045,4.045,0,0,0-.3,1.552,3.936,3.936,0,0,0,.3,1.538,3.719,3.719,0,0,0,.841,1.249,4.24,4.24,0,0,0,1.249.842,3.782,3.782,0,0,0,1.551.315,4.037,4.037,0,0,0,1.552-.3,3.461,3.461,0,0,0,1.262-.881,2.008,2.008,0,0,1,.671-.434,2.036,2.036,0,0,1,.7-.118,1.816,1.816,0,0,1,.75.158,2.215,2.215,0,0,1,.631.42,2.114,2.114,0,0,1,.447.618,1.708,1.708,0,0,1,.171.749,1.574,1.574,0,0,1-.158.7,2.54,2.54,0,0,1-.42.618,8.011,8.011,0,0,1-2.564,1.723,7.734,7.734,0,0,1-3.038.618,7.579,7.579,0,0,1-3.05-.618,7.849,7.849,0,0,1-4.141-4.142,7.8,7.8,0,0,1,0-6.087,8.037,8.037,0,0,1,1.67-2.5,7.826,7.826,0,0,1,2.471-1.683A7.562,7.562,0,0,1,190.98,499.551Z" fill="#1c3b8a"/>
        <path id="Контур_13" data-name="Контур 13" d="M207.125,499.551a7.592,7.592,0,0,1,3.038.618,8.319,8.319,0,0,1,2.5,1.643,7.832,7.832,0,0,1,1.682,2.354,6.442,6.442,0,0,1,.619,2.748,2.057,2.057,0,0,1-.487,1.525,1.978,1.978,0,0,1-1.433.473h-9.466a2.877,2.877,0,0,0,.513.973,3.376,3.376,0,0,0,.854.762,4.668,4.668,0,0,0,1.065.5,3.584,3.584,0,0,0,1.117.184,3.724,3.724,0,0,0,1.447-.263,4.054,4.054,0,0,0,1.157-.736,2.758,2.758,0,0,1,.71-.473,1.8,1.8,0,0,1,.762-.185,1.76,1.76,0,0,1,1.315.579,1.885,1.885,0,0,1,.552,1.341,2.772,2.772,0,0,1-.1.763,1.506,1.506,0,0,1-.4.657,7.223,7.223,0,0,1-5.443,2.183,7.579,7.579,0,0,1-3.05-.618,7.849,7.849,0,0,1-4.141-4.142,7.8,7.8,0,0,1,0-6.087,8.036,8.036,0,0,1,1.67-2.5,7.826,7.826,0,0,1,2.471-1.683A7.562,7.562,0,0,1,207.125,499.551Zm0,3.865a3.492,3.492,0,0,0-1.1.184,4.293,4.293,0,0,0-1.025.5,3.876,3.876,0,0,0-.842.762,2.777,2.777,0,0,0-.526.973h7.021a2.569,2.569,0,0,0-.486-.973,3.5,3.5,0,0,0-.842-.762,4.409,4.409,0,0,0-1.065-.5A3.734,3.734,0,0,0,207.125,503.416Z" fill="#1c3b8a"/>
      </g>
    </g>
  </g>
</svg>
