<svg xmlns="http://www.w3.org/2000/svg" xmlns:xlink="http://www.w3.org/1999/xlink" width="111.17mm" height="34.48mm" viewBox="0 0 315.12 97.73"><defs><style>.cls-1{fill:url(#radial-gradient);}.cls-2{fill:#3c4b9b;}</style><radialGradient id="radial-gradient" cx="67.15" cy="-6.31" r="115.68" gradientUnits="userSpaceOnUse"><stop offset="0" stop-color="#f8e932"/><stop offset="0.3" stop-color="#f1874d"/><stop offset="0.62" stop-color="#e7267a"/><stop offset="1" stop-color="#3c4b9b"/></radialGradient></defs><g id="Layer_2" data-name="Layer 2"><g id="Layer_1-2" data-name="Layer 1"><path class="cls-1" d="M82.67,34,52.58,3.85A13.2,13.2,0,0,0,34,3.85L3.86,34A13.07,13.07,0,0,0,0,43.26v41.3A13.19,13.19,0,0,0,13.17,97.73H73.36A13.19,13.19,0,0,0,86.53,84.56V43.26A13.07,13.07,0,0,0,82.67,34ZM70.49,76.75a4.94,4.94,0,0,1-4.94,4.94H21A4.94,4.94,0,0,1,16,76.75V46.5A4.91,4.91,0,0,1,17.49,43L39.78,20.72a4.93,4.93,0,0,1,7,0L69,43a4.91,4.91,0,0,1,1.45,3.49Z"/><path class="cls-1" d="M55.13,54.12a4,4,0,0,0-4.48,3.48,7.45,7.45,0,0,1-14.77,0,4,4,0,1,0-8,1,15.47,15.47,0,0,0,30.69,0A4,4,0,0,0,55.13,54.12Z"/><path class="cls-2" d="M115.39,16.48a3.87,3.87,0,0,1,.66-2.27,3.75,3.75,0,0,1,1.71-1.37V11a11.23,11.23,0,0,1,.72-4.14,8.41,8.41,0,0,1,2-3.08,8.68,8.68,0,0,1,3.14-1.93,11.71,11.71,0,0,1,4-.66,3.84,3.84,0,0,1,2.9,1.06,3.86,3.86,0,0,1,1,2.79,3.76,3.76,0,0,1-1.13,2.83,3.81,3.81,0,0,1-2.72,1.08,2.39,2.39,0,0,0-1.58.52,2,2,0,0,0-.63,1.59v1.58h1a3.78,3.78,0,0,1,2.87,1.08,3.83,3.83,0,0,1,1,2.77,3.61,3.61,0,0,1-3.9,3.85h-1v18.3a4,4,0,0,1-6.62,2.87,3.67,3.67,0,0,1-1.14-2.87V20.12a3.78,3.78,0,0,1-1.71-1.35A3.83,3.83,0,0,1,115.39,16.48Z"/><path class="cls-2" d="M144.21,38.63a4,4,0,0,1-6.64,2.87,3.72,3.72,0,0,1-1.11-2.87V5a3.67,3.67,0,0,1,1.11-2.82,4.33,4.33,0,0,1,5.61,0,3.81,3.81,0,0,1,1,2.82Z"/><path class="cls-2" d="M165.15,11.73a14.75,14.75,0,0,1,4.53.66,12,12,0,0,1,3.59,1.82,3.48,3.48,0,0,1,3.32-1.85,3.67,3.67,0,0,1,3.85,3.85V38.63a3.59,3.59,0,0,1-3.85,3.9,3.66,3.66,0,0,1-3.48-2.11,14.11,14.11,0,0,1-3.69,1.95,12.62,12.62,0,0,1-4.27.74,14.4,14.4,0,0,1-5.88-1.24,17.05,17.05,0,0,1-5-3.35,16,16,0,0,1-3.48-5,15,15,0,0,1,0-12.2,16.09,16.09,0,0,1,3.48-5,16.76,16.76,0,0,1,5-3.38A14.57,14.57,0,0,1,165.15,11.73Zm0,7.75a7.43,7.43,0,0,0-3.11.64,8.5,8.5,0,0,0-2.51,1.68,7.64,7.64,0,0,0-1.69,2.53,8.25,8.25,0,0,0-.6,3.12,8,8,0,0,0,.6,3.08A7.66,7.66,0,0,0,159.53,33,8.5,8.5,0,0,0,162,34.72a7.43,7.43,0,0,0,3.11.64,7.07,7.07,0,0,0,3-.64,7.63,7.63,0,0,0,2.4-1.68,8.06,8.06,0,0,0,1.58-2.51,8.35,8.35,0,0,0,.58-3.08,8.64,8.64,0,0,0-.58-3.12,8,8,0,0,0-1.58-2.53,7.63,7.63,0,0,0-2.4-1.68A7.07,7.07,0,0,0,165.15,19.48Z"/><path class="cls-2" d="M194.57,12.63h1a3.8,3.8,0,0,1,2.88,1.08,3.87,3.87,0,0,1,1,2.77,3.59,3.59,0,0,1-3.9,3.85h-1V32.67a1.92,1.92,0,0,0,.64,1.58,2.39,2.39,0,0,0,1.58.53,3.84,3.84,0,0,1,2.71,1,3.65,3.65,0,0,1,1.14,2.8,4,4,0,0,1-1,2.87,3.87,3.87,0,0,1-2.91,1,11.75,11.75,0,0,1-4-.66,8.77,8.77,0,0,1-3.14-1.93,8.54,8.54,0,0,1-2-3.08,11.37,11.37,0,0,1-.71-4.14V20.12a3.78,3.78,0,0,1-1.71-1.35,3.83,3.83,0,0,1-.66-2.29,3.87,3.87,0,0,1,.66-2.27,3.75,3.75,0,0,1,1.71-1.37V5A3.64,3.64,0,0,1,188,2.24a3.89,3.89,0,0,1,2.72-1.06,3.83,3.83,0,0,1,2.87,1.06,3.8,3.8,0,0,1,1,2.79Z"/><path class="cls-2" d="M115.39,71.1a3.89,3.89,0,0,1,.66-2.27,3.75,3.75,0,0,1,1.71-1.37V65.62a11.16,11.16,0,0,1,.72-4.14,8.45,8.45,0,0,1,2-3.09,8.8,8.8,0,0,1,3.14-1.92,11.71,11.71,0,0,1,4-.66,3.83,3.83,0,0,1,2.9,1,3.9,3.9,0,0,1,1,2.8,3.74,3.74,0,0,1-1.13,2.82,3.81,3.81,0,0,1-2.72,1.08,2.39,2.39,0,0,0-1.58.53,1.94,1.94,0,0,0-.63,1.58v1.58h1a3.78,3.78,0,0,1,2.87,1.08A3.84,3.84,0,0,1,126.47,75h-1v18.3a4,4,0,0,1-6.62,2.87,3.66,3.66,0,0,1-1.14-2.87V74.74a3.73,3.73,0,0,1-2.37-3.64Z"/><path class="cls-2" d="M144.21,62.93a3.81,3.81,0,0,1-1,2.82,4.33,4.33,0,0,1-5.61,0,3.67,3.67,0,0,1-1.11-2.82V59.66a3.64,3.64,0,0,1,1.11-2.82,4.33,4.33,0,0,1,5.61,0,3.78,3.78,0,0,1,1,2.82Zm0,30.32a4,4,0,0,1-6.64,2.87,3.71,3.71,0,0,1-1.11-2.87V72.68a3.71,3.71,0,0,1,1.11-2.77,4.18,4.18,0,0,1,5.61,0,3.85,3.85,0,0,1,1,2.77Z"/><path class="cls-2" d="M154.28,67a3.52,3.52,0,0,1,1.88.42,4.11,4.11,0,0,1,1.13,1.11,10.6,10.6,0,0,1,3.16-1.61,12.27,12.27,0,0,1,3.75-.56,13,13,0,0,1,5.32,1.06,12.11,12.11,0,0,1,4.06,2.87,12.5,12.5,0,0,1,2.59,4.33,15.85,15.85,0,0,1,.9,5.4V93.25a3.89,3.89,0,0,1-1,2.87,4.31,4.31,0,0,1-5.59,0,3.76,3.76,0,0,1-1.08-2.87V80a6.5,6.5,0,0,0-1.4-4.24,4.92,4.92,0,0,0-4-1.72,5.41,5.41,0,0,0-4.19,1.72A6.06,6.06,0,0,0,158.19,80V93.25a4,4,0,0,1-6.65,2.87,3.71,3.71,0,0,1-1.11-2.87V70.84a3.69,3.69,0,0,1,1.11-2.77A3.77,3.77,0,0,1,154.28,67Z"/><path class="cls-2" d="M198,66.35a14.87,14.87,0,0,1,4.54.66,12,12,0,0,1,3.58,1.82A3.48,3.48,0,0,1,209.44,67a3.74,3.74,0,0,1,2.8,1.08,3.8,3.8,0,0,1,1,2.77V93.25a3.59,3.59,0,0,1-3.85,3.9,3.67,3.67,0,0,1-2.18-.61A3.74,3.74,0,0,1,206,95,14.11,14.11,0,0,1,202.27,97a12.57,12.57,0,0,1-4.27.74,14.4,14.4,0,0,1-5.88-1.24,16.86,16.86,0,0,1-5-3.35,15.94,15.94,0,0,1-3.48-5,15.09,15.09,0,0,1,0-12.21,16.09,16.09,0,0,1,3.48-5,16.76,16.76,0,0,1,5-3.38A14.57,14.57,0,0,1,198,66.35Zm0,7.76a7.58,7.58,0,0,0-3.11.63,8.34,8.34,0,0,0-2.51,1.69A7.28,7.28,0,0,0,190.7,79a8,8,0,0,0-.61,3.11,7.77,7.77,0,0,0,.61,3.08,7.38,7.38,0,0,0,1.68,2.51,8.73,8.73,0,0,0,2.51,1.69A7.58,7.58,0,0,0,198,90a7.14,7.14,0,0,0,3-.63,7.51,7.51,0,0,0,4-4.2,8.11,8.11,0,0,0,.58-3.08A8.34,8.34,0,0,0,205,79a7.65,7.65,0,0,0-1.58-2.53,7.5,7.5,0,0,0-2.4-1.69A7.14,7.14,0,0,0,198,74.11Z"/><path class="cls-2" d="M223.31,67a3.48,3.48,0,0,1,1.87.42,4,4,0,0,1,1.14,1.11,10.6,10.6,0,0,1,3.16-1.61,12.27,12.27,0,0,1,3.75-.56,13,13,0,0,1,5.32,1.06,12.21,12.21,0,0,1,4.06,2.87,12.5,12.5,0,0,1,2.59,4.33,16.1,16.1,0,0,1,.89,5.4V93.25a3.85,3.85,0,0,1-1,2.87,3.78,3.78,0,0,1-2.82,1,3.82,3.82,0,0,1-2.76-1,3.73,3.73,0,0,1-1.09-2.87V80A6.5,6.5,0,0,0,237,75.77a4.94,4.94,0,0,0-4-1.72,5.39,5.39,0,0,0-4.19,1.72A6.07,6.07,0,0,0,227.21,80V93.25a4,4,0,0,1-6.64,2.87,3.71,3.71,0,0,1-1.11-2.87V70.84a3.69,3.69,0,0,1,1.11-2.77A3.77,3.77,0,0,1,223.31,67Z"/><path class="cls-2" d="M267,66.35a17.26,17.26,0,0,1,6.43,1.22,11.57,11.57,0,0,1,5,3.74,3.73,3.73,0,0,1,.69,1.24,4.08,4.08,0,0,1,.21,1.24,3.71,3.71,0,0,1-.34,1.53,4.53,4.53,0,0,1-.9,1.29,4.1,4.1,0,0,1-1.27.87,3.51,3.51,0,0,1-1.45.32,3.63,3.63,0,0,1-2.63-1.16,8.43,8.43,0,0,0-2.64-1.87,7.82,7.82,0,0,0-6.22,0,8.34,8.34,0,0,0-2.51,1.69A7.44,7.44,0,0,0,259.72,79a8.16,8.16,0,0,0-.6,3.11,7.94,7.94,0,0,0,.6,3.08,7.56,7.56,0,0,0,1.69,2.51,8.73,8.73,0,0,0,2.51,1.69A7.58,7.58,0,0,0,267,90a8,8,0,0,0,3.11-.61,6.92,6.92,0,0,0,2.53-1.76,3.85,3.85,0,0,1,1.35-.87,4,4,0,0,1,1.39-.24,3.56,3.56,0,0,1,1.51.32,4.48,4.48,0,0,1,1.26.84,4.16,4.16,0,0,1,.9,1.24,3.36,3.36,0,0,1,.34,1.5,3.09,3.09,0,0,1-.32,1.4,5.22,5.22,0,0,1-.84,1.24,16.09,16.09,0,0,1-5.14,3.45A15.39,15.39,0,0,1,267,97.73a15.12,15.12,0,0,1-6.12-1.24,15.7,15.7,0,0,1-8.3-8.3,15.65,15.65,0,0,1,0-12.21A16,16,0,0,1,256,71a15.7,15.7,0,0,1,5-3.38A15.28,15.28,0,0,1,267,66.35Z"/><path class="cls-2" d="M299.41,66.35a15.35,15.35,0,0,1,6.09,1.24,16.91,16.91,0,0,1,5,3.3,15.57,15.57,0,0,1,3.37,4.72,12.87,12.87,0,0,1,1.24,5.51,4.12,4.12,0,0,1-1,3.06,4,4,0,0,1-2.88.95h-19a5.73,5.73,0,0,0,1,2A6.61,6.61,0,0,0,295,88.61a9.72,9.72,0,0,0,2.14,1,7.06,7.06,0,0,0,2.24.37,7.54,7.54,0,0,0,2.9-.53A8.27,8.27,0,0,0,304.63,88a5.27,5.27,0,0,1,1.42-1,3.57,3.57,0,0,1,1.53-.37,3.51,3.51,0,0,1,2.64,1.16,3.76,3.76,0,0,1,1.1,2.69,5.65,5.65,0,0,1-.21,1.53,2.93,2.93,0,0,1-.79,1.31,14.47,14.47,0,0,1-10.91,4.38,15.12,15.12,0,0,1-6.12-1.24,15.79,15.79,0,0,1-5-3.35,16.09,16.09,0,0,1-3.35-5A15.65,15.65,0,0,1,285,76a16.24,16.24,0,0,1,3.35-5,15.7,15.7,0,0,1,5-3.38A15.28,15.28,0,0,1,299.41,66.35Zm0,7.76a6.89,6.89,0,0,0-2.22.37,8.3,8.3,0,0,0-2.05,1A7.44,7.44,0,0,0,293.45,77,5.32,5.32,0,0,0,292.39,79h14.08a5,5,0,0,0-1-1.95,7,7,0,0,0-1.69-1.53,8.57,8.57,0,0,0-2.14-1A7.27,7.27,0,0,0,299.41,74.11Z"/></g></g></svg>