<svg xmlns="http://www.w3.org/2000/svg" width="740" height="89" viewBox="0 0 740 89">
    <g fill="none" fill-rule="evenodd">
        <path fill="#35414D" d="M51 68.382c0 4.14-.999 7.684-2.996 10.634-1.999 2.949-4.95 5.184-8.854 6.704C35.244 87.24 30.495 88 24.9 88c-5.34 0-9.916-.824-13.731-2.472-3.813-1.649-6.629-3.71-8.445-6.182C.909 76.872 0 74.39 0 71.899c0-1.649.582-3.059 1.744-4.232 1.164-1.172 2.634-1.758 4.414-1.758 1.563 0 2.76.384 3.597 1.154.835.77 1.634 1.85 2.396 3.242 1.526 2.675 3.352 4.672 5.477 5.99 2.125 1.32 5.021 1.979 8.69 1.979 2.978 0 5.42-.67 7.328-2.006 1.908-1.337 2.86-2.867 2.86-4.59 0-2.637-.989-4.56-2.97-5.77-1.978-1.209-5.238-2.362-9.78-3.463-5.121-1.28-9.289-2.627-12.503-4.037-3.215-1.412-5.784-3.27-7.71-5.578C1.618 50.52.655 47.68.655 44.31c0-3.004.89-5.844 2.67-8.518 1.78-2.675 4.403-4.81 7.873-6.403 3.47-1.593 7.656-2.39 12.558-2.39 3.851 0 7.31.403 10.38 1.21 3.07.805 5.63 1.886 7.683 3.242 2.053 1.355 3.615 2.857 4.686 4.506 1.071 1.648 1.607 3.26 1.607 4.836 0 1.722-.571 3.132-1.716 4.231-1.145 1.1-2.77 1.65-4.877 1.65-1.526 0-2.824-.44-3.896-1.32-1.072-.879-2.298-2.198-3.677-3.957-1.127-1.465-2.452-2.637-3.978-3.517-1.525-.88-3.596-1.32-6.212-1.32-2.686 0-4.922.578-6.7 1.733-1.78 1.153-2.671 2.592-2.671 4.314 0 1.575.654 2.866 1.961 3.874 1.308 1.007 3.07 1.841 5.286 2.5 2.215.66 5.267 1.465 9.153 2.418 4.614 1.136 8.382 2.491 11.307 4.067 2.923 1.575 5.14 3.435 6.646 5.578C50.247 63.19 51 65.633 51 68.382M104.876 57.5c0-6.118-1.352-10.88-4.057-14.288-2.704-3.407-6.34-5.11-10.902-5.11-2.944 0-5.538.76-7.781 2.28-2.246 1.52-3.977 3.764-5.19 6.732-1.215 2.967-1.822 6.43-1.822 10.386 0 3.92.597 7.346 1.795 10.276 1.196 2.932 2.907 5.175 5.133 6.733 2.225 1.556 4.849 2.335 7.865 2.335 4.562 0 8.198-1.713 10.902-5.138 2.705-3.426 4.057-8.161 4.057-14.206m15.124 0c0 4.469-.698 8.591-2.097 12.365-1.397 3.773-3.422 7.016-6.072 9.727-2.65 2.711-5.814 4.79-9.494 6.237C98.657 87.276 94.518 88 89.917 88c-4.563 0-8.665-.733-12.309-2.198-3.642-1.466-6.798-3.563-9.467-6.293-2.667-2.73-4.691-5.953-6.07-9.671C60.689 66.118 60 62.006 60 57.5c0-4.543.7-8.701 2.097-12.474 1.399-3.774 3.404-6.998 6.017-9.673 2.613-2.675 5.778-4.735 9.494-6.182S85.428 27 89.918 27c4.561 0 8.703.733 12.42 2.198 3.715 1.466 6.9 3.553 9.55 6.265 2.649 2.711 4.664 5.935 6.042 9.672 1.382 3.737 2.07 7.859 2.07 12.365M186 69.535c0 1.869-.562 3.866-1.685 5.99-1.123 2.126-2.835 4.15-5.136 6.073-2.302 1.923-5.2 3.472-8.7 4.644-3.496 1.172-7.438 1.758-11.82 1.758-9.315 0-16.588-2.702-21.816-8.105-5.23-5.404-7.843-12.65-7.843-21.736 0-6.154 1.197-11.595 3.589-16.321 2.394-4.725 5.856-8.38 10.384-10.964 4.53-2.582 9.943-3.874 16.24-3.874 3.902 0 7.483.569 10.742 1.704 3.258 1.136 6.02 2.601 8.285 4.397 2.265 1.795 3.996 3.71 5.191 5.742 1.197 2.034 1.796 3.93 1.796 5.687 0 1.797-.673 3.317-2.016 4.562-1.344 1.245-2.974 1.869-4.888 1.869-1.253 0-2.292-.32-3.122-.962-.828-.642-1.757-1.676-2.788-3.105-1.842-2.784-3.766-4.873-5.773-6.265-2.006-1.392-4.556-2.088-7.648-2.088-4.457 0-8.046 1.731-10.772 5.193-2.724 3.463-4.086 8.198-4.086 14.206 0 2.821.35 5.413 1.05 7.776.698 2.364 1.711 4.378 3.036 6.045 1.327 1.667 2.928 2.931 4.807 3.792 1.877.861 3.939 1.291 6.185 1.291 3.019 0 5.606-.696 7.76-2.087 2.154-1.393 4.059-3.518 5.718-6.376.92-1.685 1.913-3.004 2.98-3.956 1.07-.953 2.377-1.429 3.922-1.429 1.842 0 3.37.696 4.585 2.088 1.215 1.392 1.823 2.877 1.823 4.451M213 35.933V78.95c0 2.98-.714 5.235-2.142 6.761-1.43 1.527-3.243 2.289-5.441 2.289s-3.984-.78-5.357-2.344c-1.375-1.562-2.06-3.798-2.06-6.706V36.368c0-2.944.685-5.16 2.06-6.651 1.373-1.49 3.16-2.235 5.357-2.235 2.198 0 4.011.745 5.441 2.235 1.428 1.49 2.142 3.562 2.142 6.216m-7.417-15.375c-2.089 0-3.875-.637-5.36-1.91-1.482-1.272-2.223-3.071-2.223-5.397 0-2.108.76-3.844 2.28-5.206C201.8 6.682 203.566 6 205.582 6c1.94 0 3.662.618 5.165 1.854C212.249 9.09 213 10.889 213 13.25c0 2.29-.732 4.08-2.198 5.37-1.465 1.291-3.205 1.937-5.219 1.937M265.758 57.884c-2.175.804-5.339 1.655-9.491 2.551-4.152.896-7.025 1.554-8.62 1.974-1.596.422-3.119 1.244-4.57 2.469-1.45 1.225-2.175 2.935-2.175 5.129 0 2.268.853 4.196 2.556 5.788 1.704 1.59 3.935 2.385 6.691 2.385 2.936 0 5.647-.65 8.13-1.946 2.485-1.299 4.307-2.972 5.467-5.02 1.341-2.267 2.012-5.997 2.012-11.19v-2.14zm.98 21.668c-3.59 2.816-7.062 4.928-10.416 6.336-3.355 1.408-7.116 2.112-11.286 2.112-3.807 0-7.151-.76-10.034-2.277-2.884-1.517-5.104-3.574-6.664-6.171A16.12 16.12 0 0 1 226 71.104c0-4.097 1.288-7.588 3.861-10.477 2.574-2.889 6.11-4.828 10.606-5.815.943-.219 3.281-.714 7.017-1.482a304.005 304.005 0 0 0 9.6-2.11c2.664-.641 5.556-1.418 8.674-2.332-.18-3.95-.97-6.848-2.367-8.694-1.394-1.848-4.287-2.77-8.674-2.77-3.77 0-6.608.529-8.511 1.59-1.905 1.06-3.535 2.651-4.895 4.772-1.36 2.121-2.322 3.52-2.883 4.197-.562.676-1.767 1.014-3.616 1.014-1.67 0-3.11-.54-4.325-1.618-1.215-1.078-1.822-2.459-1.822-4.142 0-2.633.924-5.193 2.775-7.679 1.849-2.487 4.73-4.535 8.646-6.144 3.916-1.609 8.793-2.414 14.631-2.414 6.526 0 11.658.778 15.393 2.333 3.734 1.553 6.371 4.013 7.913 7.377 1.541 3.365 2.312 7.826 2.312 13.385a1216.4 1216.4 0 0 1-.109 17.115c0 2.815.463 5.75 1.387 8.803.925 3.054 1.387 5.02 1.387 5.897 0 1.536-.716 2.935-2.148 4.197-1.433 1.262-3.056 1.893-4.868 1.893-1.523 0-3.028-.722-4.515-2.167-1.487-1.444-3.064-3.538-4.731-6.281zM295 9.089c0-2.994.668-5.256 2.004-6.79C298.342.768 300.146 0 302.417 0c2.272 0 4.104.758 5.496 2.272C309.305 3.787 310 6.06 310 9.09V78.91c0 3.03-.705 5.302-2.116 6.817-1.409 1.515-3.232 2.272-5.467 2.272-2.198 0-3.984-.785-5.357-2.354-1.374-1.57-2.06-3.814-2.06-6.735V9.09zM340.73 57.942c0 5.95 1.351 10.52 4.051 13.715 2.7 3.193 6.242 4.79 10.628 4.79 3.73 0 6.947-1.634 9.648-4.9 2.699-3.267 4.048-7.948 4.048-14.043 0-3.941-.561-7.336-1.685-10.183-1.123-2.847-2.717-5.046-4.783-6.598-2.065-1.55-4.475-2.325-7.228-2.325-2.828 0-5.347.775-7.557 2.325-2.21 1.552-3.95 3.796-5.218 6.735-1.268 2.938-1.903 6.433-1.903 10.484m-.706-44.402v22.83c2.79-2.918 5.634-5.154 8.534-6.705 2.899-1.552 6.487-2.327 10.763-2.327 4.928 0 9.25 1.176 12.963 3.53 3.715 2.355 6.596 5.768 8.644 10.24 2.048 4.47 3.071 9.771 3.071 15.904 0 4.526-.571 8.677-1.712 12.456-1.141 3.777-2.8 7.053-4.973 9.826-2.175 2.775-4.812 4.919-7.91 6.434C366.305 87.242 362.89 88 359.158 88c-2.283 0-4.43-.274-6.443-.82-2.01-.549-3.723-1.27-5.136-2.163-1.413-.895-2.618-1.817-3.614-2.767-.998-.948-2.31-2.372-3.941-4.27v1.48c0 2.809-.67 4.936-2.011 6.377-1.342 1.442-3.044 2.163-5.11 2.163-2.102 0-3.779-.72-5.028-2.163C326.625 84.396 326 82.27 326 79.46V9.198c0-3.03.608-5.32 1.821-6.871C329.036.775 330.73 0 332.903 0c2.285 0 4.04.74 5.274 2.217 1.231 1.479 1.848 3.587 1.848 6.323M580 68.382c0 4.14-.999 7.684-2.996 10.634-1.999 2.949-4.95 5.184-8.854 6.704-3.906 1.52-8.655 2.28-14.249 2.28-5.34 0-9.916-.824-13.731-2.472-3.813-1.649-6.629-3.71-8.445-6.182-1.816-2.474-2.725-4.955-2.725-7.447 0-1.649.582-3.059 1.744-4.232 1.164-1.172 2.634-1.758 4.414-1.758 1.563 0 2.76.384 3.597 1.154.835.77 1.634 1.85 2.396 3.242 1.526 2.675 3.352 4.672 5.477 5.99 2.125 1.32 5.021 1.979 8.69 1.979 2.978 0 5.42-.67 7.328-2.006 1.908-1.337 2.86-2.867 2.86-4.59 0-2.637-.989-4.56-2.97-5.77-1.978-1.209-5.238-2.362-9.78-3.463-5.121-1.28-9.289-2.627-12.503-4.037-3.215-1.412-5.784-3.27-7.71-5.578-1.925-2.31-2.888-5.149-2.888-8.519 0-3.004.89-5.844 2.67-8.518 1.78-2.675 4.403-4.81 7.873-6.403 3.47-1.593 7.656-2.39 12.558-2.39 3.851 0 7.31.403 10.38 1.21 3.07.805 5.63 1.886 7.683 3.242 2.053 1.355 3.615 2.857 4.686 4.506 1.071 1.648 1.607 3.26 1.607 4.836 0 1.722-.571 3.132-1.716 4.231-1.145 1.1-2.77 1.65-4.877 1.65-1.526 0-2.824-.44-3.896-1.32-1.072-.879-2.298-2.198-3.677-3.957-1.127-1.465-2.452-2.637-3.978-3.517-1.525-.88-3.596-1.32-6.212-1.32-2.686 0-4.922.578-6.7 1.733-1.78 1.153-2.671 2.592-2.671 4.314 0 1.575.654 2.866 1.961 3.874 1.308 1.007 3.07 1.841 5.286 2.5 2.215.66 5.267 1.465 9.153 2.418 4.614 1.136 8.382 2.491 11.307 4.067 2.923 1.575 5.14 3.435 6.646 5.578 1.509 2.144 2.262 4.588 2.262 7.337M593.893 28.605h1.628v-12.97c0-2.407.064-4.293.19-5.66.127-1.368.48-2.545 1.058-3.529.58-1.02 1.411-1.85 2.498-2.488C600.35 3.32 601.563 3 602.902 3c1.88 0 3.582.711 5.101 2.133a6.33 6.33 0 0 1 1.926 3.474c.273 1.367.408 3.308.408 5.825v14.173h7.428c2.098 0 3.699.5 4.804 1.504 1.102 1.002 1.654 2.287 1.654 3.856 0 2.005-.787 3.408-2.36 4.21-1.575.803-3.827 1.204-6.758 1.204h-4.768v27.455c0 2.333.082 4.13.245 5.388.162 1.257.597 2.278 1.303 3.061.704.785 1.853 1.177 3.447 1.177.866 0 2.042-.154 3.526-.465 1.483-.31 2.642-.465 3.474-.465 1.194 0 2.27.483 3.229 1.449.96.967 1.439 2.161 1.439 3.583 0 2.406-1.303 4.248-3.908 5.524-2.607 1.277-6.35 1.914-11.234 1.914-4.633 0-8.142-.784-10.53-2.351-2.388-1.569-3.953-3.738-4.694-6.509-.742-2.771-1.113-6.472-1.113-11.103V39.379h-3.954c-2.135 0-3.764-.51-4.885-1.531-1.122-1.021-1.682-2.316-1.682-3.883 0-1.569.589-2.854 1.764-3.856 1.176-1.004 2.886-1.504 5.129-1.504M644.32 52.727h27.183c-.367-5.12-1.748-8.95-4.146-11.492-2.399-2.541-5.555-3.813-9.473-3.813-3.735 0-6.8 1.289-9.198 3.868-2.397 2.578-3.853 6.39-4.365 11.437m29.323 8.503h-29.323c.037 3.401.723 6.4 2.06 8.996 1.335 2.598 3.11 4.554 5.326 5.87 2.214 1.317 4.658 1.975 7.331 1.975 1.793 0 3.43-.21 4.914-.63 1.483-.421 2.92-1.08 4.31-1.976a32.766 32.766 0 0 0 3.844-2.879c1.172-1.024 2.691-2.414 4.558-4.169.769-.66 1.868-.988 3.294-.988 1.538 0 2.784.42 3.736 1.261.95.841 1.427 2.03 1.427 3.567 0 1.352-.531 2.935-1.592 4.744-1.062 1.811-2.663 3.547-4.805 5.212-2.142 1.664-4.832 3.044-8.072 4.14-3.241 1.1-6.965 1.647-11.175 1.647-9.627 0-17.115-2.743-22.458-8.228C631.673 74.287 629 66.844 629 57.444c0-4.424.659-8.53 1.977-12.314 1.319-3.786 3.24-7.031 5.766-9.737 2.526-2.706 5.639-4.782 9.336-6.226 3.696-1.445 7.797-2.167 12.3-2.167 5.856 0 10.882 1.234 15.072 3.703 4.192 2.467 7.332 5.66 9.42 9.572 2.085 3.914 3.129 7.9 3.129 11.959 0 3.766-1.08 6.208-3.24 7.323-2.16 1.115-5.198 1.673-9.116 1.673M713.924 66.348v12.53c0 3.04-.71 5.32-2.132 6.841-1.422 1.52-3.225 2.281-5.412 2.281-2.15 0-3.918-.77-5.303-2.308-1.386-1.539-2.077-3.81-2.077-6.815V37.111C699 30.37 701.423 27 706.27 27c2.479 0 4.265.788 5.358 2.363 1.092 1.576 1.695 3.901 1.804 6.979 1.786-3.078 3.617-5.403 5.495-6.98 1.876-1.574 4.381-2.362 7.516-2.362 3.134 0 6.177.788 9.129 2.363 2.951 1.576 4.428 3.663 4.428 6.265 0 1.831-.63 3.343-1.886 4.534-1.258 1.19-2.615 1.786-4.073 1.786-.546 0-1.867-.34-3.964-1.017-2.095-.678-3.945-1.016-5.548-1.016-2.187 0-3.972.576-5.357 1.731-1.385 1.153-2.46 2.866-3.225 5.137-.766 2.272-1.294 4.974-1.586 8.106-.291 3.133-.437 6.952-.437 11.459"/>
        <path fill="#F67555" d="M515.448 40.653C512.105 33.965 504.895 26 489.515 26c-18.18 0-30.076 14.8-40.579 27.871-8.736 10.873-16.992 21.147-26.787 21.147-10.084 0-16.275-10.477-16.275-17.991 0-6.955 6.817-17.055 17.494-17.055 10.348 0 15.868 8.463 16.088 8.802 1.992 3.267 6.262 4.297 9.512 2.3 3.265-2.013 4.302-6.319 2.312-9.621C450.302 39.87 441.228 26 423.368 26 404.883 26 392 42.355 392 57.027 392 72.148 404.38 89 422.145 89c16.42 0 27.175-13.384 37.59-26.354 9.371-11.654 18.226-22.674 29.78-22.674 6.766 0 11.197 2.281 13.539 6.963 2.087 4.186 2.078 8.978 2.073 10.56 0 .929-.493 5.62-2.776 9.86-2.534 4.71-6.137 6.909-11.33 6.909-10.758 0-16.599-7.083-18.841-9.797-.58-.699-1.032-1.241-1.64-1.765-1.41-1.215-3.182-1.776-5.051-1.665a6.892 6.892 0 0 0-4.735 2.419c-2.388 2.806-2.191 7.018.53 9.677l.26.312c3.018 3.66 12.202 14.791 29.473 14.791 21.143 0 27.983-20.77 27.983-30.824.005-6.402-1.191-12.04-3.552-16.76"/>
    </g>
</svg>
