<svg width="300" height="42" viewBox="0 0 300 42" fill="none" xmlns="http://www.w3.org/2000/svg">
<path fill-rule="evenodd" clip-rule="evenodd" d="M186.621 17.5499C184.967 14.1626 181.359 10.1179 173.642 10.1179C164.522 10.1179 158.559 17.6005 153.297 24.2235C148.938 29.7343 144.779 34.8912 139.868 34.8912C134.807 34.8912 131.7 29.5826 131.7 25.7908C131.7 22.2518 135.107 17.1455 140.469 17.1455C145.63 17.1455 148.437 21.4429 148.537 21.5945C149.539 23.2629 151.694 23.7685 153.297 22.7573C154.951 21.7462 155.452 19.5722 154.45 17.9038C153.949 17.0949 149.389 10.0674 140.469 10.0674C131.249 10.1179 124.784 18.4094 124.784 25.7908C124.784 33.425 130.998 41.9692 139.868 41.9692C148.086 41.9692 153.498 35.1945 158.709 28.622C163.42 22.7573 167.88 17.196 173.642 17.196C177.05 17.196 179.255 18.3588 180.407 20.735C181.46 22.8585 181.46 25.2852 181.46 26.0942C181.46 26.5492 181.209 28.9254 180.057 31.0994C178.804 33.4756 177 34.5878 174.394 34.5878C168.982 34.5878 166.076 30.9982 164.973 29.6332C164.673 29.2793 164.472 29.0265 164.171 28.7232C163.47 28.1165 162.568 27.8131 161.616 27.8637C161.165 27.9142 160.714 28.0153 160.313 28.2176C159.912 28.4198 159.561 28.7231 159.261 29.0771C158.058 30.4927 158.158 32.6161 159.511 33.9811L159.661 34.1328C161.165 36.0034 165.775 41.6153 174.444 41.6153C185.018 41.6153 188.475 31.0994 188.475 26.0436C188.425 22.7573 187.824 19.9261 186.621 17.5499Z" fill="white"/>
<path fill-rule="evenodd" clip-rule="evenodd" d="M92.4629 0.917193C91.7113 1.72612 91.611 3.90009 91.611 21.0391C91.611 39.0376 91.6611 40.3016 92.513 41.1105C93.7157 42.2228 96.2212 42.1722 97.2234 41.06C97.6744 40.5544 98.1755 39.5432 98.376 38.7849L98.7268 37.3692L100.631 39.0882C103.036 41.3127 105.542 42.1217 109.1 41.8183C116.817 41.2622 121.026 35.0942 120.575 25.0332C120.324 19.2191 118.671 15.7306 115.063 13.2533C110.352 10.0681 103.387 10.6748 99.8793 14.6183L98.8771 15.7306L98.6265 8.9053C98.4261 3.14173 98.2256 1.92835 97.4239 1.01831C96.2713 -0.29619 93.6155 -0.346747 92.4629 0.917193ZM70.6647 2.33281C69.8129 3.44507 69.6124 4.40567 69.6124 7.5908V11.5343L68.1091 11.8882C67.2572 12.0904 66.255 12.7982 65.804 13.4555C65.1025 14.5678 65.1025 14.77 65.8541 15.9328C66.4053 16.7923 67.1069 17.1968 68.1091 17.1968H69.5623L69.7628 27.2072C69.9632 38.4815 70.3641 39.9477 73.471 41.2622C75.6758 42.1722 81.2882 42.1722 83.4931 41.2622C85.4474 40.4533 86.149 38.6837 85.247 36.9142C84.6958 35.9031 84.3951 35.802 81.8895 36.1053C77.3295 36.6614 77.2293 36.4592 77.2293 25.9432V17.1968H79.1335C81.4887 17.1968 83.2425 15.9834 83.2425 14.4666C83.2425 12.8488 82.1401 12.0904 79.4842 11.7871L77.2293 11.5343V7.5908C77.2293 4.40567 77.0288 3.44507 76.1769 2.33281C74.6235 0.512732 72.0678 0.512732 70.6647 2.33281ZM227.962 2.02946C227.11 2.88894 226.96 3.69786 226.96 7.28746V11.5343L225.106 11.9893C221.498 12.8488 221.849 17.1968 225.507 17.1968H226.91V26.8027C226.91 37.0153 227.211 38.7343 229.416 40.706C230.267 41.4644 231.42 41.7678 234.226 41.9194C238.536 42.1217 241.192 41.4139 242.294 39.6949C242.996 38.5826 242.996 38.3804 242.244 37.167C241.442 35.9536 241.192 35.8525 238.937 36.1559C234.477 36.7626 234.477 36.7626 234.477 26.2971V17.1968H236.431C237.584 17.1968 238.836 16.7923 239.538 16.2867C241.793 14.4161 239.538 11.6354 235.729 11.6354C234.677 11.6354 234.577 11.3826 234.376 7.33801C234.226 4.10232 233.925 2.78783 233.224 2.02946C232.021 0.664405 229.265 0.664405 227.962 2.02946ZM1.36162 12.0904C0.158965 13.051 0.158965 13.1016 0.0587438 25.6399C-0.0915884 36.8131 0.00863308 38.3298 0.810405 39.9477C1.56207 41.4139 2.01306 41.7678 3.56649 41.8689C4.86937 41.97 5.72126 41.7172 6.37269 41.06C7.22458 40.2005 7.37491 39.1388 7.57535 31.3023C7.82591 21.7975 8.17668 20.3313 10.7824 18.2585C12.7869 16.6912 16.445 16.7923 18.0485 18.5112C19.2512 19.7752 19.2512 20.0785 19.5017 29.8362C19.7021 38.7849 19.8525 39.9477 20.7044 40.9083C22.1075 42.4756 24.6631 42.3239 25.966 40.6555C26.9181 39.3916 27.0183 38.6837 27.0183 29.1283C27.0183 20.3819 26.868 18.6629 26.0662 16.8934C23.26 10.6748 15.0418 9.20865 9.52967 13.9611C7.17447 15.9834 6.97402 16.0339 6.97402 14.3655C6.97402 12.7477 5.32037 11.0793 3.76694 11.0793C3.1155 11.1298 2.01306 11.5343 1.36162 12.0904ZM42.703 12.0399C37.5416 13.8599 34.5349 17.6518 33.5828 23.5165C32.2298 32.0101 36.0884 39.2399 42.9535 41.2622C47.2129 42.5261 53.0759 42.0205 56.4834 40.1499C59.8909 38.2793 61.9455 35.3975 61.2439 33.4257C60.4422 31.1001 58.4878 31.3529 55.1805 34.083C51.9734 36.7626 50.9211 37.1165 47.4635 36.7626C43.8054 36.4086 40.9992 33.2741 40.9992 29.5834V28.3194H49.9189C56.0825 28.3194 59.1894 28.1172 60.0914 27.6622C61.9455 26.7016 62.3965 24.1231 61.3943 20.5336C59.2395 13.1016 50.7708 9.2592 42.703 12.0399ZM200.301 11.8882C194.138 13.8599 191.682 20.483 195.491 24.6287C197.044 26.3477 199.449 27.4599 204.16 28.7744C209.171 30.1901 210.824 31.0495 211.476 32.5157C212.228 34.1336 211.275 35.7514 209.02 36.6614C205.463 38.1782 201.203 36.4592 198.998 32.7179C197.244 29.735 193.336 30.5945 193.336 33.9819C193.336 38.2287 197.846 41.4139 204.46 41.7678C213.681 42.3239 218.892 38.886 218.892 32.3135C218.892 30.1901 218.642 29.4823 217.339 27.9655C215.284 25.6399 214.282 25.1343 207.667 23.2131C204.661 22.3536 201.754 21.2414 201.253 20.7863C198.998 18.7135 201.203 16.0845 205.212 16.0845C207.718 16.0845 208.068 16.2362 210.624 18.6124C213.581 21.2919 214.533 21.5953 216.287 20.3313C218.942 18.4607 216.738 14.1633 212.127 12.2421C209.371 11.1804 203.208 10.9276 200.301 11.8882ZM253.669 12.0399C250.111 13.3038 247.956 15.0733 246.253 18.2585C245 20.5841 244.749 21.6458 244.599 25.5893C244.349 31.7068 245.301 34.6897 248.558 37.9759C251.665 41.1105 255.022 42.1722 260.785 41.8689C264.092 41.7172 265.345 41.3633 267.55 40.1499C270.957 38.2793 273.012 35.3975 272.31 33.4257C271.509 31.1507 269.604 31.3529 266.297 34.0324C263.09 36.6614 261.987 37.0659 258.53 36.712C254.872 36.3581 252.066 33.2235 252.066 29.5328V28.3194H260.985C267.149 28.3194 270.256 28.1172 271.108 27.6622C272.962 26.7016 273.413 24.1231 272.41 20.5336C270.206 13.1016 261.737 9.2592 253.669 12.0399ZM280.579 12.2421C279.626 13.3038 279.576 13.9611 279.576 26.651C279.576 39.2904 279.626 39.9982 280.579 40.9588C282.232 42.6272 285.489 42.1217 286.341 40.0994C286.542 39.5938 286.892 35.3469 287.043 30.5945C287.293 23.8198 287.544 21.6458 288.246 20.3313C289.548 17.9046 291.002 17.399 294.61 18.1068C298.067 18.8146 299.42 18.3596 299.921 16.3373C300.623 13.506 296.514 10.7254 292.355 11.2815C290.851 11.4837 289.899 12.0399 288.496 13.5566L286.642 15.5283L286.291 14.2139C285.59 11.1298 282.583 10.0681 280.579 12.2421ZM51.3721 17.399C52.9757 18.4607 54.0781 20.2302 54.4289 22.4042L54.7295 24.2243H47.8644C40.0972 24.2243 40.0972 24.2243 42.1517 20.1797C44.056 16.4384 48.0147 15.225 51.3721 17.399ZM262.338 17.399C263.942 18.4607 265.044 20.2302 265.395 22.4042L265.696 24.2243H258.881C251.113 24.2243 251.113 24.2243 253.168 20.1797C255.022 16.4384 258.981 15.225 262.338 17.399ZM110.002 17.9551C113.159 20.0785 114.311 27.915 112.056 32.364C109.4 37.622 102.986 37.622 99.9294 32.4146C98.4762 29.9373 98.5764 24.2748 100.08 21.1402C102.084 16.9945 106.494 15.6295 110.002 17.9551Z" fill="white"/>
</svg>
