<svg xmlns="http://www.w3.org/2000/svg" width="48" height="59.639" viewBox="0 0 48 59.639">
  <g id="pdf" transform="translate(-20.5 -13.05)">
    <path id="Контур_405" data-name="Контур 405" d="M67.634,72.689a.962.962,0,0,1-.962-.962V29.749L53.725,14.974H27.233a4.809,4.809,0,0,0-4.81,4.81V33.25a.962.962,0,0,1-1.924,0V19.783a6.733,6.733,0,0,1,6.733-6.733h27.28L68.5,29.037v42.69A.963.963,0,0,1,67.634,72.689ZM63.787,34.116a.962.962,0,0,0-.962-.962H56.553a1.521,1.521,0,0,1-1.52-1.52h0V24.17a.962.962,0,0,0-1.924,0V31.6a3.443,3.443,0,0,0,3.444,3.444h6.176a.961.961,0,0,0,1.054-.86ZM24.559,58.549a1.16,1.16,0,0,0,.577.135,1.075,1.075,0,0,0,.577-.135.422.422,0,0,0,.231-.366V54.624h1.924a3.852,3.852,0,0,0,2.52-.77,2.943,2.943,0,0,0,.923-2.424v-.115a2.943,2.943,0,0,0-.9-2.4,3.845,3.845,0,0,0-2.463-.75h-3a.665.665,0,0,0-.442.135.462.462,0,0,0-.192.346V58.26A.441.441,0,0,0,24.559,58.549Zm1.385-9.042h1.924a1.655,1.655,0,0,1,1.924,1.331,1.614,1.614,0,0,1,0,.593V51.6a1.657,1.657,0,0,1-1.847,1.866H26.021Zm7.061,9.042a.868.868,0,0,0,.519.135h2.732a3.843,3.843,0,0,0,2.5-.77,3,3,0,0,0,.962-2.443v-4.04a2.966,2.966,0,0,0-.962-2.443,3.843,3.843,0,0,0-2.5-.77H33.428a.868.868,0,0,0-.519.135.423.423,0,0,0-.212.346v9.619A.426.426,0,0,0,33.005,58.549Zm1.424-9.042h1.828a1.635,1.635,0,0,1,1.841,1.4,1.659,1.659,0,0,1-.013.525v4.04a1.635,1.635,0,0,1-1.3,1.91,1.658,1.658,0,0,1-.525.013H34.429Zm7.445,9.042a1.048,1.048,0,0,0,.558.135,1.075,1.075,0,0,0,.577-.135.422.422,0,0,0,.25-.366V54.009h2.386a.464.464,0,0,0,.385-.173.6.6,0,0,0,.135-.4.8.8,0,0,0-.135-.442.484.484,0,0,0-.385-.173H43.163V49.507h4.483a.421.421,0,0,0,.385-.192.85.85,0,0,0,.135-.5.864.864,0,0,0-.115-.462.462.462,0,0,0-.4-.192H42.239a.85.85,0,0,0-.5.135.407.407,0,0,0-.212.366v9.523a.387.387,0,0,0,.25.366Z" transform="translate(0 0)" fill="#db0566"/>
  </g>
</svg>
