<svg width="40" height="30" viewBox="0 0 40 30" fill="none" xmlns="http://www.w3.org/2000/svg">
<path d="M37.5 25C37.5 25.663 37.2366 26.2989 36.7678 26.7678C36.2989 27.2366 35.663 27.5 35 27.5H5C4.33696 27.5 3.70107 27.2366 3.23223 26.7678C2.76339 26.2989 2.5 25.663 2.5 25V10C2.5 9.33696 2.76339 8.70107 3.23223 8.23223C3.70107 7.76339 4.33696 7.5 5 7.5H7.93C9.91809 7.49891 11.8244 6.70851 13.23 5.3025L15.305 3.2325C15.7725 2.76485 16.4062 2.50147 17.0675 2.5H22.9275C23.5905 2.50014 24.2263 2.76363 24.695 3.2325L26.765 5.3025C27.4616 5.99929 28.2886 6.552 29.1989 6.92905C30.1091 7.30611 31.0847 7.50012 32.07 7.5H35C35.663 7.5 36.2989 7.76339 36.7678 8.23223C37.2366 8.70107 37.5 9.33696 37.5 10V25ZM5 5C3.67392 5 2.40215 5.52678 1.46447 6.46447C0.526784 7.40215 0 8.67392 0 10L0 25C0 26.3261 0.526784 27.5979 1.46447 28.5355C2.40215 29.4732 3.67392 30 5 30H35C36.3261 30 37.5979 29.4732 38.5355 28.5355C39.4732 27.5979 40 26.3261 40 25V10C40 8.67392 39.4732 7.40215 38.5355 6.46447C37.5979 5.52678 36.3261 5 35 5H32.07C30.744 4.99972 29.4725 4.47275 28.535 3.535L26.465 1.465C25.5275 0.527253 24.256 0.000283187 22.93 0H17.07C15.744 0.000283187 14.4725 0.527253 13.535 1.465L11.465 3.535C10.5275 4.47275 9.25597 4.99972 7.93 5H5Z" fill="white"/>
<path d="M20 22.5C18.3424 22.5 16.7527 21.8415 15.5806 20.6694C14.4085 19.4973 13.75 17.9076 13.75 16.25C13.75 14.5924 14.4085 13.0027 15.5806 11.8306C16.7527 10.6585 18.3424 10 20 10C21.6576 10 23.2473 10.6585 24.4194 11.8306C25.5915 13.0027 26.25 14.5924 26.25 16.25C26.25 17.9076 25.5915 19.4973 24.4194 20.6694C23.2473 21.8415 21.6576 22.5 20 22.5ZM20 25C22.3206 25 24.5462 24.0781 26.1872 22.4372C27.8281 20.7962 28.75 18.5706 28.75 16.25C28.75 13.9294 27.8281 11.7038 26.1872 10.0628C24.5462 8.42187 22.3206 7.5 20 7.5C17.6794 7.5 15.4538 8.42187 13.8128 10.0628C12.1719 11.7038 11.25 13.9294 11.25 16.25C11.25 18.5706 12.1719 20.7962 13.8128 22.4372C15.4538 24.0781 17.6794 25 20 25ZM7.5 11.25C7.5 11.5815 7.3683 11.8995 7.13388 12.1339C6.89946 12.3683 6.58152 12.5 6.25 12.5C5.91848 12.5 5.60054 12.3683 5.36612 12.1339C5.1317 11.8995 5 11.5815 5 11.25C5 10.9185 5.1317 10.6005 5.36612 10.3661C5.60054 10.1317 5.91848 10 6.25 10C6.58152 10 6.89946 10.1317 7.13388 10.3661C7.3683 10.6005 7.5 10.9185 7.5 11.25Z" fill="white"/>
</svg>
