<svg width="40" height="40" viewBox="0 0 40 40" fill="none" xmlns="http://www.w3.org/2000/svg">
<circle cx="20" cy="20" r="20" fill="white"/>
<circle cx="20" cy="20" r="19.5" stroke="black" stroke-opacity="0.2"/>
<path d="M20 14C20.1989 14 20.3897 14.079 20.5303 14.2197C20.671 14.3603 20.75 14.5511 20.75 14.75V19.25H25.25C25.4489 19.25 25.6397 19.329 25.7803 19.4697C25.921 19.6103 26 19.8011 26 20C26 20.1989 25.921 20.3897 25.7803 20.5303C25.6397 20.671 25.4489 20.75 25.25 20.75H20.75V25.25C20.75 25.4489 20.671 25.6397 20.5303 25.7803C20.3897 25.921 20.1989 26 20 26C19.8011 26 19.6103 25.921 19.4697 25.7803C19.329 25.6397 19.25 25.4489 19.25 25.25V20.75H14.75C14.5511 20.75 14.3603 20.671 14.2197 20.5303C14.079 20.3897 14 20.1989 14 20C14 19.8011 14.079 19.6103 14.2197 19.4697C14.3603 19.329 14.5511 19.25 14.75 19.25H19.25V14.75C19.25 14.5511 19.329 14.3603 19.4697 14.2197C19.6103 14.079 19.8011 14 20 14Z" fill="black" fill-opacity="0.4"/>
</svg>
