<svg width="307" height="25" viewBox="0 0 307 25" fill="none" xmlns="http://www.w3.org/2000/svg">
<path d="M306 7.83209C301.915 7.62137 297.729 9.12883 294.42 12.3999C292.69 14.1051 291.331 16.1118 289.745 17.9369C288.653 19.2861 287.451 20.5594 286.148 21.7461C284.422 23.2147 282.034 23.4092 280.178 22.2454C279.063 21.5185 278.091 20.6288 277.301 19.613C275.482 17.3437 273.932 14.8766 272.058 12.6365C265.743 5.08948 255.583 4.92415 248.948 12.2442C246.862 14.5427 245.039 17.0357 242.942 19.3245C241.198 21.2307 239.389 22.1351 237.613 22.0541C237.613 22.0314 237.613 22.0087 237.613 21.9828C237.073 21.9573 236.54 21.8679 236.027 21.7169C234.847 21.2631 233.693 20.3586 232.596 19.0035C231.078 17.1297 229.769 15.1133 228.338 13.1876C226.482 10.6849 224.306 8.42859 221.192 7.1902L221.109 7.16103C219.685 6.51214 218.145 6.09509 216.56 5.92912L215.679 5.70868V5.86753C211.723 5.70543 207.652 7.16427 204.397 10.2991C202.646 11.9849 201.279 13.9884 199.686 15.8103C198.503 17.1654 197.37 18.5886 195.985 19.7589C193.914 21.5095 191.062 21.4219 189.001 19.6616C188.107 18.8628 187.307 17.9828 186.613 17.0357C185.013 14.9512 183.592 12.7435 181.906 10.7173C175.612 3.16382 165.467 2.96607 158.796 10.244C157.357 11.8261 156.095 13.5507 154.689 15.1652C153.61 16.3906 152.563 17.6679 151.287 18.7085C148.909 20.6536 145.928 20.5434 143.734 18.4329C143.021 17.7193 142.365 16.961 141.771 16.1636C140.149 13.9754 138.646 11.7061 136.883 9.61511C136.116 8.69985 135.237 7.86571 134.262 7.12861C132.231 5.47264 129.688 4.41609 126.972 4.10072C126.679 4.04715 126.376 4.05491 126.087 4.12341C121.998 3.91593 117.816 5.42015 114.507 8.69118C112.777 10.3964 111.414 12.4031 109.832 14.2315C108.739 15.5793 107.537 16.8525 106.236 18.0407C104.509 19.506 102.121 19.7038 100.266 18.5399C99.1506 17.8119 98.1782 16.9211 97.3886 15.9043C95.5689 13.635 94.0189 11.1712 92.1452 8.93108C85.8301 1.38081 75.6705 1.21547 69.0353 8.53557C66.9494 10.8373 65.1261 13.327 63.0294 15.6158C61.2852 17.522 59.4763 18.4297 57.6961 18.3454V18.2255C56.961 18.1916 56.2392 18.0355 55.5671 17.7651C54.4241 17.1369 53.4432 16.2958 52.69 15.2981C51.1724 13.4243 49.8633 11.4079 48.432 9.48219C46.7345 7.19345 44.7746 5.11866 42.0737 3.83165C40.3289 2.89385 38.3744 2.318 36.352 2.14588L35.773 2C35.773 2.0389 35.773 2.07456 35.773 2.11022C31.817 1.94813 27.746 3.40696 24.4913 6.54183C22.7435 8.2276 21.3733 10.2311 19.7802 12.053C18.597 13.4081 17.4677 14.8312 16.0796 16.0016C14.0117 17.7522 11.1562 17.6614 9.09553 15.9011C8.20351 15.1025 7.40455 14.2237 6.71117 13.2784C5.10721 11.1906 3.68667 8.98619 2 6.96003" stroke="#365B58" stroke-width="3" stroke-miterlimit="10"/>
</svg>
