<svg width="485" height="37" viewBox="0 0 485 37" fill="none" xmlns="http://www.w3.org/2000/svg">
<path d="M484 10.7202C477.509 10.369 470.858 12.8814 465.601 18.3331C462.853 21.1751 460.693 24.5196 458.173 27.5616C456.439 29.8101 454.529 31.9323 452.459 33.9102C449.717 36.3578 445.923 36.682 442.974 34.7423C441.203 33.5309 439.658 32.048 438.403 30.355C435.512 26.5728 433.049 22.4611 430.072 18.7275C420.039 6.14914 403.897 5.87358 393.355 18.0737C390.041 21.9045 387.144 26.0595 383.813 29.8741C381.042 33.0511 378.168 34.5586 375.345 34.4235C375.345 34.3857 375.345 34.3478 375.345 34.3046C374.488 34.2622 373.641 34.1132 372.825 33.8616C370.951 33.1051 369.117 31.5977 367.374 29.3392C364.963 26.2162 362.883 22.8555 360.609 19.646C357.66 15.4749 354.203 11.7143 349.255 9.65034L349.124 9.60171C346.861 8.52023 344.414 7.82516 341.896 7.54854L340.496 7.18113V7.44588C334.211 7.17572 327.743 9.60711 322.571 14.8319C319.789 17.6415 317.618 20.9806 315.086 24.0171C313.206 26.2756 311.407 28.6476 309.207 30.5981C305.916 33.5158 301.384 33.3699 298.11 30.436C296.69 29.1047 295.418 27.6381 294.316 26.0595C291.774 22.5853 289.517 18.9058 286.837 15.5289C276.838 2.93971 260.719 2.61012 250.119 14.74C247.834 17.3767 245.828 20.2512 243.594 22.9419C241.88 24.9843 240.217 27.1131 238.189 28.8475C234.412 32.0894 229.675 31.9056 226.19 28.3882C225.057 27.1988 224.014 25.935 223.07 24.6061C220.493 20.959 218.105 17.1768 215.305 13.6918C214.086 12.1664 212.689 10.7762 211.139 9.54768C207.913 6.78774 203.872 5.02682 199.557 4.5012C199.092 4.41192 198.611 4.42486 198.152 4.53902C191.655 4.19322 185.01 6.70025 179.753 12.152C177.005 14.994 174.839 18.3385 172.325 21.3858C170.588 23.6322 168.678 25.7542 166.611 27.7345C163.868 30.1767 160.074 30.5062 157.126 28.5665C155.354 27.3532 153.809 25.8685 152.555 24.1738C149.664 20.3917 147.201 16.2853 144.224 12.5518C134.191 -0.0319892 118.049 -0.307547 107.507 11.8926C104.193 15.7288 101.296 19.8784 97.9645 23.693C95.1933 26.87 92.3192 28.3828 89.4909 28.2424V28.0424C88.323 27.9859 87.1762 27.7258 86.1082 27.2752C84.2922 26.2282 82.7337 24.8263 81.5371 23.1635C79.1259 20.0405 77.046 16.6798 74.7719 13.4703C72.0749 9.65574 68.9609 6.19777 64.6698 4.05274C61.8976 2.48975 58.7922 1.53 55.579 1.24314L54.659 1C54.659 1.06484 54.659 1.12427 54.659 1.1837C48.3738 0.913551 41.9057 3.34494 36.7346 8.56972C33.9577 11.3793 31.7807 14.7184 29.2494 17.755C27.3696 20.0135 25.5754 22.3854 23.3698 24.3359C20.0844 27.2536 15.5475 27.1023 12.2735 24.1684C10.8562 22.8375 9.58684 21.3728 8.48518 19.7973C5.93679 16.3177 3.67981 12.6436 1 9.26672" stroke="#294744" stroke-width="1.5" stroke-miterlimit="10"/>
</svg>
