<svg width="72" height="72" viewBox="0 0 72 72" fill="none" xmlns="http://www.w3.org/2000/svg">
<path fill-rule="evenodd" clip-rule="evenodd" d="M72 36C72 55.8823 55.8823 72 36 72C16.1177 72 0 55.8823 0 36C0 16.1177 16.1177 0 36 0C55.8823 0 72 16.1177 72 36ZM34.0471 27.875H22.3283C20.8722 27.875 19.6487 28.8709 19.3018 30.2188H37.0737C36.7267 28.8709 35.5032 27.875 34.0471 27.875ZM30.5312 20.4778C30.5312 21.4267 30.9794 22.3035 31.7058 22.9141C32.512 23.5916 33.1195 24.4968 33.4286 25.5312H22.9465C23.2554 24.4969 23.8629 23.5916 24.6691 22.9141C25.3955 22.3035 25.8437 21.4267 25.8437 20.4778V18.3438C25.8437 17.0493 26.893 16 28.1875 16C29.4819 16 30.5312 17.0493 30.5312 18.3438V20.4778ZM28.1876 41.8235L26.6445 44.9095C26.3712 45.4563 26.3988 46.0681 26.7201 46.588C27.0414 47.108 27.5763 47.4062 28.1876 47.4062C28.7988 47.4062 29.3338 47.108 29.6551 46.588C29.9764 46.068 30.004 45.4563 29.7306 44.9095L28.1876 41.8235ZM44.9844 49.3594C44.9844 48.6707 45.7201 47.7969 46.5469 47.7969C47.3737 47.7969 48.1094 48.6707 48.1094 49.3594C48.1094 50.1188 46.7068 50.1406 46.5469 50.1406C46.387 50.1406 44.9844 50.1188 44.9844 49.3594ZM39.5156 39.0355V35.2969C39.5156 33.7867 38.2914 32.5625 36.7812 32.5625H19.5938C18.0836 32.5625 16.8594 33.7867 16.8594 35.2969V53.2656C16.8594 54.7758 18.0836 56 19.5938 56H36.7812C37.5783 56 38.2954 55.6588 38.7952 55.1148C36.8273 53.136 35.6094 50.4108 35.6094 47.4062C35.6094 44.0505 37.129 41.0434 39.5156 39.0355ZM31.6488 47.8202C30.9019 49.0286 29.608 49.75 28.1875 49.75C26.767 49.75 25.4731 49.0286 24.7262 47.8202C23.9795 46.6119 23.9129 45.132 24.5482 43.8614L27.1394 38.6791C27.3378 38.282 27.7436 38.0312 28.1875 38.0312C28.6314 38.0312 29.0372 38.282 29.2356 38.6791L31.8268 43.8614C32.4621 45.132 32.3955 46.6119 31.6488 47.8202ZM37.9531 47.4062C37.9531 42.6601 41.8007 38.8125 46.5469 38.8125C51.293 38.8125 55.1406 42.6601 55.1406 47.4062C55.1406 52.1524 51.293 56 46.5469 56C41.8007 56 37.9531 52.1524 37.9531 47.4062ZM47.7188 42.7188C47.7188 42.0716 47.1941 41.5469 46.5469 41.5469C45.8997 41.5469 45.375 42.0716 45.375 42.7188C45.375 43.3659 45.8997 43.8906 46.5469 43.8906C47.1941 43.8906 47.7188 43.3659 47.7188 42.7188ZM42.2899 42.8891C41.7597 43.2604 41.6309 43.9911 42.0021 44.5212C42.3733 45.0513 43.104 45.1803 43.6342 44.8091C44.1645 44.4378 44.2933 43.7071 43.922 43.177C43.5508 42.6467 42.8201 42.5179 42.2899 42.8891ZM42.6406 49.3594C42.6406 51.2285 44.2105 52.4844 46.5469 52.4844C48.8833 52.4844 50.4531 51.2285 50.4531 49.3594C50.4531 47.5154 48.7826 45.4531 46.5469 45.4531C44.3112 45.4531 42.6406 47.5154 42.6406 49.3594ZM49.4595 44.8091C49.9897 45.1802 50.7204 45.0514 51.0916 44.5212C51.4629 43.991 51.3341 43.2603 50.8038 42.8891C50.2737 42.5179 49.543 42.6468 49.1717 43.177C48.8005 43.7071 48.9294 44.4379 49.4595 44.8091Z" fill="#FCC000"/>
</svg>
