<svg width="32" height="32" viewBox="0 0 32 32" fill="none" xmlns="http://www.w3.org/2000/svg">
<path d="M32 16C32 20.2435 30.3143 24.3131 27.3137 27.3137C24.3131 30.3143 20.2435 32 16 32C11.7565 32 7.68687 30.3143 4.68629 27.3137C1.68571 24.3131 0 20.2435 0 16C0 11.7565 1.68571 7.68687 4.68629 4.68629C7.68687 1.68571 11.7565 0 16 0C20.2435 0 24.3131 1.68571 27.3137 4.68629C30.3143 7.68687 32 11.7565 32 16ZM16.574 11.812C15.018 12.46 11.906 13.8 7.242 15.832C6.486 16.132 6.088 16.428 6.052 16.716C5.992 17.202 6.602 17.394 7.432 17.656L7.782 17.766C8.598 18.032 9.698 18.342 10.268 18.354C10.788 18.366 11.366 18.154 12.004 17.714C16.362 14.772 18.612 13.286 18.752 13.254C18.852 13.23 18.992 13.202 19.084 13.286C19.178 13.368 19.168 13.526 19.158 13.568C19.098 13.826 16.704 16.05 15.466 17.202C15.08 17.562 14.806 17.816 14.75 17.874C14.6267 18 14.5013 18.124 14.374 18.246C13.614 18.978 13.046 19.526 14.404 20.422C15.058 20.854 15.582 21.208 16.104 21.564C16.672 21.952 17.24 22.338 17.976 22.822C18.162 22.942 18.342 23.072 18.516 23.196C19.178 23.668 19.776 24.092 20.51 24.024C20.938 23.984 21.38 23.584 21.604 22.384C22.134 19.55 23.176 13.412 23.416 10.882C23.4306 10.6717 23.4219 10.4604 23.39 10.252C23.3712 10.0838 23.2898 9.92892 23.162 9.818C22.98 9.69238 22.7631 9.6273 22.542 9.632C21.942 9.642 21.016 9.964 16.574 11.812Z" fill="white"/>
</svg>
