<svg width="247" height="19" viewBox="0 0 247 19" fill="none" xmlns="http://www.w3.org/2000/svg">
<path d="M246.754 5.69962C243.455 5.53026 240.075 6.74185 237.403 9.37087C236.006 10.7414 234.909 12.3542 233.628 13.8212C232.747 14.9055 231.776 15.9289 230.724 16.8827C229.33 18.063 227.402 18.2194 225.903 17.284C225.003 16.6998 224.218 15.9847 223.58 15.1683C222.111 13.3444 220.859 11.3615 219.346 9.56108C214.247 3.49531 206.043 3.36243 200.685 9.2458C199.001 11.0931 197.528 13.0968 195.835 14.9364C194.427 16.4684 192.966 17.1954 191.532 17.1302C191.532 17.112 191.532 17.0938 191.532 17.0729C191.096 17.0525 190.665 16.9806 190.251 16.8593C189.298 16.4945 188.366 15.7675 187.48 14.6784C186.255 13.1724 185.198 11.5517 184.042 10.004C182.544 7.99252 180.787 6.17905 178.272 5.18372L178.205 5.16027C177.055 4.63874 175.811 4.30355 174.532 4.17016L173.82 3.99298V4.12065C170.626 3.99037 167.338 5.16288 164.71 7.68246C163.296 9.03735 162.192 10.6476 160.906 12.1119C159.951 13.2011 159.036 14.3449 157.918 15.2855C156.245 16.6925 153.942 16.6222 152.278 15.2073C151.556 14.5653 150.91 13.8581 150.35 13.0968C149.058 11.4215 147.911 9.64706 146.549 8.01858C141.467 1.9476 133.274 1.78867 127.887 7.63817C126.726 8.90968 125.706 10.2958 124.571 11.5934C123.7 12.5783 122.855 13.6049 121.824 14.4413C119.904 16.0046 117.497 15.9161 115.725 14.2198C115.149 13.6463 114.62 13.0368 114.14 12.3959C112.83 10.6372 111.616 8.81328 110.193 7.13269C109.574 6.39706 108.864 5.72665 108.076 5.13421C106.437 3.80327 104.383 2.95409 102.19 2.70061C101.953 2.65756 101.709 2.6638 101.475 2.71885C98.1736 2.5521 94.7962 3.76108 92.1246 6.3901C90.7277 7.76063 89.6271 9.37347 88.3493 10.843C87.4667 11.9263 86.496 12.9496 85.4453 13.9046C84.0514 15.0823 82.1232 15.2412 80.6247 14.3058C79.7242 13.7207 78.939 13.0047 78.3015 12.1875C76.8321 10.3636 75.5804 8.38336 74.0674 6.58291C68.968 0.514544 60.7642 0.38166 55.4063 6.26503C53.722 8.11498 52.2496 10.1161 50.5566 11.9556C49.1482 13.4877 47.6875 14.2172 46.25 14.1495V14.0531C45.6564 14.0258 45.0736 13.9004 44.5308 13.6831C43.6078 13.1782 42.8157 12.5021 42.2076 11.7002C40.9821 10.1942 39.925 8.57356 38.7693 7.02586C37.3986 5.18633 35.8159 3.51876 33.635 2.48435C32.2261 1.73062 30.6478 1.26779 29.0147 1.12946L28.5472 1.01221C28.5472 1.04347 28.5472 1.07214 28.5472 1.1008C25.3527 0.970518 22.0654 2.14302 19.4373 4.66261C18.0259 6.0175 16.9195 7.62774 15.633 9.09207C14.6776 10.1812 13.7658 11.325 12.6448 12.2657C10.975 13.6727 8.66923 13.5997 7.00524 12.1849C6.28494 11.5431 5.63978 10.8367 5.07988 10.077C3.7847 8.39899 2.63761 6.62721 1.27563 4.99873" stroke="#294744" stroke-width="1.5" stroke-miterlimit="10"/>
</svg>
