<svg width="470" height="36" viewBox="0 0 470 36" fill="none" xmlns="http://www.w3.org/2000/svg">
<path d="M469 10.887C462.724 10.5659 456.293 12.863 451.211 17.8474C448.554 20.4458 446.465 23.5037 444.029 26.2849C442.353 28.3407 440.506 30.281 438.504 32.0893C435.852 34.3271 432.184 34.6235 429.333 32.8501C427.621 31.7425 426.127 30.3867 424.914 28.8388C422.118 25.3808 419.737 21.6215 416.859 18.208C407.158 6.70779 391.551 6.45584 381.358 17.6103C378.154 21.1127 375.353 24.9116 372.132 28.3992C369.452 31.3039 366.673 32.6821 363.944 32.5586C363.944 32.524 363.944 32.4895 363.944 32.4499C363.116 32.4112 362.297 32.275 361.508 32.0449C359.696 31.3533 357.922 29.975 356.237 27.9101C353.906 25.0548 351.895 21.9822 349.696 19.0478C346.846 15.2342 343.503 11.7959 338.719 9.90888L338.592 9.86442C336.404 8.87563 334.038 8.24014 331.603 7.98724L330.25 7.65132V7.89338C324.173 7.64638 317.919 9.86936 312.919 14.6463C310.229 17.2151 308.129 20.268 305.682 23.0442C303.864 25.1091 302.124 27.2778 299.997 29.0611C296.815 31.7287 292.434 31.5953 289.268 28.9129C287.894 27.6957 286.665 26.3548 285.6 24.9116C283.141 21.7352 280.959 18.371 278.368 15.2836C268.7 3.77345 253.115 3.47211 242.867 14.5623C240.657 16.973 238.718 19.6011 236.558 22.0612C234.901 23.9285 233.293 25.8748 231.332 27.4606C227.68 30.4246 223.1 30.2566 219.73 27.0407C218.634 25.9532 217.626 24.7977 216.714 23.5827C214.222 20.2482 211.913 16.7903 209.206 13.604C208.027 12.2093 206.676 10.9382 205.178 9.81502C202.059 7.29165 198.152 5.68166 193.98 5.2011C193.53 5.11947 193.065 5.1313 192.621 5.23568C186.339 4.91952 179.914 7.21166 174.832 12.1961C172.174 14.7945 170.08 17.8523 167.65 20.6385C165.97 22.6923 164.124 24.6324 162.125 26.4429C159.473 28.6758 155.805 28.9771 152.954 27.2037C151.241 26.0943 149.747 24.7369 148.535 23.1875C145.739 19.7295 143.358 15.9752 140.48 12.5616C130.778 1.05647 115.171 0.804529 104.979 11.959C101.774 15.4663 98.9733 19.2602 95.7525 22.7478C93.073 25.6525 90.2942 27.0357 87.5595 26.9073V26.7245C86.4303 26.6729 85.3215 26.435 84.2889 26.023C82.533 25.0657 81.0262 23.784 79.8692 22.2637C77.5379 19.4084 75.5269 16.3358 73.3281 13.4014C70.7205 9.91382 67.7096 6.75224 63.5606 4.79108C60.8803 3.36206 57.8778 2.48457 54.771 2.2223L53.8815 2C53.8815 2.05928 53.8815 2.11362 53.8815 2.16796C47.8045 1.92096 41.5506 4.14394 36.5509 8.92089C33.8659 11.4897 31.761 14.5426 29.3136 17.3188C27.496 19.3837 25.7613 21.5524 23.6288 23.3357C20.4522 26.0033 16.0656 25.865 12.9 23.1826C11.5297 21.9657 10.3024 20.6266 9.23723 19.1861C6.77325 16.0048 4.59104 12.6456 2 9.55814" stroke="#365B58" stroke-width="3" stroke-miterlimit="10"/>
</svg>
