<svg width="79" height="6" viewBox="0 0 79 6" fill="none" xmlns="http://www.w3.org/2000/svg">
<path d="M1 1.83052C1.33989 2.16017 1.63226 2.51213 1.99499 2.83186C3.6058 4.2428 6.23902 4.26448 7.89642 2.87958C8.41356 2.44582 8.86035 1.97613 9.37109 1.53928C9.82793 1.14643 10.3113 0.968591 10.7855 1.00453V1.03056C10.9206 1.03464 11.0541 1.05282 11.1811 1.08446C11.4552 1.17617 11.7293 1.341 11.9833 1.58018C12.3698 1.9371 12.7005 2.32375 13.0651 2.6912C13.4963 3.12496 13.9916 3.52835 14.6805 3.7731C15.1182 3.95143 15.6081 4.06287 16.1158 4.09966C16.1597 4.10833 16.2072 4.11639 16.2483 4.12568V4.10647C17.1876 4.14489 18.1488 3.92058 18.9437 3.41123C19.406 3.1169 19.7742 2.75441 20.1762 2.4198C20.5316 2.12361 20.8423 1.80015 21.2288 1.52503C21.8355 1.09128 22.5847 1.11545 23.1859 1.5523C23.3506 1.67414 23.5012 1.80445 23.6363 1.94205C24.0475 2.35164 24.4202 2.78043 24.8579 3.17639C26.466 4.63255 29.1211 4.66973 30.8132 3.25942C31.3313 2.82567 31.779 2.35598 32.2897 1.91975C33.081 1.24371 33.959 1.21459 34.732 1.83114C34.8444 1.9247 34.9485 2.02571 35.0499 2.12857C35.4483 2.53196 35.8138 2.95084 36.2377 3.33997C36.3511 3.44219 36.4731 3.53984 36.6032 3.63245C36.9253 3.87958 37.3195 4.07875 37.7608 4.21739L37.8266 4.23598C38.0887 4.31805 38.365 4.37739 38.6489 4.41258C38.8143 4.44232 38.9842 4.47454 39.1578 4.50676C39.1578 4.48632 39.1624 4.46711 39.1642 4.4448C40.1537 4.45905 41.1615 4.17402 41.9966 3.5773C42.4443 3.25694 42.8025 2.87896 43.2082 2.53134C43.4914 2.28905 43.7564 2.03562 44.0825 1.81812C44.6399 1.44634 45.3617 1.45191 45.9099 1.83609C46.2132 2.05049 46.4581 2.30455 46.7103 2.54931C47.0502 2.87958 47.3425 3.23092 47.7043 3.55065C49.3161 4.96158 51.9493 4.98389 53.6067 3.59836C54.1238 3.16461 54.5706 2.69492 55.0814 2.25869C55.5382 1.86522 56.0215 1.68738 56.4948 1.72332V1.73943C56.5842 1.74238 56.673 1.75131 56.7598 1.76607C57.0796 1.84539 57.393 2.02261 57.6926 2.29897C58.0791 2.6565 58.4099 3.04254 58.7744 3.40999C59.2377 3.87906 59.774 4.30662 60.5461 4.54394L60.5808 4.55386C60.9419 4.68018 61.3327 4.7628 61.7357 4.798C61.8097 4.81163 61.8837 4.8265 61.9586 4.84199V4.81225C62.8988 4.85067 63.859 4.62636 64.6539 4.11763C65.1163 3.8233 65.4845 3.4608 65.8865 3.1262C66.2419 2.83 66.5526 2.50655 66.939 2.23143C67.5457 1.79768 68.2949 1.82246 68.8961 2.25869C69.0612 2.38038 69.2118 2.5107 69.3466 2.64845C69.7577 3.05865 70.1305 3.48683 70.5682 3.8834C72.1762 5.33957 74.8314 5.37613 76.5235 3.96581C77.0415 3.53206 77.4893 3.06299 78 2.62614" stroke="#294744" stroke-miterlimit="10"/>
</svg>
