<svg width="3" height="10" viewBox="0 0 3 10" fill="none" xmlns="http://www.w3.org/2000/svg">
<path d="M1.03711 0.544922H2.54297L2.42578 6.21094H1.1543L1.03711 0.544922ZM2.39062 8.87695C2.22656 9.03711 2.02539 9.11719 1.78711 9.11719C1.54883 9.11719 1.34766 9.03711 1.18359 8.87695C1.01953 8.71289 0.9375 8.51562 0.9375 8.28516C0.9375 8.05469 1.01953 7.85938 1.18359 7.69922C1.34766 7.53906 1.54883 7.45898 1.78711 7.45898C2.02539 7.45898 2.22656 7.53906 2.39062 7.69922C2.55859 7.85938 2.64258 8.05469 2.64258 8.28516C2.64258 8.51562 2.55859 8.71289 2.39062 8.87695Z" fill="white"/>
</svg>
