<svg xmlns="http://www.w3.org/2000/svg" width="182" height="182" viewBox="0 0 182 182">
  <g id="Сгруппировать_397" data-name="Сгруппировать 397" transform="translate(-155 -1804.774)">
    <circle id="Эллипс_1" data-name="Эллипс 1" cx="91" cy="91" r="91" transform="translate(155 1804.774)" fill="#ecefff"/>
    <g id="Сгруппировать_359" data-name="Сгруппировать 359" transform="translate(205.592 1856.023)">
      <path id="Контур_2655" data-name="Контур 2655" d="M612.821,436A40.451,40.451,0,0,0,572.4,472.577a1.477,1.477,0,0,0,.906,1.509,1.459,1.459,0,0,0,.565.114,1.48,1.48,0,0,0,1.145-.544,14,14,0,0,1,20.346-1.427l.018.012.009.012a4.672,4.672,0,0,1,.529.525,1.484,1.484,0,0,0,1.117.536,1.455,1.455,0,0,0,1.135-.505c3.164-3.616,8.5-5.775,14.285-5.775,6.2,0,11.912,2.511,14.9,6.554a1.483,1.483,0,0,0,1.157.6h.031a1.475,1.475,0,0,0,1.148-.548c.228-.281.454-.532.695-.785h0a14.016,14.016,0,0,1,20.207-.077,1.477,1.477,0,0,0,2.528-1.209A40.637,40.637,0,0,0,612.821,436Zm-36.846,32.726a37.465,37.465,0,0,1,29.153-28.995c-.039.041-.076.087-.114.129q-.357.372-.7.78c-.05.058-.1.111-.149.17-.276.332-.548.683-.817,1.046-.071.1-.142.2-.213.3-.2.279-.394.565-.588.86q-.124.191-.248.386-.295.468-.582.962c-.059.1-.12.2-.179.3q-.366.649-.718,1.34c-.052.1-.1.21-.152.313q-.275.552-.539,1.13c-.071.157-.142.315-.211.474q-.244.55-.476,1.122c-.061.146-.121.291-.18.439-.207.522-.408,1.054-.6,1.6-.03.083-.056.167-.084.25q-.248.707-.483,1.442c-.058.183-.114.369-.172.554q-.193.625-.374,1.266c-.053.188-.106.372-.158.562-.154.564-.3,1.136-.445,1.72-.01.044-.022.087-.032.132-.149.616-.288,1.247-.424,1.886-.043.205-.084.415-.126.622q-.14.687-.267,1.388c-.041.228-.083.455-.123.684q-.137.8-.26,1.611c-.022.149-.049.3-.069.446q-.148,1.015-.273,2.059c-.027.22-.049.442-.074.664-.056.5-.109,1-.158,1.515-.013.136-.03.269-.043.406a16.963,16.963,0,0,0-19.115.434Zm36.477-4.649a23.031,23.031,0,0,0-14.43,4.788c.015-.16.024-.324.038-.483.049-.517.106-1.026.164-1.534.062-.554.126-1.108.2-1.654.067-.5.142-.99.217-1.479.081-.536.166-1.068.257-1.593.083-.48.173-.953.266-1.423.1-.513.2-1.021.312-1.521.1-.458.2-.909.312-1.355.117-.489.238-.972.365-1.447q.171-.649.355-1.281c.133-.463.27-.915.412-1.361q.193-.612.4-1.2c.148-.433.3-.854.458-1.271.14-.378.284-.752.432-1.116.163-.4.331-.789.5-1.173.152-.346.306-.692.464-1.021.176-.369.359-.721.541-1.071.162-.312.325-.624.492-.919.191-.334.386-.647.581-.961.171-.275.341-.553.516-.81.2-.3.411-.57.619-.844.177-.235.352-.476.534-.693.216-.26.437-.489.659-.723.18-.191.358-.393.541-.567.232-.219.468-.4.7-.593.18-.146.359-.307.542-.436a8.645,8.645,0,0,1,.76-.455c.174-.1.344-.216.52-.3a6.546,6.546,0,0,1,.867-.31c.148-.047.294-.118.443-.154a5.648,5.648,0,0,1,2.617-.012l.068.012a6.8,6.8,0,0,1,1.212.418c.037.016.075.03.112.047a8.576,8.576,0,0,1,1.15.662c.047.033.094.061.14.093a11.023,11.023,0,0,1,1.1.89l.155.14a15.064,15.064,0,0,1,1.045,1.105c.052.061.1.121.157.185.34.406.672.845,1,1.311.05.072.1.146.152.22q.485.714.949,1.513c.047.081.093.164.14.248q.461.816.9,1.71c.041.084.083.173.123.259.293.612.576,1.246.85,1.909.034.083.068.168.1.251q.414,1.024.8,2.119c.024.068.046.137.068.205q.392,1.137.749,2.345c.012.041.024.084.035.124q.359,1.233.678,2.534l.021.08c.211.867.406,1.76.59,2.669.013.071.029.139.043.208.174.882.334,1.785.48,2.7.016.1.036.207.052.312q.208,1.35.375,2.746c.015.131.032.26.047.392q.16,1.381.273,2.8c.006.081.013.164.019.245A22.743,22.743,0,0,0,612.452,464.077Zm28.077,1.478a16.812,16.812,0,0,0-9.942,3.21c-.009-.106-.021-.208-.029-.313q-.08-.9-.174-1.785c-.015-.142-.028-.287-.044-.429-.081-.729-.173-1.448-.27-2.159-.022-.158-.047-.312-.069-.47q-.12-.829-.254-1.642c-.036-.211-.071-.42-.108-.629-.092-.522-.186-1.036-.287-1.546-.032-.165-.064-.334-.1-.5q-.2-1-.426-1.961c-.024-.1-.047-.188-.071-.284q-.193-.813-.4-1.6c-.049-.186-.1-.369-.151-.554-.124-.454-.254-.9-.386-1.342-.05-.165-.1-.333-.151-.5-.182-.588-.371-1.167-.566-1.73l-.006-.015c-.192-.554-.395-1.091-.6-1.62-.062-.158-.124-.313-.188-.47-.154-.383-.31-.76-.471-1.128-.068-.16-.137-.319-.207-.474q-.288-.638-.585-1.244c-.036-.071-.069-.146-.1-.216-.233-.468-.474-.919-.718-1.358-.071-.126-.143-.247-.214-.369q-.273-.474-.554-.925c-.084-.136-.17-.27-.256-.4-.2-.3-.4-.6-.6-.885-.068-.095-.133-.194-.2-.287q-.4-.548-.814-1.048c-.072-.087-.145-.167-.217-.251q-.317-.372-.643-.718c-.046-.049-.09-.1-.138-.152a37.718,37.718,0,0,1,28.937,28.355A16.846,16.846,0,0,0,640.529,465.555Z" transform="translate(-572.39 -424.178)" fill="#98a3e9"/>
      <path id="Контур_2656" data-name="Контур 2656" d="M600.478,436.866a1.477,1.477,0,0,0,1.478-1.478v-5.911a1.478,1.478,0,1,0-2.956,0v5.911A1.477,1.477,0,0,0,600.478,436.866Z" transform="translate(-559.678 -428)" fill="#98a3e9"/>
      <path id="Контур_2657" data-name="Контур 2657" d="M604.3,460a1.477,1.477,0,0,0-1.478,1.478v23.644a4.433,4.433,0,0,1-8.867,0v-2.955a1.478,1.478,0,1,0-2.956,0v2.955a7.389,7.389,0,0,0,14.777,0V461.478A1.477,1.477,0,0,0,604.3,460Z" transform="translate(-563.5 -412.712)" fill="#98a3e9"/>
    </g>
  </g>
</svg>
